M48
;DRILL file {KiCad (5.0.1)-4} date 29/08/2020 11:34:52 PM
;FORMAT={-:-/ absolute / inch / decimal}
FMAT,2
INCH,TZ
T1C0.0250
T2C0.0315
T3C0.0354
T4C0.0394
T5C0.0430
T6C0.0512
%
G90
G05
M72
T1
X6.1024Y-4.0748
T2
X5.9386Y-2.6827
X5.9386Y-2.7827
X5.9386Y-2.8827
X5.9386Y-2.9827
X5.9386Y-3.0827
X5.9386Y-3.1827
X5.9386Y-3.2827
X5.9386Y-3.3827
X5.9386Y-3.4827
X5.9386Y-3.5827
X5.9386Y-3.6827
X5.9386Y-3.7827
X5.9386Y-3.8827
X5.9386Y-3.9827
X6.7386Y-2.6827
X6.7386Y-2.7827
X6.7386Y-2.8827
X6.7386Y-2.9827
X6.7386Y-3.0827
X6.7386Y-3.1827
X6.7386Y-3.2827
X6.7386Y-3.3827
X6.7386Y-3.4827
X6.7386Y-3.5827
X6.7386Y-3.6827
X6.7386Y-3.7827
X6.7386Y-3.8827
X6.7386Y-3.9827
T3
X4.5647Y-4.8338
X4.6631Y-4.8338
X4.7419Y-4.8338
X4.8403Y-4.8338
T4
X4.5866Y-3.622
X4.5866Y-3.722
X4.5866Y-3.822
X4.0551Y-3.622
X4.0551Y-3.722
X4.0551Y-3.822
T5
X4.4291Y-1.9882
X4.626Y-1.9882
X4.8228Y-1.9882
X5.0197Y-1.9882
X5.2165Y-1.9882
X5.4134Y-1.9882
X5.6102Y-1.9882
X5.8071Y-1.9882
X6.0039Y-1.9882
X6.2008Y-1.9882
T6
X4.4439Y-4.8298G85X4.4439Y-4.7905
G05
X4.6828Y-4.6456G85X4.7222Y-4.6456
G05
X4.9612Y-4.7905G85X4.9612Y-4.8298
G05
T0
M30
