G04 #@! TF.GenerationSoftware,KiCad,Pcbnew,(5.0.1)-4*
G04 #@! TF.CreationDate,2020-08-30T22:44:20+08:00*
G04 #@! TF.ProjectId,remote-monitor,72656D6F74652D6D6F6E69746F722E6B,rev?*
G04 #@! TF.SameCoordinates,Original*
G04 #@! TF.FileFunction,Copper,L1,Top,Signal*
G04 #@! TF.FilePolarity,Positive*
%FSLAX46Y46*%
G04 Gerber Fmt 4.6, Leading zero omitted, Abs format (unit mm)*
G04 Created by KiCad (PCBNEW (5.0.1)-4) date 30/08/2020 10:44:20 PM*
%MOMM*%
%LPD*%
G01*
G04 APERTURE LIST*
G04 #@! TA.AperFunction,ComponentPad*
%ADD10R,2.032000X2.794000*%
G04 #@! TD*
G04 #@! TA.AperFunction,ComponentPad*
%ADD11O,2.032000X2.794000*%
G04 #@! TD*
G04 #@! TA.AperFunction,ComponentPad*
%ADD12C,1.600000*%
G04 #@! TD*
G04 #@! TA.AperFunction,ComponentPad*
%ADD13R,1.600000X1.600000*%
G04 #@! TD*
G04 #@! TA.AperFunction,SMDPad,CuDef*
%ADD14R,3.000000X1.600000*%
G04 #@! TD*
G04 #@! TA.AperFunction,Conductor*
%ADD15C,0.100000*%
G04 #@! TD*
G04 #@! TA.AperFunction,SMDPad,CuDef*
%ADD16C,1.250000*%
G04 #@! TD*
G04 #@! TA.AperFunction,SMDPad,CuDef*
%ADD17R,1.800000X2.500000*%
G04 #@! TD*
G04 #@! TA.AperFunction,SMDPad,CuDef*
%ADD18R,0.800000X0.900000*%
G04 #@! TD*
G04 #@! TA.AperFunction,ComponentPad*
%ADD19R,1.300000X1.300000*%
G04 #@! TD*
G04 #@! TA.AperFunction,ComponentPad*
%ADD20C,1.300000*%
G04 #@! TD*
G04 #@! TA.AperFunction,ComponentPad*
%ADD21O,1.900000X2.900000*%
G04 #@! TD*
G04 #@! TA.AperFunction,ComponentPad*
%ADD22O,2.900000X1.900000*%
G04 #@! TD*
G04 #@! TA.AperFunction,ComponentPad*
%ADD23R,1.800000X1.800000*%
G04 #@! TD*
G04 #@! TA.AperFunction,ComponentPad*
%ADD24C,1.800000*%
G04 #@! TD*
G04 #@! TA.AperFunction,SMDPad,CuDef*
%ADD25C,1.125000*%
G04 #@! TD*
G04 #@! TA.AperFunction,ViaPad*
%ADD26C,1.270000*%
G04 #@! TD*
G04 #@! TA.AperFunction,Conductor*
%ADD27C,0.635000*%
G04 #@! TD*
G04 #@! TA.AperFunction,Conductor*
%ADD28C,0.381000*%
G04 #@! TD*
G04 #@! TA.AperFunction,Conductor*
%ADD29C,1.016000*%
G04 #@! TD*
G04 #@! TA.AperFunction,Conductor*
%ADD30C,0.254000*%
G04 #@! TD*
G04 APERTURE END LIST*
D10*
G04 #@! TO.P,J1,1*
G04 #@! TO.N,Net-(F1-Pad2)*
X112500000Y-50500000D03*
D11*
G04 #@! TO.P,J1,2*
X117500000Y-50500000D03*
G04 #@! TO.P,J1,3*
X122500000Y-50500000D03*
G04 #@! TO.P,J1,4*
G04 #@! TO.N,GND*
X127500000Y-50500000D03*
G04 #@! TO.P,J1,5*
X132500000Y-50500000D03*
G04 #@! TO.P,J1,6*
X137500000Y-50500000D03*
G04 #@! TO.P,J1,7*
G04 #@! TO.N,Net-(J1-Pad7)*
X142500000Y-50500000D03*
G04 #@! TO.P,J1,8*
G04 #@! TO.N,Net-(J1-Pad8)*
X147500000Y-50500000D03*
G04 #@! TO.P,J1,9*
G04 #@! TO.N,Net-(J1-Pad9)*
X152500000Y-50500000D03*
G04 #@! TO.P,J1,10*
G04 #@! TO.N,/Radio_VOX*
X157500000Y-50500000D03*
G04 #@! TD*
D12*
G04 #@! TO.P,A1,28*
G04 #@! TO.N,+5V*
X147840000Y-101160000D03*
G04 #@! TO.P,A1,27*
G04 #@! TO.N,Net-(A1-Pad27)*
X147840000Y-98620000D03*
G04 #@! TO.P,A1,26*
G04 #@! TO.N,+3V3*
X147840000Y-96080000D03*
G04 #@! TO.P,A1,25*
G04 #@! TO.N,GND*
X147840000Y-93540000D03*
G04 #@! TO.P,A1,24*
G04 #@! TO.N,Net-(A1-Pad24)*
X147840000Y-91000000D03*
G04 #@! TO.P,A1,23*
G04 #@! TO.N,Net-(A1-Pad23)*
X147840000Y-88460000D03*
G04 #@! TO.P,A1,22*
G04 #@! TO.N,Net-(A1-Pad22)*
X147840000Y-85920000D03*
G04 #@! TO.P,A1,21*
G04 #@! TO.N,Net-(A1-Pad21)*
X147840000Y-83380000D03*
G04 #@! TO.P,A1,20*
G04 #@! TO.N,Net-(A1-Pad20)*
X147840000Y-80840000D03*
G04 #@! TO.P,A1,19*
G04 #@! TO.N,Net-(A1-Pad19)*
X147840000Y-78300000D03*
G04 #@! TO.P,A1,18*
G04 #@! TO.N,Net-(A1-Pad18)*
X147840000Y-75760000D03*
G04 #@! TO.P,A1,17*
G04 #@! TO.N,Net-(A1-Pad17)*
X147840000Y-73220000D03*
G04 #@! TO.P,A1,16*
G04 #@! TO.N,/Mains_Sensor*
X147840000Y-70680000D03*
G04 #@! TO.P,A1,15*
X147840000Y-68140000D03*
G04 #@! TO.P,A1,14*
G04 #@! TO.N,Net-(A1-Pad14)*
X168160000Y-68140000D03*
G04 #@! TO.P,A1,13*
G04 #@! TO.N,Net-(A1-Pad13)*
X168160000Y-70680000D03*
G04 #@! TO.P,A1,12*
G04 #@! TO.N,Net-(A1-Pad12)*
X168160000Y-73220000D03*
G04 #@! TO.P,A1,11*
G04 #@! TO.N,Net-(A1-Pad11)*
X168160000Y-75760000D03*
G04 #@! TO.P,A1,10*
G04 #@! TO.N,Net-(A1-Pad10)*
X168160000Y-78300000D03*
G04 #@! TO.P,A1,9*
G04 #@! TO.N,Net-(A1-Pad9)*
X168160000Y-80840000D03*
G04 #@! TO.P,A1,8*
G04 #@! TO.N,Net-(A1-Pad8)*
X168160000Y-83380000D03*
G04 #@! TO.P,A1,7*
G04 #@! TO.N,Net-(A1-Pad7)*
X168160000Y-85920000D03*
G04 #@! TO.P,A1,6*
G04 #@! TO.N,Net-(A1-Pad6)*
X168160000Y-88460000D03*
G04 #@! TO.P,A1,5*
G04 #@! TO.N,Net-(A1-Pad5)*
X168160000Y-91000000D03*
G04 #@! TO.P,A1,4*
G04 #@! TO.N,/Battery_Volts*
X168160000Y-93540000D03*
G04 #@! TO.P,A1,3*
G04 #@! TO.N,/Mains_Sensor*
X168160000Y-96080000D03*
G04 #@! TO.P,A1,2*
G04 #@! TO.N,Net-(A1-Pad2)*
X168160000Y-98620000D03*
D13*
G04 #@! TO.P,A1,1*
G04 #@! TO.N,Net-(A1-Pad1)*
X168160000Y-101160000D03*
G04 #@! TD*
D14*
G04 #@! TO.P,C1,1*
G04 #@! TO.N,Net-(C1-Pad1)*
X109800000Y-82000000D03*
G04 #@! TO.P,C1,2*
G04 #@! TO.N,GND*
X114200000Y-82000000D03*
G04 #@! TD*
D15*
G04 #@! TO.N,GND*
G04 #@! TO.C,C2*
G36*
X142149504Y-107376204D02*
X142173773Y-107379804D01*
X142197571Y-107385765D01*
X142220671Y-107394030D01*
X142242849Y-107404520D01*
X142263893Y-107417133D01*
X142283598Y-107431747D01*
X142301777Y-107448223D01*
X142318253Y-107466402D01*
X142332867Y-107486107D01*
X142345480Y-107507151D01*
X142355970Y-107529329D01*
X142364235Y-107552429D01*
X142370196Y-107576227D01*
X142373796Y-107600496D01*
X142375000Y-107625000D01*
X142375000Y-108375000D01*
X142373796Y-108399504D01*
X142370196Y-108423773D01*
X142364235Y-108447571D01*
X142355970Y-108470671D01*
X142345480Y-108492849D01*
X142332867Y-108513893D01*
X142318253Y-108533598D01*
X142301777Y-108551777D01*
X142283598Y-108568253D01*
X142263893Y-108582867D01*
X142242849Y-108595480D01*
X142220671Y-108605970D01*
X142197571Y-108614235D01*
X142173773Y-108620196D01*
X142149504Y-108623796D01*
X142125000Y-108625000D01*
X140875000Y-108625000D01*
X140850496Y-108623796D01*
X140826227Y-108620196D01*
X140802429Y-108614235D01*
X140779329Y-108605970D01*
X140757151Y-108595480D01*
X140736107Y-108582867D01*
X140716402Y-108568253D01*
X140698223Y-108551777D01*
X140681747Y-108533598D01*
X140667133Y-108513893D01*
X140654520Y-108492849D01*
X140644030Y-108470671D01*
X140635765Y-108447571D01*
X140629804Y-108423773D01*
X140626204Y-108399504D01*
X140625000Y-108375000D01*
X140625000Y-107625000D01*
X140626204Y-107600496D01*
X140629804Y-107576227D01*
X140635765Y-107552429D01*
X140644030Y-107529329D01*
X140654520Y-107507151D01*
X140667133Y-107486107D01*
X140681747Y-107466402D01*
X140698223Y-107448223D01*
X140716402Y-107431747D01*
X140736107Y-107417133D01*
X140757151Y-107404520D01*
X140779329Y-107394030D01*
X140802429Y-107385765D01*
X140826227Y-107379804D01*
X140850496Y-107376204D01*
X140875000Y-107375000D01*
X142125000Y-107375000D01*
X142149504Y-107376204D01*
X142149504Y-107376204D01*
G37*
D16*
G04 #@! TD*
G04 #@! TO.P,C2,2*
G04 #@! TO.N,GND*
X141500000Y-108000000D03*
D15*
G04 #@! TO.N,/Battery_Volts*
G04 #@! TO.C,C2*
G36*
X142149504Y-104576204D02*
X142173773Y-104579804D01*
X142197571Y-104585765D01*
X142220671Y-104594030D01*
X142242849Y-104604520D01*
X142263893Y-104617133D01*
X142283598Y-104631747D01*
X142301777Y-104648223D01*
X142318253Y-104666402D01*
X142332867Y-104686107D01*
X142345480Y-104707151D01*
X142355970Y-104729329D01*
X142364235Y-104752429D01*
X142370196Y-104776227D01*
X142373796Y-104800496D01*
X142375000Y-104825000D01*
X142375000Y-105575000D01*
X142373796Y-105599504D01*
X142370196Y-105623773D01*
X142364235Y-105647571D01*
X142355970Y-105670671D01*
X142345480Y-105692849D01*
X142332867Y-105713893D01*
X142318253Y-105733598D01*
X142301777Y-105751777D01*
X142283598Y-105768253D01*
X142263893Y-105782867D01*
X142242849Y-105795480D01*
X142220671Y-105805970D01*
X142197571Y-105814235D01*
X142173773Y-105820196D01*
X142149504Y-105823796D01*
X142125000Y-105825000D01*
X140875000Y-105825000D01*
X140850496Y-105823796D01*
X140826227Y-105820196D01*
X140802429Y-105814235D01*
X140779329Y-105805970D01*
X140757151Y-105795480D01*
X140736107Y-105782867D01*
X140716402Y-105768253D01*
X140698223Y-105751777D01*
X140681747Y-105733598D01*
X140667133Y-105713893D01*
X140654520Y-105692849D01*
X140644030Y-105670671D01*
X140635765Y-105647571D01*
X140629804Y-105623773D01*
X140626204Y-105599504D01*
X140625000Y-105575000D01*
X140625000Y-104825000D01*
X140626204Y-104800496D01*
X140629804Y-104776227D01*
X140635765Y-104752429D01*
X140644030Y-104729329D01*
X140654520Y-104707151D01*
X140667133Y-104686107D01*
X140681747Y-104666402D01*
X140698223Y-104648223D01*
X140716402Y-104631747D01*
X140736107Y-104617133D01*
X140757151Y-104604520D01*
X140779329Y-104594030D01*
X140802429Y-104585765D01*
X140826227Y-104579804D01*
X140850496Y-104576204D01*
X140875000Y-104575000D01*
X142125000Y-104575000D01*
X142149504Y-104576204D01*
X142149504Y-104576204D01*
G37*
D16*
G04 #@! TD*
G04 #@! TO.P,C2,1*
G04 #@! TO.N,/Battery_Volts*
X141500000Y-105200000D03*
D15*
G04 #@! TO.N,GND*
G04 #@! TO.C,C3*
G36*
X142149504Y-66976204D02*
X142173773Y-66979804D01*
X142197571Y-66985765D01*
X142220671Y-66994030D01*
X142242849Y-67004520D01*
X142263893Y-67017133D01*
X142283598Y-67031747D01*
X142301777Y-67048223D01*
X142318253Y-67066402D01*
X142332867Y-67086107D01*
X142345480Y-67107151D01*
X142355970Y-67129329D01*
X142364235Y-67152429D01*
X142370196Y-67176227D01*
X142373796Y-67200496D01*
X142375000Y-67225000D01*
X142375000Y-67975000D01*
X142373796Y-67999504D01*
X142370196Y-68023773D01*
X142364235Y-68047571D01*
X142355970Y-68070671D01*
X142345480Y-68092849D01*
X142332867Y-68113893D01*
X142318253Y-68133598D01*
X142301777Y-68151777D01*
X142283598Y-68168253D01*
X142263893Y-68182867D01*
X142242849Y-68195480D01*
X142220671Y-68205970D01*
X142197571Y-68214235D01*
X142173773Y-68220196D01*
X142149504Y-68223796D01*
X142125000Y-68225000D01*
X140875000Y-68225000D01*
X140850496Y-68223796D01*
X140826227Y-68220196D01*
X140802429Y-68214235D01*
X140779329Y-68205970D01*
X140757151Y-68195480D01*
X140736107Y-68182867D01*
X140716402Y-68168253D01*
X140698223Y-68151777D01*
X140681747Y-68133598D01*
X140667133Y-68113893D01*
X140654520Y-68092849D01*
X140644030Y-68070671D01*
X140635765Y-68047571D01*
X140629804Y-68023773D01*
X140626204Y-67999504D01*
X140625000Y-67975000D01*
X140625000Y-67225000D01*
X140626204Y-67200496D01*
X140629804Y-67176227D01*
X140635765Y-67152429D01*
X140644030Y-67129329D01*
X140654520Y-67107151D01*
X140667133Y-67086107D01*
X140681747Y-67066402D01*
X140698223Y-67048223D01*
X140716402Y-67031747D01*
X140736107Y-67017133D01*
X140757151Y-67004520D01*
X140779329Y-66994030D01*
X140802429Y-66985765D01*
X140826227Y-66979804D01*
X140850496Y-66976204D01*
X140875000Y-66975000D01*
X142125000Y-66975000D01*
X142149504Y-66976204D01*
X142149504Y-66976204D01*
G37*
D16*
G04 #@! TD*
G04 #@! TO.P,C3,2*
G04 #@! TO.N,GND*
X141500000Y-67600000D03*
D15*
G04 #@! TO.N,/Mains_Sensor*
G04 #@! TO.C,C3*
G36*
X142149504Y-69776204D02*
X142173773Y-69779804D01*
X142197571Y-69785765D01*
X142220671Y-69794030D01*
X142242849Y-69804520D01*
X142263893Y-69817133D01*
X142283598Y-69831747D01*
X142301777Y-69848223D01*
X142318253Y-69866402D01*
X142332867Y-69886107D01*
X142345480Y-69907151D01*
X142355970Y-69929329D01*
X142364235Y-69952429D01*
X142370196Y-69976227D01*
X142373796Y-70000496D01*
X142375000Y-70025000D01*
X142375000Y-70775000D01*
X142373796Y-70799504D01*
X142370196Y-70823773D01*
X142364235Y-70847571D01*
X142355970Y-70870671D01*
X142345480Y-70892849D01*
X142332867Y-70913893D01*
X142318253Y-70933598D01*
X142301777Y-70951777D01*
X142283598Y-70968253D01*
X142263893Y-70982867D01*
X142242849Y-70995480D01*
X142220671Y-71005970D01*
X142197571Y-71014235D01*
X142173773Y-71020196D01*
X142149504Y-71023796D01*
X142125000Y-71025000D01*
X140875000Y-71025000D01*
X140850496Y-71023796D01*
X140826227Y-71020196D01*
X140802429Y-71014235D01*
X140779329Y-71005970D01*
X140757151Y-70995480D01*
X140736107Y-70982867D01*
X140716402Y-70968253D01*
X140698223Y-70951777D01*
X140681747Y-70933598D01*
X140667133Y-70913893D01*
X140654520Y-70892849D01*
X140644030Y-70870671D01*
X140635765Y-70847571D01*
X140629804Y-70823773D01*
X140626204Y-70799504D01*
X140625000Y-70775000D01*
X140625000Y-70025000D01*
X140626204Y-70000496D01*
X140629804Y-69976227D01*
X140635765Y-69952429D01*
X140644030Y-69929329D01*
X140654520Y-69907151D01*
X140667133Y-69886107D01*
X140681747Y-69866402D01*
X140698223Y-69848223D01*
X140716402Y-69831747D01*
X140736107Y-69817133D01*
X140757151Y-69804520D01*
X140779329Y-69794030D01*
X140802429Y-69785765D01*
X140826227Y-69779804D01*
X140850496Y-69776204D01*
X140875000Y-69775000D01*
X142125000Y-69775000D01*
X142149504Y-69776204D01*
X142149504Y-69776204D01*
G37*
D16*
G04 #@! TD*
G04 #@! TO.P,C3,1*
G04 #@! TO.N,/Mains_Sensor*
X141500000Y-70400000D03*
D15*
G04 #@! TO.N,Net-(C1-Pad1)*
G04 #@! TO.C,C4*
G36*
X111499504Y-76626204D02*
X111523773Y-76629804D01*
X111547571Y-76635765D01*
X111570671Y-76644030D01*
X111592849Y-76654520D01*
X111613893Y-76667133D01*
X111633598Y-76681747D01*
X111651777Y-76698223D01*
X111668253Y-76716402D01*
X111682867Y-76736107D01*
X111695480Y-76757151D01*
X111705970Y-76779329D01*
X111714235Y-76802429D01*
X111720196Y-76826227D01*
X111723796Y-76850496D01*
X111725000Y-76875000D01*
X111725000Y-78125000D01*
X111723796Y-78149504D01*
X111720196Y-78173773D01*
X111714235Y-78197571D01*
X111705970Y-78220671D01*
X111695480Y-78242849D01*
X111682867Y-78263893D01*
X111668253Y-78283598D01*
X111651777Y-78301777D01*
X111633598Y-78318253D01*
X111613893Y-78332867D01*
X111592849Y-78345480D01*
X111570671Y-78355970D01*
X111547571Y-78364235D01*
X111523773Y-78370196D01*
X111499504Y-78373796D01*
X111475000Y-78375000D01*
X110725000Y-78375000D01*
X110700496Y-78373796D01*
X110676227Y-78370196D01*
X110652429Y-78364235D01*
X110629329Y-78355970D01*
X110607151Y-78345480D01*
X110586107Y-78332867D01*
X110566402Y-78318253D01*
X110548223Y-78301777D01*
X110531747Y-78283598D01*
X110517133Y-78263893D01*
X110504520Y-78242849D01*
X110494030Y-78220671D01*
X110485765Y-78197571D01*
X110479804Y-78173773D01*
X110476204Y-78149504D01*
X110475000Y-78125000D01*
X110475000Y-76875000D01*
X110476204Y-76850496D01*
X110479804Y-76826227D01*
X110485765Y-76802429D01*
X110494030Y-76779329D01*
X110504520Y-76757151D01*
X110517133Y-76736107D01*
X110531747Y-76716402D01*
X110548223Y-76698223D01*
X110566402Y-76681747D01*
X110586107Y-76667133D01*
X110607151Y-76654520D01*
X110629329Y-76644030D01*
X110652429Y-76635765D01*
X110676227Y-76629804D01*
X110700496Y-76626204D01*
X110725000Y-76625000D01*
X111475000Y-76625000D01*
X111499504Y-76626204D01*
X111499504Y-76626204D01*
G37*
D16*
G04 #@! TD*
G04 #@! TO.P,C4,1*
G04 #@! TO.N,Net-(C1-Pad1)*
X111100000Y-77500000D03*
D15*
G04 #@! TO.N,GND*
G04 #@! TO.C,C4*
G36*
X114299504Y-76626204D02*
X114323773Y-76629804D01*
X114347571Y-76635765D01*
X114370671Y-76644030D01*
X114392849Y-76654520D01*
X114413893Y-76667133D01*
X114433598Y-76681747D01*
X114451777Y-76698223D01*
X114468253Y-76716402D01*
X114482867Y-76736107D01*
X114495480Y-76757151D01*
X114505970Y-76779329D01*
X114514235Y-76802429D01*
X114520196Y-76826227D01*
X114523796Y-76850496D01*
X114525000Y-76875000D01*
X114525000Y-78125000D01*
X114523796Y-78149504D01*
X114520196Y-78173773D01*
X114514235Y-78197571D01*
X114505970Y-78220671D01*
X114495480Y-78242849D01*
X114482867Y-78263893D01*
X114468253Y-78283598D01*
X114451777Y-78301777D01*
X114433598Y-78318253D01*
X114413893Y-78332867D01*
X114392849Y-78345480D01*
X114370671Y-78355970D01*
X114347571Y-78364235D01*
X114323773Y-78370196D01*
X114299504Y-78373796D01*
X114275000Y-78375000D01*
X113525000Y-78375000D01*
X113500496Y-78373796D01*
X113476227Y-78370196D01*
X113452429Y-78364235D01*
X113429329Y-78355970D01*
X113407151Y-78345480D01*
X113386107Y-78332867D01*
X113366402Y-78318253D01*
X113348223Y-78301777D01*
X113331747Y-78283598D01*
X113317133Y-78263893D01*
X113304520Y-78242849D01*
X113294030Y-78220671D01*
X113285765Y-78197571D01*
X113279804Y-78173773D01*
X113276204Y-78149504D01*
X113275000Y-78125000D01*
X113275000Y-76875000D01*
X113276204Y-76850496D01*
X113279804Y-76826227D01*
X113285765Y-76802429D01*
X113294030Y-76779329D01*
X113304520Y-76757151D01*
X113317133Y-76736107D01*
X113331747Y-76716402D01*
X113348223Y-76698223D01*
X113366402Y-76681747D01*
X113386107Y-76667133D01*
X113407151Y-76654520D01*
X113429329Y-76644030D01*
X113452429Y-76635765D01*
X113476227Y-76629804D01*
X113500496Y-76626204D01*
X113525000Y-76625000D01*
X114275000Y-76625000D01*
X114299504Y-76626204D01*
X114299504Y-76626204D01*
G37*
D16*
G04 #@! TD*
G04 #@! TO.P,C4,2*
G04 #@! TO.N,GND*
X113900000Y-77500000D03*
D15*
G04 #@! TO.N,Net-(C1-Pad1)*
G04 #@! TO.C,C5*
G36*
X102149504Y-89476204D02*
X102173773Y-89479804D01*
X102197571Y-89485765D01*
X102220671Y-89494030D01*
X102242849Y-89504520D01*
X102263893Y-89517133D01*
X102283598Y-89531747D01*
X102301777Y-89548223D01*
X102318253Y-89566402D01*
X102332867Y-89586107D01*
X102345480Y-89607151D01*
X102355970Y-89629329D01*
X102364235Y-89652429D01*
X102370196Y-89676227D01*
X102373796Y-89700496D01*
X102375000Y-89725000D01*
X102375000Y-90475000D01*
X102373796Y-90499504D01*
X102370196Y-90523773D01*
X102364235Y-90547571D01*
X102355970Y-90570671D01*
X102345480Y-90592849D01*
X102332867Y-90613893D01*
X102318253Y-90633598D01*
X102301777Y-90651777D01*
X102283598Y-90668253D01*
X102263893Y-90682867D01*
X102242849Y-90695480D01*
X102220671Y-90705970D01*
X102197571Y-90714235D01*
X102173773Y-90720196D01*
X102149504Y-90723796D01*
X102125000Y-90725000D01*
X100875000Y-90725000D01*
X100850496Y-90723796D01*
X100826227Y-90720196D01*
X100802429Y-90714235D01*
X100779329Y-90705970D01*
X100757151Y-90695480D01*
X100736107Y-90682867D01*
X100716402Y-90668253D01*
X100698223Y-90651777D01*
X100681747Y-90633598D01*
X100667133Y-90613893D01*
X100654520Y-90592849D01*
X100644030Y-90570671D01*
X100635765Y-90547571D01*
X100629804Y-90523773D01*
X100626204Y-90499504D01*
X100625000Y-90475000D01*
X100625000Y-89725000D01*
X100626204Y-89700496D01*
X100629804Y-89676227D01*
X100635765Y-89652429D01*
X100644030Y-89629329D01*
X100654520Y-89607151D01*
X100667133Y-89586107D01*
X100681747Y-89566402D01*
X100698223Y-89548223D01*
X100716402Y-89531747D01*
X100736107Y-89517133D01*
X100757151Y-89504520D01*
X100779329Y-89494030D01*
X100802429Y-89485765D01*
X100826227Y-89479804D01*
X100850496Y-89476204D01*
X100875000Y-89475000D01*
X102125000Y-89475000D01*
X102149504Y-89476204D01*
X102149504Y-89476204D01*
G37*
D16*
G04 #@! TD*
G04 #@! TO.P,C5,1*
G04 #@! TO.N,Net-(C1-Pad1)*
X101500000Y-90100000D03*
D15*
G04 #@! TO.N,GND*
G04 #@! TO.C,C5*
G36*
X102149504Y-92276204D02*
X102173773Y-92279804D01*
X102197571Y-92285765D01*
X102220671Y-92294030D01*
X102242849Y-92304520D01*
X102263893Y-92317133D01*
X102283598Y-92331747D01*
X102301777Y-92348223D01*
X102318253Y-92366402D01*
X102332867Y-92386107D01*
X102345480Y-92407151D01*
X102355970Y-92429329D01*
X102364235Y-92452429D01*
X102370196Y-92476227D01*
X102373796Y-92500496D01*
X102375000Y-92525000D01*
X102375000Y-93275000D01*
X102373796Y-93299504D01*
X102370196Y-93323773D01*
X102364235Y-93347571D01*
X102355970Y-93370671D01*
X102345480Y-93392849D01*
X102332867Y-93413893D01*
X102318253Y-93433598D01*
X102301777Y-93451777D01*
X102283598Y-93468253D01*
X102263893Y-93482867D01*
X102242849Y-93495480D01*
X102220671Y-93505970D01*
X102197571Y-93514235D01*
X102173773Y-93520196D01*
X102149504Y-93523796D01*
X102125000Y-93525000D01*
X100875000Y-93525000D01*
X100850496Y-93523796D01*
X100826227Y-93520196D01*
X100802429Y-93514235D01*
X100779329Y-93505970D01*
X100757151Y-93495480D01*
X100736107Y-93482867D01*
X100716402Y-93468253D01*
X100698223Y-93451777D01*
X100681747Y-93433598D01*
X100667133Y-93413893D01*
X100654520Y-93392849D01*
X100644030Y-93370671D01*
X100635765Y-93347571D01*
X100629804Y-93323773D01*
X100626204Y-93299504D01*
X100625000Y-93275000D01*
X100625000Y-92525000D01*
X100626204Y-92500496D01*
X100629804Y-92476227D01*
X100635765Y-92452429D01*
X100644030Y-92429329D01*
X100654520Y-92407151D01*
X100667133Y-92386107D01*
X100681747Y-92366402D01*
X100698223Y-92348223D01*
X100716402Y-92331747D01*
X100736107Y-92317133D01*
X100757151Y-92304520D01*
X100779329Y-92294030D01*
X100802429Y-92285765D01*
X100826227Y-92279804D01*
X100850496Y-92276204D01*
X100875000Y-92275000D01*
X102125000Y-92275000D01*
X102149504Y-92276204D01*
X102149504Y-92276204D01*
G37*
D16*
G04 #@! TD*
G04 #@! TO.P,C5,2*
G04 #@! TO.N,GND*
X101500000Y-92900000D03*
D15*
G04 #@! TO.N,GND*
G04 #@! TO.C,C6*
G36*
X115649504Y-92276204D02*
X115673773Y-92279804D01*
X115697571Y-92285765D01*
X115720671Y-92294030D01*
X115742849Y-92304520D01*
X115763893Y-92317133D01*
X115783598Y-92331747D01*
X115801777Y-92348223D01*
X115818253Y-92366402D01*
X115832867Y-92386107D01*
X115845480Y-92407151D01*
X115855970Y-92429329D01*
X115864235Y-92452429D01*
X115870196Y-92476227D01*
X115873796Y-92500496D01*
X115875000Y-92525000D01*
X115875000Y-93275000D01*
X115873796Y-93299504D01*
X115870196Y-93323773D01*
X115864235Y-93347571D01*
X115855970Y-93370671D01*
X115845480Y-93392849D01*
X115832867Y-93413893D01*
X115818253Y-93433598D01*
X115801777Y-93451777D01*
X115783598Y-93468253D01*
X115763893Y-93482867D01*
X115742849Y-93495480D01*
X115720671Y-93505970D01*
X115697571Y-93514235D01*
X115673773Y-93520196D01*
X115649504Y-93523796D01*
X115625000Y-93525000D01*
X114375000Y-93525000D01*
X114350496Y-93523796D01*
X114326227Y-93520196D01*
X114302429Y-93514235D01*
X114279329Y-93505970D01*
X114257151Y-93495480D01*
X114236107Y-93482867D01*
X114216402Y-93468253D01*
X114198223Y-93451777D01*
X114181747Y-93433598D01*
X114167133Y-93413893D01*
X114154520Y-93392849D01*
X114144030Y-93370671D01*
X114135765Y-93347571D01*
X114129804Y-93323773D01*
X114126204Y-93299504D01*
X114125000Y-93275000D01*
X114125000Y-92525000D01*
X114126204Y-92500496D01*
X114129804Y-92476227D01*
X114135765Y-92452429D01*
X114144030Y-92429329D01*
X114154520Y-92407151D01*
X114167133Y-92386107D01*
X114181747Y-92366402D01*
X114198223Y-92348223D01*
X114216402Y-92331747D01*
X114236107Y-92317133D01*
X114257151Y-92304520D01*
X114279329Y-92294030D01*
X114302429Y-92285765D01*
X114326227Y-92279804D01*
X114350496Y-92276204D01*
X114375000Y-92275000D01*
X115625000Y-92275000D01*
X115649504Y-92276204D01*
X115649504Y-92276204D01*
G37*
D16*
G04 #@! TD*
G04 #@! TO.P,C6,2*
G04 #@! TO.N,GND*
X115000000Y-92900000D03*
D15*
G04 #@! TO.N,Net-(C1-Pad1)*
G04 #@! TO.C,C6*
G36*
X115649504Y-89476204D02*
X115673773Y-89479804D01*
X115697571Y-89485765D01*
X115720671Y-89494030D01*
X115742849Y-89504520D01*
X115763893Y-89517133D01*
X115783598Y-89531747D01*
X115801777Y-89548223D01*
X115818253Y-89566402D01*
X115832867Y-89586107D01*
X115845480Y-89607151D01*
X115855970Y-89629329D01*
X115864235Y-89652429D01*
X115870196Y-89676227D01*
X115873796Y-89700496D01*
X115875000Y-89725000D01*
X115875000Y-90475000D01*
X115873796Y-90499504D01*
X115870196Y-90523773D01*
X115864235Y-90547571D01*
X115855970Y-90570671D01*
X115845480Y-90592849D01*
X115832867Y-90613893D01*
X115818253Y-90633598D01*
X115801777Y-90651777D01*
X115783598Y-90668253D01*
X115763893Y-90682867D01*
X115742849Y-90695480D01*
X115720671Y-90705970D01*
X115697571Y-90714235D01*
X115673773Y-90720196D01*
X115649504Y-90723796D01*
X115625000Y-90725000D01*
X114375000Y-90725000D01*
X114350496Y-90723796D01*
X114326227Y-90720196D01*
X114302429Y-90714235D01*
X114279329Y-90705970D01*
X114257151Y-90695480D01*
X114236107Y-90682867D01*
X114216402Y-90668253D01*
X114198223Y-90651777D01*
X114181747Y-90633598D01*
X114167133Y-90613893D01*
X114154520Y-90592849D01*
X114144030Y-90570671D01*
X114135765Y-90547571D01*
X114129804Y-90523773D01*
X114126204Y-90499504D01*
X114125000Y-90475000D01*
X114125000Y-89725000D01*
X114126204Y-89700496D01*
X114129804Y-89676227D01*
X114135765Y-89652429D01*
X114144030Y-89629329D01*
X114154520Y-89607151D01*
X114167133Y-89586107D01*
X114181747Y-89566402D01*
X114198223Y-89548223D01*
X114216402Y-89531747D01*
X114236107Y-89517133D01*
X114257151Y-89504520D01*
X114279329Y-89494030D01*
X114302429Y-89485765D01*
X114326227Y-89479804D01*
X114350496Y-89476204D01*
X114375000Y-89475000D01*
X115625000Y-89475000D01*
X115649504Y-89476204D01*
X115649504Y-89476204D01*
G37*
D16*
G04 #@! TD*
G04 #@! TO.P,C6,1*
G04 #@! TO.N,Net-(C1-Pad1)*
X115000000Y-90100000D03*
D15*
G04 #@! TO.N,Net-(C7-Pad1)*
G04 #@! TO.C,C7*
G36*
X102149504Y-98276204D02*
X102173773Y-98279804D01*
X102197571Y-98285765D01*
X102220671Y-98294030D01*
X102242849Y-98304520D01*
X102263893Y-98317133D01*
X102283598Y-98331747D01*
X102301777Y-98348223D01*
X102318253Y-98366402D01*
X102332867Y-98386107D01*
X102345480Y-98407151D01*
X102355970Y-98429329D01*
X102364235Y-98452429D01*
X102370196Y-98476227D01*
X102373796Y-98500496D01*
X102375000Y-98525000D01*
X102375000Y-99275000D01*
X102373796Y-99299504D01*
X102370196Y-99323773D01*
X102364235Y-99347571D01*
X102355970Y-99370671D01*
X102345480Y-99392849D01*
X102332867Y-99413893D01*
X102318253Y-99433598D01*
X102301777Y-99451777D01*
X102283598Y-99468253D01*
X102263893Y-99482867D01*
X102242849Y-99495480D01*
X102220671Y-99505970D01*
X102197571Y-99514235D01*
X102173773Y-99520196D01*
X102149504Y-99523796D01*
X102125000Y-99525000D01*
X100875000Y-99525000D01*
X100850496Y-99523796D01*
X100826227Y-99520196D01*
X100802429Y-99514235D01*
X100779329Y-99505970D01*
X100757151Y-99495480D01*
X100736107Y-99482867D01*
X100716402Y-99468253D01*
X100698223Y-99451777D01*
X100681747Y-99433598D01*
X100667133Y-99413893D01*
X100654520Y-99392849D01*
X100644030Y-99370671D01*
X100635765Y-99347571D01*
X100629804Y-99323773D01*
X100626204Y-99299504D01*
X100625000Y-99275000D01*
X100625000Y-98525000D01*
X100626204Y-98500496D01*
X100629804Y-98476227D01*
X100635765Y-98452429D01*
X100644030Y-98429329D01*
X100654520Y-98407151D01*
X100667133Y-98386107D01*
X100681747Y-98366402D01*
X100698223Y-98348223D01*
X100716402Y-98331747D01*
X100736107Y-98317133D01*
X100757151Y-98304520D01*
X100779329Y-98294030D01*
X100802429Y-98285765D01*
X100826227Y-98279804D01*
X100850496Y-98276204D01*
X100875000Y-98275000D01*
X102125000Y-98275000D01*
X102149504Y-98276204D01*
X102149504Y-98276204D01*
G37*
D16*
G04 #@! TD*
G04 #@! TO.P,C7,1*
G04 #@! TO.N,Net-(C7-Pad1)*
X101500000Y-98900000D03*
D15*
G04 #@! TO.N,GND*
G04 #@! TO.C,C7*
G36*
X102149504Y-95476204D02*
X102173773Y-95479804D01*
X102197571Y-95485765D01*
X102220671Y-95494030D01*
X102242849Y-95504520D01*
X102263893Y-95517133D01*
X102283598Y-95531747D01*
X102301777Y-95548223D01*
X102318253Y-95566402D01*
X102332867Y-95586107D01*
X102345480Y-95607151D01*
X102355970Y-95629329D01*
X102364235Y-95652429D01*
X102370196Y-95676227D01*
X102373796Y-95700496D01*
X102375000Y-95725000D01*
X102375000Y-96475000D01*
X102373796Y-96499504D01*
X102370196Y-96523773D01*
X102364235Y-96547571D01*
X102355970Y-96570671D01*
X102345480Y-96592849D01*
X102332867Y-96613893D01*
X102318253Y-96633598D01*
X102301777Y-96651777D01*
X102283598Y-96668253D01*
X102263893Y-96682867D01*
X102242849Y-96695480D01*
X102220671Y-96705970D01*
X102197571Y-96714235D01*
X102173773Y-96720196D01*
X102149504Y-96723796D01*
X102125000Y-96725000D01*
X100875000Y-96725000D01*
X100850496Y-96723796D01*
X100826227Y-96720196D01*
X100802429Y-96714235D01*
X100779329Y-96705970D01*
X100757151Y-96695480D01*
X100736107Y-96682867D01*
X100716402Y-96668253D01*
X100698223Y-96651777D01*
X100681747Y-96633598D01*
X100667133Y-96613893D01*
X100654520Y-96592849D01*
X100644030Y-96570671D01*
X100635765Y-96547571D01*
X100629804Y-96523773D01*
X100626204Y-96499504D01*
X100625000Y-96475000D01*
X100625000Y-95725000D01*
X100626204Y-95700496D01*
X100629804Y-95676227D01*
X100635765Y-95652429D01*
X100644030Y-95629329D01*
X100654520Y-95607151D01*
X100667133Y-95586107D01*
X100681747Y-95566402D01*
X100698223Y-95548223D01*
X100716402Y-95531747D01*
X100736107Y-95517133D01*
X100757151Y-95504520D01*
X100779329Y-95494030D01*
X100802429Y-95485765D01*
X100826227Y-95479804D01*
X100850496Y-95476204D01*
X100875000Y-95475000D01*
X102125000Y-95475000D01*
X102149504Y-95476204D01*
X102149504Y-95476204D01*
G37*
D16*
G04 #@! TD*
G04 #@! TO.P,C7,2*
G04 #@! TO.N,GND*
X101500000Y-96100000D03*
D15*
G04 #@! TO.N,+5V*
G04 #@! TO.C,C8*
G36*
X115649504Y-98276204D02*
X115673773Y-98279804D01*
X115697571Y-98285765D01*
X115720671Y-98294030D01*
X115742849Y-98304520D01*
X115763893Y-98317133D01*
X115783598Y-98331747D01*
X115801777Y-98348223D01*
X115818253Y-98366402D01*
X115832867Y-98386107D01*
X115845480Y-98407151D01*
X115855970Y-98429329D01*
X115864235Y-98452429D01*
X115870196Y-98476227D01*
X115873796Y-98500496D01*
X115875000Y-98525000D01*
X115875000Y-99275000D01*
X115873796Y-99299504D01*
X115870196Y-99323773D01*
X115864235Y-99347571D01*
X115855970Y-99370671D01*
X115845480Y-99392849D01*
X115832867Y-99413893D01*
X115818253Y-99433598D01*
X115801777Y-99451777D01*
X115783598Y-99468253D01*
X115763893Y-99482867D01*
X115742849Y-99495480D01*
X115720671Y-99505970D01*
X115697571Y-99514235D01*
X115673773Y-99520196D01*
X115649504Y-99523796D01*
X115625000Y-99525000D01*
X114375000Y-99525000D01*
X114350496Y-99523796D01*
X114326227Y-99520196D01*
X114302429Y-99514235D01*
X114279329Y-99505970D01*
X114257151Y-99495480D01*
X114236107Y-99482867D01*
X114216402Y-99468253D01*
X114198223Y-99451777D01*
X114181747Y-99433598D01*
X114167133Y-99413893D01*
X114154520Y-99392849D01*
X114144030Y-99370671D01*
X114135765Y-99347571D01*
X114129804Y-99323773D01*
X114126204Y-99299504D01*
X114125000Y-99275000D01*
X114125000Y-98525000D01*
X114126204Y-98500496D01*
X114129804Y-98476227D01*
X114135765Y-98452429D01*
X114144030Y-98429329D01*
X114154520Y-98407151D01*
X114167133Y-98386107D01*
X114181747Y-98366402D01*
X114198223Y-98348223D01*
X114216402Y-98331747D01*
X114236107Y-98317133D01*
X114257151Y-98304520D01*
X114279329Y-98294030D01*
X114302429Y-98285765D01*
X114326227Y-98279804D01*
X114350496Y-98276204D01*
X114375000Y-98275000D01*
X115625000Y-98275000D01*
X115649504Y-98276204D01*
X115649504Y-98276204D01*
G37*
D16*
G04 #@! TD*
G04 #@! TO.P,C8,1*
G04 #@! TO.N,+5V*
X115000000Y-98900000D03*
D15*
G04 #@! TO.N,GND*
G04 #@! TO.C,C8*
G36*
X115649504Y-95476204D02*
X115673773Y-95479804D01*
X115697571Y-95485765D01*
X115720671Y-95494030D01*
X115742849Y-95504520D01*
X115763893Y-95517133D01*
X115783598Y-95531747D01*
X115801777Y-95548223D01*
X115818253Y-95566402D01*
X115832867Y-95586107D01*
X115845480Y-95607151D01*
X115855970Y-95629329D01*
X115864235Y-95652429D01*
X115870196Y-95676227D01*
X115873796Y-95700496D01*
X115875000Y-95725000D01*
X115875000Y-96475000D01*
X115873796Y-96499504D01*
X115870196Y-96523773D01*
X115864235Y-96547571D01*
X115855970Y-96570671D01*
X115845480Y-96592849D01*
X115832867Y-96613893D01*
X115818253Y-96633598D01*
X115801777Y-96651777D01*
X115783598Y-96668253D01*
X115763893Y-96682867D01*
X115742849Y-96695480D01*
X115720671Y-96705970D01*
X115697571Y-96714235D01*
X115673773Y-96720196D01*
X115649504Y-96723796D01*
X115625000Y-96725000D01*
X114375000Y-96725000D01*
X114350496Y-96723796D01*
X114326227Y-96720196D01*
X114302429Y-96714235D01*
X114279329Y-96705970D01*
X114257151Y-96695480D01*
X114236107Y-96682867D01*
X114216402Y-96668253D01*
X114198223Y-96651777D01*
X114181747Y-96633598D01*
X114167133Y-96613893D01*
X114154520Y-96592849D01*
X114144030Y-96570671D01*
X114135765Y-96547571D01*
X114129804Y-96523773D01*
X114126204Y-96499504D01*
X114125000Y-96475000D01*
X114125000Y-95725000D01*
X114126204Y-95700496D01*
X114129804Y-95676227D01*
X114135765Y-95652429D01*
X114144030Y-95629329D01*
X114154520Y-95607151D01*
X114167133Y-95586107D01*
X114181747Y-95566402D01*
X114198223Y-95548223D01*
X114216402Y-95531747D01*
X114236107Y-95517133D01*
X114257151Y-95504520D01*
X114279329Y-95494030D01*
X114302429Y-95485765D01*
X114326227Y-95479804D01*
X114350496Y-95476204D01*
X114375000Y-95475000D01*
X115625000Y-95475000D01*
X115649504Y-95476204D01*
X115649504Y-95476204D01*
G37*
D16*
G04 #@! TD*
G04 #@! TO.P,C8,2*
G04 #@! TO.N,GND*
X115000000Y-96100000D03*
D15*
G04 #@! TO.N,Net-(A1-Pad2)*
G04 #@! TO.C,C9*
G36*
X164799504Y-97626204D02*
X164823773Y-97629804D01*
X164847571Y-97635765D01*
X164870671Y-97644030D01*
X164892849Y-97654520D01*
X164913893Y-97667133D01*
X164933598Y-97681747D01*
X164951777Y-97698223D01*
X164968253Y-97716402D01*
X164982867Y-97736107D01*
X164995480Y-97757151D01*
X165005970Y-97779329D01*
X165014235Y-97802429D01*
X165020196Y-97826227D01*
X165023796Y-97850496D01*
X165025000Y-97875000D01*
X165025000Y-99125000D01*
X165023796Y-99149504D01*
X165020196Y-99173773D01*
X165014235Y-99197571D01*
X165005970Y-99220671D01*
X164995480Y-99242849D01*
X164982867Y-99263893D01*
X164968253Y-99283598D01*
X164951777Y-99301777D01*
X164933598Y-99318253D01*
X164913893Y-99332867D01*
X164892849Y-99345480D01*
X164870671Y-99355970D01*
X164847571Y-99364235D01*
X164823773Y-99370196D01*
X164799504Y-99373796D01*
X164775000Y-99375000D01*
X164025000Y-99375000D01*
X164000496Y-99373796D01*
X163976227Y-99370196D01*
X163952429Y-99364235D01*
X163929329Y-99355970D01*
X163907151Y-99345480D01*
X163886107Y-99332867D01*
X163866402Y-99318253D01*
X163848223Y-99301777D01*
X163831747Y-99283598D01*
X163817133Y-99263893D01*
X163804520Y-99242849D01*
X163794030Y-99220671D01*
X163785765Y-99197571D01*
X163779804Y-99173773D01*
X163776204Y-99149504D01*
X163775000Y-99125000D01*
X163775000Y-97875000D01*
X163776204Y-97850496D01*
X163779804Y-97826227D01*
X163785765Y-97802429D01*
X163794030Y-97779329D01*
X163804520Y-97757151D01*
X163817133Y-97736107D01*
X163831747Y-97716402D01*
X163848223Y-97698223D01*
X163866402Y-97681747D01*
X163886107Y-97667133D01*
X163907151Y-97654520D01*
X163929329Y-97644030D01*
X163952429Y-97635765D01*
X163976227Y-97629804D01*
X164000496Y-97626204D01*
X164025000Y-97625000D01*
X164775000Y-97625000D01*
X164799504Y-97626204D01*
X164799504Y-97626204D01*
G37*
D16*
G04 #@! TD*
G04 #@! TO.P,C9,2*
G04 #@! TO.N,Net-(A1-Pad2)*
X164400000Y-98500000D03*
D15*
G04 #@! TO.N,Net-(C9-Pad1)*
G04 #@! TO.C,C9*
G36*
X161999504Y-97626204D02*
X162023773Y-97629804D01*
X162047571Y-97635765D01*
X162070671Y-97644030D01*
X162092849Y-97654520D01*
X162113893Y-97667133D01*
X162133598Y-97681747D01*
X162151777Y-97698223D01*
X162168253Y-97716402D01*
X162182867Y-97736107D01*
X162195480Y-97757151D01*
X162205970Y-97779329D01*
X162214235Y-97802429D01*
X162220196Y-97826227D01*
X162223796Y-97850496D01*
X162225000Y-97875000D01*
X162225000Y-99125000D01*
X162223796Y-99149504D01*
X162220196Y-99173773D01*
X162214235Y-99197571D01*
X162205970Y-99220671D01*
X162195480Y-99242849D01*
X162182867Y-99263893D01*
X162168253Y-99283598D01*
X162151777Y-99301777D01*
X162133598Y-99318253D01*
X162113893Y-99332867D01*
X162092849Y-99345480D01*
X162070671Y-99355970D01*
X162047571Y-99364235D01*
X162023773Y-99370196D01*
X161999504Y-99373796D01*
X161975000Y-99375000D01*
X161225000Y-99375000D01*
X161200496Y-99373796D01*
X161176227Y-99370196D01*
X161152429Y-99364235D01*
X161129329Y-99355970D01*
X161107151Y-99345480D01*
X161086107Y-99332867D01*
X161066402Y-99318253D01*
X161048223Y-99301777D01*
X161031747Y-99283598D01*
X161017133Y-99263893D01*
X161004520Y-99242849D01*
X160994030Y-99220671D01*
X160985765Y-99197571D01*
X160979804Y-99173773D01*
X160976204Y-99149504D01*
X160975000Y-99125000D01*
X160975000Y-97875000D01*
X160976204Y-97850496D01*
X160979804Y-97826227D01*
X160985765Y-97802429D01*
X160994030Y-97779329D01*
X161004520Y-97757151D01*
X161017133Y-97736107D01*
X161031747Y-97716402D01*
X161048223Y-97698223D01*
X161066402Y-97681747D01*
X161086107Y-97667133D01*
X161107151Y-97654520D01*
X161129329Y-97644030D01*
X161152429Y-97635765D01*
X161176227Y-97629804D01*
X161200496Y-97626204D01*
X161225000Y-97625000D01*
X161975000Y-97625000D01*
X161999504Y-97626204D01*
X161999504Y-97626204D01*
G37*
D16*
G04 #@! TD*
G04 #@! TO.P,C9,1*
G04 #@! TO.N,Net-(C9-Pad1)*
X161600000Y-98500000D03*
D17*
G04 #@! TO.P,D1,1*
G04 #@! TO.N,Net-(C1-Pad1)*
X105000000Y-81500000D03*
G04 #@! TO.P,D1,2*
G04 #@! TO.N,Net-(D1-Pad2)*
X105000000Y-77500000D03*
G04 #@! TD*
D18*
G04 #@! TO.P,D2,1*
G04 #@! TO.N,GND*
X140450000Y-101100000D03*
G04 #@! TO.P,D2,2*
G04 #@! TO.N,+3V3*
X138550000Y-101100000D03*
G04 #@! TO.P,D2,3*
G04 #@! TO.N,/Battery_Volts*
X139500000Y-103100000D03*
G04 #@! TD*
G04 #@! TO.P,D3,3*
G04 #@! TO.N,/Mains_Sensor*
X139500000Y-72500000D03*
G04 #@! TO.P,D3,2*
G04 #@! TO.N,+3V3*
X140450000Y-74500000D03*
G04 #@! TO.P,D3,1*
G04 #@! TO.N,GND*
X138550000Y-74500000D03*
G04 #@! TD*
G04 #@! TO.P,D4,1*
G04 #@! TO.N,GND*
X163550000Y-103000000D03*
G04 #@! TO.P,D4,2*
G04 #@! TO.N,+3V3*
X165450000Y-103000000D03*
G04 #@! TO.P,D4,3*
G04 #@! TO.N,Net-(A1-Pad2)*
X164500000Y-101000000D03*
G04 #@! TD*
D19*
G04 #@! TO.P,J2,1*
G04 #@! TO.N,Net-(F2-Pad1)*
X115944000Y-122778000D03*
D20*
G04 #@! TO.P,J2,2*
G04 #@! TO.N,Net-(J2-Pad2)*
X118444000Y-122778000D03*
G04 #@! TO.P,J2,3*
X120444000Y-122778000D03*
G04 #@! TO.P,J2,4*
G04 #@! TO.N,GND*
X122944000Y-122778000D03*
D21*
G04 #@! TO.P,J2,5*
X112874000Y-122178000D03*
X126014000Y-122178000D03*
D22*
X119444000Y-117998000D03*
G04 #@! TD*
D15*
G04 #@! TO.N,/Battery_Volts*
G04 #@! TO.C,R1*
G36*
X136799504Y-104226204D02*
X136823773Y-104229804D01*
X136847571Y-104235765D01*
X136870671Y-104244030D01*
X136892849Y-104254520D01*
X136913893Y-104267133D01*
X136933598Y-104281747D01*
X136951777Y-104298223D01*
X136968253Y-104316402D01*
X136982867Y-104336107D01*
X136995480Y-104357151D01*
X137005970Y-104379329D01*
X137014235Y-104402429D01*
X137020196Y-104426227D01*
X137023796Y-104450496D01*
X137025000Y-104475000D01*
X137025000Y-105725000D01*
X137023796Y-105749504D01*
X137020196Y-105773773D01*
X137014235Y-105797571D01*
X137005970Y-105820671D01*
X136995480Y-105842849D01*
X136982867Y-105863893D01*
X136968253Y-105883598D01*
X136951777Y-105901777D01*
X136933598Y-105918253D01*
X136913893Y-105932867D01*
X136892849Y-105945480D01*
X136870671Y-105955970D01*
X136847571Y-105964235D01*
X136823773Y-105970196D01*
X136799504Y-105973796D01*
X136775000Y-105975000D01*
X136025000Y-105975000D01*
X136000496Y-105973796D01*
X135976227Y-105970196D01*
X135952429Y-105964235D01*
X135929329Y-105955970D01*
X135907151Y-105945480D01*
X135886107Y-105932867D01*
X135866402Y-105918253D01*
X135848223Y-105901777D01*
X135831747Y-105883598D01*
X135817133Y-105863893D01*
X135804520Y-105842849D01*
X135794030Y-105820671D01*
X135785765Y-105797571D01*
X135779804Y-105773773D01*
X135776204Y-105749504D01*
X135775000Y-105725000D01*
X135775000Y-104475000D01*
X135776204Y-104450496D01*
X135779804Y-104426227D01*
X135785765Y-104402429D01*
X135794030Y-104379329D01*
X135804520Y-104357151D01*
X135817133Y-104336107D01*
X135831747Y-104316402D01*
X135848223Y-104298223D01*
X135866402Y-104281747D01*
X135886107Y-104267133D01*
X135907151Y-104254520D01*
X135929329Y-104244030D01*
X135952429Y-104235765D01*
X135976227Y-104229804D01*
X136000496Y-104226204D01*
X136025000Y-104225000D01*
X136775000Y-104225000D01*
X136799504Y-104226204D01*
X136799504Y-104226204D01*
G37*
D16*
G04 #@! TD*
G04 #@! TO.P,R1,1*
G04 #@! TO.N,/Battery_Volts*
X136400000Y-105100000D03*
D15*
G04 #@! TO.N,Net-(F1-Pad2)*
G04 #@! TO.C,R1*
G36*
X133999504Y-104226204D02*
X134023773Y-104229804D01*
X134047571Y-104235765D01*
X134070671Y-104244030D01*
X134092849Y-104254520D01*
X134113893Y-104267133D01*
X134133598Y-104281747D01*
X134151777Y-104298223D01*
X134168253Y-104316402D01*
X134182867Y-104336107D01*
X134195480Y-104357151D01*
X134205970Y-104379329D01*
X134214235Y-104402429D01*
X134220196Y-104426227D01*
X134223796Y-104450496D01*
X134225000Y-104475000D01*
X134225000Y-105725000D01*
X134223796Y-105749504D01*
X134220196Y-105773773D01*
X134214235Y-105797571D01*
X134205970Y-105820671D01*
X134195480Y-105842849D01*
X134182867Y-105863893D01*
X134168253Y-105883598D01*
X134151777Y-105901777D01*
X134133598Y-105918253D01*
X134113893Y-105932867D01*
X134092849Y-105945480D01*
X134070671Y-105955970D01*
X134047571Y-105964235D01*
X134023773Y-105970196D01*
X133999504Y-105973796D01*
X133975000Y-105975000D01*
X133225000Y-105975000D01*
X133200496Y-105973796D01*
X133176227Y-105970196D01*
X133152429Y-105964235D01*
X133129329Y-105955970D01*
X133107151Y-105945480D01*
X133086107Y-105932867D01*
X133066402Y-105918253D01*
X133048223Y-105901777D01*
X133031747Y-105883598D01*
X133017133Y-105863893D01*
X133004520Y-105842849D01*
X132994030Y-105820671D01*
X132985765Y-105797571D01*
X132979804Y-105773773D01*
X132976204Y-105749504D01*
X132975000Y-105725000D01*
X132975000Y-104475000D01*
X132976204Y-104450496D01*
X132979804Y-104426227D01*
X132985765Y-104402429D01*
X132994030Y-104379329D01*
X133004520Y-104357151D01*
X133017133Y-104336107D01*
X133031747Y-104316402D01*
X133048223Y-104298223D01*
X133066402Y-104281747D01*
X133086107Y-104267133D01*
X133107151Y-104254520D01*
X133129329Y-104244030D01*
X133152429Y-104235765D01*
X133176227Y-104229804D01*
X133200496Y-104226204D01*
X133225000Y-104225000D01*
X133975000Y-104225000D01*
X133999504Y-104226204D01*
X133999504Y-104226204D01*
G37*
D16*
G04 #@! TD*
G04 #@! TO.P,R1,2*
G04 #@! TO.N,Net-(F1-Pad2)*
X133600000Y-105100000D03*
D15*
G04 #@! TO.N,Net-(J1-Pad8)*
G04 #@! TO.C,R2*
G36*
X133999504Y-69626204D02*
X134023773Y-69629804D01*
X134047571Y-69635765D01*
X134070671Y-69644030D01*
X134092849Y-69654520D01*
X134113893Y-69667133D01*
X134133598Y-69681747D01*
X134151777Y-69698223D01*
X134168253Y-69716402D01*
X134182867Y-69736107D01*
X134195480Y-69757151D01*
X134205970Y-69779329D01*
X134214235Y-69802429D01*
X134220196Y-69826227D01*
X134223796Y-69850496D01*
X134225000Y-69875000D01*
X134225000Y-71125000D01*
X134223796Y-71149504D01*
X134220196Y-71173773D01*
X134214235Y-71197571D01*
X134205970Y-71220671D01*
X134195480Y-71242849D01*
X134182867Y-71263893D01*
X134168253Y-71283598D01*
X134151777Y-71301777D01*
X134133598Y-71318253D01*
X134113893Y-71332867D01*
X134092849Y-71345480D01*
X134070671Y-71355970D01*
X134047571Y-71364235D01*
X134023773Y-71370196D01*
X133999504Y-71373796D01*
X133975000Y-71375000D01*
X133225000Y-71375000D01*
X133200496Y-71373796D01*
X133176227Y-71370196D01*
X133152429Y-71364235D01*
X133129329Y-71355970D01*
X133107151Y-71345480D01*
X133086107Y-71332867D01*
X133066402Y-71318253D01*
X133048223Y-71301777D01*
X133031747Y-71283598D01*
X133017133Y-71263893D01*
X133004520Y-71242849D01*
X132994030Y-71220671D01*
X132985765Y-71197571D01*
X132979804Y-71173773D01*
X132976204Y-71149504D01*
X132975000Y-71125000D01*
X132975000Y-69875000D01*
X132976204Y-69850496D01*
X132979804Y-69826227D01*
X132985765Y-69802429D01*
X132994030Y-69779329D01*
X133004520Y-69757151D01*
X133017133Y-69736107D01*
X133031747Y-69716402D01*
X133048223Y-69698223D01*
X133066402Y-69681747D01*
X133086107Y-69667133D01*
X133107151Y-69654520D01*
X133129329Y-69644030D01*
X133152429Y-69635765D01*
X133176227Y-69629804D01*
X133200496Y-69626204D01*
X133225000Y-69625000D01*
X133975000Y-69625000D01*
X133999504Y-69626204D01*
X133999504Y-69626204D01*
G37*
D16*
G04 #@! TD*
G04 #@! TO.P,R2,2*
G04 #@! TO.N,Net-(J1-Pad8)*
X133600000Y-70500000D03*
D15*
G04 #@! TO.N,/Mains_Sensor*
G04 #@! TO.C,R2*
G36*
X136799504Y-69626204D02*
X136823773Y-69629804D01*
X136847571Y-69635765D01*
X136870671Y-69644030D01*
X136892849Y-69654520D01*
X136913893Y-69667133D01*
X136933598Y-69681747D01*
X136951777Y-69698223D01*
X136968253Y-69716402D01*
X136982867Y-69736107D01*
X136995480Y-69757151D01*
X137005970Y-69779329D01*
X137014235Y-69802429D01*
X137020196Y-69826227D01*
X137023796Y-69850496D01*
X137025000Y-69875000D01*
X137025000Y-71125000D01*
X137023796Y-71149504D01*
X137020196Y-71173773D01*
X137014235Y-71197571D01*
X137005970Y-71220671D01*
X136995480Y-71242849D01*
X136982867Y-71263893D01*
X136968253Y-71283598D01*
X136951777Y-71301777D01*
X136933598Y-71318253D01*
X136913893Y-71332867D01*
X136892849Y-71345480D01*
X136870671Y-71355970D01*
X136847571Y-71364235D01*
X136823773Y-71370196D01*
X136799504Y-71373796D01*
X136775000Y-71375000D01*
X136025000Y-71375000D01*
X136000496Y-71373796D01*
X135976227Y-71370196D01*
X135952429Y-71364235D01*
X135929329Y-71355970D01*
X135907151Y-71345480D01*
X135886107Y-71332867D01*
X135866402Y-71318253D01*
X135848223Y-71301777D01*
X135831747Y-71283598D01*
X135817133Y-71263893D01*
X135804520Y-71242849D01*
X135794030Y-71220671D01*
X135785765Y-71197571D01*
X135779804Y-71173773D01*
X135776204Y-71149504D01*
X135775000Y-71125000D01*
X135775000Y-69875000D01*
X135776204Y-69850496D01*
X135779804Y-69826227D01*
X135785765Y-69802429D01*
X135794030Y-69779329D01*
X135804520Y-69757151D01*
X135817133Y-69736107D01*
X135831747Y-69716402D01*
X135848223Y-69698223D01*
X135866402Y-69681747D01*
X135886107Y-69667133D01*
X135907151Y-69654520D01*
X135929329Y-69644030D01*
X135952429Y-69635765D01*
X135976227Y-69629804D01*
X136000496Y-69626204D01*
X136025000Y-69625000D01*
X136775000Y-69625000D01*
X136799504Y-69626204D01*
X136799504Y-69626204D01*
G37*
D16*
G04 #@! TD*
G04 #@! TO.P,R2,1*
G04 #@! TO.N,/Mains_Sensor*
X136400000Y-70500000D03*
D15*
G04 #@! TO.N,/Battery_Volts*
G04 #@! TO.C,R3*
G36*
X139649504Y-104576204D02*
X139673773Y-104579804D01*
X139697571Y-104585765D01*
X139720671Y-104594030D01*
X139742849Y-104604520D01*
X139763893Y-104617133D01*
X139783598Y-104631747D01*
X139801777Y-104648223D01*
X139818253Y-104666402D01*
X139832867Y-104686107D01*
X139845480Y-104707151D01*
X139855970Y-104729329D01*
X139864235Y-104752429D01*
X139870196Y-104776227D01*
X139873796Y-104800496D01*
X139875000Y-104825000D01*
X139875000Y-105575000D01*
X139873796Y-105599504D01*
X139870196Y-105623773D01*
X139864235Y-105647571D01*
X139855970Y-105670671D01*
X139845480Y-105692849D01*
X139832867Y-105713893D01*
X139818253Y-105733598D01*
X139801777Y-105751777D01*
X139783598Y-105768253D01*
X139763893Y-105782867D01*
X139742849Y-105795480D01*
X139720671Y-105805970D01*
X139697571Y-105814235D01*
X139673773Y-105820196D01*
X139649504Y-105823796D01*
X139625000Y-105825000D01*
X138375000Y-105825000D01*
X138350496Y-105823796D01*
X138326227Y-105820196D01*
X138302429Y-105814235D01*
X138279329Y-105805970D01*
X138257151Y-105795480D01*
X138236107Y-105782867D01*
X138216402Y-105768253D01*
X138198223Y-105751777D01*
X138181747Y-105733598D01*
X138167133Y-105713893D01*
X138154520Y-105692849D01*
X138144030Y-105670671D01*
X138135765Y-105647571D01*
X138129804Y-105623773D01*
X138126204Y-105599504D01*
X138125000Y-105575000D01*
X138125000Y-104825000D01*
X138126204Y-104800496D01*
X138129804Y-104776227D01*
X138135765Y-104752429D01*
X138144030Y-104729329D01*
X138154520Y-104707151D01*
X138167133Y-104686107D01*
X138181747Y-104666402D01*
X138198223Y-104648223D01*
X138216402Y-104631747D01*
X138236107Y-104617133D01*
X138257151Y-104604520D01*
X138279329Y-104594030D01*
X138302429Y-104585765D01*
X138326227Y-104579804D01*
X138350496Y-104576204D01*
X138375000Y-104575000D01*
X139625000Y-104575000D01*
X139649504Y-104576204D01*
X139649504Y-104576204D01*
G37*
D16*
G04 #@! TD*
G04 #@! TO.P,R3,2*
G04 #@! TO.N,/Battery_Volts*
X139000000Y-105200000D03*
D15*
G04 #@! TO.N,GND*
G04 #@! TO.C,R3*
G36*
X139649504Y-107376204D02*
X139673773Y-107379804D01*
X139697571Y-107385765D01*
X139720671Y-107394030D01*
X139742849Y-107404520D01*
X139763893Y-107417133D01*
X139783598Y-107431747D01*
X139801777Y-107448223D01*
X139818253Y-107466402D01*
X139832867Y-107486107D01*
X139845480Y-107507151D01*
X139855970Y-107529329D01*
X139864235Y-107552429D01*
X139870196Y-107576227D01*
X139873796Y-107600496D01*
X139875000Y-107625000D01*
X139875000Y-108375000D01*
X139873796Y-108399504D01*
X139870196Y-108423773D01*
X139864235Y-108447571D01*
X139855970Y-108470671D01*
X139845480Y-108492849D01*
X139832867Y-108513893D01*
X139818253Y-108533598D01*
X139801777Y-108551777D01*
X139783598Y-108568253D01*
X139763893Y-108582867D01*
X139742849Y-108595480D01*
X139720671Y-108605970D01*
X139697571Y-108614235D01*
X139673773Y-108620196D01*
X139649504Y-108623796D01*
X139625000Y-108625000D01*
X138375000Y-108625000D01*
X138350496Y-108623796D01*
X138326227Y-108620196D01*
X138302429Y-108614235D01*
X138279329Y-108605970D01*
X138257151Y-108595480D01*
X138236107Y-108582867D01*
X138216402Y-108568253D01*
X138198223Y-108551777D01*
X138181747Y-108533598D01*
X138167133Y-108513893D01*
X138154520Y-108492849D01*
X138144030Y-108470671D01*
X138135765Y-108447571D01*
X138129804Y-108423773D01*
X138126204Y-108399504D01*
X138125000Y-108375000D01*
X138125000Y-107625000D01*
X138126204Y-107600496D01*
X138129804Y-107576227D01*
X138135765Y-107552429D01*
X138144030Y-107529329D01*
X138154520Y-107507151D01*
X138167133Y-107486107D01*
X138181747Y-107466402D01*
X138198223Y-107448223D01*
X138216402Y-107431747D01*
X138236107Y-107417133D01*
X138257151Y-107404520D01*
X138279329Y-107394030D01*
X138302429Y-107385765D01*
X138326227Y-107379804D01*
X138350496Y-107376204D01*
X138375000Y-107375000D01*
X139625000Y-107375000D01*
X139649504Y-107376204D01*
X139649504Y-107376204D01*
G37*
D16*
G04 #@! TD*
G04 #@! TO.P,R3,1*
G04 #@! TO.N,GND*
X139000000Y-108000000D03*
D15*
G04 #@! TO.N,GND*
G04 #@! TO.C,R4*
G36*
X139649504Y-66976204D02*
X139673773Y-66979804D01*
X139697571Y-66985765D01*
X139720671Y-66994030D01*
X139742849Y-67004520D01*
X139763893Y-67017133D01*
X139783598Y-67031747D01*
X139801777Y-67048223D01*
X139818253Y-67066402D01*
X139832867Y-67086107D01*
X139845480Y-67107151D01*
X139855970Y-67129329D01*
X139864235Y-67152429D01*
X139870196Y-67176227D01*
X139873796Y-67200496D01*
X139875000Y-67225000D01*
X139875000Y-67975000D01*
X139873796Y-67999504D01*
X139870196Y-68023773D01*
X139864235Y-68047571D01*
X139855970Y-68070671D01*
X139845480Y-68092849D01*
X139832867Y-68113893D01*
X139818253Y-68133598D01*
X139801777Y-68151777D01*
X139783598Y-68168253D01*
X139763893Y-68182867D01*
X139742849Y-68195480D01*
X139720671Y-68205970D01*
X139697571Y-68214235D01*
X139673773Y-68220196D01*
X139649504Y-68223796D01*
X139625000Y-68225000D01*
X138375000Y-68225000D01*
X138350496Y-68223796D01*
X138326227Y-68220196D01*
X138302429Y-68214235D01*
X138279329Y-68205970D01*
X138257151Y-68195480D01*
X138236107Y-68182867D01*
X138216402Y-68168253D01*
X138198223Y-68151777D01*
X138181747Y-68133598D01*
X138167133Y-68113893D01*
X138154520Y-68092849D01*
X138144030Y-68070671D01*
X138135765Y-68047571D01*
X138129804Y-68023773D01*
X138126204Y-67999504D01*
X138125000Y-67975000D01*
X138125000Y-67225000D01*
X138126204Y-67200496D01*
X138129804Y-67176227D01*
X138135765Y-67152429D01*
X138144030Y-67129329D01*
X138154520Y-67107151D01*
X138167133Y-67086107D01*
X138181747Y-67066402D01*
X138198223Y-67048223D01*
X138216402Y-67031747D01*
X138236107Y-67017133D01*
X138257151Y-67004520D01*
X138279329Y-66994030D01*
X138302429Y-66985765D01*
X138326227Y-66979804D01*
X138350496Y-66976204D01*
X138375000Y-66975000D01*
X139625000Y-66975000D01*
X139649504Y-66976204D01*
X139649504Y-66976204D01*
G37*
D16*
G04 #@! TD*
G04 #@! TO.P,R4,1*
G04 #@! TO.N,GND*
X139000000Y-67600000D03*
D15*
G04 #@! TO.N,/Mains_Sensor*
G04 #@! TO.C,R4*
G36*
X139649504Y-69776204D02*
X139673773Y-69779804D01*
X139697571Y-69785765D01*
X139720671Y-69794030D01*
X139742849Y-69804520D01*
X139763893Y-69817133D01*
X139783598Y-69831747D01*
X139801777Y-69848223D01*
X139818253Y-69866402D01*
X139832867Y-69886107D01*
X139845480Y-69907151D01*
X139855970Y-69929329D01*
X139864235Y-69952429D01*
X139870196Y-69976227D01*
X139873796Y-70000496D01*
X139875000Y-70025000D01*
X139875000Y-70775000D01*
X139873796Y-70799504D01*
X139870196Y-70823773D01*
X139864235Y-70847571D01*
X139855970Y-70870671D01*
X139845480Y-70892849D01*
X139832867Y-70913893D01*
X139818253Y-70933598D01*
X139801777Y-70951777D01*
X139783598Y-70968253D01*
X139763893Y-70982867D01*
X139742849Y-70995480D01*
X139720671Y-71005970D01*
X139697571Y-71014235D01*
X139673773Y-71020196D01*
X139649504Y-71023796D01*
X139625000Y-71025000D01*
X138375000Y-71025000D01*
X138350496Y-71023796D01*
X138326227Y-71020196D01*
X138302429Y-71014235D01*
X138279329Y-71005970D01*
X138257151Y-70995480D01*
X138236107Y-70982867D01*
X138216402Y-70968253D01*
X138198223Y-70951777D01*
X138181747Y-70933598D01*
X138167133Y-70913893D01*
X138154520Y-70892849D01*
X138144030Y-70870671D01*
X138135765Y-70847571D01*
X138129804Y-70823773D01*
X138126204Y-70799504D01*
X138125000Y-70775000D01*
X138125000Y-70025000D01*
X138126204Y-70000496D01*
X138129804Y-69976227D01*
X138135765Y-69952429D01*
X138144030Y-69929329D01*
X138154520Y-69907151D01*
X138167133Y-69886107D01*
X138181747Y-69866402D01*
X138198223Y-69848223D01*
X138216402Y-69831747D01*
X138236107Y-69817133D01*
X138257151Y-69804520D01*
X138279329Y-69794030D01*
X138302429Y-69785765D01*
X138326227Y-69779804D01*
X138350496Y-69776204D01*
X138375000Y-69775000D01*
X139625000Y-69775000D01*
X139649504Y-69776204D01*
X139649504Y-69776204D01*
G37*
D16*
G04 #@! TD*
G04 #@! TO.P,R4,2*
G04 #@! TO.N,/Mains_Sensor*
X139000000Y-70400000D03*
D15*
G04 #@! TO.N,Net-(C9-Pad1)*
G04 #@! TO.C,R5*
G36*
X162149504Y-95276204D02*
X162173773Y-95279804D01*
X162197571Y-95285765D01*
X162220671Y-95294030D01*
X162242849Y-95304520D01*
X162263893Y-95317133D01*
X162283598Y-95331747D01*
X162301777Y-95348223D01*
X162318253Y-95366402D01*
X162332867Y-95386107D01*
X162345480Y-95407151D01*
X162355970Y-95429329D01*
X162364235Y-95452429D01*
X162370196Y-95476227D01*
X162373796Y-95500496D01*
X162375000Y-95525000D01*
X162375000Y-96275000D01*
X162373796Y-96299504D01*
X162370196Y-96323773D01*
X162364235Y-96347571D01*
X162355970Y-96370671D01*
X162345480Y-96392849D01*
X162332867Y-96413893D01*
X162318253Y-96433598D01*
X162301777Y-96451777D01*
X162283598Y-96468253D01*
X162263893Y-96482867D01*
X162242849Y-96495480D01*
X162220671Y-96505970D01*
X162197571Y-96514235D01*
X162173773Y-96520196D01*
X162149504Y-96523796D01*
X162125000Y-96525000D01*
X160875000Y-96525000D01*
X160850496Y-96523796D01*
X160826227Y-96520196D01*
X160802429Y-96514235D01*
X160779329Y-96505970D01*
X160757151Y-96495480D01*
X160736107Y-96482867D01*
X160716402Y-96468253D01*
X160698223Y-96451777D01*
X160681747Y-96433598D01*
X160667133Y-96413893D01*
X160654520Y-96392849D01*
X160644030Y-96370671D01*
X160635765Y-96347571D01*
X160629804Y-96323773D01*
X160626204Y-96299504D01*
X160625000Y-96275000D01*
X160625000Y-95525000D01*
X160626204Y-95500496D01*
X160629804Y-95476227D01*
X160635765Y-95452429D01*
X160644030Y-95429329D01*
X160654520Y-95407151D01*
X160667133Y-95386107D01*
X160681747Y-95366402D01*
X160698223Y-95348223D01*
X160716402Y-95331747D01*
X160736107Y-95317133D01*
X160757151Y-95304520D01*
X160779329Y-95294030D01*
X160802429Y-95285765D01*
X160826227Y-95279804D01*
X160850496Y-95276204D01*
X160875000Y-95275000D01*
X162125000Y-95275000D01*
X162149504Y-95276204D01*
X162149504Y-95276204D01*
G37*
D16*
G04 #@! TD*
G04 #@! TO.P,R5,1*
G04 #@! TO.N,Net-(C9-Pad1)*
X161500000Y-95900000D03*
D15*
G04 #@! TO.N,/Radio_VOX*
G04 #@! TO.C,R5*
G36*
X162149504Y-92476204D02*
X162173773Y-92479804D01*
X162197571Y-92485765D01*
X162220671Y-92494030D01*
X162242849Y-92504520D01*
X162263893Y-92517133D01*
X162283598Y-92531747D01*
X162301777Y-92548223D01*
X162318253Y-92566402D01*
X162332867Y-92586107D01*
X162345480Y-92607151D01*
X162355970Y-92629329D01*
X162364235Y-92652429D01*
X162370196Y-92676227D01*
X162373796Y-92700496D01*
X162375000Y-92725000D01*
X162375000Y-93475000D01*
X162373796Y-93499504D01*
X162370196Y-93523773D01*
X162364235Y-93547571D01*
X162355970Y-93570671D01*
X162345480Y-93592849D01*
X162332867Y-93613893D01*
X162318253Y-93633598D01*
X162301777Y-93651777D01*
X162283598Y-93668253D01*
X162263893Y-93682867D01*
X162242849Y-93695480D01*
X162220671Y-93705970D01*
X162197571Y-93714235D01*
X162173773Y-93720196D01*
X162149504Y-93723796D01*
X162125000Y-93725000D01*
X160875000Y-93725000D01*
X160850496Y-93723796D01*
X160826227Y-93720196D01*
X160802429Y-93714235D01*
X160779329Y-93705970D01*
X160757151Y-93695480D01*
X160736107Y-93682867D01*
X160716402Y-93668253D01*
X160698223Y-93651777D01*
X160681747Y-93633598D01*
X160667133Y-93613893D01*
X160654520Y-93592849D01*
X160644030Y-93570671D01*
X160635765Y-93547571D01*
X160629804Y-93523773D01*
X160626204Y-93499504D01*
X160625000Y-93475000D01*
X160625000Y-92725000D01*
X160626204Y-92700496D01*
X160629804Y-92676227D01*
X160635765Y-92652429D01*
X160644030Y-92629329D01*
X160654520Y-92607151D01*
X160667133Y-92586107D01*
X160681747Y-92566402D01*
X160698223Y-92548223D01*
X160716402Y-92531747D01*
X160736107Y-92517133D01*
X160757151Y-92504520D01*
X160779329Y-92494030D01*
X160802429Y-92485765D01*
X160826227Y-92479804D01*
X160850496Y-92476204D01*
X160875000Y-92475000D01*
X162125000Y-92475000D01*
X162149504Y-92476204D01*
X162149504Y-92476204D01*
G37*
D16*
G04 #@! TD*
G04 #@! TO.P,R5,2*
G04 #@! TO.N,/Radio_VOX*
X161500000Y-93100000D03*
D15*
G04 #@! TO.N,GND*
G04 #@! TO.C,R6*
G36*
X156499504Y-92126204D02*
X156523773Y-92129804D01*
X156547571Y-92135765D01*
X156570671Y-92144030D01*
X156592849Y-92154520D01*
X156613893Y-92167133D01*
X156633598Y-92181747D01*
X156651777Y-92198223D01*
X156668253Y-92216402D01*
X156682867Y-92236107D01*
X156695480Y-92257151D01*
X156705970Y-92279329D01*
X156714235Y-92302429D01*
X156720196Y-92326227D01*
X156723796Y-92350496D01*
X156725000Y-92375000D01*
X156725000Y-93625000D01*
X156723796Y-93649504D01*
X156720196Y-93673773D01*
X156714235Y-93697571D01*
X156705970Y-93720671D01*
X156695480Y-93742849D01*
X156682867Y-93763893D01*
X156668253Y-93783598D01*
X156651777Y-93801777D01*
X156633598Y-93818253D01*
X156613893Y-93832867D01*
X156592849Y-93845480D01*
X156570671Y-93855970D01*
X156547571Y-93864235D01*
X156523773Y-93870196D01*
X156499504Y-93873796D01*
X156475000Y-93875000D01*
X155725000Y-93875000D01*
X155700496Y-93873796D01*
X155676227Y-93870196D01*
X155652429Y-93864235D01*
X155629329Y-93855970D01*
X155607151Y-93845480D01*
X155586107Y-93832867D01*
X155566402Y-93818253D01*
X155548223Y-93801777D01*
X155531747Y-93783598D01*
X155517133Y-93763893D01*
X155504520Y-93742849D01*
X155494030Y-93720671D01*
X155485765Y-93697571D01*
X155479804Y-93673773D01*
X155476204Y-93649504D01*
X155475000Y-93625000D01*
X155475000Y-92375000D01*
X155476204Y-92350496D01*
X155479804Y-92326227D01*
X155485765Y-92302429D01*
X155494030Y-92279329D01*
X155504520Y-92257151D01*
X155517133Y-92236107D01*
X155531747Y-92216402D01*
X155548223Y-92198223D01*
X155566402Y-92181747D01*
X155586107Y-92167133D01*
X155607151Y-92154520D01*
X155629329Y-92144030D01*
X155652429Y-92135765D01*
X155676227Y-92129804D01*
X155700496Y-92126204D01*
X155725000Y-92125000D01*
X156475000Y-92125000D01*
X156499504Y-92126204D01*
X156499504Y-92126204D01*
G37*
D16*
G04 #@! TD*
G04 #@! TO.P,R6,2*
G04 #@! TO.N,GND*
X156100000Y-93000000D03*
D15*
G04 #@! TO.N,/Radio_VOX*
G04 #@! TO.C,R6*
G36*
X159299504Y-92126204D02*
X159323773Y-92129804D01*
X159347571Y-92135765D01*
X159370671Y-92144030D01*
X159392849Y-92154520D01*
X159413893Y-92167133D01*
X159433598Y-92181747D01*
X159451777Y-92198223D01*
X159468253Y-92216402D01*
X159482867Y-92236107D01*
X159495480Y-92257151D01*
X159505970Y-92279329D01*
X159514235Y-92302429D01*
X159520196Y-92326227D01*
X159523796Y-92350496D01*
X159525000Y-92375000D01*
X159525000Y-93625000D01*
X159523796Y-93649504D01*
X159520196Y-93673773D01*
X159514235Y-93697571D01*
X159505970Y-93720671D01*
X159495480Y-93742849D01*
X159482867Y-93763893D01*
X159468253Y-93783598D01*
X159451777Y-93801777D01*
X159433598Y-93818253D01*
X159413893Y-93832867D01*
X159392849Y-93845480D01*
X159370671Y-93855970D01*
X159347571Y-93864235D01*
X159323773Y-93870196D01*
X159299504Y-93873796D01*
X159275000Y-93875000D01*
X158525000Y-93875000D01*
X158500496Y-93873796D01*
X158476227Y-93870196D01*
X158452429Y-93864235D01*
X158429329Y-93855970D01*
X158407151Y-93845480D01*
X158386107Y-93832867D01*
X158366402Y-93818253D01*
X158348223Y-93801777D01*
X158331747Y-93783598D01*
X158317133Y-93763893D01*
X158304520Y-93742849D01*
X158294030Y-93720671D01*
X158285765Y-93697571D01*
X158279804Y-93673773D01*
X158276204Y-93649504D01*
X158275000Y-93625000D01*
X158275000Y-92375000D01*
X158276204Y-92350496D01*
X158279804Y-92326227D01*
X158285765Y-92302429D01*
X158294030Y-92279329D01*
X158304520Y-92257151D01*
X158317133Y-92236107D01*
X158331747Y-92216402D01*
X158348223Y-92198223D01*
X158366402Y-92181747D01*
X158386107Y-92167133D01*
X158407151Y-92154520D01*
X158429329Y-92144030D01*
X158452429Y-92135765D01*
X158476227Y-92129804D01*
X158500496Y-92126204D01*
X158525000Y-92125000D01*
X159275000Y-92125000D01*
X159299504Y-92126204D01*
X159299504Y-92126204D01*
G37*
D16*
G04 #@! TD*
G04 #@! TO.P,R6,1*
G04 #@! TO.N,/Radio_VOX*
X158900000Y-93000000D03*
D23*
G04 #@! TO.P,U1,1*
G04 #@! TO.N,Net-(C1-Pad1)*
X105000000Y-92000000D03*
D24*
G04 #@! TO.P,U1,2*
G04 #@! TO.N,GND*
X105000000Y-94540000D03*
G04 #@! TO.P,U1,3*
G04 #@! TO.N,Net-(C7-Pad1)*
X105000000Y-97080000D03*
G04 #@! TD*
G04 #@! TO.P,U2,3*
G04 #@! TO.N,+5V*
X118500000Y-97080000D03*
G04 #@! TO.P,U2,2*
G04 #@! TO.N,GND*
X118500000Y-94540000D03*
D23*
G04 #@! TO.P,U2,1*
G04 #@! TO.N,Net-(C1-Pad1)*
X118500000Y-92000000D03*
G04 #@! TD*
D15*
G04 #@! TO.N,Net-(F1-Pad2)*
G04 #@! TO.C,F1*
G36*
X109974505Y-71301204D02*
X109998773Y-71304804D01*
X110022572Y-71310765D01*
X110045671Y-71319030D01*
X110067850Y-71329520D01*
X110088893Y-71342132D01*
X110108599Y-71356747D01*
X110126777Y-71373223D01*
X110143253Y-71391401D01*
X110157868Y-71411107D01*
X110170480Y-71432150D01*
X110180970Y-71454329D01*
X110189235Y-71477428D01*
X110195196Y-71501227D01*
X110198796Y-71525495D01*
X110200000Y-71549999D01*
X110200000Y-74450001D01*
X110198796Y-74474505D01*
X110195196Y-74498773D01*
X110189235Y-74522572D01*
X110180970Y-74545671D01*
X110170480Y-74567850D01*
X110157868Y-74588893D01*
X110143253Y-74608599D01*
X110126777Y-74626777D01*
X110108599Y-74643253D01*
X110088893Y-74657868D01*
X110067850Y-74670480D01*
X110045671Y-74680970D01*
X110022572Y-74689235D01*
X109998773Y-74695196D01*
X109974505Y-74698796D01*
X109950001Y-74700000D01*
X109324999Y-74700000D01*
X109300495Y-74698796D01*
X109276227Y-74695196D01*
X109252428Y-74689235D01*
X109229329Y-74680970D01*
X109207150Y-74670480D01*
X109186107Y-74657868D01*
X109166401Y-74643253D01*
X109148223Y-74626777D01*
X109131747Y-74608599D01*
X109117132Y-74588893D01*
X109104520Y-74567850D01*
X109094030Y-74545671D01*
X109085765Y-74522572D01*
X109079804Y-74498773D01*
X109076204Y-74474505D01*
X109075000Y-74450001D01*
X109075000Y-71549999D01*
X109076204Y-71525495D01*
X109079804Y-71501227D01*
X109085765Y-71477428D01*
X109094030Y-71454329D01*
X109104520Y-71432150D01*
X109117132Y-71411107D01*
X109131747Y-71391401D01*
X109148223Y-71373223D01*
X109166401Y-71356747D01*
X109186107Y-71342132D01*
X109207150Y-71329520D01*
X109229329Y-71319030D01*
X109252428Y-71310765D01*
X109276227Y-71304804D01*
X109300495Y-71301204D01*
X109324999Y-71300000D01*
X109950001Y-71300000D01*
X109974505Y-71301204D01*
X109974505Y-71301204D01*
G37*
D25*
G04 #@! TD*
G04 #@! TO.P,F1,2*
G04 #@! TO.N,Net-(F1-Pad2)*
X109637500Y-73000000D03*
D15*
G04 #@! TO.N,Net-(D1-Pad2)*
G04 #@! TO.C,F1*
G36*
X105699505Y-71301204D02*
X105723773Y-71304804D01*
X105747572Y-71310765D01*
X105770671Y-71319030D01*
X105792850Y-71329520D01*
X105813893Y-71342132D01*
X105833599Y-71356747D01*
X105851777Y-71373223D01*
X105868253Y-71391401D01*
X105882868Y-71411107D01*
X105895480Y-71432150D01*
X105905970Y-71454329D01*
X105914235Y-71477428D01*
X105920196Y-71501227D01*
X105923796Y-71525495D01*
X105925000Y-71549999D01*
X105925000Y-74450001D01*
X105923796Y-74474505D01*
X105920196Y-74498773D01*
X105914235Y-74522572D01*
X105905970Y-74545671D01*
X105895480Y-74567850D01*
X105882868Y-74588893D01*
X105868253Y-74608599D01*
X105851777Y-74626777D01*
X105833599Y-74643253D01*
X105813893Y-74657868D01*
X105792850Y-74670480D01*
X105770671Y-74680970D01*
X105747572Y-74689235D01*
X105723773Y-74695196D01*
X105699505Y-74698796D01*
X105675001Y-74700000D01*
X105049999Y-74700000D01*
X105025495Y-74698796D01*
X105001227Y-74695196D01*
X104977428Y-74689235D01*
X104954329Y-74680970D01*
X104932150Y-74670480D01*
X104911107Y-74657868D01*
X104891401Y-74643253D01*
X104873223Y-74626777D01*
X104856747Y-74608599D01*
X104842132Y-74588893D01*
X104829520Y-74567850D01*
X104819030Y-74545671D01*
X104810765Y-74522572D01*
X104804804Y-74498773D01*
X104801204Y-74474505D01*
X104800000Y-74450001D01*
X104800000Y-71549999D01*
X104801204Y-71525495D01*
X104804804Y-71501227D01*
X104810765Y-71477428D01*
X104819030Y-71454329D01*
X104829520Y-71432150D01*
X104842132Y-71411107D01*
X104856747Y-71391401D01*
X104873223Y-71373223D01*
X104891401Y-71356747D01*
X104911107Y-71342132D01*
X104932150Y-71329520D01*
X104954329Y-71319030D01*
X104977428Y-71310765D01*
X105001227Y-71304804D01*
X105025495Y-71301204D01*
X105049999Y-71300000D01*
X105675001Y-71300000D01*
X105699505Y-71301204D01*
X105699505Y-71301204D01*
G37*
D25*
G04 #@! TD*
G04 #@! TO.P,F1,1*
G04 #@! TO.N,Net-(D1-Pad2)*
X105362500Y-73000000D03*
D15*
G04 #@! TO.N,Net-(F2-Pad1)*
G04 #@! TO.C,F2*
G36*
X117474505Y-114076204D02*
X117498773Y-114079804D01*
X117522572Y-114085765D01*
X117545671Y-114094030D01*
X117567850Y-114104520D01*
X117588893Y-114117132D01*
X117608599Y-114131747D01*
X117626777Y-114148223D01*
X117643253Y-114166401D01*
X117657868Y-114186107D01*
X117670480Y-114207150D01*
X117680970Y-114229329D01*
X117689235Y-114252428D01*
X117695196Y-114276227D01*
X117698796Y-114300495D01*
X117700000Y-114324999D01*
X117700000Y-114950001D01*
X117698796Y-114974505D01*
X117695196Y-114998773D01*
X117689235Y-115022572D01*
X117680970Y-115045671D01*
X117670480Y-115067850D01*
X117657868Y-115088893D01*
X117643253Y-115108599D01*
X117626777Y-115126777D01*
X117608599Y-115143253D01*
X117588893Y-115157868D01*
X117567850Y-115170480D01*
X117545671Y-115180970D01*
X117522572Y-115189235D01*
X117498773Y-115195196D01*
X117474505Y-115198796D01*
X117450001Y-115200000D01*
X114549999Y-115200000D01*
X114525495Y-115198796D01*
X114501227Y-115195196D01*
X114477428Y-115189235D01*
X114454329Y-115180970D01*
X114432150Y-115170480D01*
X114411107Y-115157868D01*
X114391401Y-115143253D01*
X114373223Y-115126777D01*
X114356747Y-115108599D01*
X114342132Y-115088893D01*
X114329520Y-115067850D01*
X114319030Y-115045671D01*
X114310765Y-115022572D01*
X114304804Y-114998773D01*
X114301204Y-114974505D01*
X114300000Y-114950001D01*
X114300000Y-114324999D01*
X114301204Y-114300495D01*
X114304804Y-114276227D01*
X114310765Y-114252428D01*
X114319030Y-114229329D01*
X114329520Y-114207150D01*
X114342132Y-114186107D01*
X114356747Y-114166401D01*
X114373223Y-114148223D01*
X114391401Y-114131747D01*
X114411107Y-114117132D01*
X114432150Y-114104520D01*
X114454329Y-114094030D01*
X114477428Y-114085765D01*
X114501227Y-114079804D01*
X114525495Y-114076204D01*
X114549999Y-114075000D01*
X117450001Y-114075000D01*
X117474505Y-114076204D01*
X117474505Y-114076204D01*
G37*
D25*
G04 #@! TD*
G04 #@! TO.P,F2,1*
G04 #@! TO.N,Net-(F2-Pad1)*
X116000000Y-114637500D03*
D15*
G04 #@! TO.N,Net-(C7-Pad1)*
G04 #@! TO.C,F2*
G36*
X117474505Y-109801204D02*
X117498773Y-109804804D01*
X117522572Y-109810765D01*
X117545671Y-109819030D01*
X117567850Y-109829520D01*
X117588893Y-109842132D01*
X117608599Y-109856747D01*
X117626777Y-109873223D01*
X117643253Y-109891401D01*
X117657868Y-109911107D01*
X117670480Y-109932150D01*
X117680970Y-109954329D01*
X117689235Y-109977428D01*
X117695196Y-110001227D01*
X117698796Y-110025495D01*
X117700000Y-110049999D01*
X117700000Y-110675001D01*
X117698796Y-110699505D01*
X117695196Y-110723773D01*
X117689235Y-110747572D01*
X117680970Y-110770671D01*
X117670480Y-110792850D01*
X117657868Y-110813893D01*
X117643253Y-110833599D01*
X117626777Y-110851777D01*
X117608599Y-110868253D01*
X117588893Y-110882868D01*
X117567850Y-110895480D01*
X117545671Y-110905970D01*
X117522572Y-110914235D01*
X117498773Y-110920196D01*
X117474505Y-110923796D01*
X117450001Y-110925000D01*
X114549999Y-110925000D01*
X114525495Y-110923796D01*
X114501227Y-110920196D01*
X114477428Y-110914235D01*
X114454329Y-110905970D01*
X114432150Y-110895480D01*
X114411107Y-110882868D01*
X114391401Y-110868253D01*
X114373223Y-110851777D01*
X114356747Y-110833599D01*
X114342132Y-110813893D01*
X114329520Y-110792850D01*
X114319030Y-110770671D01*
X114310765Y-110747572D01*
X114304804Y-110723773D01*
X114301204Y-110699505D01*
X114300000Y-110675001D01*
X114300000Y-110049999D01*
X114301204Y-110025495D01*
X114304804Y-110001227D01*
X114310765Y-109977428D01*
X114319030Y-109954329D01*
X114329520Y-109932150D01*
X114342132Y-109911107D01*
X114356747Y-109891401D01*
X114373223Y-109873223D01*
X114391401Y-109856747D01*
X114411107Y-109842132D01*
X114432150Y-109829520D01*
X114454329Y-109819030D01*
X114477428Y-109810765D01*
X114501227Y-109804804D01*
X114525495Y-109801204D01*
X114549999Y-109800000D01*
X117450001Y-109800000D01*
X117474505Y-109801204D01*
X117474505Y-109801204D01*
G37*
D25*
G04 #@! TD*
G04 #@! TO.P,F2,2*
G04 #@! TO.N,Net-(C7-Pad1)*
X116000000Y-110362500D03*
D26*
G04 #@! TO.N,GND*
X150000000Y-104500000D03*
G04 #@! TD*
D27*
G04 #@! TO.N,+5V*
X118500000Y-97080000D02*
X118500000Y-98500000D01*
X118100000Y-98900000D02*
X115000000Y-98900000D01*
X118500000Y-98500000D02*
X118100000Y-98900000D01*
G04 #@! TO.N,+3V3*
X165450000Y-104085000D02*
X165450000Y-103000000D01*
X164535000Y-105000000D02*
X165450000Y-104085000D01*
X159000000Y-105000000D02*
X164535000Y-105000000D01*
X147840000Y-96080000D02*
X150080000Y-96080000D01*
X150080000Y-96080000D02*
X159000000Y-105000000D01*
X140580000Y-96080000D02*
X147840000Y-96080000D01*
X140450000Y-74500000D02*
X140450000Y-95950000D01*
X140450000Y-95950000D02*
X140580000Y-96080000D01*
X139920000Y-96080000D02*
X140580000Y-96080000D01*
X138550000Y-101100000D02*
X138550000Y-97450000D01*
X138550000Y-97450000D02*
X139920000Y-96080000D01*
D28*
G04 #@! TO.N,/Battery_Volts*
X139000000Y-105200000D02*
X141500000Y-105200000D01*
X139500000Y-105200000D02*
X139400000Y-105100000D01*
X139000000Y-105200000D02*
X136500000Y-105200000D01*
X142500000Y-104700000D02*
X142000000Y-105200000D01*
X139500000Y-103100000D02*
X139500000Y-104700000D01*
X144200000Y-105200000D02*
X141500000Y-105200000D01*
X169540000Y-93540000D02*
X171000000Y-95000000D01*
X168160000Y-93540000D02*
X169540000Y-93540000D01*
X171000000Y-95000000D02*
X171000000Y-103500000D01*
X171000000Y-103500000D02*
X167500000Y-107000000D01*
X167500000Y-107000000D02*
X146000000Y-107000000D01*
X146000000Y-107000000D02*
X144200000Y-105200000D01*
G04 #@! TO.N,/Mains_Sensor*
X141900000Y-70500000D02*
X142000000Y-70400000D01*
X139000000Y-70400000D02*
X141500000Y-70400000D01*
X142500000Y-70900000D02*
X142000000Y-70400000D01*
X139500000Y-72500000D02*
X139500000Y-70900000D01*
X141500000Y-70400000D02*
X147560000Y-70400000D01*
X147840000Y-70680000D02*
X147840000Y-68140000D01*
X139500000Y-70400000D02*
X139400000Y-70500000D01*
X139000000Y-70400000D02*
X136500000Y-70400000D01*
G04 #@! TO.N,Net-(A1-Pad2)*
X167520000Y-98620000D02*
X167400000Y-98500000D01*
X168160000Y-98620000D02*
X164520000Y-98620000D01*
X167500000Y-98600000D02*
X167400000Y-98500000D01*
X164500000Y-101000000D02*
X164500000Y-98600000D01*
D29*
G04 #@! TO.N,Net-(C1-Pad1)*
X109800000Y-82000000D02*
X105500000Y-82000000D01*
X110000000Y-77500000D02*
X111100000Y-77500000D01*
X109800000Y-82000000D02*
X109800000Y-77700000D01*
X109800000Y-77700000D02*
X110000000Y-77500000D01*
X109800000Y-87000000D02*
X116500000Y-87000000D01*
X109800000Y-82000000D02*
X109800000Y-87000000D01*
X116500000Y-87000000D02*
X118500000Y-89000000D01*
D27*
X102475000Y-90100000D02*
X101500000Y-90100000D01*
X104381000Y-90100000D02*
X102475000Y-90100000D01*
X105000000Y-90719000D02*
X104381000Y-90100000D01*
X105000000Y-92000000D02*
X105000000Y-90719000D01*
X118400000Y-90100000D02*
X115000000Y-90100000D01*
D28*
X118500000Y-90000000D02*
X118400000Y-90100000D01*
D29*
X118500000Y-90000000D02*
X118500000Y-92000000D01*
X118500000Y-89000000D02*
X118500000Y-90000000D01*
X107000000Y-92000000D02*
X105000000Y-92000000D01*
X109800000Y-89200000D02*
X107000000Y-92000000D01*
X109800000Y-87000000D02*
X109800000Y-89200000D01*
G04 #@! TO.N,Net-(C7-Pad1)*
X105000000Y-100000000D02*
X112000000Y-107000000D01*
D27*
X104900000Y-98900000D02*
X101500000Y-98900000D01*
D29*
X105000000Y-99000000D02*
X105000000Y-100000000D01*
X105000000Y-97080000D02*
X105000000Y-99000000D01*
X116000000Y-108500000D02*
X116000000Y-110362500D01*
X112000000Y-107000000D02*
X114500000Y-107000000D01*
X114500000Y-107000000D02*
X116000000Y-108500000D01*
D28*
G04 #@! TO.N,Net-(C9-Pad1)*
X161600000Y-98500000D02*
X161600000Y-96000000D01*
D29*
G04 #@! TO.N,Net-(D1-Pad2)*
X105362500Y-73000000D02*
X105362500Y-77137500D01*
D27*
G04 #@! TO.N,Net-(F1-Pad2)*
X133600000Y-86600000D02*
X133600000Y-105100000D01*
X112500000Y-70500000D02*
X117500000Y-70500000D01*
X117500000Y-70500000D02*
X133600000Y-86600000D01*
D29*
X112000000Y-73000000D02*
X109637500Y-73000000D01*
X112500000Y-50500000D02*
X112500000Y-72500000D01*
X112500000Y-72500000D02*
X112000000Y-73000000D01*
D28*
G04 #@! TO.N,Net-(F2-Pad1)*
X116000000Y-122722000D02*
X115944000Y-122778000D01*
D29*
X116000000Y-114637500D02*
X116000000Y-122722000D01*
D28*
G04 #@! TO.N,/Radio_VOX*
X162000000Y-93100000D02*
X161900000Y-93000000D01*
X161500000Y-93100000D02*
X159000000Y-93100000D01*
X157500000Y-60500000D02*
X157500000Y-50500000D01*
X158900000Y-93000000D02*
X158900000Y-61900000D01*
X158900000Y-61900000D02*
X157500000Y-60500000D01*
G04 #@! TO.N,Net-(J1-Pad8)*
X147500000Y-54000000D02*
X147500000Y-50500000D01*
X138000000Y-63500000D02*
X147500000Y-54000000D01*
X136000000Y-63500000D02*
X138000000Y-63500000D01*
X133600000Y-70500000D02*
X133600000Y-65900000D01*
X133600000Y-65900000D02*
X136000000Y-63500000D01*
D27*
G04 #@! TO.N,Net-(J2-Pad2)*
X118444000Y-122778000D02*
X120444000Y-122778000D01*
G04 #@! TD*
D30*
G04 #@! TO.N,GND*
G36*
X172290001Y-124290000D02*
X97710000Y-124290000D01*
X97710000Y-122305000D01*
X111289000Y-122305000D01*
X111289000Y-122805000D01*
X111458252Y-123401886D01*
X111843039Y-123888567D01*
X112384780Y-124190950D01*
X112501412Y-124218586D01*
X112747000Y-124098584D01*
X112747000Y-122305000D01*
X113001000Y-122305000D01*
X113001000Y-124098584D01*
X113246588Y-124218586D01*
X113363220Y-124190950D01*
X113904961Y-123888567D01*
X114289748Y-123401886D01*
X114459000Y-122805000D01*
X114459000Y-122305000D01*
X113001000Y-122305000D01*
X112747000Y-122305000D01*
X111289000Y-122305000D01*
X97710000Y-122305000D01*
X97710000Y-117258654D01*
X102273000Y-117258654D01*
X102273000Y-118741346D01*
X102840402Y-120111176D01*
X103888824Y-121159598D01*
X105258654Y-121727000D01*
X106741346Y-121727000D01*
X107166247Y-121551000D01*
X111289000Y-121551000D01*
X111289000Y-122051000D01*
X112747000Y-122051000D01*
X112747000Y-120257416D01*
X113001000Y-120257416D01*
X113001000Y-122051000D01*
X114459000Y-122051000D01*
X114459000Y-121551000D01*
X114289748Y-120954114D01*
X113904961Y-120467433D01*
X113363220Y-120165050D01*
X113246588Y-120137414D01*
X113001000Y-120257416D01*
X112747000Y-120257416D01*
X112501412Y-120137414D01*
X112384780Y-120165050D01*
X111843039Y-120467433D01*
X111458252Y-120954114D01*
X111289000Y-121551000D01*
X107166247Y-121551000D01*
X108111176Y-121159598D01*
X109159598Y-120111176D01*
X109727000Y-118741346D01*
X109727000Y-117258654D01*
X109159598Y-115888824D01*
X108111176Y-114840402D01*
X106866883Y-114324999D01*
X113652560Y-114324999D01*
X113652560Y-114950001D01*
X113720873Y-115293436D01*
X113915414Y-115584586D01*
X114206564Y-115779127D01*
X114549999Y-115847440D01*
X114857000Y-115847440D01*
X114857001Y-121656286D01*
X114836191Y-121670191D01*
X114695843Y-121880235D01*
X114646560Y-122128000D01*
X114646560Y-123428000D01*
X114695843Y-123675765D01*
X114836191Y-123885809D01*
X115046235Y-124026157D01*
X115294000Y-124075440D01*
X116594000Y-124075440D01*
X116841765Y-124026157D01*
X117051809Y-123885809D01*
X117192157Y-123675765D01*
X117241440Y-123428000D01*
X117241440Y-123232631D01*
X117354629Y-123505894D01*
X117716106Y-123867371D01*
X118188398Y-124063000D01*
X118699602Y-124063000D01*
X119171894Y-123867371D01*
X119308765Y-123730500D01*
X119579235Y-123730500D01*
X119716106Y-123867371D01*
X120188398Y-124063000D01*
X120699602Y-124063000D01*
X121171894Y-123867371D01*
X121362249Y-123677016D01*
X122224590Y-123677016D01*
X122280271Y-123907611D01*
X122763078Y-124075622D01*
X123273428Y-124046083D01*
X123607729Y-123907611D01*
X123663410Y-123677016D01*
X122944000Y-122957605D01*
X122224590Y-123677016D01*
X121362249Y-123677016D01*
X121533371Y-123505894D01*
X121687169Y-123134592D01*
X121814389Y-123441729D01*
X122044984Y-123497410D01*
X122764395Y-122778000D01*
X123123605Y-122778000D01*
X123843016Y-123497410D01*
X124073611Y-123441729D01*
X124241622Y-122958922D01*
X124212083Y-122448572D01*
X124152614Y-122305000D01*
X124429000Y-122305000D01*
X124429000Y-122805000D01*
X124598252Y-123401886D01*
X124983039Y-123888567D01*
X125524780Y-124190950D01*
X125641412Y-124218586D01*
X125887000Y-124098584D01*
X125887000Y-122305000D01*
X126141000Y-122305000D01*
X126141000Y-124098584D01*
X126386588Y-124218586D01*
X126503220Y-124190950D01*
X127044961Y-123888567D01*
X127429748Y-123401886D01*
X127599000Y-122805000D01*
X127599000Y-122305000D01*
X126141000Y-122305000D01*
X125887000Y-122305000D01*
X124429000Y-122305000D01*
X124152614Y-122305000D01*
X124073611Y-122114271D01*
X123843016Y-122058590D01*
X123123605Y-122778000D01*
X122764395Y-122778000D01*
X122044984Y-122058590D01*
X121814389Y-122114271D01*
X121698223Y-122448094D01*
X121533371Y-122050106D01*
X121362249Y-121878984D01*
X122224590Y-121878984D01*
X122944000Y-122598395D01*
X123663410Y-121878984D01*
X123607729Y-121648389D01*
X123327866Y-121551000D01*
X124429000Y-121551000D01*
X124429000Y-122051000D01*
X125887000Y-122051000D01*
X125887000Y-120257416D01*
X126141000Y-120257416D01*
X126141000Y-122051000D01*
X127599000Y-122051000D01*
X127599000Y-121551000D01*
X127429748Y-120954114D01*
X127044961Y-120467433D01*
X126503220Y-120165050D01*
X126386588Y-120137414D01*
X126141000Y-120257416D01*
X125887000Y-120257416D01*
X125641412Y-120137414D01*
X125524780Y-120165050D01*
X124983039Y-120467433D01*
X124598252Y-120954114D01*
X124429000Y-121551000D01*
X123327866Y-121551000D01*
X123124922Y-121480378D01*
X122614572Y-121509917D01*
X122280271Y-121648389D01*
X122224590Y-121878984D01*
X121362249Y-121878984D01*
X121171894Y-121688629D01*
X120699602Y-121493000D01*
X120188398Y-121493000D01*
X119716106Y-121688629D01*
X119579235Y-121825500D01*
X119308765Y-121825500D01*
X119171894Y-121688629D01*
X118699602Y-121493000D01*
X118188398Y-121493000D01*
X117716106Y-121688629D01*
X117354629Y-122050106D01*
X117241440Y-122323369D01*
X117241440Y-122128000D01*
X117192157Y-121880235D01*
X117143000Y-121806667D01*
X117143000Y-118370588D01*
X117403414Y-118370588D01*
X117431050Y-118487220D01*
X117733433Y-119028961D01*
X118220114Y-119413748D01*
X118817000Y-119583000D01*
X119317000Y-119583000D01*
X119317000Y-118125000D01*
X119571000Y-118125000D01*
X119571000Y-119583000D01*
X120071000Y-119583000D01*
X120667886Y-119413748D01*
X121154567Y-119028961D01*
X121456950Y-118487220D01*
X121484586Y-118370588D01*
X121364584Y-118125000D01*
X119571000Y-118125000D01*
X119317000Y-118125000D01*
X117523416Y-118125000D01*
X117403414Y-118370588D01*
X117143000Y-118370588D01*
X117143000Y-117625412D01*
X117403414Y-117625412D01*
X117523416Y-117871000D01*
X119317000Y-117871000D01*
X119317000Y-116413000D01*
X119571000Y-116413000D01*
X119571000Y-117871000D01*
X121364584Y-117871000D01*
X121484586Y-117625412D01*
X121456950Y-117508780D01*
X121317338Y-117258654D01*
X160273000Y-117258654D01*
X160273000Y-118741346D01*
X160840402Y-120111176D01*
X161888824Y-121159598D01*
X163258654Y-121727000D01*
X164741346Y-121727000D01*
X166111176Y-121159598D01*
X167159598Y-120111176D01*
X167727000Y-118741346D01*
X167727000Y-117258654D01*
X167159598Y-115888824D01*
X166111176Y-114840402D01*
X164741346Y-114273000D01*
X163258654Y-114273000D01*
X161888824Y-114840402D01*
X160840402Y-115888824D01*
X160273000Y-117258654D01*
X121317338Y-117258654D01*
X121154567Y-116967039D01*
X120667886Y-116582252D01*
X120071000Y-116413000D01*
X119571000Y-116413000D01*
X119317000Y-116413000D01*
X118817000Y-116413000D01*
X118220114Y-116582252D01*
X117733433Y-116967039D01*
X117431050Y-117508780D01*
X117403414Y-117625412D01*
X117143000Y-117625412D01*
X117143000Y-115847440D01*
X117450001Y-115847440D01*
X117793436Y-115779127D01*
X118084586Y-115584586D01*
X118279127Y-115293436D01*
X118347440Y-114950001D01*
X118347440Y-114324999D01*
X118279127Y-113981564D01*
X118084586Y-113690414D01*
X117793436Y-113495873D01*
X117450001Y-113427560D01*
X114549999Y-113427560D01*
X114206564Y-113495873D01*
X113915414Y-113690414D01*
X113720873Y-113981564D01*
X113652560Y-114324999D01*
X106866883Y-114324999D01*
X106741346Y-114273000D01*
X105258654Y-114273000D01*
X103888824Y-114840402D01*
X102840402Y-115888824D01*
X102273000Y-117258654D01*
X97710000Y-117258654D01*
X97710000Y-98525000D01*
X99977560Y-98525000D01*
X99977560Y-99275000D01*
X100045874Y-99618435D01*
X100240414Y-99909586D01*
X100531565Y-100104126D01*
X100875000Y-100172440D01*
X102125000Y-100172440D01*
X102468435Y-100104126D01*
X102759586Y-99909586D01*
X102797729Y-99852500D01*
X103857000Y-99852500D01*
X103857000Y-99887429D01*
X103834608Y-100000000D01*
X103857000Y-100112571D01*
X103857000Y-100112572D01*
X103923318Y-100445976D01*
X104175944Y-100824057D01*
X104271380Y-100887825D01*
X111112175Y-107728621D01*
X111175943Y-107824057D01*
X111554024Y-108076682D01*
X111887428Y-108143000D01*
X111887429Y-108143000D01*
X112000000Y-108165392D01*
X112112571Y-108143000D01*
X114026555Y-108143000D01*
X114857000Y-108973446D01*
X114857000Y-109152560D01*
X114549999Y-109152560D01*
X114206564Y-109220873D01*
X113915414Y-109415414D01*
X113720873Y-109706564D01*
X113652560Y-110049999D01*
X113652560Y-110675001D01*
X113720873Y-111018436D01*
X113915414Y-111309586D01*
X114206564Y-111504127D01*
X114549999Y-111572440D01*
X117450001Y-111572440D01*
X117793436Y-111504127D01*
X118084586Y-111309586D01*
X118279127Y-111018436D01*
X118347440Y-110675001D01*
X118347440Y-110049999D01*
X118279127Y-109706564D01*
X118084586Y-109415414D01*
X117793436Y-109220873D01*
X117450001Y-109152560D01*
X117143000Y-109152560D01*
X117143000Y-108612570D01*
X117165392Y-108499999D01*
X117094380Y-108143000D01*
X117076682Y-108054024D01*
X116824057Y-107675943D01*
X116728621Y-107612175D01*
X115387827Y-106271382D01*
X115324057Y-106175943D01*
X114945976Y-105923318D01*
X114612572Y-105857000D01*
X114612571Y-105857000D01*
X114500000Y-105834608D01*
X114387429Y-105857000D01*
X112473446Y-105857000D01*
X106143000Y-99526555D01*
X106143000Y-98525000D01*
X113477560Y-98525000D01*
X113477560Y-99275000D01*
X113545874Y-99618435D01*
X113740414Y-99909586D01*
X114031565Y-100104126D01*
X114375000Y-100172440D01*
X115625000Y-100172440D01*
X115968435Y-100104126D01*
X116259586Y-99909586D01*
X116297729Y-99852500D01*
X118006190Y-99852500D01*
X118100000Y-99871160D01*
X118193810Y-99852500D01*
X118471647Y-99797235D01*
X118786714Y-99586714D01*
X118839857Y-99507180D01*
X119107180Y-99239857D01*
X119186714Y-99186714D01*
X119397235Y-98871647D01*
X119452500Y-98593810D01*
X119452500Y-98593806D01*
X119471159Y-98500001D01*
X119452500Y-98406196D01*
X119452500Y-98298317D01*
X119801310Y-97949507D01*
X120035000Y-97385330D01*
X120035000Y-96774670D01*
X119801310Y-96210493D01*
X119369507Y-95778690D01*
X119349885Y-95770562D01*
X119400554Y-95620159D01*
X118500000Y-94719605D01*
X117599446Y-95620159D01*
X117650115Y-95770562D01*
X117630493Y-95778690D01*
X117198690Y-96210493D01*
X116965000Y-96774670D01*
X116965000Y-97385330D01*
X117197859Y-97947500D01*
X116297729Y-97947500D01*
X116259586Y-97890414D01*
X115968435Y-97695874D01*
X115625000Y-97627560D01*
X114375000Y-97627560D01*
X114031565Y-97695874D01*
X113740414Y-97890414D01*
X113545874Y-98181565D01*
X113477560Y-98525000D01*
X106143000Y-98525000D01*
X106143000Y-98107817D01*
X106301310Y-97949507D01*
X106535000Y-97385330D01*
X106535000Y-96774670D01*
X106301310Y-96210493D01*
X105869507Y-95778690D01*
X105849885Y-95770562D01*
X105900554Y-95620159D01*
X105000000Y-94719605D01*
X104099446Y-95620159D01*
X104150115Y-95770562D01*
X104130493Y-95778690D01*
X103698690Y-96210493D01*
X103465000Y-96774670D01*
X103465000Y-97385330D01*
X103697859Y-97947500D01*
X102797729Y-97947500D01*
X102759586Y-97890414D01*
X102468435Y-97695874D01*
X102125000Y-97627560D01*
X100875000Y-97627560D01*
X100531565Y-97695874D01*
X100240414Y-97890414D01*
X100045874Y-98181565D01*
X99977560Y-98525000D01*
X97710000Y-98525000D01*
X97710000Y-89725000D01*
X99977560Y-89725000D01*
X99977560Y-90475000D01*
X100045874Y-90818435D01*
X100240414Y-91109586D01*
X100531565Y-91304126D01*
X100875000Y-91372440D01*
X102125000Y-91372440D01*
X102468435Y-91304126D01*
X102759586Y-91109586D01*
X102797729Y-91052500D01*
X103462008Y-91052500D01*
X103452560Y-91100000D01*
X103452560Y-92900000D01*
X103501843Y-93147765D01*
X103642191Y-93357809D01*
X103840114Y-93490058D01*
X103805282Y-93524890D01*
X103919839Y-93639447D01*
X103663357Y-93725852D01*
X103453542Y-94299336D01*
X103479161Y-94909460D01*
X103663357Y-95354148D01*
X103919841Y-95440554D01*
X104820395Y-94540000D01*
X104806253Y-94525858D01*
X104985858Y-94346253D01*
X105000000Y-94360395D01*
X105014143Y-94346253D01*
X105193748Y-94525858D01*
X105179605Y-94540000D01*
X106080159Y-95440554D01*
X106336643Y-95354148D01*
X106546458Y-94780664D01*
X106520839Y-94170540D01*
X106336643Y-93725852D01*
X106080161Y-93639447D01*
X106194718Y-93524890D01*
X106159886Y-93490058D01*
X106357809Y-93357809D01*
X106498157Y-93147765D01*
X106499105Y-93143000D01*
X106887429Y-93143000D01*
X107000000Y-93165392D01*
X107112571Y-93143000D01*
X107112572Y-93143000D01*
X107445976Y-93076682D01*
X107824057Y-92824057D01*
X107887827Y-92728618D01*
X110528620Y-90087826D01*
X110624057Y-90024057D01*
X110876682Y-89645976D01*
X110943000Y-89312572D01*
X110943000Y-89312571D01*
X110965392Y-89200000D01*
X110943000Y-89087429D01*
X110943000Y-88143000D01*
X116026555Y-88143000D01*
X117031054Y-89147500D01*
X116297729Y-89147500D01*
X116259586Y-89090414D01*
X115968435Y-88895874D01*
X115625000Y-88827560D01*
X114375000Y-88827560D01*
X114031565Y-88895874D01*
X113740414Y-89090414D01*
X113545874Y-89381565D01*
X113477560Y-89725000D01*
X113477560Y-90475000D01*
X113545874Y-90818435D01*
X113740414Y-91109586D01*
X114031565Y-91304126D01*
X114375000Y-91372440D01*
X115625000Y-91372440D01*
X115968435Y-91304126D01*
X116259586Y-91109586D01*
X116297729Y-91052500D01*
X116962008Y-91052500D01*
X116952560Y-91100000D01*
X116952560Y-92900000D01*
X117001843Y-93147765D01*
X117142191Y-93357809D01*
X117340114Y-93490058D01*
X117305282Y-93524890D01*
X117419839Y-93639447D01*
X117163357Y-93725852D01*
X116953542Y-94299336D01*
X116979161Y-94909460D01*
X117163357Y-95354148D01*
X117419841Y-95440554D01*
X118320395Y-94540000D01*
X118306253Y-94525858D01*
X118485858Y-94346253D01*
X118500000Y-94360395D01*
X118514143Y-94346253D01*
X118693748Y-94525858D01*
X118679605Y-94540000D01*
X119580159Y-95440554D01*
X119836643Y-95354148D01*
X120046458Y-94780664D01*
X120020839Y-94170540D01*
X119836643Y-93725852D01*
X119580161Y-93639447D01*
X119694718Y-93524890D01*
X119659886Y-93490058D01*
X119857809Y-93357809D01*
X119998157Y-93147765D01*
X120047440Y-92900000D01*
X120047440Y-91100000D01*
X119998157Y-90852235D01*
X119857809Y-90642191D01*
X119647765Y-90501843D01*
X119643000Y-90500895D01*
X119643000Y-89112570D01*
X119665392Y-88999999D01*
X119632493Y-88834608D01*
X119576682Y-88554024D01*
X119324057Y-88175943D01*
X119228621Y-88112175D01*
X117387827Y-86271382D01*
X117324057Y-86175943D01*
X116945976Y-85923318D01*
X116612572Y-85857000D01*
X116612571Y-85857000D01*
X116500000Y-85834608D01*
X116387429Y-85857000D01*
X110943000Y-85857000D01*
X110943000Y-83447440D01*
X111300000Y-83447440D01*
X111547765Y-83398157D01*
X111757809Y-83257809D01*
X111898157Y-83047765D01*
X111947440Y-82800000D01*
X111947440Y-81200000D01*
X111898157Y-80952235D01*
X111757809Y-80742191D01*
X111547765Y-80601843D01*
X111300000Y-80552560D01*
X110943000Y-80552560D01*
X110943000Y-79022440D01*
X111475000Y-79022440D01*
X111818435Y-78954126D01*
X112109586Y-78759586D01*
X112304126Y-78468435D01*
X112372440Y-78125000D01*
X112372440Y-76875000D01*
X112304126Y-76531565D01*
X112109586Y-76240414D01*
X111818435Y-76045874D01*
X111475000Y-75977560D01*
X110725000Y-75977560D01*
X110381565Y-76045874D01*
X110090414Y-76240414D01*
X110024253Y-76339432D01*
X110000000Y-76334608D01*
X109887428Y-76357000D01*
X109554024Y-76423318D01*
X109175943Y-76675943D01*
X109112173Y-76771382D01*
X109071380Y-76812175D01*
X108975944Y-76875943D01*
X108725960Y-77250072D01*
X108723319Y-77254024D01*
X108634608Y-77700000D01*
X108657001Y-77812576D01*
X108657000Y-80552560D01*
X108300000Y-80552560D01*
X108052235Y-80601843D01*
X107842191Y-80742191D01*
X107765477Y-80857000D01*
X106547440Y-80857000D01*
X106547440Y-80250000D01*
X106498157Y-80002235D01*
X106357809Y-79792191D01*
X106147765Y-79651843D01*
X105900000Y-79602560D01*
X104100000Y-79602560D01*
X103852235Y-79651843D01*
X103642191Y-79792191D01*
X103501843Y-80002235D01*
X103452560Y-80250000D01*
X103452560Y-82750000D01*
X103501843Y-82997765D01*
X103642191Y-83207809D01*
X103852235Y-83348157D01*
X104100000Y-83397440D01*
X105900000Y-83397440D01*
X106147765Y-83348157D01*
X106357809Y-83207809D01*
X106401113Y-83143000D01*
X107765477Y-83143000D01*
X107842191Y-83257809D01*
X108052235Y-83398157D01*
X108300000Y-83447440D01*
X108657000Y-83447440D01*
X108657001Y-86887423D01*
X108634608Y-87000000D01*
X108657000Y-87112572D01*
X108657001Y-88726553D01*
X106526555Y-90857000D01*
X106499105Y-90857000D01*
X106498157Y-90852235D01*
X106357809Y-90642191D01*
X106147765Y-90501843D01*
X105918910Y-90456321D01*
X105897235Y-90347353D01*
X105686714Y-90032286D01*
X105607183Y-89979145D01*
X105120856Y-89492819D01*
X105067714Y-89413286D01*
X104752647Y-89202765D01*
X104474810Y-89147500D01*
X104381000Y-89128840D01*
X104287190Y-89147500D01*
X102797729Y-89147500D01*
X102759586Y-89090414D01*
X102468435Y-88895874D01*
X102125000Y-88827560D01*
X100875000Y-88827560D01*
X100531565Y-88895874D01*
X100240414Y-89090414D01*
X100045874Y-89381565D01*
X99977560Y-89725000D01*
X97710000Y-89725000D01*
X97710000Y-76250000D01*
X103452560Y-76250000D01*
X103452560Y-78750000D01*
X103501843Y-78997765D01*
X103642191Y-79207809D01*
X103852235Y-79348157D01*
X104100000Y-79397440D01*
X105900000Y-79397440D01*
X106147765Y-79348157D01*
X106357809Y-79207809D01*
X106498157Y-78997765D01*
X106547440Y-78750000D01*
X106547440Y-76250000D01*
X106505500Y-76039151D01*
X106505500Y-74786533D01*
X106572440Y-74450001D01*
X106572440Y-71549999D01*
X108427560Y-71549999D01*
X108427560Y-74450001D01*
X108495873Y-74793436D01*
X108690414Y-75084586D01*
X108981564Y-75279127D01*
X109324999Y-75347440D01*
X109950001Y-75347440D01*
X110293436Y-75279127D01*
X110584586Y-75084586D01*
X110779127Y-74793436D01*
X110847440Y-74450001D01*
X110847440Y-74143000D01*
X111887429Y-74143000D01*
X112000000Y-74165392D01*
X112112571Y-74143000D01*
X112112572Y-74143000D01*
X112445976Y-74076682D01*
X112824057Y-73824057D01*
X112887827Y-73728618D01*
X113228618Y-73387827D01*
X113324057Y-73324057D01*
X113576682Y-72945976D01*
X113643000Y-72612572D01*
X113643000Y-72612571D01*
X113665392Y-72500000D01*
X113643000Y-72387429D01*
X113643000Y-71452500D01*
X117105463Y-71452500D01*
X132647500Y-86994538D01*
X132647501Y-103802270D01*
X132590414Y-103840414D01*
X132395874Y-104131565D01*
X132327560Y-104475000D01*
X132327560Y-105725000D01*
X132395874Y-106068435D01*
X132590414Y-106359586D01*
X132881565Y-106554126D01*
X133225000Y-106622440D01*
X133975000Y-106622440D01*
X134318435Y-106554126D01*
X134609586Y-106359586D01*
X134804126Y-106068435D01*
X134872440Y-105725000D01*
X134872440Y-104475000D01*
X134804126Y-104131565D01*
X134609586Y-103840414D01*
X134552500Y-103802271D01*
X134552500Y-86693808D01*
X134571160Y-86599999D01*
X134550898Y-86498138D01*
X134497235Y-86228353D01*
X134286714Y-85913286D01*
X134207184Y-85860146D01*
X118239857Y-69892820D01*
X118227951Y-69875000D01*
X132327560Y-69875000D01*
X132327560Y-71125000D01*
X132395874Y-71468435D01*
X132590414Y-71759586D01*
X132881565Y-71954126D01*
X133225000Y-72022440D01*
X133975000Y-72022440D01*
X134318435Y-71954126D01*
X134609586Y-71759586D01*
X134804126Y-71468435D01*
X134872440Y-71125000D01*
X134872440Y-69875000D01*
X135127560Y-69875000D01*
X135127560Y-71125000D01*
X135195874Y-71468435D01*
X135390414Y-71759586D01*
X135681565Y-71954126D01*
X136025000Y-72022440D01*
X136775000Y-72022440D01*
X137118435Y-71954126D01*
X137409586Y-71759586D01*
X137604126Y-71468435D01*
X137644412Y-71265908D01*
X137740414Y-71409586D01*
X138031565Y-71604126D01*
X138375000Y-71672440D01*
X138588570Y-71672440D01*
X138501843Y-71802235D01*
X138452560Y-72050000D01*
X138452560Y-72950000D01*
X138501843Y-73197765D01*
X138642191Y-73407809D01*
X138852235Y-73548157D01*
X139100000Y-73597440D01*
X139588684Y-73597440D01*
X139451843Y-73802235D01*
X139402560Y-74050000D01*
X139402560Y-74950000D01*
X139451843Y-75197765D01*
X139497500Y-75266095D01*
X139497501Y-95216743D01*
X139233286Y-95393286D01*
X139180147Y-95472814D01*
X137942817Y-96710146D01*
X137863287Y-96763286D01*
X137757799Y-96921160D01*
X137652765Y-97078354D01*
X137578840Y-97450000D01*
X137597501Y-97543815D01*
X137597500Y-100333905D01*
X137551843Y-100402235D01*
X137502560Y-100650000D01*
X137502560Y-101550000D01*
X137551843Y-101797765D01*
X137692191Y-102007809D01*
X137902235Y-102148157D01*
X138150000Y-102197440D01*
X138638684Y-102197440D01*
X138501843Y-102402235D01*
X138452560Y-102650000D01*
X138452560Y-103550000D01*
X138501843Y-103797765D01*
X138588570Y-103927560D01*
X138375000Y-103927560D01*
X138031565Y-103995874D01*
X137740414Y-104190414D01*
X137644412Y-104334092D01*
X137604126Y-104131565D01*
X137409586Y-103840414D01*
X137118435Y-103645874D01*
X136775000Y-103577560D01*
X136025000Y-103577560D01*
X135681565Y-103645874D01*
X135390414Y-103840414D01*
X135195874Y-104131565D01*
X135127560Y-104475000D01*
X135127560Y-105725000D01*
X135195874Y-106068435D01*
X135390414Y-106359586D01*
X135681565Y-106554126D01*
X136025000Y-106622440D01*
X136775000Y-106622440D01*
X137118435Y-106554126D01*
X137409586Y-106359586D01*
X137604126Y-106068435D01*
X137612666Y-106025500D01*
X137617412Y-106025500D01*
X137740414Y-106209586D01*
X138031565Y-106404126D01*
X138375000Y-106472440D01*
X139625000Y-106472440D01*
X139968435Y-106404126D01*
X140250000Y-106215991D01*
X140531565Y-106404126D01*
X140875000Y-106472440D01*
X142125000Y-106472440D01*
X142468435Y-106404126D01*
X142759586Y-106209586D01*
X142882588Y-106025500D01*
X143858068Y-106025500D01*
X145358795Y-107526229D01*
X145404848Y-107595152D01*
X145473771Y-107641205D01*
X145473772Y-107641206D01*
X145525760Y-107675943D01*
X145677906Y-107777604D01*
X145918697Y-107825500D01*
X145918701Y-107825500D01*
X145999999Y-107841671D01*
X146081297Y-107825500D01*
X167418699Y-107825500D01*
X167500000Y-107841672D01*
X167581301Y-107825500D01*
X167581303Y-107825500D01*
X167822094Y-107777604D01*
X168095152Y-107595152D01*
X168141209Y-107526223D01*
X171526229Y-104141205D01*
X171595152Y-104095152D01*
X171777604Y-103822094D01*
X171825500Y-103581303D01*
X171825500Y-103581299D01*
X171841671Y-103500001D01*
X171825500Y-103418703D01*
X171825500Y-95081303D01*
X171841672Y-95000000D01*
X171777604Y-94677905D01*
X171641206Y-94473773D01*
X171595152Y-94404848D01*
X171526226Y-94358793D01*
X170181209Y-93013777D01*
X170135152Y-92944848D01*
X169862094Y-92762396D01*
X169621303Y-92714500D01*
X169621301Y-92714500D01*
X169540000Y-92698328D01*
X169458699Y-92714500D01*
X169363896Y-92714500D01*
X168972862Y-92323466D01*
X168843784Y-92270000D01*
X168972862Y-92216534D01*
X169376534Y-91812862D01*
X169595000Y-91285439D01*
X169595000Y-90714561D01*
X169376534Y-90187138D01*
X168972862Y-89783466D01*
X168843784Y-89730000D01*
X168972862Y-89676534D01*
X169376534Y-89272862D01*
X169595000Y-88745439D01*
X169595000Y-88174561D01*
X169376534Y-87647138D01*
X168972862Y-87243466D01*
X168843784Y-87190000D01*
X168972862Y-87136534D01*
X169376534Y-86732862D01*
X169595000Y-86205439D01*
X169595000Y-85634561D01*
X169376534Y-85107138D01*
X168972862Y-84703466D01*
X168843784Y-84650000D01*
X168972862Y-84596534D01*
X169376534Y-84192862D01*
X169595000Y-83665439D01*
X169595000Y-83094561D01*
X169376534Y-82567138D01*
X168972862Y-82163466D01*
X168843784Y-82110000D01*
X168972862Y-82056534D01*
X169376534Y-81652862D01*
X169595000Y-81125439D01*
X169595000Y-80554561D01*
X169376534Y-80027138D01*
X168972862Y-79623466D01*
X168843784Y-79570000D01*
X168972862Y-79516534D01*
X169376534Y-79112862D01*
X169595000Y-78585439D01*
X169595000Y-78014561D01*
X169376534Y-77487138D01*
X168972862Y-77083466D01*
X168843784Y-77030000D01*
X168972862Y-76976534D01*
X169376534Y-76572862D01*
X169595000Y-76045439D01*
X169595000Y-75474561D01*
X169376534Y-74947138D01*
X168972862Y-74543466D01*
X168843784Y-74490000D01*
X168972862Y-74436534D01*
X169376534Y-74032862D01*
X169595000Y-73505439D01*
X169595000Y-72934561D01*
X169376534Y-72407138D01*
X168972862Y-72003466D01*
X168843784Y-71950000D01*
X168972862Y-71896534D01*
X169376534Y-71492862D01*
X169595000Y-70965439D01*
X169595000Y-70394561D01*
X169376534Y-69867138D01*
X168972862Y-69463466D01*
X168843784Y-69410000D01*
X168972862Y-69356534D01*
X169376534Y-68952862D01*
X169595000Y-68425439D01*
X169595000Y-67854561D01*
X169376534Y-67327138D01*
X168972862Y-66923466D01*
X168445439Y-66705000D01*
X167874561Y-66705000D01*
X167347138Y-66923466D01*
X166943466Y-67327138D01*
X166725000Y-67854561D01*
X166725000Y-68425439D01*
X166943466Y-68952862D01*
X167347138Y-69356534D01*
X167476216Y-69410000D01*
X167347138Y-69463466D01*
X166943466Y-69867138D01*
X166725000Y-70394561D01*
X166725000Y-70965439D01*
X166943466Y-71492862D01*
X167347138Y-71896534D01*
X167476216Y-71950000D01*
X167347138Y-72003466D01*
X166943466Y-72407138D01*
X166725000Y-72934561D01*
X166725000Y-73505439D01*
X166943466Y-74032862D01*
X167347138Y-74436534D01*
X167476216Y-74490000D01*
X167347138Y-74543466D01*
X166943466Y-74947138D01*
X166725000Y-75474561D01*
X166725000Y-76045439D01*
X166943466Y-76572862D01*
X167347138Y-76976534D01*
X167476216Y-77030000D01*
X167347138Y-77083466D01*
X166943466Y-77487138D01*
X166725000Y-78014561D01*
X166725000Y-78585439D01*
X166943466Y-79112862D01*
X167347138Y-79516534D01*
X167476216Y-79570000D01*
X167347138Y-79623466D01*
X166943466Y-80027138D01*
X166725000Y-80554561D01*
X166725000Y-81125439D01*
X166943466Y-81652862D01*
X167347138Y-82056534D01*
X167476216Y-82110000D01*
X167347138Y-82163466D01*
X166943466Y-82567138D01*
X166725000Y-83094561D01*
X166725000Y-83665439D01*
X166943466Y-84192862D01*
X167347138Y-84596534D01*
X167476216Y-84650000D01*
X167347138Y-84703466D01*
X166943466Y-85107138D01*
X166725000Y-85634561D01*
X166725000Y-86205439D01*
X166943466Y-86732862D01*
X167347138Y-87136534D01*
X167476216Y-87190000D01*
X167347138Y-87243466D01*
X166943466Y-87647138D01*
X166725000Y-88174561D01*
X166725000Y-88745439D01*
X166943466Y-89272862D01*
X167347138Y-89676534D01*
X167476216Y-89730000D01*
X167347138Y-89783466D01*
X166943466Y-90187138D01*
X166725000Y-90714561D01*
X166725000Y-91285439D01*
X166943466Y-91812862D01*
X167347138Y-92216534D01*
X167476216Y-92270000D01*
X167347138Y-92323466D01*
X166943466Y-92727138D01*
X166725000Y-93254561D01*
X166725000Y-93825439D01*
X166943466Y-94352862D01*
X167347138Y-94756534D01*
X167476216Y-94810000D01*
X167347138Y-94863466D01*
X166943466Y-95267138D01*
X166725000Y-95794561D01*
X166725000Y-96365439D01*
X166943466Y-96892862D01*
X167347138Y-97296534D01*
X167476216Y-97350000D01*
X167347138Y-97403466D01*
X166956104Y-97794500D01*
X165656427Y-97794500D01*
X165604126Y-97531565D01*
X165409586Y-97240414D01*
X165118435Y-97045874D01*
X164775000Y-96977560D01*
X164025000Y-96977560D01*
X163681565Y-97045874D01*
X163390414Y-97240414D01*
X163195874Y-97531565D01*
X163127560Y-97875000D01*
X163127560Y-99125000D01*
X163195874Y-99468435D01*
X163390414Y-99759586D01*
X163674500Y-99949406D01*
X163674500Y-100070602D01*
X163642191Y-100092191D01*
X163501843Y-100302235D01*
X163452560Y-100550000D01*
X163452560Y-101450000D01*
X163501843Y-101697765D01*
X163642191Y-101907809D01*
X163852235Y-102048157D01*
X164100000Y-102097440D01*
X164588684Y-102097440D01*
X164451843Y-102302235D01*
X164402560Y-102550000D01*
X164402560Y-103450000D01*
X164451843Y-103697765D01*
X164467206Y-103720757D01*
X164140463Y-104047500D01*
X159394538Y-104047500D01*
X150872038Y-95525000D01*
X159977560Y-95525000D01*
X159977560Y-96275000D01*
X160045874Y-96618435D01*
X160240414Y-96909586D01*
X160531565Y-97104126D01*
X160734092Y-97144412D01*
X160590414Y-97240414D01*
X160395874Y-97531565D01*
X160327560Y-97875000D01*
X160327560Y-99125000D01*
X160395874Y-99468435D01*
X160590414Y-99759586D01*
X160881565Y-99954126D01*
X161225000Y-100022440D01*
X161975000Y-100022440D01*
X162318435Y-99954126D01*
X162609586Y-99759586D01*
X162804126Y-99468435D01*
X162872440Y-99125000D01*
X162872440Y-97875000D01*
X162804126Y-97531565D01*
X162609586Y-97240414D01*
X162425500Y-97117412D01*
X162425500Y-97112666D01*
X162468435Y-97104126D01*
X162759586Y-96909586D01*
X162954126Y-96618435D01*
X163022440Y-96275000D01*
X163022440Y-95525000D01*
X162954126Y-95181565D01*
X162759586Y-94890414D01*
X162468435Y-94695874D01*
X162125000Y-94627560D01*
X160875000Y-94627560D01*
X160531565Y-94695874D01*
X160240414Y-94890414D01*
X160045874Y-95181565D01*
X159977560Y-95525000D01*
X150872038Y-95525000D01*
X150819857Y-95472820D01*
X150766714Y-95393286D01*
X150451647Y-95182765D01*
X150173810Y-95127500D01*
X150080000Y-95108840D01*
X149986190Y-95127500D01*
X148916896Y-95127500D01*
X148652862Y-94863466D01*
X148539417Y-94816475D01*
X148594005Y-94793864D01*
X148668139Y-94547745D01*
X147840000Y-93719605D01*
X147011861Y-94547745D01*
X147085995Y-94793864D01*
X147144448Y-94814874D01*
X147027138Y-94863466D01*
X146763104Y-95127500D01*
X141402500Y-95127500D01*
X141402500Y-93323223D01*
X146393035Y-93323223D01*
X146420222Y-93893454D01*
X146586136Y-94294005D01*
X146832255Y-94368139D01*
X147660395Y-93540000D01*
X148019605Y-93540000D01*
X148847745Y-94368139D01*
X149093864Y-94294005D01*
X149286965Y-93756777D01*
X149259778Y-93186546D01*
X149093864Y-92785995D01*
X148847745Y-92711861D01*
X148019605Y-93540000D01*
X147660395Y-93540000D01*
X146832255Y-92711861D01*
X146586136Y-92785995D01*
X146393035Y-93323223D01*
X141402500Y-93323223D01*
X141402500Y-75266095D01*
X141448157Y-75197765D01*
X141497440Y-74950000D01*
X141497440Y-74050000D01*
X141448157Y-73802235D01*
X141307809Y-73592191D01*
X141097765Y-73451843D01*
X140850000Y-73402560D01*
X140361316Y-73402560D01*
X140498157Y-73197765D01*
X140547440Y-72950000D01*
X140547440Y-72050000D01*
X140498157Y-71802235D01*
X140357809Y-71592191D01*
X140325500Y-71570603D01*
X140325500Y-71466438D01*
X140531565Y-71604126D01*
X140875000Y-71672440D01*
X142125000Y-71672440D01*
X142159813Y-71665515D01*
X142177905Y-71677604D01*
X142500000Y-71741672D01*
X142822094Y-71677604D01*
X143095152Y-71495152D01*
X143275328Y-71225500D01*
X146512721Y-71225500D01*
X146623466Y-71492862D01*
X147027138Y-71896534D01*
X147156216Y-71950000D01*
X147027138Y-72003466D01*
X146623466Y-72407138D01*
X146405000Y-72934561D01*
X146405000Y-73505439D01*
X146623466Y-74032862D01*
X147027138Y-74436534D01*
X147156216Y-74490000D01*
X147027138Y-74543466D01*
X146623466Y-74947138D01*
X146405000Y-75474561D01*
X146405000Y-76045439D01*
X146623466Y-76572862D01*
X147027138Y-76976534D01*
X147156216Y-77030000D01*
X147027138Y-77083466D01*
X146623466Y-77487138D01*
X146405000Y-78014561D01*
X146405000Y-78585439D01*
X146623466Y-79112862D01*
X147027138Y-79516534D01*
X147156216Y-79570000D01*
X147027138Y-79623466D01*
X146623466Y-80027138D01*
X146405000Y-80554561D01*
X146405000Y-81125439D01*
X146623466Y-81652862D01*
X147027138Y-82056534D01*
X147156216Y-82110000D01*
X147027138Y-82163466D01*
X146623466Y-82567138D01*
X146405000Y-83094561D01*
X146405000Y-83665439D01*
X146623466Y-84192862D01*
X147027138Y-84596534D01*
X147156216Y-84650000D01*
X147027138Y-84703466D01*
X146623466Y-85107138D01*
X146405000Y-85634561D01*
X146405000Y-86205439D01*
X146623466Y-86732862D01*
X147027138Y-87136534D01*
X147156216Y-87190000D01*
X147027138Y-87243466D01*
X146623466Y-87647138D01*
X146405000Y-88174561D01*
X146405000Y-88745439D01*
X146623466Y-89272862D01*
X147027138Y-89676534D01*
X147156216Y-89730000D01*
X147027138Y-89783466D01*
X146623466Y-90187138D01*
X146405000Y-90714561D01*
X146405000Y-91285439D01*
X146623466Y-91812862D01*
X147027138Y-92216534D01*
X147140583Y-92263525D01*
X147085995Y-92286136D01*
X147011861Y-92532255D01*
X147840000Y-93360395D01*
X148668139Y-92532255D01*
X148594005Y-92286136D01*
X148535552Y-92265126D01*
X148652862Y-92216534D01*
X149056534Y-91812862D01*
X149275000Y-91285439D01*
X149275000Y-90714561D01*
X149056534Y-90187138D01*
X148652862Y-89783466D01*
X148523784Y-89730000D01*
X148652862Y-89676534D01*
X149056534Y-89272862D01*
X149275000Y-88745439D01*
X149275000Y-88174561D01*
X149056534Y-87647138D01*
X148652862Y-87243466D01*
X148523784Y-87190000D01*
X148652862Y-87136534D01*
X149056534Y-86732862D01*
X149275000Y-86205439D01*
X149275000Y-85634561D01*
X149056534Y-85107138D01*
X148652862Y-84703466D01*
X148523784Y-84650000D01*
X148652862Y-84596534D01*
X149056534Y-84192862D01*
X149275000Y-83665439D01*
X149275000Y-83094561D01*
X149056534Y-82567138D01*
X148652862Y-82163466D01*
X148523784Y-82110000D01*
X148652862Y-82056534D01*
X149056534Y-81652862D01*
X149275000Y-81125439D01*
X149275000Y-80554561D01*
X149056534Y-80027138D01*
X148652862Y-79623466D01*
X148523784Y-79570000D01*
X148652862Y-79516534D01*
X149056534Y-79112862D01*
X149275000Y-78585439D01*
X149275000Y-78014561D01*
X149056534Y-77487138D01*
X148652862Y-77083466D01*
X148523784Y-77030000D01*
X148652862Y-76976534D01*
X149056534Y-76572862D01*
X149275000Y-76045439D01*
X149275000Y-75474561D01*
X149056534Y-74947138D01*
X148652862Y-74543466D01*
X148523784Y-74490000D01*
X148652862Y-74436534D01*
X149056534Y-74032862D01*
X149275000Y-73505439D01*
X149275000Y-72934561D01*
X149056534Y-72407138D01*
X148652862Y-72003466D01*
X148523784Y-71950000D01*
X148652862Y-71896534D01*
X149056534Y-71492862D01*
X149275000Y-70965439D01*
X149275000Y-70394561D01*
X149056534Y-69867138D01*
X148665500Y-69476104D01*
X148665500Y-69343896D01*
X149056534Y-68952862D01*
X149275000Y-68425439D01*
X149275000Y-67854561D01*
X149056534Y-67327138D01*
X148652862Y-66923466D01*
X148125439Y-66705000D01*
X147554561Y-66705000D01*
X147027138Y-66923466D01*
X146623466Y-67327138D01*
X146405000Y-67854561D01*
X146405000Y-68425439D01*
X146623466Y-68952862D01*
X147014501Y-69343897D01*
X147014500Y-69476104D01*
X146916104Y-69574500D01*
X142882588Y-69574500D01*
X142759586Y-69390414D01*
X142468435Y-69195874D01*
X142125000Y-69127560D01*
X140875000Y-69127560D01*
X140531565Y-69195874D01*
X140250000Y-69384009D01*
X139968435Y-69195874D01*
X139625000Y-69127560D01*
X138375000Y-69127560D01*
X138031565Y-69195874D01*
X137740414Y-69390414D01*
X137617412Y-69574500D01*
X137612666Y-69574500D01*
X137604126Y-69531565D01*
X137409586Y-69240414D01*
X137118435Y-69045874D01*
X136775000Y-68977560D01*
X136025000Y-68977560D01*
X135681565Y-69045874D01*
X135390414Y-69240414D01*
X135195874Y-69531565D01*
X135127560Y-69875000D01*
X134872440Y-69875000D01*
X134804126Y-69531565D01*
X134609586Y-69240414D01*
X134425500Y-69117412D01*
X134425500Y-66241932D01*
X136341933Y-64325500D01*
X137918699Y-64325500D01*
X138000000Y-64341672D01*
X138081301Y-64325500D01*
X138081303Y-64325500D01*
X138322094Y-64277604D01*
X138595152Y-64095152D01*
X138641209Y-64026223D01*
X148026226Y-54641207D01*
X148095152Y-54595152D01*
X148186586Y-54458311D01*
X148277604Y-54322095D01*
X148341672Y-54000000D01*
X148325500Y-53918697D01*
X148325500Y-52315059D01*
X148690305Y-52071305D01*
X149055208Y-51525188D01*
X149151000Y-51043608D01*
X149151000Y-49956392D01*
X150849000Y-49956392D01*
X150849000Y-51043609D01*
X150944792Y-51525188D01*
X151309696Y-52071305D01*
X151855813Y-52436208D01*
X152500000Y-52564345D01*
X153144188Y-52436208D01*
X153690305Y-52071305D01*
X154055208Y-51525188D01*
X154151000Y-51043608D01*
X154151000Y-49956392D01*
X155849000Y-49956392D01*
X155849000Y-51043609D01*
X155944792Y-51525188D01*
X156309696Y-52071305D01*
X156674501Y-52315059D01*
X156674500Y-60418698D01*
X156658328Y-60500000D01*
X156674500Y-60581301D01*
X156674500Y-60581302D01*
X156722396Y-60822093D01*
X156904848Y-61095152D01*
X156973777Y-61141209D01*
X158074501Y-62241934D01*
X158074500Y-91617412D01*
X157890414Y-91740414D01*
X157695874Y-92031565D01*
X157627560Y-92375000D01*
X157627560Y-93625000D01*
X157695874Y-93968435D01*
X157890414Y-94259586D01*
X158181565Y-94454126D01*
X158525000Y-94522440D01*
X159275000Y-94522440D01*
X159618435Y-94454126D01*
X159909586Y-94259586D01*
X160104126Y-93968435D01*
X160112666Y-93925500D01*
X160117412Y-93925500D01*
X160240414Y-94109586D01*
X160531565Y-94304126D01*
X160875000Y-94372440D01*
X162125000Y-94372440D01*
X162468435Y-94304126D01*
X162759586Y-94109586D01*
X162954126Y-93818435D01*
X163022440Y-93475000D01*
X163022440Y-92725000D01*
X162954126Y-92381565D01*
X162759586Y-92090414D01*
X162468435Y-91895874D01*
X162125000Y-91827560D01*
X160875000Y-91827560D01*
X160531565Y-91895874D01*
X160240414Y-92090414D01*
X160144412Y-92234092D01*
X160104126Y-92031565D01*
X159909586Y-91740414D01*
X159725500Y-91617412D01*
X159725500Y-61981301D01*
X159741672Y-61900000D01*
X159725500Y-61818697D01*
X159677604Y-61577906D01*
X159495152Y-61304848D01*
X159426226Y-61258793D01*
X158325500Y-60158068D01*
X158325500Y-56258654D01*
X160273000Y-56258654D01*
X160273000Y-57741346D01*
X160840402Y-59111176D01*
X161888824Y-60159598D01*
X163258654Y-60727000D01*
X164741346Y-60727000D01*
X166111176Y-60159598D01*
X167159598Y-59111176D01*
X167727000Y-57741346D01*
X167727000Y-56258654D01*
X167159598Y-54888824D01*
X166111176Y-53840402D01*
X164741346Y-53273000D01*
X163258654Y-53273000D01*
X161888824Y-53840402D01*
X160840402Y-54888824D01*
X160273000Y-56258654D01*
X158325500Y-56258654D01*
X158325500Y-52315059D01*
X158690305Y-52071305D01*
X159055208Y-51525188D01*
X159151000Y-51043608D01*
X159151000Y-49956391D01*
X159055208Y-49474812D01*
X158690305Y-48928695D01*
X158144187Y-48563792D01*
X157500000Y-48435655D01*
X156855812Y-48563792D01*
X156309695Y-48928695D01*
X155944792Y-49474813D01*
X155849000Y-49956392D01*
X154151000Y-49956392D01*
X154151000Y-49956391D01*
X154055208Y-49474812D01*
X153690305Y-48928695D01*
X153144187Y-48563792D01*
X152500000Y-48435655D01*
X151855812Y-48563792D01*
X151309695Y-48928695D01*
X150944792Y-49474813D01*
X150849000Y-49956392D01*
X149151000Y-49956392D01*
X149151000Y-49956391D01*
X149055208Y-49474812D01*
X148690305Y-48928695D01*
X148144187Y-48563792D01*
X147500000Y-48435655D01*
X146855812Y-48563792D01*
X146309695Y-48928695D01*
X145944792Y-49474813D01*
X145849000Y-49956392D01*
X145849000Y-51043609D01*
X145944792Y-51525188D01*
X146309696Y-52071305D01*
X146674500Y-52315059D01*
X146674500Y-53658067D01*
X137658068Y-62674500D01*
X136081303Y-62674500D01*
X136000000Y-62658328D01*
X135918697Y-62674500D01*
X135677906Y-62722396D01*
X135404848Y-62904848D01*
X135358793Y-62973774D01*
X133073775Y-65258793D01*
X133004849Y-65304848D01*
X132958794Y-65373774D01*
X132822397Y-65577906D01*
X132758328Y-65900000D01*
X132774501Y-65981306D01*
X132774500Y-69117412D01*
X132590414Y-69240414D01*
X132395874Y-69531565D01*
X132327560Y-69875000D01*
X118227951Y-69875000D01*
X118186714Y-69813286D01*
X117871647Y-69602765D01*
X117593810Y-69547500D01*
X117500000Y-69528840D01*
X117406190Y-69547500D01*
X113643000Y-69547500D01*
X113643000Y-52519178D01*
X113763765Y-52495157D01*
X113973809Y-52354809D01*
X114114157Y-52144765D01*
X114163440Y-51897000D01*
X114163440Y-49956392D01*
X115849000Y-49956392D01*
X115849000Y-51043609D01*
X115944792Y-51525188D01*
X116309696Y-52071305D01*
X116855813Y-52436208D01*
X117500000Y-52564345D01*
X118144188Y-52436208D01*
X118690305Y-52071305D01*
X119055208Y-51525188D01*
X119151000Y-51043608D01*
X119151000Y-49956392D01*
X120849000Y-49956392D01*
X120849000Y-51043609D01*
X120944792Y-51525188D01*
X121309696Y-52071305D01*
X121855813Y-52436208D01*
X122500000Y-52564345D01*
X123144188Y-52436208D01*
X123690305Y-52071305D01*
X124055208Y-51525188D01*
X124151000Y-51043608D01*
X124151000Y-50627000D01*
X125849000Y-50627000D01*
X125849000Y-51008000D01*
X126023276Y-51630143D01*
X126422370Y-52138236D01*
X126985523Y-52454926D01*
X127117056Y-52486975D01*
X127373000Y-52367836D01*
X127373000Y-50627000D01*
X127627000Y-50627000D01*
X127627000Y-52367836D01*
X127882944Y-52486975D01*
X128014477Y-52454926D01*
X128577630Y-52138236D01*
X128976724Y-51630143D01*
X129151000Y-51008000D01*
X129151000Y-50627000D01*
X130849000Y-50627000D01*
X130849000Y-51008000D01*
X131023276Y-51630143D01*
X131422370Y-52138236D01*
X131985523Y-52454926D01*
X132117056Y-52486975D01*
X132373000Y-52367836D01*
X132373000Y-50627000D01*
X132627000Y-50627000D01*
X132627000Y-52367836D01*
X132882944Y-52486975D01*
X133014477Y-52454926D01*
X133577630Y-52138236D01*
X133976724Y-51630143D01*
X134151000Y-51008000D01*
X134151000Y-50627000D01*
X135849000Y-50627000D01*
X135849000Y-51008000D01*
X136023276Y-51630143D01*
X136422370Y-52138236D01*
X136985523Y-52454926D01*
X137117056Y-52486975D01*
X137373000Y-52367836D01*
X137373000Y-50627000D01*
X137627000Y-50627000D01*
X137627000Y-52367836D01*
X137882944Y-52486975D01*
X138014477Y-52454926D01*
X138577630Y-52138236D01*
X138976724Y-51630143D01*
X139151000Y-51008000D01*
X139151000Y-50627000D01*
X137627000Y-50627000D01*
X137373000Y-50627000D01*
X135849000Y-50627000D01*
X134151000Y-50627000D01*
X132627000Y-50627000D01*
X132373000Y-50627000D01*
X130849000Y-50627000D01*
X129151000Y-50627000D01*
X127627000Y-50627000D01*
X127373000Y-50627000D01*
X125849000Y-50627000D01*
X124151000Y-50627000D01*
X124151000Y-49992000D01*
X125849000Y-49992000D01*
X125849000Y-50373000D01*
X127373000Y-50373000D01*
X127373000Y-48632164D01*
X127627000Y-48632164D01*
X127627000Y-50373000D01*
X129151000Y-50373000D01*
X129151000Y-49992000D01*
X130849000Y-49992000D01*
X130849000Y-50373000D01*
X132373000Y-50373000D01*
X132373000Y-48632164D01*
X132627000Y-48632164D01*
X132627000Y-50373000D01*
X134151000Y-50373000D01*
X134151000Y-49992000D01*
X135849000Y-49992000D01*
X135849000Y-50373000D01*
X137373000Y-50373000D01*
X137373000Y-48632164D01*
X137627000Y-48632164D01*
X137627000Y-50373000D01*
X139151000Y-50373000D01*
X139151000Y-49992000D01*
X139141026Y-49956392D01*
X140849000Y-49956392D01*
X140849000Y-51043609D01*
X140944792Y-51525188D01*
X141309696Y-52071305D01*
X141855813Y-52436208D01*
X142500000Y-52564345D01*
X143144188Y-52436208D01*
X143690305Y-52071305D01*
X144055208Y-51525188D01*
X144151000Y-51043608D01*
X144151000Y-49956391D01*
X144055208Y-49474812D01*
X143690305Y-48928695D01*
X143144187Y-48563792D01*
X142500000Y-48435655D01*
X141855812Y-48563792D01*
X141309695Y-48928695D01*
X140944792Y-49474813D01*
X140849000Y-49956392D01*
X139141026Y-49956392D01*
X138976724Y-49369857D01*
X138577630Y-48861764D01*
X138014477Y-48545074D01*
X137882944Y-48513025D01*
X137627000Y-48632164D01*
X137373000Y-48632164D01*
X137117056Y-48513025D01*
X136985523Y-48545074D01*
X136422370Y-48861764D01*
X136023276Y-49369857D01*
X135849000Y-49992000D01*
X134151000Y-49992000D01*
X133976724Y-49369857D01*
X133577630Y-48861764D01*
X133014477Y-48545074D01*
X132882944Y-48513025D01*
X132627000Y-48632164D01*
X132373000Y-48632164D01*
X132117056Y-48513025D01*
X131985523Y-48545074D01*
X131422370Y-48861764D01*
X131023276Y-49369857D01*
X130849000Y-49992000D01*
X129151000Y-49992000D01*
X128976724Y-49369857D01*
X128577630Y-48861764D01*
X128014477Y-48545074D01*
X127882944Y-48513025D01*
X127627000Y-48632164D01*
X127373000Y-48632164D01*
X127117056Y-48513025D01*
X126985523Y-48545074D01*
X126422370Y-48861764D01*
X126023276Y-49369857D01*
X125849000Y-49992000D01*
X124151000Y-49992000D01*
X124151000Y-49956391D01*
X124055208Y-49474812D01*
X123690305Y-48928695D01*
X123144187Y-48563792D01*
X122500000Y-48435655D01*
X121855812Y-48563792D01*
X121309695Y-48928695D01*
X120944792Y-49474813D01*
X120849000Y-49956392D01*
X119151000Y-49956392D01*
X119151000Y-49956391D01*
X119055208Y-49474812D01*
X118690305Y-48928695D01*
X118144187Y-48563792D01*
X117500000Y-48435655D01*
X116855812Y-48563792D01*
X116309695Y-48928695D01*
X115944792Y-49474813D01*
X115849000Y-49956392D01*
X114163440Y-49956392D01*
X114163440Y-49103000D01*
X114114157Y-48855235D01*
X113973809Y-48645191D01*
X113763765Y-48504843D01*
X113516000Y-48455560D01*
X111484000Y-48455560D01*
X111236235Y-48504843D01*
X111026191Y-48645191D01*
X110885843Y-48855235D01*
X110836560Y-49103000D01*
X110836560Y-51897000D01*
X110885843Y-52144765D01*
X111026191Y-52354809D01*
X111236235Y-52495157D01*
X111357000Y-52519178D01*
X111357001Y-71857000D01*
X110847440Y-71857000D01*
X110847440Y-71549999D01*
X110779127Y-71206564D01*
X110584586Y-70915414D01*
X110293436Y-70720873D01*
X109950001Y-70652560D01*
X109324999Y-70652560D01*
X108981564Y-70720873D01*
X108690414Y-70915414D01*
X108495873Y-71206564D01*
X108427560Y-71549999D01*
X106572440Y-71549999D01*
X106504127Y-71206564D01*
X106309586Y-70915414D01*
X106018436Y-70720873D01*
X105675001Y-70652560D01*
X105049999Y-70652560D01*
X104706564Y-70720873D01*
X104415414Y-70915414D01*
X104220873Y-71206564D01*
X104152560Y-71549999D01*
X104152560Y-74450001D01*
X104219500Y-74786536D01*
X104219501Y-75602560D01*
X104100000Y-75602560D01*
X103852235Y-75651843D01*
X103642191Y-75792191D01*
X103501843Y-76002235D01*
X103452560Y-76250000D01*
X97710000Y-76250000D01*
X97710000Y-56258654D01*
X102273000Y-56258654D01*
X102273000Y-57741346D01*
X102840402Y-59111176D01*
X103888824Y-60159598D01*
X105258654Y-60727000D01*
X106741346Y-60727000D01*
X108111176Y-60159598D01*
X109159598Y-59111176D01*
X109727000Y-57741346D01*
X109727000Y-56258654D01*
X109159598Y-54888824D01*
X108111176Y-53840402D01*
X106741346Y-53273000D01*
X105258654Y-53273000D01*
X103888824Y-53840402D01*
X102840402Y-54888824D01*
X102273000Y-56258654D01*
X97710000Y-56258654D01*
X97710000Y-45710000D01*
X172290000Y-45710000D01*
X172290001Y-124290000D01*
X172290001Y-124290000D01*
G37*
X172290001Y-124290000D02*
X97710000Y-124290000D01*
X97710000Y-122305000D01*
X111289000Y-122305000D01*
X111289000Y-122805000D01*
X111458252Y-123401886D01*
X111843039Y-123888567D01*
X112384780Y-124190950D01*
X112501412Y-124218586D01*
X112747000Y-124098584D01*
X112747000Y-122305000D01*
X113001000Y-122305000D01*
X113001000Y-124098584D01*
X113246588Y-124218586D01*
X113363220Y-124190950D01*
X113904961Y-123888567D01*
X114289748Y-123401886D01*
X114459000Y-122805000D01*
X114459000Y-122305000D01*
X113001000Y-122305000D01*
X112747000Y-122305000D01*
X111289000Y-122305000D01*
X97710000Y-122305000D01*
X97710000Y-117258654D01*
X102273000Y-117258654D01*
X102273000Y-118741346D01*
X102840402Y-120111176D01*
X103888824Y-121159598D01*
X105258654Y-121727000D01*
X106741346Y-121727000D01*
X107166247Y-121551000D01*
X111289000Y-121551000D01*
X111289000Y-122051000D01*
X112747000Y-122051000D01*
X112747000Y-120257416D01*
X113001000Y-120257416D01*
X113001000Y-122051000D01*
X114459000Y-122051000D01*
X114459000Y-121551000D01*
X114289748Y-120954114D01*
X113904961Y-120467433D01*
X113363220Y-120165050D01*
X113246588Y-120137414D01*
X113001000Y-120257416D01*
X112747000Y-120257416D01*
X112501412Y-120137414D01*
X112384780Y-120165050D01*
X111843039Y-120467433D01*
X111458252Y-120954114D01*
X111289000Y-121551000D01*
X107166247Y-121551000D01*
X108111176Y-121159598D01*
X109159598Y-120111176D01*
X109727000Y-118741346D01*
X109727000Y-117258654D01*
X109159598Y-115888824D01*
X108111176Y-114840402D01*
X106866883Y-114324999D01*
X113652560Y-114324999D01*
X113652560Y-114950001D01*
X113720873Y-115293436D01*
X113915414Y-115584586D01*
X114206564Y-115779127D01*
X114549999Y-115847440D01*
X114857000Y-115847440D01*
X114857001Y-121656286D01*
X114836191Y-121670191D01*
X114695843Y-121880235D01*
X114646560Y-122128000D01*
X114646560Y-123428000D01*
X114695843Y-123675765D01*
X114836191Y-123885809D01*
X115046235Y-124026157D01*
X115294000Y-124075440D01*
X116594000Y-124075440D01*
X116841765Y-124026157D01*
X117051809Y-123885809D01*
X117192157Y-123675765D01*
X117241440Y-123428000D01*
X117241440Y-123232631D01*
X117354629Y-123505894D01*
X117716106Y-123867371D01*
X118188398Y-124063000D01*
X118699602Y-124063000D01*
X119171894Y-123867371D01*
X119308765Y-123730500D01*
X119579235Y-123730500D01*
X119716106Y-123867371D01*
X120188398Y-124063000D01*
X120699602Y-124063000D01*
X121171894Y-123867371D01*
X121362249Y-123677016D01*
X122224590Y-123677016D01*
X122280271Y-123907611D01*
X122763078Y-124075622D01*
X123273428Y-124046083D01*
X123607729Y-123907611D01*
X123663410Y-123677016D01*
X122944000Y-122957605D01*
X122224590Y-123677016D01*
X121362249Y-123677016D01*
X121533371Y-123505894D01*
X121687169Y-123134592D01*
X121814389Y-123441729D01*
X122044984Y-123497410D01*
X122764395Y-122778000D01*
X123123605Y-122778000D01*
X123843016Y-123497410D01*
X124073611Y-123441729D01*
X124241622Y-122958922D01*
X124212083Y-122448572D01*
X124152614Y-122305000D01*
X124429000Y-122305000D01*
X124429000Y-122805000D01*
X124598252Y-123401886D01*
X124983039Y-123888567D01*
X125524780Y-124190950D01*
X125641412Y-124218586D01*
X125887000Y-124098584D01*
X125887000Y-122305000D01*
X126141000Y-122305000D01*
X126141000Y-124098584D01*
X126386588Y-124218586D01*
X126503220Y-124190950D01*
X127044961Y-123888567D01*
X127429748Y-123401886D01*
X127599000Y-122805000D01*
X127599000Y-122305000D01*
X126141000Y-122305000D01*
X125887000Y-122305000D01*
X124429000Y-122305000D01*
X124152614Y-122305000D01*
X124073611Y-122114271D01*
X123843016Y-122058590D01*
X123123605Y-122778000D01*
X122764395Y-122778000D01*
X122044984Y-122058590D01*
X121814389Y-122114271D01*
X121698223Y-122448094D01*
X121533371Y-122050106D01*
X121362249Y-121878984D01*
X122224590Y-121878984D01*
X122944000Y-122598395D01*
X123663410Y-121878984D01*
X123607729Y-121648389D01*
X123327866Y-121551000D01*
X124429000Y-121551000D01*
X124429000Y-122051000D01*
X125887000Y-122051000D01*
X125887000Y-120257416D01*
X126141000Y-120257416D01*
X126141000Y-122051000D01*
X127599000Y-122051000D01*
X127599000Y-121551000D01*
X127429748Y-120954114D01*
X127044961Y-120467433D01*
X126503220Y-120165050D01*
X126386588Y-120137414D01*
X126141000Y-120257416D01*
X125887000Y-120257416D01*
X125641412Y-120137414D01*
X125524780Y-120165050D01*
X124983039Y-120467433D01*
X124598252Y-120954114D01*
X124429000Y-121551000D01*
X123327866Y-121551000D01*
X123124922Y-121480378D01*
X122614572Y-121509917D01*
X122280271Y-121648389D01*
X122224590Y-121878984D01*
X121362249Y-121878984D01*
X121171894Y-121688629D01*
X120699602Y-121493000D01*
X120188398Y-121493000D01*
X119716106Y-121688629D01*
X119579235Y-121825500D01*
X119308765Y-121825500D01*
X119171894Y-121688629D01*
X118699602Y-121493000D01*
X118188398Y-121493000D01*
X117716106Y-121688629D01*
X117354629Y-122050106D01*
X117241440Y-122323369D01*
X117241440Y-122128000D01*
X117192157Y-121880235D01*
X117143000Y-121806667D01*
X117143000Y-118370588D01*
X117403414Y-118370588D01*
X117431050Y-118487220D01*
X117733433Y-119028961D01*
X118220114Y-119413748D01*
X118817000Y-119583000D01*
X119317000Y-119583000D01*
X119317000Y-118125000D01*
X119571000Y-118125000D01*
X119571000Y-119583000D01*
X120071000Y-119583000D01*
X120667886Y-119413748D01*
X121154567Y-119028961D01*
X121456950Y-118487220D01*
X121484586Y-118370588D01*
X121364584Y-118125000D01*
X119571000Y-118125000D01*
X119317000Y-118125000D01*
X117523416Y-118125000D01*
X117403414Y-118370588D01*
X117143000Y-118370588D01*
X117143000Y-117625412D01*
X117403414Y-117625412D01*
X117523416Y-117871000D01*
X119317000Y-117871000D01*
X119317000Y-116413000D01*
X119571000Y-116413000D01*
X119571000Y-117871000D01*
X121364584Y-117871000D01*
X121484586Y-117625412D01*
X121456950Y-117508780D01*
X121317338Y-117258654D01*
X160273000Y-117258654D01*
X160273000Y-118741346D01*
X160840402Y-120111176D01*
X161888824Y-121159598D01*
X163258654Y-121727000D01*
X164741346Y-121727000D01*
X166111176Y-121159598D01*
X167159598Y-120111176D01*
X167727000Y-118741346D01*
X167727000Y-117258654D01*
X167159598Y-115888824D01*
X166111176Y-114840402D01*
X164741346Y-114273000D01*
X163258654Y-114273000D01*
X161888824Y-114840402D01*
X160840402Y-115888824D01*
X160273000Y-117258654D01*
X121317338Y-117258654D01*
X121154567Y-116967039D01*
X120667886Y-116582252D01*
X120071000Y-116413000D01*
X119571000Y-116413000D01*
X119317000Y-116413000D01*
X118817000Y-116413000D01*
X118220114Y-116582252D01*
X117733433Y-116967039D01*
X117431050Y-117508780D01*
X117403414Y-117625412D01*
X117143000Y-117625412D01*
X117143000Y-115847440D01*
X117450001Y-115847440D01*
X117793436Y-115779127D01*
X118084586Y-115584586D01*
X118279127Y-115293436D01*
X118347440Y-114950001D01*
X118347440Y-114324999D01*
X118279127Y-113981564D01*
X118084586Y-113690414D01*
X117793436Y-113495873D01*
X117450001Y-113427560D01*
X114549999Y-113427560D01*
X114206564Y-113495873D01*
X113915414Y-113690414D01*
X113720873Y-113981564D01*
X113652560Y-114324999D01*
X106866883Y-114324999D01*
X106741346Y-114273000D01*
X105258654Y-114273000D01*
X103888824Y-114840402D01*
X102840402Y-115888824D01*
X102273000Y-117258654D01*
X97710000Y-117258654D01*
X97710000Y-98525000D01*
X99977560Y-98525000D01*
X99977560Y-99275000D01*
X100045874Y-99618435D01*
X100240414Y-99909586D01*
X100531565Y-100104126D01*
X100875000Y-100172440D01*
X102125000Y-100172440D01*
X102468435Y-100104126D01*
X102759586Y-99909586D01*
X102797729Y-99852500D01*
X103857000Y-99852500D01*
X103857000Y-99887429D01*
X103834608Y-100000000D01*
X103857000Y-100112571D01*
X103857000Y-100112572D01*
X103923318Y-100445976D01*
X104175944Y-100824057D01*
X104271380Y-100887825D01*
X111112175Y-107728621D01*
X111175943Y-107824057D01*
X111554024Y-108076682D01*
X111887428Y-108143000D01*
X111887429Y-108143000D01*
X112000000Y-108165392D01*
X112112571Y-108143000D01*
X114026555Y-108143000D01*
X114857000Y-108973446D01*
X114857000Y-109152560D01*
X114549999Y-109152560D01*
X114206564Y-109220873D01*
X113915414Y-109415414D01*
X113720873Y-109706564D01*
X113652560Y-110049999D01*
X113652560Y-110675001D01*
X113720873Y-111018436D01*
X113915414Y-111309586D01*
X114206564Y-111504127D01*
X114549999Y-111572440D01*
X117450001Y-111572440D01*
X117793436Y-111504127D01*
X118084586Y-111309586D01*
X118279127Y-111018436D01*
X118347440Y-110675001D01*
X118347440Y-110049999D01*
X118279127Y-109706564D01*
X118084586Y-109415414D01*
X117793436Y-109220873D01*
X117450001Y-109152560D01*
X117143000Y-109152560D01*
X117143000Y-108612570D01*
X117165392Y-108499999D01*
X117094380Y-108143000D01*
X117076682Y-108054024D01*
X116824057Y-107675943D01*
X116728621Y-107612175D01*
X115387827Y-106271382D01*
X115324057Y-106175943D01*
X114945976Y-105923318D01*
X114612572Y-105857000D01*
X114612571Y-105857000D01*
X114500000Y-105834608D01*
X114387429Y-105857000D01*
X112473446Y-105857000D01*
X106143000Y-99526555D01*
X106143000Y-98525000D01*
X113477560Y-98525000D01*
X113477560Y-99275000D01*
X113545874Y-99618435D01*
X113740414Y-99909586D01*
X114031565Y-100104126D01*
X114375000Y-100172440D01*
X115625000Y-100172440D01*
X115968435Y-100104126D01*
X116259586Y-99909586D01*
X116297729Y-99852500D01*
X118006190Y-99852500D01*
X118100000Y-99871160D01*
X118193810Y-99852500D01*
X118471647Y-99797235D01*
X118786714Y-99586714D01*
X118839857Y-99507180D01*
X119107180Y-99239857D01*
X119186714Y-99186714D01*
X119397235Y-98871647D01*
X119452500Y-98593810D01*
X119452500Y-98593806D01*
X119471159Y-98500001D01*
X119452500Y-98406196D01*
X119452500Y-98298317D01*
X119801310Y-97949507D01*
X120035000Y-97385330D01*
X120035000Y-96774670D01*
X119801310Y-96210493D01*
X119369507Y-95778690D01*
X119349885Y-95770562D01*
X119400554Y-95620159D01*
X118500000Y-94719605D01*
X117599446Y-95620159D01*
X117650115Y-95770562D01*
X117630493Y-95778690D01*
X117198690Y-96210493D01*
X116965000Y-96774670D01*
X116965000Y-97385330D01*
X117197859Y-97947500D01*
X116297729Y-97947500D01*
X116259586Y-97890414D01*
X115968435Y-97695874D01*
X115625000Y-97627560D01*
X114375000Y-97627560D01*
X114031565Y-97695874D01*
X113740414Y-97890414D01*
X113545874Y-98181565D01*
X113477560Y-98525000D01*
X106143000Y-98525000D01*
X106143000Y-98107817D01*
X106301310Y-97949507D01*
X106535000Y-97385330D01*
X106535000Y-96774670D01*
X106301310Y-96210493D01*
X105869507Y-95778690D01*
X105849885Y-95770562D01*
X105900554Y-95620159D01*
X105000000Y-94719605D01*
X104099446Y-95620159D01*
X104150115Y-95770562D01*
X104130493Y-95778690D01*
X103698690Y-96210493D01*
X103465000Y-96774670D01*
X103465000Y-97385330D01*
X103697859Y-97947500D01*
X102797729Y-97947500D01*
X102759586Y-97890414D01*
X102468435Y-97695874D01*
X102125000Y-97627560D01*
X100875000Y-97627560D01*
X100531565Y-97695874D01*
X100240414Y-97890414D01*
X100045874Y-98181565D01*
X99977560Y-98525000D01*
X97710000Y-98525000D01*
X97710000Y-89725000D01*
X99977560Y-89725000D01*
X99977560Y-90475000D01*
X100045874Y-90818435D01*
X100240414Y-91109586D01*
X100531565Y-91304126D01*
X100875000Y-91372440D01*
X102125000Y-91372440D01*
X102468435Y-91304126D01*
X102759586Y-91109586D01*
X102797729Y-91052500D01*
X103462008Y-91052500D01*
X103452560Y-91100000D01*
X103452560Y-92900000D01*
X103501843Y-93147765D01*
X103642191Y-93357809D01*
X103840114Y-93490058D01*
X103805282Y-93524890D01*
X103919839Y-93639447D01*
X103663357Y-93725852D01*
X103453542Y-94299336D01*
X103479161Y-94909460D01*
X103663357Y-95354148D01*
X103919841Y-95440554D01*
X104820395Y-94540000D01*
X104806253Y-94525858D01*
X104985858Y-94346253D01*
X105000000Y-94360395D01*
X105014143Y-94346253D01*
X105193748Y-94525858D01*
X105179605Y-94540000D01*
X106080159Y-95440554D01*
X106336643Y-95354148D01*
X106546458Y-94780664D01*
X106520839Y-94170540D01*
X106336643Y-93725852D01*
X106080161Y-93639447D01*
X106194718Y-93524890D01*
X106159886Y-93490058D01*
X106357809Y-93357809D01*
X106498157Y-93147765D01*
X106499105Y-93143000D01*
X106887429Y-93143000D01*
X107000000Y-93165392D01*
X107112571Y-93143000D01*
X107112572Y-93143000D01*
X107445976Y-93076682D01*
X107824057Y-92824057D01*
X107887827Y-92728618D01*
X110528620Y-90087826D01*
X110624057Y-90024057D01*
X110876682Y-89645976D01*
X110943000Y-89312572D01*
X110943000Y-89312571D01*
X110965392Y-89200000D01*
X110943000Y-89087429D01*
X110943000Y-88143000D01*
X116026555Y-88143000D01*
X117031054Y-89147500D01*
X116297729Y-89147500D01*
X116259586Y-89090414D01*
X115968435Y-88895874D01*
X115625000Y-88827560D01*
X114375000Y-88827560D01*
X114031565Y-88895874D01*
X113740414Y-89090414D01*
X113545874Y-89381565D01*
X113477560Y-89725000D01*
X113477560Y-90475000D01*
X113545874Y-90818435D01*
X113740414Y-91109586D01*
X114031565Y-91304126D01*
X114375000Y-91372440D01*
X115625000Y-91372440D01*
X115968435Y-91304126D01*
X116259586Y-91109586D01*
X116297729Y-91052500D01*
X116962008Y-91052500D01*
X116952560Y-91100000D01*
X116952560Y-92900000D01*
X117001843Y-93147765D01*
X117142191Y-93357809D01*
X117340114Y-93490058D01*
X117305282Y-93524890D01*
X117419839Y-93639447D01*
X117163357Y-93725852D01*
X116953542Y-94299336D01*
X116979161Y-94909460D01*
X117163357Y-95354148D01*
X117419841Y-95440554D01*
X118320395Y-94540000D01*
X118306253Y-94525858D01*
X118485858Y-94346253D01*
X118500000Y-94360395D01*
X118514143Y-94346253D01*
X118693748Y-94525858D01*
X118679605Y-94540000D01*
X119580159Y-95440554D01*
X119836643Y-95354148D01*
X120046458Y-94780664D01*
X120020839Y-94170540D01*
X119836643Y-93725852D01*
X119580161Y-93639447D01*
X119694718Y-93524890D01*
X119659886Y-93490058D01*
X119857809Y-93357809D01*
X119998157Y-93147765D01*
X120047440Y-92900000D01*
X120047440Y-91100000D01*
X119998157Y-90852235D01*
X119857809Y-90642191D01*
X119647765Y-90501843D01*
X119643000Y-90500895D01*
X119643000Y-89112570D01*
X119665392Y-88999999D01*
X119632493Y-88834608D01*
X119576682Y-88554024D01*
X119324057Y-88175943D01*
X119228621Y-88112175D01*
X117387827Y-86271382D01*
X117324057Y-86175943D01*
X116945976Y-85923318D01*
X116612572Y-85857000D01*
X116612571Y-85857000D01*
X116500000Y-85834608D01*
X116387429Y-85857000D01*
X110943000Y-85857000D01*
X110943000Y-83447440D01*
X111300000Y-83447440D01*
X111547765Y-83398157D01*
X111757809Y-83257809D01*
X111898157Y-83047765D01*
X111947440Y-82800000D01*
X111947440Y-81200000D01*
X111898157Y-80952235D01*
X111757809Y-80742191D01*
X111547765Y-80601843D01*
X111300000Y-80552560D01*
X110943000Y-80552560D01*
X110943000Y-79022440D01*
X111475000Y-79022440D01*
X111818435Y-78954126D01*
X112109586Y-78759586D01*
X112304126Y-78468435D01*
X112372440Y-78125000D01*
X112372440Y-76875000D01*
X112304126Y-76531565D01*
X112109586Y-76240414D01*
X111818435Y-76045874D01*
X111475000Y-75977560D01*
X110725000Y-75977560D01*
X110381565Y-76045874D01*
X110090414Y-76240414D01*
X110024253Y-76339432D01*
X110000000Y-76334608D01*
X109887428Y-76357000D01*
X109554024Y-76423318D01*
X109175943Y-76675943D01*
X109112173Y-76771382D01*
X109071380Y-76812175D01*
X108975944Y-76875943D01*
X108725960Y-77250072D01*
X108723319Y-77254024D01*
X108634608Y-77700000D01*
X108657001Y-77812576D01*
X108657000Y-80552560D01*
X108300000Y-80552560D01*
X108052235Y-80601843D01*
X107842191Y-80742191D01*
X107765477Y-80857000D01*
X106547440Y-80857000D01*
X106547440Y-80250000D01*
X106498157Y-80002235D01*
X106357809Y-79792191D01*
X106147765Y-79651843D01*
X105900000Y-79602560D01*
X104100000Y-79602560D01*
X103852235Y-79651843D01*
X103642191Y-79792191D01*
X103501843Y-80002235D01*
X103452560Y-80250000D01*
X103452560Y-82750000D01*
X103501843Y-82997765D01*
X103642191Y-83207809D01*
X103852235Y-83348157D01*
X104100000Y-83397440D01*
X105900000Y-83397440D01*
X106147765Y-83348157D01*
X106357809Y-83207809D01*
X106401113Y-83143000D01*
X107765477Y-83143000D01*
X107842191Y-83257809D01*
X108052235Y-83398157D01*
X108300000Y-83447440D01*
X108657000Y-83447440D01*
X108657001Y-86887423D01*
X108634608Y-87000000D01*
X108657000Y-87112572D01*
X108657001Y-88726553D01*
X106526555Y-90857000D01*
X106499105Y-90857000D01*
X106498157Y-90852235D01*
X106357809Y-90642191D01*
X106147765Y-90501843D01*
X105918910Y-90456321D01*
X105897235Y-90347353D01*
X105686714Y-90032286D01*
X105607183Y-89979145D01*
X105120856Y-89492819D01*
X105067714Y-89413286D01*
X104752647Y-89202765D01*
X104474810Y-89147500D01*
X104381000Y-89128840D01*
X104287190Y-89147500D01*
X102797729Y-89147500D01*
X102759586Y-89090414D01*
X102468435Y-88895874D01*
X102125000Y-88827560D01*
X100875000Y-88827560D01*
X100531565Y-88895874D01*
X100240414Y-89090414D01*
X100045874Y-89381565D01*
X99977560Y-89725000D01*
X97710000Y-89725000D01*
X97710000Y-76250000D01*
X103452560Y-76250000D01*
X103452560Y-78750000D01*
X103501843Y-78997765D01*
X103642191Y-79207809D01*
X103852235Y-79348157D01*
X104100000Y-79397440D01*
X105900000Y-79397440D01*
X106147765Y-79348157D01*
X106357809Y-79207809D01*
X106498157Y-78997765D01*
X106547440Y-78750000D01*
X106547440Y-76250000D01*
X106505500Y-76039151D01*
X106505500Y-74786533D01*
X106572440Y-74450001D01*
X106572440Y-71549999D01*
X108427560Y-71549999D01*
X108427560Y-74450001D01*
X108495873Y-74793436D01*
X108690414Y-75084586D01*
X108981564Y-75279127D01*
X109324999Y-75347440D01*
X109950001Y-75347440D01*
X110293436Y-75279127D01*
X110584586Y-75084586D01*
X110779127Y-74793436D01*
X110847440Y-74450001D01*
X110847440Y-74143000D01*
X111887429Y-74143000D01*
X112000000Y-74165392D01*
X112112571Y-74143000D01*
X112112572Y-74143000D01*
X112445976Y-74076682D01*
X112824057Y-73824057D01*
X112887827Y-73728618D01*
X113228618Y-73387827D01*
X113324057Y-73324057D01*
X113576682Y-72945976D01*
X113643000Y-72612572D01*
X113643000Y-72612571D01*
X113665392Y-72500000D01*
X113643000Y-72387429D01*
X113643000Y-71452500D01*
X117105463Y-71452500D01*
X132647500Y-86994538D01*
X132647501Y-103802270D01*
X132590414Y-103840414D01*
X132395874Y-104131565D01*
X132327560Y-104475000D01*
X132327560Y-105725000D01*
X132395874Y-106068435D01*
X132590414Y-106359586D01*
X132881565Y-106554126D01*
X133225000Y-106622440D01*
X133975000Y-106622440D01*
X134318435Y-106554126D01*
X134609586Y-106359586D01*
X134804126Y-106068435D01*
X134872440Y-105725000D01*
X134872440Y-104475000D01*
X134804126Y-104131565D01*
X134609586Y-103840414D01*
X134552500Y-103802271D01*
X134552500Y-86693808D01*
X134571160Y-86599999D01*
X134550898Y-86498138D01*
X134497235Y-86228353D01*
X134286714Y-85913286D01*
X134207184Y-85860146D01*
X118239857Y-69892820D01*
X118227951Y-69875000D01*
X132327560Y-69875000D01*
X132327560Y-71125000D01*
X132395874Y-71468435D01*
X132590414Y-71759586D01*
X132881565Y-71954126D01*
X133225000Y-72022440D01*
X133975000Y-72022440D01*
X134318435Y-71954126D01*
X134609586Y-71759586D01*
X134804126Y-71468435D01*
X134872440Y-71125000D01*
X134872440Y-69875000D01*
X135127560Y-69875000D01*
X135127560Y-71125000D01*
X135195874Y-71468435D01*
X135390414Y-71759586D01*
X135681565Y-71954126D01*
X136025000Y-72022440D01*
X136775000Y-72022440D01*
X137118435Y-71954126D01*
X137409586Y-71759586D01*
X137604126Y-71468435D01*
X137644412Y-71265908D01*
X137740414Y-71409586D01*
X138031565Y-71604126D01*
X138375000Y-71672440D01*
X138588570Y-71672440D01*
X138501843Y-71802235D01*
X138452560Y-72050000D01*
X138452560Y-72950000D01*
X138501843Y-73197765D01*
X138642191Y-73407809D01*
X138852235Y-73548157D01*
X139100000Y-73597440D01*
X139588684Y-73597440D01*
X139451843Y-73802235D01*
X139402560Y-74050000D01*
X139402560Y-74950000D01*
X139451843Y-75197765D01*
X139497500Y-75266095D01*
X139497501Y-95216743D01*
X139233286Y-95393286D01*
X139180147Y-95472814D01*
X137942817Y-96710146D01*
X137863287Y-96763286D01*
X137757799Y-96921160D01*
X137652765Y-97078354D01*
X137578840Y-97450000D01*
X137597501Y-97543815D01*
X137597500Y-100333905D01*
X137551843Y-100402235D01*
X137502560Y-100650000D01*
X137502560Y-101550000D01*
X137551843Y-101797765D01*
X137692191Y-102007809D01*
X137902235Y-102148157D01*
X138150000Y-102197440D01*
X138638684Y-102197440D01*
X138501843Y-102402235D01*
X138452560Y-102650000D01*
X138452560Y-103550000D01*
X138501843Y-103797765D01*
X138588570Y-103927560D01*
X138375000Y-103927560D01*
X138031565Y-103995874D01*
X137740414Y-104190414D01*
X137644412Y-104334092D01*
X137604126Y-104131565D01*
X137409586Y-103840414D01*
X137118435Y-103645874D01*
X136775000Y-103577560D01*
X136025000Y-103577560D01*
X135681565Y-103645874D01*
X135390414Y-103840414D01*
X135195874Y-104131565D01*
X135127560Y-104475000D01*
X135127560Y-105725000D01*
X135195874Y-106068435D01*
X135390414Y-106359586D01*
X135681565Y-106554126D01*
X136025000Y-106622440D01*
X136775000Y-106622440D01*
X137118435Y-106554126D01*
X137409586Y-106359586D01*
X137604126Y-106068435D01*
X137612666Y-106025500D01*
X137617412Y-106025500D01*
X137740414Y-106209586D01*
X138031565Y-106404126D01*
X138375000Y-106472440D01*
X139625000Y-106472440D01*
X139968435Y-106404126D01*
X140250000Y-106215991D01*
X140531565Y-106404126D01*
X140875000Y-106472440D01*
X142125000Y-106472440D01*
X142468435Y-106404126D01*
X142759586Y-106209586D01*
X142882588Y-106025500D01*
X143858068Y-106025500D01*
X145358795Y-107526229D01*
X145404848Y-107595152D01*
X145473771Y-107641205D01*
X145473772Y-107641206D01*
X145525760Y-107675943D01*
X145677906Y-107777604D01*
X145918697Y-107825500D01*
X145918701Y-107825500D01*
X145999999Y-107841671D01*
X146081297Y-107825500D01*
X167418699Y-107825500D01*
X167500000Y-107841672D01*
X167581301Y-107825500D01*
X167581303Y-107825500D01*
X167822094Y-107777604D01*
X168095152Y-107595152D01*
X168141209Y-107526223D01*
X171526229Y-104141205D01*
X171595152Y-104095152D01*
X171777604Y-103822094D01*
X171825500Y-103581303D01*
X171825500Y-103581299D01*
X171841671Y-103500001D01*
X171825500Y-103418703D01*
X171825500Y-95081303D01*
X171841672Y-95000000D01*
X171777604Y-94677905D01*
X171641206Y-94473773D01*
X171595152Y-94404848D01*
X171526226Y-94358793D01*
X170181209Y-93013777D01*
X170135152Y-92944848D01*
X169862094Y-92762396D01*
X169621303Y-92714500D01*
X169621301Y-92714500D01*
X169540000Y-92698328D01*
X169458699Y-92714500D01*
X169363896Y-92714500D01*
X168972862Y-92323466D01*
X168843784Y-92270000D01*
X168972862Y-92216534D01*
X169376534Y-91812862D01*
X169595000Y-91285439D01*
X169595000Y-90714561D01*
X169376534Y-90187138D01*
X168972862Y-89783466D01*
X168843784Y-89730000D01*
X168972862Y-89676534D01*
X169376534Y-89272862D01*
X169595000Y-88745439D01*
X169595000Y-88174561D01*
X169376534Y-87647138D01*
X168972862Y-87243466D01*
X168843784Y-87190000D01*
X168972862Y-87136534D01*
X169376534Y-86732862D01*
X169595000Y-86205439D01*
X169595000Y-85634561D01*
X169376534Y-85107138D01*
X168972862Y-84703466D01*
X168843784Y-84650000D01*
X168972862Y-84596534D01*
X169376534Y-84192862D01*
X169595000Y-83665439D01*
X169595000Y-83094561D01*
X169376534Y-82567138D01*
X168972862Y-82163466D01*
X168843784Y-82110000D01*
X168972862Y-82056534D01*
X169376534Y-81652862D01*
X169595000Y-81125439D01*
X169595000Y-80554561D01*
X169376534Y-80027138D01*
X168972862Y-79623466D01*
X168843784Y-79570000D01*
X168972862Y-79516534D01*
X169376534Y-79112862D01*
X169595000Y-78585439D01*
X169595000Y-78014561D01*
X169376534Y-77487138D01*
X168972862Y-77083466D01*
X168843784Y-77030000D01*
X168972862Y-76976534D01*
X169376534Y-76572862D01*
X169595000Y-76045439D01*
X169595000Y-75474561D01*
X169376534Y-74947138D01*
X168972862Y-74543466D01*
X168843784Y-74490000D01*
X168972862Y-74436534D01*
X169376534Y-74032862D01*
X169595000Y-73505439D01*
X169595000Y-72934561D01*
X169376534Y-72407138D01*
X168972862Y-72003466D01*
X168843784Y-71950000D01*
X168972862Y-71896534D01*
X169376534Y-71492862D01*
X169595000Y-70965439D01*
X169595000Y-70394561D01*
X169376534Y-69867138D01*
X168972862Y-69463466D01*
X168843784Y-69410000D01*
X168972862Y-69356534D01*
X169376534Y-68952862D01*
X169595000Y-68425439D01*
X169595000Y-67854561D01*
X169376534Y-67327138D01*
X168972862Y-66923466D01*
X168445439Y-66705000D01*
X167874561Y-66705000D01*
X167347138Y-66923466D01*
X166943466Y-67327138D01*
X166725000Y-67854561D01*
X166725000Y-68425439D01*
X166943466Y-68952862D01*
X167347138Y-69356534D01*
X167476216Y-69410000D01*
X167347138Y-69463466D01*
X166943466Y-69867138D01*
X166725000Y-70394561D01*
X166725000Y-70965439D01*
X166943466Y-71492862D01*
X167347138Y-71896534D01*
X167476216Y-71950000D01*
X167347138Y-72003466D01*
X166943466Y-72407138D01*
X166725000Y-72934561D01*
X166725000Y-73505439D01*
X166943466Y-74032862D01*
X167347138Y-74436534D01*
X167476216Y-74490000D01*
X167347138Y-74543466D01*
X166943466Y-74947138D01*
X166725000Y-75474561D01*
X166725000Y-76045439D01*
X166943466Y-76572862D01*
X167347138Y-76976534D01*
X167476216Y-77030000D01*
X167347138Y-77083466D01*
X166943466Y-77487138D01*
X166725000Y-78014561D01*
X166725000Y-78585439D01*
X166943466Y-79112862D01*
X167347138Y-79516534D01*
X167476216Y-79570000D01*
X167347138Y-79623466D01*
X166943466Y-80027138D01*
X166725000Y-80554561D01*
X166725000Y-81125439D01*
X166943466Y-81652862D01*
X167347138Y-82056534D01*
X167476216Y-82110000D01*
X167347138Y-82163466D01*
X166943466Y-82567138D01*
X166725000Y-83094561D01*
X166725000Y-83665439D01*
X166943466Y-84192862D01*
X167347138Y-84596534D01*
X167476216Y-84650000D01*
X167347138Y-84703466D01*
X166943466Y-85107138D01*
X166725000Y-85634561D01*
X166725000Y-86205439D01*
X166943466Y-86732862D01*
X167347138Y-87136534D01*
X167476216Y-87190000D01*
X167347138Y-87243466D01*
X166943466Y-87647138D01*
X166725000Y-88174561D01*
X166725000Y-88745439D01*
X166943466Y-89272862D01*
X167347138Y-89676534D01*
X167476216Y-89730000D01*
X167347138Y-89783466D01*
X166943466Y-90187138D01*
X166725000Y-90714561D01*
X166725000Y-91285439D01*
X166943466Y-91812862D01*
X167347138Y-92216534D01*
X167476216Y-92270000D01*
X167347138Y-92323466D01*
X166943466Y-92727138D01*
X166725000Y-93254561D01*
X166725000Y-93825439D01*
X166943466Y-94352862D01*
X167347138Y-94756534D01*
X167476216Y-94810000D01*
X167347138Y-94863466D01*
X166943466Y-95267138D01*
X166725000Y-95794561D01*
X166725000Y-96365439D01*
X166943466Y-96892862D01*
X167347138Y-97296534D01*
X167476216Y-97350000D01*
X167347138Y-97403466D01*
X166956104Y-97794500D01*
X165656427Y-97794500D01*
X165604126Y-97531565D01*
X165409586Y-97240414D01*
X165118435Y-97045874D01*
X164775000Y-96977560D01*
X164025000Y-96977560D01*
X163681565Y-97045874D01*
X163390414Y-97240414D01*
X163195874Y-97531565D01*
X163127560Y-97875000D01*
X163127560Y-99125000D01*
X163195874Y-99468435D01*
X163390414Y-99759586D01*
X163674500Y-99949406D01*
X163674500Y-100070602D01*
X163642191Y-100092191D01*
X163501843Y-100302235D01*
X163452560Y-100550000D01*
X163452560Y-101450000D01*
X163501843Y-101697765D01*
X163642191Y-101907809D01*
X163852235Y-102048157D01*
X164100000Y-102097440D01*
X164588684Y-102097440D01*
X164451843Y-102302235D01*
X164402560Y-102550000D01*
X164402560Y-103450000D01*
X164451843Y-103697765D01*
X164467206Y-103720757D01*
X164140463Y-104047500D01*
X159394538Y-104047500D01*
X150872038Y-95525000D01*
X159977560Y-95525000D01*
X159977560Y-96275000D01*
X160045874Y-96618435D01*
X160240414Y-96909586D01*
X160531565Y-97104126D01*
X160734092Y-97144412D01*
X160590414Y-97240414D01*
X160395874Y-97531565D01*
X160327560Y-97875000D01*
X160327560Y-99125000D01*
X160395874Y-99468435D01*
X160590414Y-99759586D01*
X160881565Y-99954126D01*
X161225000Y-100022440D01*
X161975000Y-100022440D01*
X162318435Y-99954126D01*
X162609586Y-99759586D01*
X162804126Y-99468435D01*
X162872440Y-99125000D01*
X162872440Y-97875000D01*
X162804126Y-97531565D01*
X162609586Y-97240414D01*
X162425500Y-97117412D01*
X162425500Y-97112666D01*
X162468435Y-97104126D01*
X162759586Y-96909586D01*
X162954126Y-96618435D01*
X163022440Y-96275000D01*
X163022440Y-95525000D01*
X162954126Y-95181565D01*
X162759586Y-94890414D01*
X162468435Y-94695874D01*
X162125000Y-94627560D01*
X160875000Y-94627560D01*
X160531565Y-94695874D01*
X160240414Y-94890414D01*
X160045874Y-95181565D01*
X159977560Y-95525000D01*
X150872038Y-95525000D01*
X150819857Y-95472820D01*
X150766714Y-95393286D01*
X150451647Y-95182765D01*
X150173810Y-95127500D01*
X150080000Y-95108840D01*
X149986190Y-95127500D01*
X148916896Y-95127500D01*
X148652862Y-94863466D01*
X148539417Y-94816475D01*
X148594005Y-94793864D01*
X148668139Y-94547745D01*
X147840000Y-93719605D01*
X147011861Y-94547745D01*
X147085995Y-94793864D01*
X147144448Y-94814874D01*
X147027138Y-94863466D01*
X146763104Y-95127500D01*
X141402500Y-95127500D01*
X141402500Y-93323223D01*
X146393035Y-93323223D01*
X146420222Y-93893454D01*
X146586136Y-94294005D01*
X146832255Y-94368139D01*
X147660395Y-93540000D01*
X148019605Y-93540000D01*
X148847745Y-94368139D01*
X149093864Y-94294005D01*
X149286965Y-93756777D01*
X149259778Y-93186546D01*
X149093864Y-92785995D01*
X148847745Y-92711861D01*
X148019605Y-93540000D01*
X147660395Y-93540000D01*
X146832255Y-92711861D01*
X146586136Y-92785995D01*
X146393035Y-93323223D01*
X141402500Y-93323223D01*
X141402500Y-75266095D01*
X141448157Y-75197765D01*
X141497440Y-74950000D01*
X141497440Y-74050000D01*
X141448157Y-73802235D01*
X141307809Y-73592191D01*
X141097765Y-73451843D01*
X140850000Y-73402560D01*
X140361316Y-73402560D01*
X140498157Y-73197765D01*
X140547440Y-72950000D01*
X140547440Y-72050000D01*
X140498157Y-71802235D01*
X140357809Y-71592191D01*
X140325500Y-71570603D01*
X140325500Y-71466438D01*
X140531565Y-71604126D01*
X140875000Y-71672440D01*
X142125000Y-71672440D01*
X142159813Y-71665515D01*
X142177905Y-71677604D01*
X142500000Y-71741672D01*
X142822094Y-71677604D01*
X143095152Y-71495152D01*
X143275328Y-71225500D01*
X146512721Y-71225500D01*
X146623466Y-71492862D01*
X147027138Y-71896534D01*
X147156216Y-71950000D01*
X147027138Y-72003466D01*
X146623466Y-72407138D01*
X146405000Y-72934561D01*
X146405000Y-73505439D01*
X146623466Y-74032862D01*
X147027138Y-74436534D01*
X147156216Y-74490000D01*
X147027138Y-74543466D01*
X146623466Y-74947138D01*
X146405000Y-75474561D01*
X146405000Y-76045439D01*
X146623466Y-76572862D01*
X147027138Y-76976534D01*
X147156216Y-77030000D01*
X147027138Y-77083466D01*
X146623466Y-77487138D01*
X146405000Y-78014561D01*
X146405000Y-78585439D01*
X146623466Y-79112862D01*
X147027138Y-79516534D01*
X147156216Y-79570000D01*
X147027138Y-79623466D01*
X146623466Y-80027138D01*
X146405000Y-80554561D01*
X146405000Y-81125439D01*
X146623466Y-81652862D01*
X147027138Y-82056534D01*
X147156216Y-82110000D01*
X147027138Y-82163466D01*
X146623466Y-82567138D01*
X146405000Y-83094561D01*
X146405000Y-83665439D01*
X146623466Y-84192862D01*
X147027138Y-84596534D01*
X147156216Y-84650000D01*
X147027138Y-84703466D01*
X146623466Y-85107138D01*
X146405000Y-85634561D01*
X146405000Y-86205439D01*
X146623466Y-86732862D01*
X147027138Y-87136534D01*
X147156216Y-87190000D01*
X147027138Y-87243466D01*
X146623466Y-87647138D01*
X146405000Y-88174561D01*
X146405000Y-88745439D01*
X146623466Y-89272862D01*
X147027138Y-89676534D01*
X147156216Y-89730000D01*
X147027138Y-89783466D01*
X146623466Y-90187138D01*
X146405000Y-90714561D01*
X146405000Y-91285439D01*
X146623466Y-91812862D01*
X147027138Y-92216534D01*
X147140583Y-92263525D01*
X147085995Y-92286136D01*
X147011861Y-92532255D01*
X147840000Y-93360395D01*
X148668139Y-92532255D01*
X148594005Y-92286136D01*
X148535552Y-92265126D01*
X148652862Y-92216534D01*
X149056534Y-91812862D01*
X149275000Y-91285439D01*
X149275000Y-90714561D01*
X149056534Y-90187138D01*
X148652862Y-89783466D01*
X148523784Y-89730000D01*
X148652862Y-89676534D01*
X149056534Y-89272862D01*
X149275000Y-88745439D01*
X149275000Y-88174561D01*
X149056534Y-87647138D01*
X148652862Y-87243466D01*
X148523784Y-87190000D01*
X148652862Y-87136534D01*
X149056534Y-86732862D01*
X149275000Y-86205439D01*
X149275000Y-85634561D01*
X149056534Y-85107138D01*
X148652862Y-84703466D01*
X148523784Y-84650000D01*
X148652862Y-84596534D01*
X149056534Y-84192862D01*
X149275000Y-83665439D01*
X149275000Y-83094561D01*
X149056534Y-82567138D01*
X148652862Y-82163466D01*
X148523784Y-82110000D01*
X148652862Y-82056534D01*
X149056534Y-81652862D01*
X149275000Y-81125439D01*
X149275000Y-80554561D01*
X149056534Y-80027138D01*
X148652862Y-79623466D01*
X148523784Y-79570000D01*
X148652862Y-79516534D01*
X149056534Y-79112862D01*
X149275000Y-78585439D01*
X149275000Y-78014561D01*
X149056534Y-77487138D01*
X148652862Y-77083466D01*
X148523784Y-77030000D01*
X148652862Y-76976534D01*
X149056534Y-76572862D01*
X149275000Y-76045439D01*
X149275000Y-75474561D01*
X149056534Y-74947138D01*
X148652862Y-74543466D01*
X148523784Y-74490000D01*
X148652862Y-74436534D01*
X149056534Y-74032862D01*
X149275000Y-73505439D01*
X149275000Y-72934561D01*
X149056534Y-72407138D01*
X148652862Y-72003466D01*
X148523784Y-71950000D01*
X148652862Y-71896534D01*
X149056534Y-71492862D01*
X149275000Y-70965439D01*
X149275000Y-70394561D01*
X149056534Y-69867138D01*
X148665500Y-69476104D01*
X148665500Y-69343896D01*
X149056534Y-68952862D01*
X149275000Y-68425439D01*
X149275000Y-67854561D01*
X149056534Y-67327138D01*
X148652862Y-66923466D01*
X148125439Y-66705000D01*
X147554561Y-66705000D01*
X147027138Y-66923466D01*
X146623466Y-67327138D01*
X146405000Y-67854561D01*
X146405000Y-68425439D01*
X146623466Y-68952862D01*
X147014501Y-69343897D01*
X147014500Y-69476104D01*
X146916104Y-69574500D01*
X142882588Y-69574500D01*
X142759586Y-69390414D01*
X142468435Y-69195874D01*
X142125000Y-69127560D01*
X140875000Y-69127560D01*
X140531565Y-69195874D01*
X140250000Y-69384009D01*
X139968435Y-69195874D01*
X139625000Y-69127560D01*
X138375000Y-69127560D01*
X138031565Y-69195874D01*
X137740414Y-69390414D01*
X137617412Y-69574500D01*
X137612666Y-69574500D01*
X137604126Y-69531565D01*
X137409586Y-69240414D01*
X137118435Y-69045874D01*
X136775000Y-68977560D01*
X136025000Y-68977560D01*
X135681565Y-69045874D01*
X135390414Y-69240414D01*
X135195874Y-69531565D01*
X135127560Y-69875000D01*
X134872440Y-69875000D01*
X134804126Y-69531565D01*
X134609586Y-69240414D01*
X134425500Y-69117412D01*
X134425500Y-66241932D01*
X136341933Y-64325500D01*
X137918699Y-64325500D01*
X138000000Y-64341672D01*
X138081301Y-64325500D01*
X138081303Y-64325500D01*
X138322094Y-64277604D01*
X138595152Y-64095152D01*
X138641209Y-64026223D01*
X148026226Y-54641207D01*
X148095152Y-54595152D01*
X148186586Y-54458311D01*
X148277604Y-54322095D01*
X148341672Y-54000000D01*
X148325500Y-53918697D01*
X148325500Y-52315059D01*
X148690305Y-52071305D01*
X149055208Y-51525188D01*
X149151000Y-51043608D01*
X149151000Y-49956392D01*
X150849000Y-49956392D01*
X150849000Y-51043609D01*
X150944792Y-51525188D01*
X151309696Y-52071305D01*
X151855813Y-52436208D01*
X152500000Y-52564345D01*
X153144188Y-52436208D01*
X153690305Y-52071305D01*
X154055208Y-51525188D01*
X154151000Y-51043608D01*
X154151000Y-49956392D01*
X155849000Y-49956392D01*
X155849000Y-51043609D01*
X155944792Y-51525188D01*
X156309696Y-52071305D01*
X156674501Y-52315059D01*
X156674500Y-60418698D01*
X156658328Y-60500000D01*
X156674500Y-60581301D01*
X156674500Y-60581302D01*
X156722396Y-60822093D01*
X156904848Y-61095152D01*
X156973777Y-61141209D01*
X158074501Y-62241934D01*
X158074500Y-91617412D01*
X157890414Y-91740414D01*
X157695874Y-92031565D01*
X157627560Y-92375000D01*
X157627560Y-93625000D01*
X157695874Y-93968435D01*
X157890414Y-94259586D01*
X158181565Y-94454126D01*
X158525000Y-94522440D01*
X159275000Y-94522440D01*
X159618435Y-94454126D01*
X159909586Y-94259586D01*
X160104126Y-93968435D01*
X160112666Y-93925500D01*
X160117412Y-93925500D01*
X160240414Y-94109586D01*
X160531565Y-94304126D01*
X160875000Y-94372440D01*
X162125000Y-94372440D01*
X162468435Y-94304126D01*
X162759586Y-94109586D01*
X162954126Y-93818435D01*
X163022440Y-93475000D01*
X163022440Y-92725000D01*
X162954126Y-92381565D01*
X162759586Y-92090414D01*
X162468435Y-91895874D01*
X162125000Y-91827560D01*
X160875000Y-91827560D01*
X160531565Y-91895874D01*
X160240414Y-92090414D01*
X160144412Y-92234092D01*
X160104126Y-92031565D01*
X159909586Y-91740414D01*
X159725500Y-91617412D01*
X159725500Y-61981301D01*
X159741672Y-61900000D01*
X159725500Y-61818697D01*
X159677604Y-61577906D01*
X159495152Y-61304848D01*
X159426226Y-61258793D01*
X158325500Y-60158068D01*
X158325500Y-56258654D01*
X160273000Y-56258654D01*
X160273000Y-57741346D01*
X160840402Y-59111176D01*
X161888824Y-60159598D01*
X163258654Y-60727000D01*
X164741346Y-60727000D01*
X166111176Y-60159598D01*
X167159598Y-59111176D01*
X167727000Y-57741346D01*
X167727000Y-56258654D01*
X167159598Y-54888824D01*
X166111176Y-53840402D01*
X164741346Y-53273000D01*
X163258654Y-53273000D01*
X161888824Y-53840402D01*
X160840402Y-54888824D01*
X160273000Y-56258654D01*
X158325500Y-56258654D01*
X158325500Y-52315059D01*
X158690305Y-52071305D01*
X159055208Y-51525188D01*
X159151000Y-51043608D01*
X159151000Y-49956391D01*
X159055208Y-49474812D01*
X158690305Y-48928695D01*
X158144187Y-48563792D01*
X157500000Y-48435655D01*
X156855812Y-48563792D01*
X156309695Y-48928695D01*
X155944792Y-49474813D01*
X155849000Y-49956392D01*
X154151000Y-49956392D01*
X154151000Y-49956391D01*
X154055208Y-49474812D01*
X153690305Y-48928695D01*
X153144187Y-48563792D01*
X152500000Y-48435655D01*
X151855812Y-48563792D01*
X151309695Y-48928695D01*
X150944792Y-49474813D01*
X150849000Y-49956392D01*
X149151000Y-49956392D01*
X149151000Y-49956391D01*
X149055208Y-49474812D01*
X148690305Y-48928695D01*
X148144187Y-48563792D01*
X147500000Y-48435655D01*
X146855812Y-48563792D01*
X146309695Y-48928695D01*
X145944792Y-49474813D01*
X145849000Y-49956392D01*
X145849000Y-51043609D01*
X145944792Y-51525188D01*
X146309696Y-52071305D01*
X146674500Y-52315059D01*
X146674500Y-53658067D01*
X137658068Y-62674500D01*
X136081303Y-62674500D01*
X136000000Y-62658328D01*
X135918697Y-62674500D01*
X135677906Y-62722396D01*
X135404848Y-62904848D01*
X135358793Y-62973774D01*
X133073775Y-65258793D01*
X133004849Y-65304848D01*
X132958794Y-65373774D01*
X132822397Y-65577906D01*
X132758328Y-65900000D01*
X132774501Y-65981306D01*
X132774500Y-69117412D01*
X132590414Y-69240414D01*
X132395874Y-69531565D01*
X132327560Y-69875000D01*
X118227951Y-69875000D01*
X118186714Y-69813286D01*
X117871647Y-69602765D01*
X117593810Y-69547500D01*
X117500000Y-69528840D01*
X117406190Y-69547500D01*
X113643000Y-69547500D01*
X113643000Y-52519178D01*
X113763765Y-52495157D01*
X113973809Y-52354809D01*
X114114157Y-52144765D01*
X114163440Y-51897000D01*
X114163440Y-49956392D01*
X115849000Y-49956392D01*
X115849000Y-51043609D01*
X115944792Y-51525188D01*
X116309696Y-52071305D01*
X116855813Y-52436208D01*
X117500000Y-52564345D01*
X118144188Y-52436208D01*
X118690305Y-52071305D01*
X119055208Y-51525188D01*
X119151000Y-51043608D01*
X119151000Y-49956392D01*
X120849000Y-49956392D01*
X120849000Y-51043609D01*
X120944792Y-51525188D01*
X121309696Y-52071305D01*
X121855813Y-52436208D01*
X122500000Y-52564345D01*
X123144188Y-52436208D01*
X123690305Y-52071305D01*
X124055208Y-51525188D01*
X124151000Y-51043608D01*
X124151000Y-50627000D01*
X125849000Y-50627000D01*
X125849000Y-51008000D01*
X126023276Y-51630143D01*
X126422370Y-52138236D01*
X126985523Y-52454926D01*
X127117056Y-52486975D01*
X127373000Y-52367836D01*
X127373000Y-50627000D01*
X127627000Y-50627000D01*
X127627000Y-52367836D01*
X127882944Y-52486975D01*
X128014477Y-52454926D01*
X128577630Y-52138236D01*
X128976724Y-51630143D01*
X129151000Y-51008000D01*
X129151000Y-50627000D01*
X130849000Y-50627000D01*
X130849000Y-51008000D01*
X131023276Y-51630143D01*
X131422370Y-52138236D01*
X131985523Y-52454926D01*
X132117056Y-52486975D01*
X132373000Y-52367836D01*
X132373000Y-50627000D01*
X132627000Y-50627000D01*
X132627000Y-52367836D01*
X132882944Y-52486975D01*
X133014477Y-52454926D01*
X133577630Y-52138236D01*
X133976724Y-51630143D01*
X134151000Y-51008000D01*
X134151000Y-50627000D01*
X135849000Y-50627000D01*
X135849000Y-51008000D01*
X136023276Y-51630143D01*
X136422370Y-52138236D01*
X136985523Y-52454926D01*
X137117056Y-52486975D01*
X137373000Y-52367836D01*
X137373000Y-50627000D01*
X137627000Y-50627000D01*
X137627000Y-52367836D01*
X137882944Y-52486975D01*
X138014477Y-52454926D01*
X138577630Y-52138236D01*
X138976724Y-51630143D01*
X139151000Y-51008000D01*
X139151000Y-50627000D01*
X137627000Y-50627000D01*
X137373000Y-50627000D01*
X135849000Y-50627000D01*
X134151000Y-50627000D01*
X132627000Y-50627000D01*
X132373000Y-50627000D01*
X130849000Y-50627000D01*
X129151000Y-50627000D01*
X127627000Y-50627000D01*
X127373000Y-50627000D01*
X125849000Y-50627000D01*
X124151000Y-50627000D01*
X124151000Y-49992000D01*
X125849000Y-49992000D01*
X125849000Y-50373000D01*
X127373000Y-50373000D01*
X127373000Y-48632164D01*
X127627000Y-48632164D01*
X127627000Y-50373000D01*
X129151000Y-50373000D01*
X129151000Y-49992000D01*
X130849000Y-49992000D01*
X130849000Y-50373000D01*
X132373000Y-50373000D01*
X132373000Y-48632164D01*
X132627000Y-48632164D01*
X132627000Y-50373000D01*
X134151000Y-50373000D01*
X134151000Y-49992000D01*
X135849000Y-49992000D01*
X135849000Y-50373000D01*
X137373000Y-50373000D01*
X137373000Y-48632164D01*
X137627000Y-48632164D01*
X137627000Y-50373000D01*
X139151000Y-50373000D01*
X139151000Y-49992000D01*
X139141026Y-49956392D01*
X140849000Y-49956392D01*
X140849000Y-51043609D01*
X140944792Y-51525188D01*
X141309696Y-52071305D01*
X141855813Y-52436208D01*
X142500000Y-52564345D01*
X143144188Y-52436208D01*
X143690305Y-52071305D01*
X144055208Y-51525188D01*
X144151000Y-51043608D01*
X144151000Y-49956391D01*
X144055208Y-49474812D01*
X143690305Y-48928695D01*
X143144187Y-48563792D01*
X142500000Y-48435655D01*
X141855812Y-48563792D01*
X141309695Y-48928695D01*
X140944792Y-49474813D01*
X140849000Y-49956392D01*
X139141026Y-49956392D01*
X138976724Y-49369857D01*
X138577630Y-48861764D01*
X138014477Y-48545074D01*
X137882944Y-48513025D01*
X137627000Y-48632164D01*
X137373000Y-48632164D01*
X137117056Y-48513025D01*
X136985523Y-48545074D01*
X136422370Y-48861764D01*
X136023276Y-49369857D01*
X135849000Y-49992000D01*
X134151000Y-49992000D01*
X133976724Y-49369857D01*
X133577630Y-48861764D01*
X133014477Y-48545074D01*
X132882944Y-48513025D01*
X132627000Y-48632164D01*
X132373000Y-48632164D01*
X132117056Y-48513025D01*
X131985523Y-48545074D01*
X131422370Y-48861764D01*
X131023276Y-49369857D01*
X130849000Y-49992000D01*
X129151000Y-49992000D01*
X128976724Y-49369857D01*
X128577630Y-48861764D01*
X128014477Y-48545074D01*
X127882944Y-48513025D01*
X127627000Y-48632164D01*
X127373000Y-48632164D01*
X127117056Y-48513025D01*
X126985523Y-48545074D01*
X126422370Y-48861764D01*
X126023276Y-49369857D01*
X125849000Y-49992000D01*
X124151000Y-49992000D01*
X124151000Y-49956391D01*
X124055208Y-49474812D01*
X123690305Y-48928695D01*
X123144187Y-48563792D01*
X122500000Y-48435655D01*
X121855812Y-48563792D01*
X121309695Y-48928695D01*
X120944792Y-49474813D01*
X120849000Y-49956392D01*
X119151000Y-49956392D01*
X119151000Y-49956391D01*
X119055208Y-49474812D01*
X118690305Y-48928695D01*
X118144187Y-48563792D01*
X117500000Y-48435655D01*
X116855812Y-48563792D01*
X116309695Y-48928695D01*
X115944792Y-49474813D01*
X115849000Y-49956392D01*
X114163440Y-49956392D01*
X114163440Y-49103000D01*
X114114157Y-48855235D01*
X113973809Y-48645191D01*
X113763765Y-48504843D01*
X113516000Y-48455560D01*
X111484000Y-48455560D01*
X111236235Y-48504843D01*
X111026191Y-48645191D01*
X110885843Y-48855235D01*
X110836560Y-49103000D01*
X110836560Y-51897000D01*
X110885843Y-52144765D01*
X111026191Y-52354809D01*
X111236235Y-52495157D01*
X111357000Y-52519178D01*
X111357001Y-71857000D01*
X110847440Y-71857000D01*
X110847440Y-71549999D01*
X110779127Y-71206564D01*
X110584586Y-70915414D01*
X110293436Y-70720873D01*
X109950001Y-70652560D01*
X109324999Y-70652560D01*
X108981564Y-70720873D01*
X108690414Y-70915414D01*
X108495873Y-71206564D01*
X108427560Y-71549999D01*
X106572440Y-71549999D01*
X106504127Y-71206564D01*
X106309586Y-70915414D01*
X106018436Y-70720873D01*
X105675001Y-70652560D01*
X105049999Y-70652560D01*
X104706564Y-70720873D01*
X104415414Y-70915414D01*
X104220873Y-71206564D01*
X104152560Y-71549999D01*
X104152560Y-74450001D01*
X104219500Y-74786536D01*
X104219501Y-75602560D01*
X104100000Y-75602560D01*
X103852235Y-75651843D01*
X103642191Y-75792191D01*
X103501843Y-76002235D01*
X103452560Y-76250000D01*
X97710000Y-76250000D01*
X97710000Y-56258654D01*
X102273000Y-56258654D01*
X102273000Y-57741346D01*
X102840402Y-59111176D01*
X103888824Y-60159598D01*
X105258654Y-60727000D01*
X106741346Y-60727000D01*
X108111176Y-60159598D01*
X109159598Y-59111176D01*
X109727000Y-57741346D01*
X109727000Y-56258654D01*
X109159598Y-54888824D01*
X108111176Y-53840402D01*
X106741346Y-53273000D01*
X105258654Y-53273000D01*
X103888824Y-53840402D01*
X102840402Y-54888824D01*
X102273000Y-56258654D01*
X97710000Y-56258654D01*
X97710000Y-45710000D01*
X172290000Y-45710000D01*
X172290001Y-124290000D01*
G36*
X170174500Y-95341933D02*
X170174501Y-103158065D01*
X167158068Y-106174500D01*
X146341934Y-106174500D01*
X144841209Y-104673777D01*
X144795152Y-104604848D01*
X144522094Y-104422396D01*
X144281303Y-104374500D01*
X144281301Y-104374500D01*
X144200000Y-104358328D01*
X144118699Y-104374500D01*
X143275328Y-104374500D01*
X143095152Y-104104848D01*
X142822094Y-103922396D01*
X142500000Y-103858328D01*
X142177905Y-103922396D01*
X142159813Y-103934485D01*
X142125000Y-103927560D01*
X140875000Y-103927560D01*
X140531565Y-103995874D01*
X140325500Y-104133562D01*
X140325500Y-104029397D01*
X140357809Y-104007809D01*
X140498157Y-103797765D01*
X140547440Y-103550000D01*
X140547440Y-102650000D01*
X140498157Y-102402235D01*
X140357809Y-102192191D01*
X140147765Y-102051843D01*
X139900000Y-102002560D01*
X139411316Y-102002560D01*
X139548157Y-101797765D01*
X139597440Y-101550000D01*
X139597440Y-100650000D01*
X139548157Y-100402235D01*
X139502500Y-100333905D01*
X139502500Y-97844537D01*
X140314539Y-97032500D01*
X140486190Y-97032500D01*
X140580000Y-97051160D01*
X140673810Y-97032500D01*
X146763104Y-97032500D01*
X147027138Y-97296534D01*
X147156216Y-97350000D01*
X147027138Y-97403466D01*
X146623466Y-97807138D01*
X146405000Y-98334561D01*
X146405000Y-98905439D01*
X146623466Y-99432862D01*
X147027138Y-99836534D01*
X147156216Y-99890000D01*
X147027138Y-99943466D01*
X146623466Y-100347138D01*
X146405000Y-100874561D01*
X146405000Y-101445439D01*
X146623466Y-101972862D01*
X147027138Y-102376534D01*
X147554561Y-102595000D01*
X148125439Y-102595000D01*
X148652862Y-102376534D01*
X149056534Y-101972862D01*
X149275000Y-101445439D01*
X149275000Y-100874561D01*
X149056534Y-100347138D01*
X148652862Y-99943466D01*
X148523784Y-99890000D01*
X148652862Y-99836534D01*
X149056534Y-99432862D01*
X149275000Y-98905439D01*
X149275000Y-98334561D01*
X149056534Y-97807138D01*
X148652862Y-97403466D01*
X148523784Y-97350000D01*
X148652862Y-97296534D01*
X148916896Y-97032500D01*
X149685463Y-97032500D01*
X158260145Y-105607183D01*
X158313286Y-105686714D01*
X158544500Y-105841206D01*
X158628353Y-105897235D01*
X159000000Y-105971160D01*
X159093810Y-105952500D01*
X164441190Y-105952500D01*
X164535000Y-105971160D01*
X164628810Y-105952500D01*
X164906647Y-105897235D01*
X165221714Y-105686714D01*
X165274856Y-105607181D01*
X166057183Y-104824854D01*
X166136714Y-104771714D01*
X166347235Y-104456647D01*
X166402500Y-104178810D01*
X166402500Y-104178806D01*
X166421159Y-104085001D01*
X166402500Y-103991196D01*
X166402500Y-103766095D01*
X166448157Y-103697765D01*
X166497440Y-103450000D01*
X166497440Y-102550000D01*
X166448157Y-102302235D01*
X166307809Y-102092191D01*
X166097765Y-101951843D01*
X165850000Y-101902560D01*
X165361316Y-101902560D01*
X165498157Y-101697765D01*
X165547440Y-101450000D01*
X165547440Y-100550000D01*
X165498157Y-100302235D01*
X165357809Y-100092191D01*
X165325500Y-100070603D01*
X165325500Y-99815770D01*
X165409586Y-99759586D01*
X165604126Y-99468435D01*
X165608688Y-99445500D01*
X166956104Y-99445500D01*
X167245866Y-99735262D01*
X167112235Y-99761843D01*
X166902191Y-99902191D01*
X166761843Y-100112235D01*
X166712560Y-100360000D01*
X166712560Y-101960000D01*
X166761843Y-102207765D01*
X166902191Y-102417809D01*
X167112235Y-102558157D01*
X167360000Y-102607440D01*
X168960000Y-102607440D01*
X169207765Y-102558157D01*
X169417809Y-102417809D01*
X169558157Y-102207765D01*
X169607440Y-101960000D01*
X169607440Y-100360000D01*
X169558157Y-100112235D01*
X169417809Y-99902191D01*
X169207765Y-99761843D01*
X169074134Y-99735262D01*
X169376534Y-99432862D01*
X169595000Y-98905439D01*
X169595000Y-98334561D01*
X169376534Y-97807138D01*
X168972862Y-97403466D01*
X168843784Y-97350000D01*
X168972862Y-97296534D01*
X169376534Y-96892862D01*
X169595000Y-96365439D01*
X169595000Y-95794561D01*
X169376534Y-95267138D01*
X168972862Y-94863466D01*
X168843784Y-94810000D01*
X168972862Y-94756534D01*
X169280982Y-94448414D01*
X170174500Y-95341933D01*
X170174500Y-95341933D01*
G37*
X170174500Y-95341933D02*
X170174501Y-103158065D01*
X167158068Y-106174500D01*
X146341934Y-106174500D01*
X144841209Y-104673777D01*
X144795152Y-104604848D01*
X144522094Y-104422396D01*
X144281303Y-104374500D01*
X144281301Y-104374500D01*
X144200000Y-104358328D01*
X144118699Y-104374500D01*
X143275328Y-104374500D01*
X143095152Y-104104848D01*
X142822094Y-103922396D01*
X142500000Y-103858328D01*
X142177905Y-103922396D01*
X142159813Y-103934485D01*
X142125000Y-103927560D01*
X140875000Y-103927560D01*
X140531565Y-103995874D01*
X140325500Y-104133562D01*
X140325500Y-104029397D01*
X140357809Y-104007809D01*
X140498157Y-103797765D01*
X140547440Y-103550000D01*
X140547440Y-102650000D01*
X140498157Y-102402235D01*
X140357809Y-102192191D01*
X140147765Y-102051843D01*
X139900000Y-102002560D01*
X139411316Y-102002560D01*
X139548157Y-101797765D01*
X139597440Y-101550000D01*
X139597440Y-100650000D01*
X139548157Y-100402235D01*
X139502500Y-100333905D01*
X139502500Y-97844537D01*
X140314539Y-97032500D01*
X140486190Y-97032500D01*
X140580000Y-97051160D01*
X140673810Y-97032500D01*
X146763104Y-97032500D01*
X147027138Y-97296534D01*
X147156216Y-97350000D01*
X147027138Y-97403466D01*
X146623466Y-97807138D01*
X146405000Y-98334561D01*
X146405000Y-98905439D01*
X146623466Y-99432862D01*
X147027138Y-99836534D01*
X147156216Y-99890000D01*
X147027138Y-99943466D01*
X146623466Y-100347138D01*
X146405000Y-100874561D01*
X146405000Y-101445439D01*
X146623466Y-101972862D01*
X147027138Y-102376534D01*
X147554561Y-102595000D01*
X148125439Y-102595000D01*
X148652862Y-102376534D01*
X149056534Y-101972862D01*
X149275000Y-101445439D01*
X149275000Y-100874561D01*
X149056534Y-100347138D01*
X148652862Y-99943466D01*
X148523784Y-99890000D01*
X148652862Y-99836534D01*
X149056534Y-99432862D01*
X149275000Y-98905439D01*
X149275000Y-98334561D01*
X149056534Y-97807138D01*
X148652862Y-97403466D01*
X148523784Y-97350000D01*
X148652862Y-97296534D01*
X148916896Y-97032500D01*
X149685463Y-97032500D01*
X158260145Y-105607183D01*
X158313286Y-105686714D01*
X158544500Y-105841206D01*
X158628353Y-105897235D01*
X159000000Y-105971160D01*
X159093810Y-105952500D01*
X164441190Y-105952500D01*
X164535000Y-105971160D01*
X164628810Y-105952500D01*
X164906647Y-105897235D01*
X165221714Y-105686714D01*
X165274856Y-105607181D01*
X166057183Y-104824854D01*
X166136714Y-104771714D01*
X166347235Y-104456647D01*
X166402500Y-104178810D01*
X166402500Y-104178806D01*
X166421159Y-104085001D01*
X166402500Y-103991196D01*
X166402500Y-103766095D01*
X166448157Y-103697765D01*
X166497440Y-103450000D01*
X166497440Y-102550000D01*
X166448157Y-102302235D01*
X166307809Y-102092191D01*
X166097765Y-101951843D01*
X165850000Y-101902560D01*
X165361316Y-101902560D01*
X165498157Y-101697765D01*
X165547440Y-101450000D01*
X165547440Y-100550000D01*
X165498157Y-100302235D01*
X165357809Y-100092191D01*
X165325500Y-100070603D01*
X165325500Y-99815770D01*
X165409586Y-99759586D01*
X165604126Y-99468435D01*
X165608688Y-99445500D01*
X166956104Y-99445500D01*
X167245866Y-99735262D01*
X167112235Y-99761843D01*
X166902191Y-99902191D01*
X166761843Y-100112235D01*
X166712560Y-100360000D01*
X166712560Y-101960000D01*
X166761843Y-102207765D01*
X166902191Y-102417809D01*
X167112235Y-102558157D01*
X167360000Y-102607440D01*
X168960000Y-102607440D01*
X169207765Y-102558157D01*
X169417809Y-102417809D01*
X169558157Y-102207765D01*
X169607440Y-101960000D01*
X169607440Y-100360000D01*
X169558157Y-100112235D01*
X169417809Y-99902191D01*
X169207765Y-99761843D01*
X169074134Y-99735262D01*
X169376534Y-99432862D01*
X169595000Y-98905439D01*
X169595000Y-98334561D01*
X169376534Y-97807138D01*
X168972862Y-97403466D01*
X168843784Y-97350000D01*
X168972862Y-97296534D01*
X169376534Y-96892862D01*
X169595000Y-96365439D01*
X169595000Y-95794561D01*
X169376534Y-95267138D01*
X168972862Y-94863466D01*
X168843784Y-94810000D01*
X168972862Y-94756534D01*
X169280982Y-94448414D01*
X170174500Y-95341933D01*
G04 #@! TD*
M02*
