G04 #@! TF.GenerationSoftware,KiCad,Pcbnew,(5.0.1)-4*
G04 #@! TF.CreationDate,2020-08-29T23:34:48+08:00*
G04 #@! TF.ProjectId,remote-monitor,72656D6F74652D6D6F6E69746F722E6B,rev?*
G04 #@! TF.SameCoordinates,Original*
G04 #@! TF.FileFunction,Legend,Bot*
G04 #@! TF.FilePolarity,Positive*
%FSLAX46Y46*%
G04 Gerber Fmt 4.6, Leading zero omitted, Abs format (unit mm)*
G04 Created by KiCad (PCBNEW (5.0.1)-4) date 29/08/2020 11:34:48 PM*
%MOMM*%
%LPD*%
G01*
G04 APERTURE LIST*
%ADD10C,0.300000*%
G04 APERTURE END LIST*
D10*
X97909285Y-107371428D02*
X97409285Y-108085714D01*
X97052142Y-107371428D02*
X97052142Y-108871428D01*
X97623571Y-108871428D01*
X97766428Y-108800000D01*
X97837857Y-108728571D01*
X97909285Y-108585714D01*
X97909285Y-108371428D01*
X97837857Y-108228571D01*
X97766428Y-108157142D01*
X97623571Y-108085714D01*
X97052142Y-108085714D01*
X99123571Y-107442857D02*
X98980714Y-107371428D01*
X98695000Y-107371428D01*
X98552142Y-107442857D01*
X98480714Y-107585714D01*
X98480714Y-108157142D01*
X98552142Y-108300000D01*
X98695000Y-108371428D01*
X98980714Y-108371428D01*
X99123571Y-108300000D01*
X99195000Y-108157142D01*
X99195000Y-108014285D01*
X98480714Y-107871428D01*
X99837857Y-107371428D02*
X99837857Y-108371428D01*
X99837857Y-108228571D02*
X99909285Y-108300000D01*
X100052142Y-108371428D01*
X100266428Y-108371428D01*
X100409285Y-108300000D01*
X100480714Y-108157142D01*
X100480714Y-107371428D01*
X100480714Y-108157142D02*
X100552142Y-108300000D01*
X100695000Y-108371428D01*
X100909285Y-108371428D01*
X101052142Y-108300000D01*
X101123571Y-108157142D01*
X101123571Y-107371428D01*
X102052142Y-107371428D02*
X101909285Y-107442857D01*
X101837857Y-107514285D01*
X101766428Y-107657142D01*
X101766428Y-108085714D01*
X101837857Y-108228571D01*
X101909285Y-108300000D01*
X102052142Y-108371428D01*
X102266428Y-108371428D01*
X102409285Y-108300000D01*
X102480714Y-108228571D01*
X102552142Y-108085714D01*
X102552142Y-107657142D01*
X102480714Y-107514285D01*
X102409285Y-107442857D01*
X102266428Y-107371428D01*
X102052142Y-107371428D01*
X102980714Y-108371428D02*
X103552142Y-108371428D01*
X103195000Y-108871428D02*
X103195000Y-107585714D01*
X103266428Y-107442857D01*
X103409285Y-107371428D01*
X103552142Y-107371428D01*
X104623571Y-107442857D02*
X104480714Y-107371428D01*
X104195000Y-107371428D01*
X104052142Y-107442857D01*
X103980714Y-107585714D01*
X103980714Y-108157142D01*
X104052142Y-108300000D01*
X104195000Y-108371428D01*
X104480714Y-108371428D01*
X104623571Y-108300000D01*
X104695000Y-108157142D01*
X104695000Y-108014285D01*
X103980714Y-107871428D01*
X106480714Y-107371428D02*
X106480714Y-108871428D01*
X106980714Y-107800000D01*
X107480714Y-108871428D01*
X107480714Y-107371428D01*
X108409285Y-107371428D02*
X108266428Y-107442857D01*
X108195000Y-107514285D01*
X108123571Y-107657142D01*
X108123571Y-108085714D01*
X108195000Y-108228571D01*
X108266428Y-108300000D01*
X108409285Y-108371428D01*
X108623571Y-108371428D01*
X108766428Y-108300000D01*
X108837857Y-108228571D01*
X108909285Y-108085714D01*
X108909285Y-107657142D01*
X108837857Y-107514285D01*
X108766428Y-107442857D01*
X108623571Y-107371428D01*
X108409285Y-107371428D01*
X109552142Y-108371428D02*
X109552142Y-107371428D01*
X109552142Y-108228571D02*
X109623571Y-108300000D01*
X109766428Y-108371428D01*
X109980714Y-108371428D01*
X110123571Y-108300000D01*
X110195000Y-108157142D01*
X110195000Y-107371428D01*
X110909285Y-107371428D02*
X110909285Y-108371428D01*
X110909285Y-108871428D02*
X110837857Y-108800000D01*
X110909285Y-108728571D01*
X110980714Y-108800000D01*
X110909285Y-108871428D01*
X110909285Y-108728571D01*
X111409285Y-108371428D02*
X111980714Y-108371428D01*
X111623571Y-108871428D02*
X111623571Y-107585714D01*
X111695000Y-107442857D01*
X111837857Y-107371428D01*
X111980714Y-107371428D01*
X112695000Y-107371428D02*
X112552142Y-107442857D01*
X112480714Y-107514285D01*
X112409285Y-107657142D01*
X112409285Y-108085714D01*
X112480714Y-108228571D01*
X112552142Y-108300000D01*
X112695000Y-108371428D01*
X112909285Y-108371428D01*
X113052142Y-108300000D01*
X113123571Y-108228571D01*
X113195000Y-108085714D01*
X113195000Y-107657142D01*
X113123571Y-107514285D01*
X113052142Y-107442857D01*
X112909285Y-107371428D01*
X112695000Y-107371428D01*
X113837857Y-107371428D02*
X113837857Y-108371428D01*
X113837857Y-108085714D02*
X113909285Y-108228571D01*
X113980714Y-108300000D01*
X114123571Y-108371428D01*
X114266428Y-108371428D01*
X115909285Y-107371428D02*
X115909285Y-108871428D01*
X116409285Y-107800000D01*
X116909285Y-108871428D01*
X116909285Y-107371428D01*
X118266428Y-107371428D02*
X118266428Y-108157142D01*
X118195000Y-108300000D01*
X118052142Y-108371428D01*
X117766428Y-108371428D01*
X117623571Y-108300000D01*
X118266428Y-107442857D02*
X118123571Y-107371428D01*
X117766428Y-107371428D01*
X117623571Y-107442857D01*
X117552142Y-107585714D01*
X117552142Y-107728571D01*
X117623571Y-107871428D01*
X117766428Y-107942857D01*
X118123571Y-107942857D01*
X118266428Y-108014285D01*
X118980714Y-107371428D02*
X118980714Y-108371428D01*
X118980714Y-108871428D02*
X118909285Y-108800000D01*
X118980714Y-108728571D01*
X119052142Y-108800000D01*
X118980714Y-108871428D01*
X118980714Y-108728571D01*
X119695000Y-108371428D02*
X119695000Y-107371428D01*
X119695000Y-108228571D02*
X119766428Y-108300000D01*
X119909285Y-108371428D01*
X120123571Y-108371428D01*
X120266428Y-108300000D01*
X120337857Y-108157142D01*
X120337857Y-107371428D01*
X122695000Y-108157142D02*
X122909285Y-108085714D01*
X122980714Y-108014285D01*
X123052142Y-107871428D01*
X123052142Y-107657142D01*
X122980714Y-107514285D01*
X122909285Y-107442857D01*
X122766428Y-107371428D01*
X122195000Y-107371428D01*
X122195000Y-108871428D01*
X122695000Y-108871428D01*
X122837857Y-108800000D01*
X122909285Y-108728571D01*
X122980714Y-108585714D01*
X122980714Y-108442857D01*
X122909285Y-108300000D01*
X122837857Y-108228571D01*
X122695000Y-108157142D01*
X122195000Y-108157142D01*
X123909285Y-107371428D02*
X123766428Y-107442857D01*
X123695000Y-107514285D01*
X123623571Y-107657142D01*
X123623571Y-108085714D01*
X123695000Y-108228571D01*
X123766428Y-108300000D01*
X123909285Y-108371428D01*
X124123571Y-108371428D01*
X124266428Y-108300000D01*
X124337857Y-108228571D01*
X124409285Y-108085714D01*
X124409285Y-107657142D01*
X124337857Y-107514285D01*
X124266428Y-107442857D01*
X124123571Y-107371428D01*
X123909285Y-107371428D01*
X125695000Y-107371428D02*
X125695000Y-108157142D01*
X125623571Y-108300000D01*
X125480714Y-108371428D01*
X125195000Y-108371428D01*
X125052142Y-108300000D01*
X125695000Y-107442857D02*
X125552142Y-107371428D01*
X125195000Y-107371428D01*
X125052142Y-107442857D01*
X124980714Y-107585714D01*
X124980714Y-107728571D01*
X125052142Y-107871428D01*
X125195000Y-107942857D01*
X125552142Y-107942857D01*
X125695000Y-108014285D01*
X126409285Y-107371428D02*
X126409285Y-108371428D01*
X126409285Y-108085714D02*
X126480714Y-108228571D01*
X126552142Y-108300000D01*
X126695000Y-108371428D01*
X126837857Y-108371428D01*
X127980714Y-107371428D02*
X127980714Y-108871428D01*
X127980714Y-107442857D02*
X127837857Y-107371428D01*
X127552142Y-107371428D01*
X127409285Y-107442857D01*
X127337857Y-107514285D01*
X127266428Y-107657142D01*
X127266428Y-108085714D01*
X127337857Y-108228571D01*
X127409285Y-108300000D01*
X127552142Y-108371428D01*
X127837857Y-108371428D01*
X127980714Y-108300000D01*
X130695000Y-107371428D02*
X130195000Y-108085714D01*
X129837857Y-107371428D02*
X129837857Y-108871428D01*
X130409285Y-108871428D01*
X130552142Y-108800000D01*
X130623571Y-108728571D01*
X130695000Y-108585714D01*
X130695000Y-108371428D01*
X130623571Y-108228571D01*
X130552142Y-108157142D01*
X130409285Y-108085714D01*
X129837857Y-108085714D01*
X131909285Y-107442857D02*
X131766428Y-107371428D01*
X131480714Y-107371428D01*
X131337857Y-107442857D01*
X131266428Y-107585714D01*
X131266428Y-108157142D01*
X131337857Y-108300000D01*
X131480714Y-108371428D01*
X131766428Y-108371428D01*
X131909285Y-108300000D01*
X131980714Y-108157142D01*
X131980714Y-108014285D01*
X131266428Y-107871428D01*
X132480714Y-108371428D02*
X132837857Y-107371428D01*
X133195000Y-108371428D01*
X133766428Y-107514285D02*
X133837857Y-107442857D01*
X133766428Y-107371428D01*
X133695000Y-107442857D01*
X133766428Y-107514285D01*
X133766428Y-107371428D01*
X135909285Y-108871428D02*
X136052142Y-108871428D01*
X136195000Y-108800000D01*
X136266428Y-108728571D01*
X136337857Y-108585714D01*
X136409285Y-108300000D01*
X136409285Y-107942857D01*
X136337857Y-107657142D01*
X136266428Y-107514285D01*
X136195000Y-107442857D01*
X136052142Y-107371428D01*
X135909285Y-107371428D01*
X135766428Y-107442857D01*
X135695000Y-107514285D01*
X135623571Y-107657142D01*
X135552142Y-107942857D01*
X135552142Y-108300000D01*
X135623571Y-108585714D01*
X135695000Y-108728571D01*
X135766428Y-108800000D01*
X135909285Y-108871428D01*
X97052142Y-105607142D02*
X97552142Y-105607142D01*
X97766428Y-104821428D02*
X97052142Y-104821428D01*
X97052142Y-106321428D01*
X97766428Y-106321428D01*
X98409285Y-104821428D02*
X98409285Y-105821428D01*
X98409285Y-105535714D02*
X98480714Y-105678571D01*
X98552142Y-105750000D01*
X98695000Y-105821428D01*
X98837857Y-105821428D01*
X99337857Y-104821428D02*
X99337857Y-105821428D01*
X99337857Y-106321428D02*
X99266428Y-106250000D01*
X99337857Y-106178571D01*
X99409285Y-106250000D01*
X99337857Y-106321428D01*
X99337857Y-106178571D01*
X100052142Y-104821428D02*
X100052142Y-106321428D01*
X100195000Y-105392857D02*
X100623571Y-104821428D01*
X100623571Y-105821428D02*
X100052142Y-105250000D01*
X102337857Y-104892857D02*
X102552142Y-104821428D01*
X102909285Y-104821428D01*
X103052142Y-104892857D01*
X103123571Y-104964285D01*
X103195000Y-105107142D01*
X103195000Y-105250000D01*
X103123571Y-105392857D01*
X103052142Y-105464285D01*
X102909285Y-105535714D01*
X102623571Y-105607142D01*
X102480714Y-105678571D01*
X102409285Y-105750000D01*
X102337857Y-105892857D01*
X102337857Y-106035714D01*
X102409285Y-106178571D01*
X102480714Y-106250000D01*
X102623571Y-106321428D01*
X102980714Y-106321428D01*
X103195000Y-106250000D01*
X103623571Y-105821428D02*
X104195000Y-105821428D01*
X103837857Y-106321428D02*
X103837857Y-105035714D01*
X103909285Y-104892857D01*
X104052142Y-104821428D01*
X104195000Y-104821428D01*
X105266428Y-104892857D02*
X105123571Y-104821428D01*
X104837857Y-104821428D01*
X104695000Y-104892857D01*
X104623571Y-105035714D01*
X104623571Y-105607142D01*
X104695000Y-105750000D01*
X104837857Y-105821428D01*
X105123571Y-105821428D01*
X105266428Y-105750000D01*
X105337857Y-105607142D01*
X105337857Y-105464285D01*
X104623571Y-105321428D01*
X105766428Y-105821428D02*
X106337857Y-105821428D01*
X105980714Y-104821428D02*
X105980714Y-106107142D01*
X106052142Y-106250000D01*
X106195000Y-106321428D01*
X106337857Y-106321428D01*
X107480714Y-104821428D02*
X107480714Y-105607142D01*
X107409285Y-105750000D01*
X107266428Y-105821428D01*
X106980714Y-105821428D01*
X106837857Y-105750000D01*
X107480714Y-104892857D02*
X107337857Y-104821428D01*
X106980714Y-104821428D01*
X106837857Y-104892857D01*
X106766428Y-105035714D01*
X106766428Y-105178571D01*
X106837857Y-105321428D01*
X106980714Y-105392857D01*
X107337857Y-105392857D01*
X107480714Y-105464285D01*
X108195000Y-105821428D02*
X108195000Y-104821428D01*
X108195000Y-105678571D02*
X108266428Y-105750000D01*
X108409285Y-105821428D01*
X108623571Y-105821428D01*
X108766428Y-105750000D01*
X108837857Y-105607142D01*
X108837857Y-104821428D01*
X110623571Y-106178571D02*
X110695000Y-106250000D01*
X110837857Y-106321428D01*
X111195000Y-106321428D01*
X111337857Y-106250000D01*
X111409285Y-106178571D01*
X111480714Y-106035714D01*
X111480714Y-105892857D01*
X111409285Y-105678571D01*
X110552142Y-104821428D01*
X111480714Y-104821428D01*
X112409285Y-106321428D02*
X112552142Y-106321428D01*
X112695000Y-106250000D01*
X112766428Y-106178571D01*
X112837857Y-106035714D01*
X112909285Y-105750000D01*
X112909285Y-105392857D01*
X112837857Y-105107142D01*
X112766428Y-104964285D01*
X112695000Y-104892857D01*
X112552142Y-104821428D01*
X112409285Y-104821428D01*
X112266428Y-104892857D01*
X112195000Y-104964285D01*
X112123571Y-105107142D01*
X112052142Y-105392857D01*
X112052142Y-105750000D01*
X112123571Y-106035714D01*
X112195000Y-106178571D01*
X112266428Y-106250000D01*
X112409285Y-106321428D01*
X113480714Y-106178571D02*
X113552142Y-106250000D01*
X113695000Y-106321428D01*
X114052142Y-106321428D01*
X114195000Y-106250000D01*
X114266428Y-106178571D01*
X114337857Y-106035714D01*
X114337857Y-105892857D01*
X114266428Y-105678571D01*
X113409285Y-104821428D01*
X114337857Y-104821428D01*
X115266428Y-106321428D02*
X115409285Y-106321428D01*
X115552142Y-106250000D01*
X115623571Y-106178571D01*
X115695000Y-106035714D01*
X115766428Y-105750000D01*
X115766428Y-105392857D01*
X115695000Y-105107142D01*
X115623571Y-104964285D01*
X115552142Y-104892857D01*
X115409285Y-104821428D01*
X115266428Y-104821428D01*
X115123571Y-104892857D01*
X115052142Y-104964285D01*
X114980714Y-105107142D01*
X114909285Y-105392857D01*
X114909285Y-105750000D01*
X114980714Y-106035714D01*
X115052142Y-106178571D01*
X115123571Y-106250000D01*
X115266428Y-106321428D01*
X97909285Y-102414285D02*
X97837857Y-102342857D01*
X97623571Y-102271428D01*
X97480714Y-102271428D01*
X97266428Y-102342857D01*
X97123571Y-102485714D01*
X97052142Y-102628571D01*
X96980714Y-102914285D01*
X96980714Y-103128571D01*
X97052142Y-103414285D01*
X97123571Y-103557142D01*
X97266428Y-103700000D01*
X97480714Y-103771428D01*
X97623571Y-103771428D01*
X97837857Y-103700000D01*
X97909285Y-103628571D01*
X99409285Y-102414285D02*
X99337857Y-102342857D01*
X99123571Y-102271428D01*
X98980714Y-102271428D01*
X98766428Y-102342857D01*
X98623571Y-102485714D01*
X98552142Y-102628571D01*
X98480714Y-102914285D01*
X98480714Y-103128571D01*
X98552142Y-103414285D01*
X98623571Y-103557142D01*
X98766428Y-103700000D01*
X98980714Y-103771428D01*
X99123571Y-103771428D01*
X99337857Y-103700000D01*
X99409285Y-103628571D01*
X101694999Y-103057142D02*
X101909285Y-102985714D01*
X101980714Y-102914285D01*
X102052142Y-102771428D01*
X102052142Y-102557142D01*
X101980714Y-102414285D01*
X101909285Y-102342857D01*
X101766428Y-102271428D01*
X101194999Y-102271428D01*
X101194999Y-103771428D01*
X101694999Y-103771428D01*
X101837857Y-103700000D01*
X101909285Y-103628571D01*
X101980714Y-103485714D01*
X101980714Y-103342857D01*
X101909285Y-103200000D01*
X101837857Y-103128571D01*
X101694999Y-103057142D01*
X101194999Y-103057142D01*
X102980714Y-102985714D02*
X102980714Y-102271428D01*
X102480714Y-103771428D02*
X102980714Y-102985714D01*
X103480714Y-103771428D01*
X103980714Y-102842857D02*
X105123571Y-102842857D01*
X105837857Y-102271428D02*
X105837857Y-103771428D01*
X106694999Y-102271428D01*
X106694999Y-103771428D01*
X108266428Y-102414285D02*
X108194999Y-102342857D01*
X107980714Y-102271428D01*
X107837857Y-102271428D01*
X107623571Y-102342857D01*
X107480714Y-102485714D01*
X107409285Y-102628571D01*
X107337857Y-102914285D01*
X107337857Y-103128571D01*
X107409285Y-103414285D01*
X107480714Y-103557142D01*
X107623571Y-103700000D01*
X107837857Y-103771428D01*
X107980714Y-103771428D01*
X108194999Y-103700000D01*
X108266428Y-103628571D01*
X109909285Y-103771428D02*
X110837857Y-103771428D01*
X110337857Y-103200000D01*
X110552142Y-103200000D01*
X110694999Y-103128571D01*
X110766428Y-103057142D01*
X110837857Y-102914285D01*
X110837857Y-102557142D01*
X110766428Y-102414285D01*
X110694999Y-102342857D01*
X110552142Y-102271428D01*
X110123571Y-102271428D01*
X109980714Y-102342857D01*
X109909285Y-102414285D01*
X111480714Y-102414285D02*
X111552142Y-102342857D01*
X111480714Y-102271428D01*
X111409285Y-102342857D01*
X111480714Y-102414285D01*
X111480714Y-102271428D01*
X112480714Y-103771428D02*
X112623571Y-103771428D01*
X112766428Y-103700000D01*
X112837857Y-103628571D01*
X112909285Y-103485714D01*
X112980714Y-103200000D01*
X112980714Y-102842857D01*
X112909285Y-102557142D01*
X112837857Y-102414285D01*
X112766428Y-102342857D01*
X112623571Y-102271428D01*
X112480714Y-102271428D01*
X112337857Y-102342857D01*
X112266428Y-102414285D01*
X112194999Y-102557142D01*
X112123571Y-102842857D01*
X112123571Y-103200000D01*
X112194999Y-103485714D01*
X112266428Y-103628571D01*
X112337857Y-103700000D01*
X112480714Y-103771428D01*
X114694999Y-102700000D02*
X115409285Y-102700000D01*
X114552142Y-102271428D02*
X115052142Y-103771428D01*
X115552142Y-102271428D01*
X116052142Y-103771428D02*
X116052142Y-102557142D01*
X116123571Y-102414285D01*
X116194999Y-102342857D01*
X116337857Y-102271428D01*
X116623571Y-102271428D01*
X116766428Y-102342857D01*
X116837857Y-102414285D01*
X116909285Y-102557142D01*
X116909285Y-103771428D01*
M02*
