G04 #@! TF.GenerationSoftware,KiCad,Pcbnew,(5.0.1)-4*
G04 #@! TF.CreationDate,2020-08-29T23:34:48+08:00*
G04 #@! TF.ProjectId,remote-monitor,72656D6F74652D6D6F6E69746F722E6B,rev?*
G04 #@! TF.SameCoordinates,Original*
G04 #@! TF.FileFunction,Soldermask,Bot*
G04 #@! TF.FilePolarity,Negative*
%FSLAX46Y46*%
G04 Gerber Fmt 4.6, Leading zero omitted, Abs format (unit mm)*
G04 Created by KiCad (PCBNEW (5.0.1)-4) date 29/08/2020 11:34:48 PM*
%MOMM*%
%LPD*%
G01*
G04 APERTURE LIST*
%ADD10C,0.100000*%
G04 APERTURE END LIST*
D10*
G36*
X113070232Y-120691483D02*
X113258919Y-120748721D01*
X113432817Y-120841671D01*
X113585239Y-120966761D01*
X113710329Y-121119183D01*
X113803279Y-121293081D01*
X113860517Y-121481768D01*
X113875000Y-121628824D01*
X113875000Y-122727176D01*
X113860517Y-122874232D01*
X113803279Y-123062919D01*
X113710329Y-123236817D01*
X113585239Y-123389239D01*
X113432817Y-123514329D01*
X113258918Y-123607279D01*
X113070231Y-123664517D01*
X112874000Y-123683843D01*
X112677768Y-123664517D01*
X112489081Y-123607279D01*
X112315183Y-123514329D01*
X112162761Y-123389239D01*
X112037671Y-123236817D01*
X111944721Y-123062918D01*
X111887483Y-122874231D01*
X111873000Y-122727175D01*
X111873000Y-121628824D01*
X111887483Y-121481768D01*
X111944722Y-121293081D01*
X112037672Y-121119183D01*
X112162762Y-120966761D01*
X112315184Y-120841671D01*
X112489082Y-120748721D01*
X112677769Y-120691483D01*
X112874000Y-120672157D01*
X113070232Y-120691483D01*
X113070232Y-120691483D01*
G37*
G36*
X126210231Y-120691483D02*
X126398918Y-120748721D01*
X126572817Y-120841671D01*
X126725239Y-120966761D01*
X126850329Y-121119183D01*
X126943279Y-121293081D01*
X127000517Y-121481768D01*
X127015000Y-121628824D01*
X127015000Y-122727176D01*
X127000517Y-122874232D01*
X126943279Y-123062919D01*
X126850329Y-123236817D01*
X126725239Y-123389239D01*
X126572817Y-123514329D01*
X126398919Y-123607279D01*
X126210232Y-123664517D01*
X126014000Y-123683843D01*
X125817769Y-123664517D01*
X125629082Y-123607279D01*
X125455184Y-123514329D01*
X125302762Y-123389239D01*
X125177672Y-123236817D01*
X125084722Y-123062919D01*
X125027483Y-122874232D01*
X125013000Y-122727176D01*
X125013000Y-121628825D01*
X125027483Y-121481769D01*
X125084721Y-121293082D01*
X125177671Y-121119183D01*
X125302761Y-120966761D01*
X125455183Y-120841671D01*
X125629081Y-120748721D01*
X125817768Y-120691483D01*
X126014000Y-120672157D01*
X126210231Y-120691483D01*
X126210231Y-120691483D01*
G37*
G36*
X120648472Y-122103938D02*
X120776049Y-122156782D01*
X120890865Y-122233500D01*
X120988500Y-122331135D01*
X121065218Y-122445951D01*
X121118062Y-122573528D01*
X121145000Y-122708956D01*
X121145000Y-122847044D01*
X121118062Y-122982472D01*
X121065218Y-123110049D01*
X120988500Y-123224865D01*
X120890865Y-123322500D01*
X120776049Y-123399218D01*
X120648472Y-123452062D01*
X120513044Y-123479000D01*
X120374956Y-123479000D01*
X120239528Y-123452062D01*
X120111951Y-123399218D01*
X119997135Y-123322500D01*
X119899500Y-123224865D01*
X119822782Y-123110049D01*
X119769938Y-122982472D01*
X119743000Y-122847044D01*
X119743000Y-122708956D01*
X119769938Y-122573528D01*
X119822782Y-122445951D01*
X119899500Y-122331135D01*
X119997135Y-122233500D01*
X120111951Y-122156782D01*
X120239528Y-122103938D01*
X120374956Y-122077000D01*
X120513044Y-122077000D01*
X120648472Y-122103938D01*
X120648472Y-122103938D01*
G37*
G36*
X118648472Y-122103938D02*
X118776049Y-122156782D01*
X118890865Y-122233500D01*
X118988500Y-122331135D01*
X119065218Y-122445951D01*
X119118062Y-122573528D01*
X119145000Y-122708956D01*
X119145000Y-122847044D01*
X119118062Y-122982472D01*
X119065218Y-123110049D01*
X118988500Y-123224865D01*
X118890865Y-123322500D01*
X118776049Y-123399218D01*
X118648472Y-123452062D01*
X118513044Y-123479000D01*
X118374956Y-123479000D01*
X118239528Y-123452062D01*
X118111951Y-123399218D01*
X117997135Y-123322500D01*
X117899500Y-123224865D01*
X117822782Y-123110049D01*
X117769938Y-122982472D01*
X117743000Y-122847044D01*
X117743000Y-122708956D01*
X117769938Y-122573528D01*
X117822782Y-122445951D01*
X117899500Y-122331135D01*
X117997135Y-122233500D01*
X118111951Y-122156782D01*
X118239528Y-122103938D01*
X118374956Y-122077000D01*
X118513044Y-122077000D01*
X118648472Y-122103938D01*
X118648472Y-122103938D01*
G37*
G36*
X116645000Y-123479000D02*
X115243000Y-123479000D01*
X115243000Y-122077000D01*
X116645000Y-122077000D01*
X116645000Y-123479000D01*
X116645000Y-123479000D01*
G37*
G36*
X123148472Y-122103938D02*
X123276049Y-122156782D01*
X123390865Y-122233500D01*
X123488500Y-122331135D01*
X123565218Y-122445951D01*
X123618062Y-122573528D01*
X123645000Y-122708956D01*
X123645000Y-122847044D01*
X123618062Y-122982472D01*
X123565218Y-123110049D01*
X123488500Y-123224865D01*
X123390865Y-123322500D01*
X123276049Y-123399218D01*
X123148472Y-123452062D01*
X123013044Y-123479000D01*
X122874956Y-123479000D01*
X122739528Y-123452062D01*
X122611951Y-123399218D01*
X122497135Y-123322500D01*
X122399500Y-123224865D01*
X122322782Y-123110049D01*
X122269938Y-122982472D01*
X122243000Y-122847044D01*
X122243000Y-122708956D01*
X122269938Y-122573528D01*
X122322782Y-122445951D01*
X122399500Y-122331135D01*
X122497135Y-122233500D01*
X122611951Y-122156782D01*
X122739528Y-122103938D01*
X122874956Y-122077000D01*
X123013044Y-122077000D01*
X123148472Y-122103938D01*
X123148472Y-122103938D01*
G37*
G36*
X120140232Y-117011483D02*
X120328919Y-117068721D01*
X120502817Y-117161671D01*
X120655239Y-117286761D01*
X120780329Y-117439183D01*
X120873279Y-117613081D01*
X120930517Y-117801768D01*
X120949843Y-117998000D01*
X120930517Y-118194232D01*
X120873279Y-118382919D01*
X120780329Y-118556817D01*
X120655239Y-118709239D01*
X120502817Y-118834329D01*
X120328919Y-118927279D01*
X120140232Y-118984517D01*
X119993176Y-118999000D01*
X118894824Y-118999000D01*
X118747768Y-118984517D01*
X118559081Y-118927279D01*
X118385183Y-118834329D01*
X118232761Y-118709239D01*
X118107671Y-118556817D01*
X118014721Y-118382919D01*
X117957483Y-118194232D01*
X117938157Y-117998000D01*
X117957483Y-117801768D01*
X118014721Y-117613081D01*
X118107671Y-117439183D01*
X118232761Y-117286761D01*
X118385183Y-117161671D01*
X118559081Y-117068721D01*
X118747768Y-117011483D01*
X118894824Y-116997000D01*
X119993176Y-116997000D01*
X120140232Y-117011483D01*
X120140232Y-117011483D01*
G37*
G36*
X165375256Y-113391298D02*
X165481579Y-113412447D01*
X165782042Y-113536903D01*
X166048852Y-113715180D01*
X166052454Y-113717587D01*
X166282413Y-113947546D01*
X166463098Y-114217960D01*
X166587553Y-114518422D01*
X166651000Y-114837389D01*
X166651000Y-115162611D01*
X166587553Y-115481578D01*
X166463098Y-115782040D01*
X166282413Y-116052454D01*
X166052454Y-116282413D01*
X166052451Y-116282415D01*
X165782042Y-116463097D01*
X165481579Y-116587553D01*
X165375256Y-116608702D01*
X165162611Y-116651000D01*
X164837389Y-116651000D01*
X164624744Y-116608702D01*
X164518421Y-116587553D01*
X164217958Y-116463097D01*
X163947549Y-116282415D01*
X163947546Y-116282413D01*
X163717587Y-116052454D01*
X163536902Y-115782040D01*
X163412447Y-115481578D01*
X163349000Y-115162611D01*
X163349000Y-114837389D01*
X163412447Y-114518422D01*
X163536902Y-114217960D01*
X163717587Y-113947546D01*
X163947546Y-113717587D01*
X163951148Y-113715180D01*
X164217958Y-113536903D01*
X164518421Y-113412447D01*
X164624744Y-113391298D01*
X164837389Y-113349000D01*
X165162611Y-113349000D01*
X165375256Y-113391298D01*
X165375256Y-113391298D01*
G37*
G36*
X105375256Y-113391298D02*
X105481579Y-113412447D01*
X105782042Y-113536903D01*
X106048852Y-113715180D01*
X106052454Y-113717587D01*
X106282413Y-113947546D01*
X106463098Y-114217960D01*
X106587553Y-114518422D01*
X106651000Y-114837389D01*
X106651000Y-115162611D01*
X106587553Y-115481578D01*
X106463098Y-115782040D01*
X106282413Y-116052454D01*
X106052454Y-116282413D01*
X106052451Y-116282415D01*
X105782042Y-116463097D01*
X105481579Y-116587553D01*
X105375256Y-116608702D01*
X105162611Y-116651000D01*
X104837389Y-116651000D01*
X104624744Y-116608702D01*
X104518421Y-116587553D01*
X104217958Y-116463097D01*
X103947549Y-116282415D01*
X103947546Y-116282413D01*
X103717587Y-116052454D01*
X103536902Y-115782040D01*
X103412447Y-115481578D01*
X103349000Y-115162611D01*
X103349000Y-114837389D01*
X103412447Y-114518422D01*
X103536902Y-114217960D01*
X103717587Y-113947546D01*
X103947546Y-113717587D01*
X103951148Y-113715180D01*
X104217958Y-113536903D01*
X104518421Y-113412447D01*
X104624744Y-113391298D01*
X104837389Y-113349000D01*
X105162611Y-113349000D01*
X105375256Y-113391298D01*
X105375256Y-113391298D01*
G37*
G36*
X151088228Y-100341703D02*
X151243100Y-100405853D01*
X151382481Y-100498985D01*
X151501015Y-100617519D01*
X151594147Y-100756900D01*
X151658297Y-100911772D01*
X151691000Y-101076184D01*
X151691000Y-101243816D01*
X151658297Y-101408228D01*
X151594147Y-101563100D01*
X151501015Y-101702481D01*
X151382481Y-101821015D01*
X151243100Y-101914147D01*
X151088228Y-101978297D01*
X150923816Y-102011000D01*
X150756184Y-102011000D01*
X150591772Y-101978297D01*
X150436900Y-101914147D01*
X150297519Y-101821015D01*
X150178985Y-101702481D01*
X150085853Y-101563100D01*
X150021703Y-101408228D01*
X149989000Y-101243816D01*
X149989000Y-101076184D01*
X150021703Y-100911772D01*
X150085853Y-100756900D01*
X150178985Y-100617519D01*
X150297519Y-100498985D01*
X150436900Y-100405853D01*
X150591772Y-100341703D01*
X150756184Y-100309000D01*
X150923816Y-100309000D01*
X151088228Y-100341703D01*
X151088228Y-100341703D01*
G37*
G36*
X172011000Y-102011000D02*
X170309000Y-102011000D01*
X170309000Y-100309000D01*
X172011000Y-100309000D01*
X172011000Y-102011000D01*
X172011000Y-102011000D01*
G37*
G36*
X151088228Y-97801703D02*
X151243100Y-97865853D01*
X151382481Y-97958985D01*
X151501015Y-98077519D01*
X151594147Y-98216900D01*
X151658297Y-98371772D01*
X151691000Y-98536184D01*
X151691000Y-98703816D01*
X151658297Y-98868228D01*
X151594147Y-99023100D01*
X151501015Y-99162481D01*
X151382481Y-99281015D01*
X151243100Y-99374147D01*
X151088228Y-99438297D01*
X150923816Y-99471000D01*
X150756184Y-99471000D01*
X150591772Y-99438297D01*
X150436900Y-99374147D01*
X150297519Y-99281015D01*
X150178985Y-99162481D01*
X150085853Y-99023100D01*
X150021703Y-98868228D01*
X149989000Y-98703816D01*
X149989000Y-98536184D01*
X150021703Y-98371772D01*
X150085853Y-98216900D01*
X150178985Y-98077519D01*
X150297519Y-97958985D01*
X150436900Y-97865853D01*
X150591772Y-97801703D01*
X150756184Y-97769000D01*
X150923816Y-97769000D01*
X151088228Y-97801703D01*
X151088228Y-97801703D01*
G37*
G36*
X171408228Y-97801703D02*
X171563100Y-97865853D01*
X171702481Y-97958985D01*
X171821015Y-98077519D01*
X171914147Y-98216900D01*
X171978297Y-98371772D01*
X172011000Y-98536184D01*
X172011000Y-98703816D01*
X171978297Y-98868228D01*
X171914147Y-99023100D01*
X171821015Y-99162481D01*
X171702481Y-99281015D01*
X171563100Y-99374147D01*
X171408228Y-99438297D01*
X171243816Y-99471000D01*
X171076184Y-99471000D01*
X170911772Y-99438297D01*
X170756900Y-99374147D01*
X170617519Y-99281015D01*
X170498985Y-99162481D01*
X170405853Y-99023100D01*
X170341703Y-98868228D01*
X170309000Y-98703816D01*
X170309000Y-98536184D01*
X170341703Y-98371772D01*
X170405853Y-98216900D01*
X170498985Y-98077519D01*
X170617519Y-97958985D01*
X170756900Y-97865853D01*
X170911772Y-97801703D01*
X171076184Y-97769000D01*
X171243816Y-97769000D01*
X171408228Y-97801703D01*
X171408228Y-97801703D01*
G37*
G36*
X116777396Y-96165546D02*
X116950466Y-96237234D01*
X117106230Y-96341312D01*
X117238688Y-96473770D01*
X117342766Y-96629534D01*
X117414454Y-96802604D01*
X117451000Y-96986333D01*
X117451000Y-97173667D01*
X117414454Y-97357396D01*
X117342766Y-97530466D01*
X117238688Y-97686230D01*
X117106230Y-97818688D01*
X116950466Y-97922766D01*
X116777396Y-97994454D01*
X116593667Y-98031000D01*
X116406333Y-98031000D01*
X116222604Y-97994454D01*
X116049534Y-97922766D01*
X115893770Y-97818688D01*
X115761312Y-97686230D01*
X115657234Y-97530466D01*
X115585546Y-97357396D01*
X115549000Y-97173667D01*
X115549000Y-96986333D01*
X115585546Y-96802604D01*
X115657234Y-96629534D01*
X115761312Y-96473770D01*
X115893770Y-96341312D01*
X116049534Y-96237234D01*
X116222604Y-96165546D01*
X116406333Y-96129000D01*
X116593667Y-96129000D01*
X116777396Y-96165546D01*
X116777396Y-96165546D01*
G37*
G36*
X103277396Y-96165546D02*
X103450466Y-96237234D01*
X103606230Y-96341312D01*
X103738688Y-96473770D01*
X103842766Y-96629534D01*
X103914454Y-96802604D01*
X103951000Y-96986333D01*
X103951000Y-97173667D01*
X103914454Y-97357396D01*
X103842766Y-97530466D01*
X103738688Y-97686230D01*
X103606230Y-97818688D01*
X103450466Y-97922766D01*
X103277396Y-97994454D01*
X103093667Y-98031000D01*
X102906333Y-98031000D01*
X102722604Y-97994454D01*
X102549534Y-97922766D01*
X102393770Y-97818688D01*
X102261312Y-97686230D01*
X102157234Y-97530466D01*
X102085546Y-97357396D01*
X102049000Y-97173667D01*
X102049000Y-96986333D01*
X102085546Y-96802604D01*
X102157234Y-96629534D01*
X102261312Y-96473770D01*
X102393770Y-96341312D01*
X102549534Y-96237234D01*
X102722604Y-96165546D01*
X102906333Y-96129000D01*
X103093667Y-96129000D01*
X103277396Y-96165546D01*
X103277396Y-96165546D01*
G37*
G36*
X171408228Y-95261703D02*
X171563100Y-95325853D01*
X171702481Y-95418985D01*
X171821015Y-95537519D01*
X171914147Y-95676900D01*
X171978297Y-95831772D01*
X172011000Y-95996184D01*
X172011000Y-96163816D01*
X171978297Y-96328228D01*
X171914147Y-96483100D01*
X171821015Y-96622481D01*
X171702481Y-96741015D01*
X171563100Y-96834147D01*
X171408228Y-96898297D01*
X171243816Y-96931000D01*
X171076184Y-96931000D01*
X170911772Y-96898297D01*
X170756900Y-96834147D01*
X170617519Y-96741015D01*
X170498985Y-96622481D01*
X170405853Y-96483100D01*
X170341703Y-96328228D01*
X170309000Y-96163816D01*
X170309000Y-95996184D01*
X170341703Y-95831772D01*
X170405853Y-95676900D01*
X170498985Y-95537519D01*
X170617519Y-95418985D01*
X170756900Y-95325853D01*
X170911772Y-95261703D01*
X171076184Y-95229000D01*
X171243816Y-95229000D01*
X171408228Y-95261703D01*
X171408228Y-95261703D01*
G37*
G36*
X151088228Y-95261703D02*
X151243100Y-95325853D01*
X151382481Y-95418985D01*
X151501015Y-95537519D01*
X151594147Y-95676900D01*
X151658297Y-95831772D01*
X151691000Y-95996184D01*
X151691000Y-96163816D01*
X151658297Y-96328228D01*
X151594147Y-96483100D01*
X151501015Y-96622481D01*
X151382481Y-96741015D01*
X151243100Y-96834147D01*
X151088228Y-96898297D01*
X150923816Y-96931000D01*
X150756184Y-96931000D01*
X150591772Y-96898297D01*
X150436900Y-96834147D01*
X150297519Y-96741015D01*
X150178985Y-96622481D01*
X150085853Y-96483100D01*
X150021703Y-96328228D01*
X149989000Y-96163816D01*
X149989000Y-95996184D01*
X150021703Y-95831772D01*
X150085853Y-95676900D01*
X150178985Y-95537519D01*
X150297519Y-95418985D01*
X150436900Y-95325853D01*
X150591772Y-95261703D01*
X150756184Y-95229000D01*
X150923816Y-95229000D01*
X151088228Y-95261703D01*
X151088228Y-95261703D01*
G37*
G36*
X103277396Y-93625546D02*
X103450466Y-93697234D01*
X103606230Y-93801312D01*
X103738688Y-93933770D01*
X103842766Y-94089534D01*
X103914454Y-94262604D01*
X103951000Y-94446333D01*
X103951000Y-94633667D01*
X103914454Y-94817396D01*
X103842766Y-94990466D01*
X103738688Y-95146230D01*
X103606230Y-95278688D01*
X103450466Y-95382766D01*
X103277396Y-95454454D01*
X103093667Y-95491000D01*
X102906333Y-95491000D01*
X102722604Y-95454454D01*
X102549534Y-95382766D01*
X102393770Y-95278688D01*
X102261312Y-95146230D01*
X102157234Y-94990466D01*
X102085546Y-94817396D01*
X102049000Y-94633667D01*
X102049000Y-94446333D01*
X102085546Y-94262604D01*
X102157234Y-94089534D01*
X102261312Y-93933770D01*
X102393770Y-93801312D01*
X102549534Y-93697234D01*
X102722604Y-93625546D01*
X102906333Y-93589000D01*
X103093667Y-93589000D01*
X103277396Y-93625546D01*
X103277396Y-93625546D01*
G37*
G36*
X116777396Y-93625546D02*
X116950466Y-93697234D01*
X117106230Y-93801312D01*
X117238688Y-93933770D01*
X117342766Y-94089534D01*
X117414454Y-94262604D01*
X117451000Y-94446333D01*
X117451000Y-94633667D01*
X117414454Y-94817396D01*
X117342766Y-94990466D01*
X117238688Y-95146230D01*
X117106230Y-95278688D01*
X116950466Y-95382766D01*
X116777396Y-95454454D01*
X116593667Y-95491000D01*
X116406333Y-95491000D01*
X116222604Y-95454454D01*
X116049534Y-95382766D01*
X115893770Y-95278688D01*
X115761312Y-95146230D01*
X115657234Y-94990466D01*
X115585546Y-94817396D01*
X115549000Y-94633667D01*
X115549000Y-94446333D01*
X115585546Y-94262604D01*
X115657234Y-94089534D01*
X115761312Y-93933770D01*
X115893770Y-93801312D01*
X116049534Y-93697234D01*
X116222604Y-93625546D01*
X116406333Y-93589000D01*
X116593667Y-93589000D01*
X116777396Y-93625546D01*
X116777396Y-93625546D01*
G37*
G36*
X171408228Y-92721703D02*
X171563100Y-92785853D01*
X171702481Y-92878985D01*
X171821015Y-92997519D01*
X171914147Y-93136900D01*
X171978297Y-93291772D01*
X172011000Y-93456184D01*
X172011000Y-93623816D01*
X171978297Y-93788228D01*
X171914147Y-93943100D01*
X171821015Y-94082481D01*
X171702481Y-94201015D01*
X171563100Y-94294147D01*
X171408228Y-94358297D01*
X171243816Y-94391000D01*
X171076184Y-94391000D01*
X170911772Y-94358297D01*
X170756900Y-94294147D01*
X170617519Y-94201015D01*
X170498985Y-94082481D01*
X170405853Y-93943100D01*
X170341703Y-93788228D01*
X170309000Y-93623816D01*
X170309000Y-93456184D01*
X170341703Y-93291772D01*
X170405853Y-93136900D01*
X170498985Y-92997519D01*
X170617519Y-92878985D01*
X170756900Y-92785853D01*
X170911772Y-92721703D01*
X171076184Y-92689000D01*
X171243816Y-92689000D01*
X171408228Y-92721703D01*
X171408228Y-92721703D01*
G37*
G36*
X151088228Y-92721703D02*
X151243100Y-92785853D01*
X151382481Y-92878985D01*
X151501015Y-92997519D01*
X151594147Y-93136900D01*
X151658297Y-93291772D01*
X151691000Y-93456184D01*
X151691000Y-93623816D01*
X151658297Y-93788228D01*
X151594147Y-93943100D01*
X151501015Y-94082481D01*
X151382481Y-94201015D01*
X151243100Y-94294147D01*
X151088228Y-94358297D01*
X150923816Y-94391000D01*
X150756184Y-94391000D01*
X150591772Y-94358297D01*
X150436900Y-94294147D01*
X150297519Y-94201015D01*
X150178985Y-94082481D01*
X150085853Y-93943100D01*
X150021703Y-93788228D01*
X149989000Y-93623816D01*
X149989000Y-93456184D01*
X150021703Y-93291772D01*
X150085853Y-93136900D01*
X150178985Y-92997519D01*
X150297519Y-92878985D01*
X150436900Y-92785853D01*
X150591772Y-92721703D01*
X150756184Y-92689000D01*
X150923816Y-92689000D01*
X151088228Y-92721703D01*
X151088228Y-92721703D01*
G37*
G36*
X117451000Y-92951000D02*
X115549000Y-92951000D01*
X115549000Y-91049000D01*
X117451000Y-91049000D01*
X117451000Y-92951000D01*
X117451000Y-92951000D01*
G37*
G36*
X103951000Y-92951000D02*
X102049000Y-92951000D01*
X102049000Y-91049000D01*
X103951000Y-91049000D01*
X103951000Y-92951000D01*
X103951000Y-92951000D01*
G37*
G36*
X171408228Y-90181703D02*
X171563100Y-90245853D01*
X171702481Y-90338985D01*
X171821015Y-90457519D01*
X171914147Y-90596900D01*
X171978297Y-90751772D01*
X172011000Y-90916184D01*
X172011000Y-91083816D01*
X171978297Y-91248228D01*
X171914147Y-91403100D01*
X171821015Y-91542481D01*
X171702481Y-91661015D01*
X171563100Y-91754147D01*
X171408228Y-91818297D01*
X171243816Y-91851000D01*
X171076184Y-91851000D01*
X170911772Y-91818297D01*
X170756900Y-91754147D01*
X170617519Y-91661015D01*
X170498985Y-91542481D01*
X170405853Y-91403100D01*
X170341703Y-91248228D01*
X170309000Y-91083816D01*
X170309000Y-90916184D01*
X170341703Y-90751772D01*
X170405853Y-90596900D01*
X170498985Y-90457519D01*
X170617519Y-90338985D01*
X170756900Y-90245853D01*
X170911772Y-90181703D01*
X171076184Y-90149000D01*
X171243816Y-90149000D01*
X171408228Y-90181703D01*
X171408228Y-90181703D01*
G37*
G36*
X151088228Y-90181703D02*
X151243100Y-90245853D01*
X151382481Y-90338985D01*
X151501015Y-90457519D01*
X151594147Y-90596900D01*
X151658297Y-90751772D01*
X151691000Y-90916184D01*
X151691000Y-91083816D01*
X151658297Y-91248228D01*
X151594147Y-91403100D01*
X151501015Y-91542481D01*
X151382481Y-91661015D01*
X151243100Y-91754147D01*
X151088228Y-91818297D01*
X150923816Y-91851000D01*
X150756184Y-91851000D01*
X150591772Y-91818297D01*
X150436900Y-91754147D01*
X150297519Y-91661015D01*
X150178985Y-91542481D01*
X150085853Y-91403100D01*
X150021703Y-91248228D01*
X149989000Y-91083816D01*
X149989000Y-90916184D01*
X150021703Y-90751772D01*
X150085853Y-90596900D01*
X150178985Y-90457519D01*
X150297519Y-90338985D01*
X150436900Y-90245853D01*
X150591772Y-90181703D01*
X150756184Y-90149000D01*
X150923816Y-90149000D01*
X151088228Y-90181703D01*
X151088228Y-90181703D01*
G37*
G36*
X171408228Y-87641703D02*
X171563100Y-87705853D01*
X171702481Y-87798985D01*
X171821015Y-87917519D01*
X171914147Y-88056900D01*
X171978297Y-88211772D01*
X172011000Y-88376184D01*
X172011000Y-88543816D01*
X171978297Y-88708228D01*
X171914147Y-88863100D01*
X171821015Y-89002481D01*
X171702481Y-89121015D01*
X171563100Y-89214147D01*
X171408228Y-89278297D01*
X171243816Y-89311000D01*
X171076184Y-89311000D01*
X170911772Y-89278297D01*
X170756900Y-89214147D01*
X170617519Y-89121015D01*
X170498985Y-89002481D01*
X170405853Y-88863100D01*
X170341703Y-88708228D01*
X170309000Y-88543816D01*
X170309000Y-88376184D01*
X170341703Y-88211772D01*
X170405853Y-88056900D01*
X170498985Y-87917519D01*
X170617519Y-87798985D01*
X170756900Y-87705853D01*
X170911772Y-87641703D01*
X171076184Y-87609000D01*
X171243816Y-87609000D01*
X171408228Y-87641703D01*
X171408228Y-87641703D01*
G37*
G36*
X151088228Y-87641703D02*
X151243100Y-87705853D01*
X151382481Y-87798985D01*
X151501015Y-87917519D01*
X151594147Y-88056900D01*
X151658297Y-88211772D01*
X151691000Y-88376184D01*
X151691000Y-88543816D01*
X151658297Y-88708228D01*
X151594147Y-88863100D01*
X151501015Y-89002481D01*
X151382481Y-89121015D01*
X151243100Y-89214147D01*
X151088228Y-89278297D01*
X150923816Y-89311000D01*
X150756184Y-89311000D01*
X150591772Y-89278297D01*
X150436900Y-89214147D01*
X150297519Y-89121015D01*
X150178985Y-89002481D01*
X150085853Y-88863100D01*
X150021703Y-88708228D01*
X149989000Y-88543816D01*
X149989000Y-88376184D01*
X150021703Y-88211772D01*
X150085853Y-88056900D01*
X150178985Y-87917519D01*
X150297519Y-87798985D01*
X150436900Y-87705853D01*
X150591772Y-87641703D01*
X150756184Y-87609000D01*
X150923816Y-87609000D01*
X151088228Y-87641703D01*
X151088228Y-87641703D01*
G37*
G36*
X151088228Y-85101703D02*
X151243100Y-85165853D01*
X151382481Y-85258985D01*
X151501015Y-85377519D01*
X151594147Y-85516900D01*
X151658297Y-85671772D01*
X151691000Y-85836184D01*
X151691000Y-86003816D01*
X151658297Y-86168228D01*
X151594147Y-86323100D01*
X151501015Y-86462481D01*
X151382481Y-86581015D01*
X151243100Y-86674147D01*
X151088228Y-86738297D01*
X150923816Y-86771000D01*
X150756184Y-86771000D01*
X150591772Y-86738297D01*
X150436900Y-86674147D01*
X150297519Y-86581015D01*
X150178985Y-86462481D01*
X150085853Y-86323100D01*
X150021703Y-86168228D01*
X149989000Y-86003816D01*
X149989000Y-85836184D01*
X150021703Y-85671772D01*
X150085853Y-85516900D01*
X150178985Y-85377519D01*
X150297519Y-85258985D01*
X150436900Y-85165853D01*
X150591772Y-85101703D01*
X150756184Y-85069000D01*
X150923816Y-85069000D01*
X151088228Y-85101703D01*
X151088228Y-85101703D01*
G37*
G36*
X171408228Y-85101703D02*
X171563100Y-85165853D01*
X171702481Y-85258985D01*
X171821015Y-85377519D01*
X171914147Y-85516900D01*
X171978297Y-85671772D01*
X172011000Y-85836184D01*
X172011000Y-86003816D01*
X171978297Y-86168228D01*
X171914147Y-86323100D01*
X171821015Y-86462481D01*
X171702481Y-86581015D01*
X171563100Y-86674147D01*
X171408228Y-86738297D01*
X171243816Y-86771000D01*
X171076184Y-86771000D01*
X170911772Y-86738297D01*
X170756900Y-86674147D01*
X170617519Y-86581015D01*
X170498985Y-86462481D01*
X170405853Y-86323100D01*
X170341703Y-86168228D01*
X170309000Y-86003816D01*
X170309000Y-85836184D01*
X170341703Y-85671772D01*
X170405853Y-85516900D01*
X170498985Y-85377519D01*
X170617519Y-85258985D01*
X170756900Y-85165853D01*
X170911772Y-85101703D01*
X171076184Y-85069000D01*
X171243816Y-85069000D01*
X171408228Y-85101703D01*
X171408228Y-85101703D01*
G37*
G36*
X151088228Y-82561703D02*
X151243100Y-82625853D01*
X151382481Y-82718985D01*
X151501015Y-82837519D01*
X151594147Y-82976900D01*
X151658297Y-83131772D01*
X151691000Y-83296184D01*
X151691000Y-83463816D01*
X151658297Y-83628228D01*
X151594147Y-83783100D01*
X151501015Y-83922481D01*
X151382481Y-84041015D01*
X151243100Y-84134147D01*
X151088228Y-84198297D01*
X150923816Y-84231000D01*
X150756184Y-84231000D01*
X150591772Y-84198297D01*
X150436900Y-84134147D01*
X150297519Y-84041015D01*
X150178985Y-83922481D01*
X150085853Y-83783100D01*
X150021703Y-83628228D01*
X149989000Y-83463816D01*
X149989000Y-83296184D01*
X150021703Y-83131772D01*
X150085853Y-82976900D01*
X150178985Y-82837519D01*
X150297519Y-82718985D01*
X150436900Y-82625853D01*
X150591772Y-82561703D01*
X150756184Y-82529000D01*
X150923816Y-82529000D01*
X151088228Y-82561703D01*
X151088228Y-82561703D01*
G37*
G36*
X171408228Y-82561703D02*
X171563100Y-82625853D01*
X171702481Y-82718985D01*
X171821015Y-82837519D01*
X171914147Y-82976900D01*
X171978297Y-83131772D01*
X172011000Y-83296184D01*
X172011000Y-83463816D01*
X171978297Y-83628228D01*
X171914147Y-83783100D01*
X171821015Y-83922481D01*
X171702481Y-84041015D01*
X171563100Y-84134147D01*
X171408228Y-84198297D01*
X171243816Y-84231000D01*
X171076184Y-84231000D01*
X170911772Y-84198297D01*
X170756900Y-84134147D01*
X170617519Y-84041015D01*
X170498985Y-83922481D01*
X170405853Y-83783100D01*
X170341703Y-83628228D01*
X170309000Y-83463816D01*
X170309000Y-83296184D01*
X170341703Y-83131772D01*
X170405853Y-82976900D01*
X170498985Y-82837519D01*
X170617519Y-82718985D01*
X170756900Y-82625853D01*
X170911772Y-82561703D01*
X171076184Y-82529000D01*
X171243816Y-82529000D01*
X171408228Y-82561703D01*
X171408228Y-82561703D01*
G37*
G36*
X171408228Y-80021703D02*
X171563100Y-80085853D01*
X171702481Y-80178985D01*
X171821015Y-80297519D01*
X171914147Y-80436900D01*
X171978297Y-80591772D01*
X172011000Y-80756184D01*
X172011000Y-80923816D01*
X171978297Y-81088228D01*
X171914147Y-81243100D01*
X171821015Y-81382481D01*
X171702481Y-81501015D01*
X171563100Y-81594147D01*
X171408228Y-81658297D01*
X171243816Y-81691000D01*
X171076184Y-81691000D01*
X170911772Y-81658297D01*
X170756900Y-81594147D01*
X170617519Y-81501015D01*
X170498985Y-81382481D01*
X170405853Y-81243100D01*
X170341703Y-81088228D01*
X170309000Y-80923816D01*
X170309000Y-80756184D01*
X170341703Y-80591772D01*
X170405853Y-80436900D01*
X170498985Y-80297519D01*
X170617519Y-80178985D01*
X170756900Y-80085853D01*
X170911772Y-80021703D01*
X171076184Y-79989000D01*
X171243816Y-79989000D01*
X171408228Y-80021703D01*
X171408228Y-80021703D01*
G37*
G36*
X151088228Y-80021703D02*
X151243100Y-80085853D01*
X151382481Y-80178985D01*
X151501015Y-80297519D01*
X151594147Y-80436900D01*
X151658297Y-80591772D01*
X151691000Y-80756184D01*
X151691000Y-80923816D01*
X151658297Y-81088228D01*
X151594147Y-81243100D01*
X151501015Y-81382481D01*
X151382481Y-81501015D01*
X151243100Y-81594147D01*
X151088228Y-81658297D01*
X150923816Y-81691000D01*
X150756184Y-81691000D01*
X150591772Y-81658297D01*
X150436900Y-81594147D01*
X150297519Y-81501015D01*
X150178985Y-81382481D01*
X150085853Y-81243100D01*
X150021703Y-81088228D01*
X149989000Y-80923816D01*
X149989000Y-80756184D01*
X150021703Y-80591772D01*
X150085853Y-80436900D01*
X150178985Y-80297519D01*
X150297519Y-80178985D01*
X150436900Y-80085853D01*
X150591772Y-80021703D01*
X150756184Y-79989000D01*
X150923816Y-79989000D01*
X151088228Y-80021703D01*
X151088228Y-80021703D01*
G37*
G36*
X151088228Y-77481703D02*
X151243100Y-77545853D01*
X151382481Y-77638985D01*
X151501015Y-77757519D01*
X151594147Y-77896900D01*
X151658297Y-78051772D01*
X151691000Y-78216184D01*
X151691000Y-78383816D01*
X151658297Y-78548228D01*
X151594147Y-78703100D01*
X151501015Y-78842481D01*
X151382481Y-78961015D01*
X151243100Y-79054147D01*
X151088228Y-79118297D01*
X150923816Y-79151000D01*
X150756184Y-79151000D01*
X150591772Y-79118297D01*
X150436900Y-79054147D01*
X150297519Y-78961015D01*
X150178985Y-78842481D01*
X150085853Y-78703100D01*
X150021703Y-78548228D01*
X149989000Y-78383816D01*
X149989000Y-78216184D01*
X150021703Y-78051772D01*
X150085853Y-77896900D01*
X150178985Y-77757519D01*
X150297519Y-77638985D01*
X150436900Y-77545853D01*
X150591772Y-77481703D01*
X150756184Y-77449000D01*
X150923816Y-77449000D01*
X151088228Y-77481703D01*
X151088228Y-77481703D01*
G37*
G36*
X171408228Y-77481703D02*
X171563100Y-77545853D01*
X171702481Y-77638985D01*
X171821015Y-77757519D01*
X171914147Y-77896900D01*
X171978297Y-78051772D01*
X172011000Y-78216184D01*
X172011000Y-78383816D01*
X171978297Y-78548228D01*
X171914147Y-78703100D01*
X171821015Y-78842481D01*
X171702481Y-78961015D01*
X171563100Y-79054147D01*
X171408228Y-79118297D01*
X171243816Y-79151000D01*
X171076184Y-79151000D01*
X170911772Y-79118297D01*
X170756900Y-79054147D01*
X170617519Y-78961015D01*
X170498985Y-78842481D01*
X170405853Y-78703100D01*
X170341703Y-78548228D01*
X170309000Y-78383816D01*
X170309000Y-78216184D01*
X170341703Y-78051772D01*
X170405853Y-77896900D01*
X170498985Y-77757519D01*
X170617519Y-77638985D01*
X170756900Y-77545853D01*
X170911772Y-77481703D01*
X171076184Y-77449000D01*
X171243816Y-77449000D01*
X171408228Y-77481703D01*
X171408228Y-77481703D01*
G37*
G36*
X171408228Y-74941703D02*
X171563100Y-75005853D01*
X171702481Y-75098985D01*
X171821015Y-75217519D01*
X171914147Y-75356900D01*
X171978297Y-75511772D01*
X172011000Y-75676184D01*
X172011000Y-75843816D01*
X171978297Y-76008228D01*
X171914147Y-76163100D01*
X171821015Y-76302481D01*
X171702481Y-76421015D01*
X171563100Y-76514147D01*
X171408228Y-76578297D01*
X171243816Y-76611000D01*
X171076184Y-76611000D01*
X170911772Y-76578297D01*
X170756900Y-76514147D01*
X170617519Y-76421015D01*
X170498985Y-76302481D01*
X170405853Y-76163100D01*
X170341703Y-76008228D01*
X170309000Y-75843816D01*
X170309000Y-75676184D01*
X170341703Y-75511772D01*
X170405853Y-75356900D01*
X170498985Y-75217519D01*
X170617519Y-75098985D01*
X170756900Y-75005853D01*
X170911772Y-74941703D01*
X171076184Y-74909000D01*
X171243816Y-74909000D01*
X171408228Y-74941703D01*
X171408228Y-74941703D01*
G37*
G36*
X151088228Y-74941703D02*
X151243100Y-75005853D01*
X151382481Y-75098985D01*
X151501015Y-75217519D01*
X151594147Y-75356900D01*
X151658297Y-75511772D01*
X151691000Y-75676184D01*
X151691000Y-75843816D01*
X151658297Y-76008228D01*
X151594147Y-76163100D01*
X151501015Y-76302481D01*
X151382481Y-76421015D01*
X151243100Y-76514147D01*
X151088228Y-76578297D01*
X150923816Y-76611000D01*
X150756184Y-76611000D01*
X150591772Y-76578297D01*
X150436900Y-76514147D01*
X150297519Y-76421015D01*
X150178985Y-76302481D01*
X150085853Y-76163100D01*
X150021703Y-76008228D01*
X149989000Y-75843816D01*
X149989000Y-75676184D01*
X150021703Y-75511772D01*
X150085853Y-75356900D01*
X150178985Y-75217519D01*
X150297519Y-75098985D01*
X150436900Y-75005853D01*
X150591772Y-74941703D01*
X150756184Y-74909000D01*
X150923816Y-74909000D01*
X151088228Y-74941703D01*
X151088228Y-74941703D01*
G37*
G36*
X171408228Y-72401703D02*
X171563100Y-72465853D01*
X171702481Y-72558985D01*
X171821015Y-72677519D01*
X171914147Y-72816900D01*
X171978297Y-72971772D01*
X172011000Y-73136184D01*
X172011000Y-73303816D01*
X171978297Y-73468228D01*
X171914147Y-73623100D01*
X171821015Y-73762481D01*
X171702481Y-73881015D01*
X171563100Y-73974147D01*
X171408228Y-74038297D01*
X171243816Y-74071000D01*
X171076184Y-74071000D01*
X170911772Y-74038297D01*
X170756900Y-73974147D01*
X170617519Y-73881015D01*
X170498985Y-73762481D01*
X170405853Y-73623100D01*
X170341703Y-73468228D01*
X170309000Y-73303816D01*
X170309000Y-73136184D01*
X170341703Y-72971772D01*
X170405853Y-72816900D01*
X170498985Y-72677519D01*
X170617519Y-72558985D01*
X170756900Y-72465853D01*
X170911772Y-72401703D01*
X171076184Y-72369000D01*
X171243816Y-72369000D01*
X171408228Y-72401703D01*
X171408228Y-72401703D01*
G37*
G36*
X151088228Y-72401703D02*
X151243100Y-72465853D01*
X151382481Y-72558985D01*
X151501015Y-72677519D01*
X151594147Y-72816900D01*
X151658297Y-72971772D01*
X151691000Y-73136184D01*
X151691000Y-73303816D01*
X151658297Y-73468228D01*
X151594147Y-73623100D01*
X151501015Y-73762481D01*
X151382481Y-73881015D01*
X151243100Y-73974147D01*
X151088228Y-74038297D01*
X150923816Y-74071000D01*
X150756184Y-74071000D01*
X150591772Y-74038297D01*
X150436900Y-73974147D01*
X150297519Y-73881015D01*
X150178985Y-73762481D01*
X150085853Y-73623100D01*
X150021703Y-73468228D01*
X149989000Y-73303816D01*
X149989000Y-73136184D01*
X150021703Y-72971772D01*
X150085853Y-72816900D01*
X150178985Y-72677519D01*
X150297519Y-72558985D01*
X150436900Y-72465853D01*
X150591772Y-72401703D01*
X150756184Y-72369000D01*
X150923816Y-72369000D01*
X151088228Y-72401703D01*
X151088228Y-72401703D01*
G37*
G36*
X171408228Y-69861703D02*
X171563100Y-69925853D01*
X171702481Y-70018985D01*
X171821015Y-70137519D01*
X171914147Y-70276900D01*
X171978297Y-70431772D01*
X172011000Y-70596184D01*
X172011000Y-70763816D01*
X171978297Y-70928228D01*
X171914147Y-71083100D01*
X171821015Y-71222481D01*
X171702481Y-71341015D01*
X171563100Y-71434147D01*
X171408228Y-71498297D01*
X171243816Y-71531000D01*
X171076184Y-71531000D01*
X170911772Y-71498297D01*
X170756900Y-71434147D01*
X170617519Y-71341015D01*
X170498985Y-71222481D01*
X170405853Y-71083100D01*
X170341703Y-70928228D01*
X170309000Y-70763816D01*
X170309000Y-70596184D01*
X170341703Y-70431772D01*
X170405853Y-70276900D01*
X170498985Y-70137519D01*
X170617519Y-70018985D01*
X170756900Y-69925853D01*
X170911772Y-69861703D01*
X171076184Y-69829000D01*
X171243816Y-69829000D01*
X171408228Y-69861703D01*
X171408228Y-69861703D01*
G37*
G36*
X151088228Y-69861703D02*
X151243100Y-69925853D01*
X151382481Y-70018985D01*
X151501015Y-70137519D01*
X151594147Y-70276900D01*
X151658297Y-70431772D01*
X151691000Y-70596184D01*
X151691000Y-70763816D01*
X151658297Y-70928228D01*
X151594147Y-71083100D01*
X151501015Y-71222481D01*
X151382481Y-71341015D01*
X151243100Y-71434147D01*
X151088228Y-71498297D01*
X150923816Y-71531000D01*
X150756184Y-71531000D01*
X150591772Y-71498297D01*
X150436900Y-71434147D01*
X150297519Y-71341015D01*
X150178985Y-71222481D01*
X150085853Y-71083100D01*
X150021703Y-70928228D01*
X149989000Y-70763816D01*
X149989000Y-70596184D01*
X150021703Y-70431772D01*
X150085853Y-70276900D01*
X150178985Y-70137519D01*
X150297519Y-70018985D01*
X150436900Y-69925853D01*
X150591772Y-69861703D01*
X150756184Y-69829000D01*
X150923816Y-69829000D01*
X151088228Y-69861703D01*
X151088228Y-69861703D01*
G37*
G36*
X151088228Y-67321703D02*
X151243100Y-67385853D01*
X151382481Y-67478985D01*
X151501015Y-67597519D01*
X151594147Y-67736900D01*
X151658297Y-67891772D01*
X151691000Y-68056184D01*
X151691000Y-68223816D01*
X151658297Y-68388228D01*
X151594147Y-68543100D01*
X151501015Y-68682481D01*
X151382481Y-68801015D01*
X151243100Y-68894147D01*
X151088228Y-68958297D01*
X150923816Y-68991000D01*
X150756184Y-68991000D01*
X150591772Y-68958297D01*
X150436900Y-68894147D01*
X150297519Y-68801015D01*
X150178985Y-68682481D01*
X150085853Y-68543100D01*
X150021703Y-68388228D01*
X149989000Y-68223816D01*
X149989000Y-68056184D01*
X150021703Y-67891772D01*
X150085853Y-67736900D01*
X150178985Y-67597519D01*
X150297519Y-67478985D01*
X150436900Y-67385853D01*
X150591772Y-67321703D01*
X150756184Y-67289000D01*
X150923816Y-67289000D01*
X151088228Y-67321703D01*
X151088228Y-67321703D01*
G37*
G36*
X171408228Y-67321703D02*
X171563100Y-67385853D01*
X171702481Y-67478985D01*
X171821015Y-67597519D01*
X171914147Y-67736900D01*
X171978297Y-67891772D01*
X172011000Y-68056184D01*
X172011000Y-68223816D01*
X171978297Y-68388228D01*
X171914147Y-68543100D01*
X171821015Y-68682481D01*
X171702481Y-68801015D01*
X171563100Y-68894147D01*
X171408228Y-68958297D01*
X171243816Y-68991000D01*
X171076184Y-68991000D01*
X170911772Y-68958297D01*
X170756900Y-68894147D01*
X170617519Y-68801015D01*
X170498985Y-68682481D01*
X170405853Y-68543100D01*
X170341703Y-68388228D01*
X170309000Y-68223816D01*
X170309000Y-68056184D01*
X170341703Y-67891772D01*
X170405853Y-67736900D01*
X170498985Y-67597519D01*
X170617519Y-67478985D01*
X170756900Y-67385853D01*
X170911772Y-67321703D01*
X171076184Y-67289000D01*
X171243816Y-67289000D01*
X171408228Y-67321703D01*
X171408228Y-67321703D01*
G37*
G36*
X105375256Y-53391298D02*
X105481579Y-53412447D01*
X105782042Y-53536903D01*
X106048852Y-53715180D01*
X106052454Y-53717587D01*
X106282413Y-53947546D01*
X106463098Y-54217960D01*
X106587553Y-54518422D01*
X106651000Y-54837389D01*
X106651000Y-55162611D01*
X106587553Y-55481578D01*
X106463098Y-55782040D01*
X106282413Y-56052454D01*
X106052454Y-56282413D01*
X106052451Y-56282415D01*
X105782042Y-56463097D01*
X105481579Y-56587553D01*
X105375256Y-56608702D01*
X105162611Y-56651000D01*
X104837389Y-56651000D01*
X104624744Y-56608702D01*
X104518421Y-56587553D01*
X104217958Y-56463097D01*
X103947549Y-56282415D01*
X103947546Y-56282413D01*
X103717587Y-56052454D01*
X103536902Y-55782040D01*
X103412447Y-55481578D01*
X103349000Y-55162611D01*
X103349000Y-54837389D01*
X103412447Y-54518422D01*
X103536902Y-54217960D01*
X103717587Y-53947546D01*
X103947546Y-53717587D01*
X103951148Y-53715180D01*
X104217958Y-53536903D01*
X104518421Y-53412447D01*
X104624744Y-53391298D01*
X104837389Y-53349000D01*
X105162611Y-53349000D01*
X105375256Y-53391298D01*
X105375256Y-53391298D01*
G37*
G36*
X165375256Y-53391298D02*
X165481579Y-53412447D01*
X165782042Y-53536903D01*
X166048852Y-53715180D01*
X166052454Y-53717587D01*
X166282413Y-53947546D01*
X166463098Y-54217960D01*
X166587553Y-54518422D01*
X166651000Y-54837389D01*
X166651000Y-55162611D01*
X166587553Y-55481578D01*
X166463098Y-55782040D01*
X166282413Y-56052454D01*
X166052454Y-56282413D01*
X166052451Y-56282415D01*
X165782042Y-56463097D01*
X165481579Y-56587553D01*
X165375256Y-56608702D01*
X165162611Y-56651000D01*
X164837389Y-56651000D01*
X164624744Y-56608702D01*
X164518421Y-56587553D01*
X164217958Y-56463097D01*
X163947549Y-56282415D01*
X163947546Y-56282413D01*
X163717587Y-56052454D01*
X163536902Y-55782040D01*
X163412447Y-55481578D01*
X163349000Y-55162611D01*
X163349000Y-54837389D01*
X163412447Y-54518422D01*
X163536902Y-54217960D01*
X163717587Y-53947546D01*
X163947546Y-53717587D01*
X163951148Y-53715180D01*
X164217958Y-53536903D01*
X164518421Y-53412447D01*
X164624744Y-53391298D01*
X164837389Y-53349000D01*
X165162611Y-53349000D01*
X165375256Y-53391298D01*
X165375256Y-53391298D01*
G37*
G36*
X152709167Y-49067439D02*
X152910298Y-49128451D01*
X152956025Y-49152892D01*
X153095661Y-49227529D01*
X153258133Y-49360867D01*
X153391471Y-49523338D01*
X153473124Y-49676101D01*
X153490549Y-49708701D01*
X153551561Y-49909832D01*
X153567000Y-50066589D01*
X153567000Y-50933410D01*
X153551561Y-51090167D01*
X153490549Y-51291299D01*
X153490547Y-51291303D01*
X153391471Y-51476662D01*
X153258133Y-51639133D01*
X153095662Y-51772471D01*
X152942899Y-51854124D01*
X152910299Y-51871549D01*
X152709168Y-51932561D01*
X152500000Y-51953162D01*
X152290833Y-51932561D01*
X152089702Y-51871549D01*
X152057102Y-51854124D01*
X151904339Y-51772471D01*
X151741868Y-51639133D01*
X151608531Y-51476663D01*
X151509453Y-51291301D01*
X151509452Y-51291299D01*
X151448439Y-51090168D01*
X151433000Y-50933411D01*
X151433000Y-50066590D01*
X151448439Y-49909833D01*
X151509451Y-49708702D01*
X151533892Y-49662975D01*
X151608529Y-49523339D01*
X151741867Y-49360867D01*
X151904338Y-49227529D01*
X152057101Y-49145876D01*
X152089701Y-49128451D01*
X152290832Y-49067439D01*
X152500000Y-49046838D01*
X152709167Y-49067439D01*
X152709167Y-49067439D01*
G37*
G36*
X117709167Y-49067439D02*
X117910298Y-49128451D01*
X117956025Y-49152892D01*
X118095661Y-49227529D01*
X118258133Y-49360867D01*
X118391471Y-49523338D01*
X118473124Y-49676101D01*
X118490549Y-49708701D01*
X118551561Y-49909832D01*
X118567000Y-50066589D01*
X118567000Y-50933410D01*
X118551561Y-51090167D01*
X118490549Y-51291299D01*
X118490547Y-51291303D01*
X118391471Y-51476662D01*
X118258133Y-51639133D01*
X118095662Y-51772471D01*
X117942899Y-51854124D01*
X117910299Y-51871549D01*
X117709168Y-51932561D01*
X117500000Y-51953162D01*
X117290833Y-51932561D01*
X117089702Y-51871549D01*
X117057102Y-51854124D01*
X116904339Y-51772471D01*
X116741868Y-51639133D01*
X116608531Y-51476663D01*
X116509453Y-51291301D01*
X116509452Y-51291299D01*
X116448439Y-51090168D01*
X116433000Y-50933411D01*
X116433000Y-50066590D01*
X116448439Y-49909833D01*
X116509451Y-49708702D01*
X116533892Y-49662975D01*
X116608529Y-49523339D01*
X116741867Y-49360867D01*
X116904338Y-49227529D01*
X117057101Y-49145876D01*
X117089701Y-49128451D01*
X117290832Y-49067439D01*
X117500000Y-49046838D01*
X117709167Y-49067439D01*
X117709167Y-49067439D01*
G37*
G36*
X122709167Y-49067439D02*
X122910298Y-49128451D01*
X122956025Y-49152892D01*
X123095661Y-49227529D01*
X123258133Y-49360867D01*
X123391471Y-49523338D01*
X123473124Y-49676101D01*
X123490549Y-49708701D01*
X123551561Y-49909832D01*
X123567000Y-50066589D01*
X123567000Y-50933410D01*
X123551561Y-51090167D01*
X123490549Y-51291299D01*
X123490547Y-51291303D01*
X123391471Y-51476662D01*
X123258133Y-51639133D01*
X123095662Y-51772471D01*
X122942899Y-51854124D01*
X122910299Y-51871549D01*
X122709168Y-51932561D01*
X122500000Y-51953162D01*
X122290833Y-51932561D01*
X122089702Y-51871549D01*
X122057102Y-51854124D01*
X121904339Y-51772471D01*
X121741868Y-51639133D01*
X121608531Y-51476663D01*
X121509453Y-51291301D01*
X121509452Y-51291299D01*
X121448439Y-51090168D01*
X121433000Y-50933411D01*
X121433000Y-50066590D01*
X121448439Y-49909833D01*
X121509451Y-49708702D01*
X121533892Y-49662975D01*
X121608529Y-49523339D01*
X121741867Y-49360867D01*
X121904338Y-49227529D01*
X122057101Y-49145876D01*
X122089701Y-49128451D01*
X122290832Y-49067439D01*
X122500000Y-49046838D01*
X122709167Y-49067439D01*
X122709167Y-49067439D01*
G37*
G36*
X127709167Y-49067439D02*
X127910298Y-49128451D01*
X127956025Y-49152892D01*
X128095661Y-49227529D01*
X128258133Y-49360867D01*
X128391471Y-49523338D01*
X128473124Y-49676101D01*
X128490549Y-49708701D01*
X128551561Y-49909832D01*
X128567000Y-50066589D01*
X128567000Y-50933410D01*
X128551561Y-51090167D01*
X128490549Y-51291299D01*
X128490547Y-51291303D01*
X128391471Y-51476662D01*
X128258133Y-51639133D01*
X128095662Y-51772471D01*
X127942899Y-51854124D01*
X127910299Y-51871549D01*
X127709168Y-51932561D01*
X127500000Y-51953162D01*
X127290833Y-51932561D01*
X127089702Y-51871549D01*
X127057102Y-51854124D01*
X126904339Y-51772471D01*
X126741868Y-51639133D01*
X126608531Y-51476663D01*
X126509453Y-51291301D01*
X126509452Y-51291299D01*
X126448439Y-51090168D01*
X126433000Y-50933411D01*
X126433000Y-50066590D01*
X126448439Y-49909833D01*
X126509451Y-49708702D01*
X126533892Y-49662975D01*
X126608529Y-49523339D01*
X126741867Y-49360867D01*
X126904338Y-49227529D01*
X127057101Y-49145876D01*
X127089701Y-49128451D01*
X127290832Y-49067439D01*
X127500000Y-49046838D01*
X127709167Y-49067439D01*
X127709167Y-49067439D01*
G37*
G36*
X132709167Y-49067439D02*
X132910298Y-49128451D01*
X132956025Y-49152892D01*
X133095661Y-49227529D01*
X133258133Y-49360867D01*
X133391471Y-49523338D01*
X133473124Y-49676101D01*
X133490549Y-49708701D01*
X133551561Y-49909832D01*
X133567000Y-50066589D01*
X133567000Y-50933410D01*
X133551561Y-51090167D01*
X133490549Y-51291299D01*
X133490547Y-51291303D01*
X133391471Y-51476662D01*
X133258133Y-51639133D01*
X133095662Y-51772471D01*
X132942899Y-51854124D01*
X132910299Y-51871549D01*
X132709168Y-51932561D01*
X132500000Y-51953162D01*
X132290833Y-51932561D01*
X132089702Y-51871549D01*
X132057102Y-51854124D01*
X131904339Y-51772471D01*
X131741868Y-51639133D01*
X131608531Y-51476663D01*
X131509453Y-51291301D01*
X131509452Y-51291299D01*
X131448439Y-51090168D01*
X131433000Y-50933411D01*
X131433000Y-50066590D01*
X131448439Y-49909833D01*
X131509451Y-49708702D01*
X131533892Y-49662975D01*
X131608529Y-49523339D01*
X131741867Y-49360867D01*
X131904338Y-49227529D01*
X132057101Y-49145876D01*
X132089701Y-49128451D01*
X132290832Y-49067439D01*
X132500000Y-49046838D01*
X132709167Y-49067439D01*
X132709167Y-49067439D01*
G37*
G36*
X137709167Y-49067439D02*
X137910298Y-49128451D01*
X137956025Y-49152892D01*
X138095661Y-49227529D01*
X138258133Y-49360867D01*
X138391471Y-49523338D01*
X138473124Y-49676101D01*
X138490549Y-49708701D01*
X138551561Y-49909832D01*
X138567000Y-50066589D01*
X138567000Y-50933410D01*
X138551561Y-51090167D01*
X138490549Y-51291299D01*
X138490547Y-51291303D01*
X138391471Y-51476662D01*
X138258133Y-51639133D01*
X138095662Y-51772471D01*
X137942899Y-51854124D01*
X137910299Y-51871549D01*
X137709168Y-51932561D01*
X137500000Y-51953162D01*
X137290833Y-51932561D01*
X137089702Y-51871549D01*
X137057102Y-51854124D01*
X136904339Y-51772471D01*
X136741868Y-51639133D01*
X136608531Y-51476663D01*
X136509453Y-51291301D01*
X136509452Y-51291299D01*
X136448439Y-51090168D01*
X136433000Y-50933411D01*
X136433000Y-50066590D01*
X136448439Y-49909833D01*
X136509451Y-49708702D01*
X136533892Y-49662975D01*
X136608529Y-49523339D01*
X136741867Y-49360867D01*
X136904338Y-49227529D01*
X137057101Y-49145876D01*
X137089701Y-49128451D01*
X137290832Y-49067439D01*
X137500000Y-49046838D01*
X137709167Y-49067439D01*
X137709167Y-49067439D01*
G37*
G36*
X142709167Y-49067439D02*
X142910298Y-49128451D01*
X142956025Y-49152892D01*
X143095661Y-49227529D01*
X143258133Y-49360867D01*
X143391471Y-49523338D01*
X143473124Y-49676101D01*
X143490549Y-49708701D01*
X143551561Y-49909832D01*
X143567000Y-50066589D01*
X143567000Y-50933410D01*
X143551561Y-51090167D01*
X143490549Y-51291299D01*
X143490547Y-51291303D01*
X143391471Y-51476662D01*
X143258133Y-51639133D01*
X143095662Y-51772471D01*
X142942899Y-51854124D01*
X142910299Y-51871549D01*
X142709168Y-51932561D01*
X142500000Y-51953162D01*
X142290833Y-51932561D01*
X142089702Y-51871549D01*
X142057102Y-51854124D01*
X141904339Y-51772471D01*
X141741868Y-51639133D01*
X141608531Y-51476663D01*
X141509453Y-51291301D01*
X141509452Y-51291299D01*
X141448439Y-51090168D01*
X141433000Y-50933411D01*
X141433000Y-50066590D01*
X141448439Y-49909833D01*
X141509451Y-49708702D01*
X141533892Y-49662975D01*
X141608529Y-49523339D01*
X141741867Y-49360867D01*
X141904338Y-49227529D01*
X142057101Y-49145876D01*
X142089701Y-49128451D01*
X142290832Y-49067439D01*
X142500000Y-49046838D01*
X142709167Y-49067439D01*
X142709167Y-49067439D01*
G37*
G36*
X147709167Y-49067439D02*
X147910298Y-49128451D01*
X147956025Y-49152892D01*
X148095661Y-49227529D01*
X148258133Y-49360867D01*
X148391471Y-49523338D01*
X148473124Y-49676101D01*
X148490549Y-49708701D01*
X148551561Y-49909832D01*
X148567000Y-50066589D01*
X148567000Y-50933410D01*
X148551561Y-51090167D01*
X148490549Y-51291299D01*
X148490547Y-51291303D01*
X148391471Y-51476662D01*
X148258133Y-51639133D01*
X148095662Y-51772471D01*
X147942899Y-51854124D01*
X147910299Y-51871549D01*
X147709168Y-51932561D01*
X147500000Y-51953162D01*
X147290833Y-51932561D01*
X147089702Y-51871549D01*
X147057102Y-51854124D01*
X146904339Y-51772471D01*
X146741868Y-51639133D01*
X146608531Y-51476663D01*
X146509453Y-51291301D01*
X146509452Y-51291299D01*
X146448439Y-51090168D01*
X146433000Y-50933411D01*
X146433000Y-50066590D01*
X146448439Y-49909833D01*
X146509451Y-49708702D01*
X146533892Y-49662975D01*
X146608529Y-49523339D01*
X146741867Y-49360867D01*
X146904338Y-49227529D01*
X147057101Y-49145876D01*
X147089701Y-49128451D01*
X147290832Y-49067439D01*
X147500000Y-49046838D01*
X147709167Y-49067439D01*
X147709167Y-49067439D01*
G37*
G36*
X157709167Y-49067439D02*
X157910298Y-49128451D01*
X157956025Y-49152892D01*
X158095661Y-49227529D01*
X158258133Y-49360867D01*
X158391471Y-49523338D01*
X158473124Y-49676101D01*
X158490549Y-49708701D01*
X158551561Y-49909832D01*
X158567000Y-50066589D01*
X158567000Y-50933410D01*
X158551561Y-51090167D01*
X158490549Y-51291299D01*
X158490547Y-51291303D01*
X158391471Y-51476662D01*
X158258133Y-51639133D01*
X158095662Y-51772471D01*
X157942899Y-51854124D01*
X157910299Y-51871549D01*
X157709168Y-51932561D01*
X157500000Y-51953162D01*
X157290833Y-51932561D01*
X157089702Y-51871549D01*
X157057102Y-51854124D01*
X156904339Y-51772471D01*
X156741868Y-51639133D01*
X156608531Y-51476663D01*
X156509453Y-51291301D01*
X156509452Y-51291299D01*
X156448439Y-51090168D01*
X156433000Y-50933411D01*
X156433000Y-50066590D01*
X156448439Y-49909833D01*
X156509451Y-49708702D01*
X156533892Y-49662975D01*
X156608529Y-49523339D01*
X156741867Y-49360867D01*
X156904338Y-49227529D01*
X157057101Y-49145876D01*
X157089701Y-49128451D01*
X157290832Y-49067439D01*
X157500000Y-49046838D01*
X157709167Y-49067439D01*
X157709167Y-49067439D01*
G37*
G36*
X113567000Y-51948000D02*
X111433000Y-51948000D01*
X111433000Y-49052000D01*
X113567000Y-49052000D01*
X113567000Y-51948000D01*
X113567000Y-51948000D01*
G37*
M02*
