G04 #@! TF.GenerationSoftware,KiCad,Pcbnew,(5.0.1)-4*
G04 #@! TF.CreationDate,2020-08-29T23:34:48+08:00*
G04 #@! TF.ProjectId,remote-monitor,72656D6F74652D6D6F6E69746F722E6B,rev?*
G04 #@! TF.SameCoordinates,Original*
G04 #@! TF.FileFunction,Soldermask,Top*
G04 #@! TF.FilePolarity,Negative*
%FSLAX46Y46*%
G04 Gerber Fmt 4.6, Leading zero omitted, Abs format (unit mm)*
G04 Created by KiCad (PCBNEW (5.0.1)-4) date 29/08/2020 11:34:48 PM*
%MOMM*%
%LPD*%
G01*
G04 APERTURE LIST*
%ADD10C,0.100000*%
G04 APERTURE END LIST*
D10*
G36*
X113070232Y-120691483D02*
X113258919Y-120748721D01*
X113432817Y-120841671D01*
X113585239Y-120966761D01*
X113710329Y-121119183D01*
X113803279Y-121293081D01*
X113860517Y-121481768D01*
X113875000Y-121628824D01*
X113875000Y-122727176D01*
X113860517Y-122874232D01*
X113803279Y-123062919D01*
X113710329Y-123236817D01*
X113585239Y-123389239D01*
X113432817Y-123514329D01*
X113258918Y-123607279D01*
X113070231Y-123664517D01*
X112874000Y-123683843D01*
X112677768Y-123664517D01*
X112489081Y-123607279D01*
X112315183Y-123514329D01*
X112162761Y-123389239D01*
X112037671Y-123236817D01*
X111944721Y-123062918D01*
X111887483Y-122874231D01*
X111873000Y-122727175D01*
X111873000Y-121628824D01*
X111887483Y-121481768D01*
X111944722Y-121293081D01*
X112037672Y-121119183D01*
X112162762Y-120966761D01*
X112315184Y-120841671D01*
X112489082Y-120748721D01*
X112677769Y-120691483D01*
X112874000Y-120672157D01*
X113070232Y-120691483D01*
X113070232Y-120691483D01*
G37*
G36*
X126210231Y-120691483D02*
X126398918Y-120748721D01*
X126572817Y-120841671D01*
X126725239Y-120966761D01*
X126850329Y-121119183D01*
X126943279Y-121293081D01*
X127000517Y-121481768D01*
X127015000Y-121628824D01*
X127015000Y-122727176D01*
X127000517Y-122874232D01*
X126943279Y-123062919D01*
X126850329Y-123236817D01*
X126725239Y-123389239D01*
X126572817Y-123514329D01*
X126398919Y-123607279D01*
X126210232Y-123664517D01*
X126014000Y-123683843D01*
X125817769Y-123664517D01*
X125629082Y-123607279D01*
X125455184Y-123514329D01*
X125302762Y-123389239D01*
X125177672Y-123236817D01*
X125084722Y-123062919D01*
X125027483Y-122874232D01*
X125013000Y-122727176D01*
X125013000Y-121628825D01*
X125027483Y-121481769D01*
X125084721Y-121293082D01*
X125177671Y-121119183D01*
X125302761Y-120966761D01*
X125455183Y-120841671D01*
X125629081Y-120748721D01*
X125817768Y-120691483D01*
X126014000Y-120672157D01*
X126210231Y-120691483D01*
X126210231Y-120691483D01*
G37*
G36*
X120648472Y-122103938D02*
X120776049Y-122156782D01*
X120890865Y-122233500D01*
X120988500Y-122331135D01*
X121065218Y-122445951D01*
X121118062Y-122573528D01*
X121145000Y-122708956D01*
X121145000Y-122847044D01*
X121118062Y-122982472D01*
X121065218Y-123110049D01*
X120988500Y-123224865D01*
X120890865Y-123322500D01*
X120776049Y-123399218D01*
X120648472Y-123452062D01*
X120513044Y-123479000D01*
X120374956Y-123479000D01*
X120239528Y-123452062D01*
X120111951Y-123399218D01*
X119997135Y-123322500D01*
X119899500Y-123224865D01*
X119822782Y-123110049D01*
X119769938Y-122982472D01*
X119743000Y-122847044D01*
X119743000Y-122708956D01*
X119769938Y-122573528D01*
X119822782Y-122445951D01*
X119899500Y-122331135D01*
X119997135Y-122233500D01*
X120111951Y-122156782D01*
X120239528Y-122103938D01*
X120374956Y-122077000D01*
X120513044Y-122077000D01*
X120648472Y-122103938D01*
X120648472Y-122103938D01*
G37*
G36*
X123148472Y-122103938D02*
X123276049Y-122156782D01*
X123390865Y-122233500D01*
X123488500Y-122331135D01*
X123565218Y-122445951D01*
X123618062Y-122573528D01*
X123645000Y-122708956D01*
X123645000Y-122847044D01*
X123618062Y-122982472D01*
X123565218Y-123110049D01*
X123488500Y-123224865D01*
X123390865Y-123322500D01*
X123276049Y-123399218D01*
X123148472Y-123452062D01*
X123013044Y-123479000D01*
X122874956Y-123479000D01*
X122739528Y-123452062D01*
X122611951Y-123399218D01*
X122497135Y-123322500D01*
X122399500Y-123224865D01*
X122322782Y-123110049D01*
X122269938Y-122982472D01*
X122243000Y-122847044D01*
X122243000Y-122708956D01*
X122269938Y-122573528D01*
X122322782Y-122445951D01*
X122399500Y-122331135D01*
X122497135Y-122233500D01*
X122611951Y-122156782D01*
X122739528Y-122103938D01*
X122874956Y-122077000D01*
X123013044Y-122077000D01*
X123148472Y-122103938D01*
X123148472Y-122103938D01*
G37*
G36*
X116645000Y-123479000D02*
X115243000Y-123479000D01*
X115243000Y-122077000D01*
X116645000Y-122077000D01*
X116645000Y-123479000D01*
X116645000Y-123479000D01*
G37*
G36*
X118648472Y-122103938D02*
X118776049Y-122156782D01*
X118890865Y-122233500D01*
X118988500Y-122331135D01*
X119065218Y-122445951D01*
X119118062Y-122573528D01*
X119145000Y-122708956D01*
X119145000Y-122847044D01*
X119118062Y-122982472D01*
X119065218Y-123110049D01*
X118988500Y-123224865D01*
X118890865Y-123322500D01*
X118776049Y-123399218D01*
X118648472Y-123452062D01*
X118513044Y-123479000D01*
X118374956Y-123479000D01*
X118239528Y-123452062D01*
X118111951Y-123399218D01*
X117997135Y-123322500D01*
X117899500Y-123224865D01*
X117822782Y-123110049D01*
X117769938Y-122982472D01*
X117743000Y-122847044D01*
X117743000Y-122708956D01*
X117769938Y-122573528D01*
X117822782Y-122445951D01*
X117899500Y-122331135D01*
X117997135Y-122233500D01*
X118111951Y-122156782D01*
X118239528Y-122103938D01*
X118374956Y-122077000D01*
X118513044Y-122077000D01*
X118648472Y-122103938D01*
X118648472Y-122103938D01*
G37*
G36*
X120140232Y-117011483D02*
X120328919Y-117068721D01*
X120502817Y-117161671D01*
X120655239Y-117286761D01*
X120780329Y-117439183D01*
X120873279Y-117613081D01*
X120930517Y-117801768D01*
X120949843Y-117998000D01*
X120930517Y-118194232D01*
X120873279Y-118382919D01*
X120780329Y-118556817D01*
X120655239Y-118709239D01*
X120502817Y-118834329D01*
X120328919Y-118927279D01*
X120140232Y-118984517D01*
X119993176Y-118999000D01*
X118894824Y-118999000D01*
X118747768Y-118984517D01*
X118559081Y-118927279D01*
X118385183Y-118834329D01*
X118232761Y-118709239D01*
X118107671Y-118556817D01*
X118014721Y-118382919D01*
X117957483Y-118194232D01*
X117938157Y-117998000D01*
X117957483Y-117801768D01*
X118014721Y-117613081D01*
X118107671Y-117439183D01*
X118232761Y-117286761D01*
X118385183Y-117161671D01*
X118559081Y-117068721D01*
X118747768Y-117011483D01*
X118894824Y-116997000D01*
X119993176Y-116997000D01*
X120140232Y-117011483D01*
X120140232Y-117011483D01*
G37*
G36*
X165375256Y-113391298D02*
X165481579Y-113412447D01*
X165782042Y-113536903D01*
X166048852Y-113715180D01*
X166052454Y-113717587D01*
X166282413Y-113947546D01*
X166282415Y-113947549D01*
X166336504Y-114028498D01*
X166463098Y-114217960D01*
X166587553Y-114518422D01*
X166651000Y-114837389D01*
X166651000Y-115162611D01*
X166587553Y-115481578D01*
X166463098Y-115782040D01*
X166282413Y-116052454D01*
X166052454Y-116282413D01*
X166052451Y-116282415D01*
X165782042Y-116463097D01*
X165481579Y-116587553D01*
X165375256Y-116608702D01*
X165162611Y-116651000D01*
X164837389Y-116651000D01*
X164624744Y-116608702D01*
X164518421Y-116587553D01*
X164217958Y-116463097D01*
X163947549Y-116282415D01*
X163947546Y-116282413D01*
X163717587Y-116052454D01*
X163536902Y-115782040D01*
X163412447Y-115481578D01*
X163349000Y-115162611D01*
X163349000Y-114837389D01*
X163412447Y-114518422D01*
X163536902Y-114217960D01*
X163663497Y-114028498D01*
X163717585Y-113947549D01*
X163717587Y-113947546D01*
X163947546Y-113717587D01*
X163951148Y-113715180D01*
X164217958Y-113536903D01*
X164518421Y-113412447D01*
X164624744Y-113391298D01*
X164837389Y-113349000D01*
X165162611Y-113349000D01*
X165375256Y-113391298D01*
X165375256Y-113391298D01*
G37*
G36*
X105375256Y-113391298D02*
X105481579Y-113412447D01*
X105782042Y-113536903D01*
X106048852Y-113715180D01*
X106052454Y-113717587D01*
X106282413Y-113947546D01*
X106282415Y-113947549D01*
X106336504Y-114028498D01*
X106463098Y-114217960D01*
X106587553Y-114518422D01*
X106651000Y-114837389D01*
X106651000Y-115162611D01*
X106587553Y-115481578D01*
X106463098Y-115782040D01*
X106282413Y-116052454D01*
X106052454Y-116282413D01*
X106052451Y-116282415D01*
X105782042Y-116463097D01*
X105481579Y-116587553D01*
X105375256Y-116608702D01*
X105162611Y-116651000D01*
X104837389Y-116651000D01*
X104624744Y-116608702D01*
X104518421Y-116587553D01*
X104217958Y-116463097D01*
X103947549Y-116282415D01*
X103947546Y-116282413D01*
X103717587Y-116052454D01*
X103536902Y-115782040D01*
X103412447Y-115481578D01*
X103349000Y-115162611D01*
X103349000Y-114837389D01*
X103412447Y-114518422D01*
X103536902Y-114217960D01*
X103663497Y-114028498D01*
X103717585Y-113947549D01*
X103717587Y-113947546D01*
X103947546Y-113717587D01*
X103951148Y-113715180D01*
X104217958Y-113536903D01*
X104518421Y-113412447D01*
X104624744Y-113391298D01*
X104837389Y-113349000D01*
X105162611Y-113349000D01*
X105375256Y-113391298D01*
X105375256Y-113391298D01*
G37*
G36*
X117587308Y-114028498D02*
X117625317Y-114040028D01*
X117660348Y-114058753D01*
X117691050Y-114083950D01*
X117716247Y-114114652D01*
X117734972Y-114149683D01*
X117746502Y-114187692D01*
X117751000Y-114233362D01*
X117751000Y-115041638D01*
X117746502Y-115087308D01*
X117734972Y-115125317D01*
X117716247Y-115160348D01*
X117691050Y-115191050D01*
X117660348Y-115216247D01*
X117625317Y-115234972D01*
X117587308Y-115246502D01*
X117541638Y-115251000D01*
X114458362Y-115251000D01*
X114412692Y-115246502D01*
X114374683Y-115234972D01*
X114339652Y-115216247D01*
X114308950Y-115191050D01*
X114283753Y-115160348D01*
X114265028Y-115125317D01*
X114253498Y-115087308D01*
X114249000Y-115041638D01*
X114249000Y-114233362D01*
X114253498Y-114187692D01*
X114265028Y-114149683D01*
X114283753Y-114114652D01*
X114308950Y-114083950D01*
X114339652Y-114058753D01*
X114374683Y-114040028D01*
X114412692Y-114028498D01*
X114458362Y-114024000D01*
X117541638Y-114024000D01*
X117587308Y-114028498D01*
X117587308Y-114028498D01*
G37*
G36*
X117587308Y-109753498D02*
X117625317Y-109765028D01*
X117660348Y-109783753D01*
X117691050Y-109808950D01*
X117716247Y-109839652D01*
X117734972Y-109874683D01*
X117746502Y-109912692D01*
X117751000Y-109958362D01*
X117751000Y-110766638D01*
X117746502Y-110812308D01*
X117734972Y-110850317D01*
X117716247Y-110885348D01*
X117691050Y-110916050D01*
X117660348Y-110941247D01*
X117625317Y-110959972D01*
X117587308Y-110971502D01*
X117541638Y-110976000D01*
X114458362Y-110976000D01*
X114412692Y-110971502D01*
X114374683Y-110959972D01*
X114339652Y-110941247D01*
X114308950Y-110916050D01*
X114283753Y-110885348D01*
X114265028Y-110850317D01*
X114253498Y-110812308D01*
X114249000Y-110766638D01*
X114249000Y-109958362D01*
X114253498Y-109912692D01*
X114265028Y-109874683D01*
X114283753Y-109839652D01*
X114308950Y-109808950D01*
X114339652Y-109783753D01*
X114374683Y-109765028D01*
X114412692Y-109753498D01*
X114458362Y-109749000D01*
X117541638Y-109749000D01*
X117587308Y-109753498D01*
X117587308Y-109753498D01*
G37*
G36*
X145268604Y-107328347D02*
X145305145Y-107339432D01*
X145338820Y-107357431D01*
X145368341Y-107381659D01*
X145392569Y-107411180D01*
X145410568Y-107444855D01*
X145421653Y-107481396D01*
X145426000Y-107525538D01*
X145426000Y-108474462D01*
X145421653Y-108518604D01*
X145410568Y-108555145D01*
X145392569Y-108588820D01*
X145368341Y-108618341D01*
X145338820Y-108642569D01*
X145305145Y-108660568D01*
X145268604Y-108671653D01*
X145224462Y-108676000D01*
X143775538Y-108676000D01*
X143731396Y-108671653D01*
X143694855Y-108660568D01*
X143661180Y-108642569D01*
X143631659Y-108618341D01*
X143607431Y-108588820D01*
X143589432Y-108555145D01*
X143578347Y-108518604D01*
X143574000Y-108474462D01*
X143574000Y-107525538D01*
X143578347Y-107481396D01*
X143589432Y-107444855D01*
X143607431Y-107411180D01*
X143631659Y-107381659D01*
X143661180Y-107357431D01*
X143694855Y-107339432D01*
X143731396Y-107328347D01*
X143775538Y-107324000D01*
X145224462Y-107324000D01*
X145268604Y-107328347D01*
X145268604Y-107328347D01*
G37*
G36*
X142768604Y-107328347D02*
X142805145Y-107339432D01*
X142838820Y-107357431D01*
X142868341Y-107381659D01*
X142892569Y-107411180D01*
X142910568Y-107444855D01*
X142921653Y-107481396D01*
X142926000Y-107525538D01*
X142926000Y-108474462D01*
X142921653Y-108518604D01*
X142910568Y-108555145D01*
X142892569Y-108588820D01*
X142868341Y-108618341D01*
X142838820Y-108642569D01*
X142805145Y-108660568D01*
X142768604Y-108671653D01*
X142724462Y-108676000D01*
X141275538Y-108676000D01*
X141231396Y-108671653D01*
X141194855Y-108660568D01*
X141161180Y-108642569D01*
X141131659Y-108618341D01*
X141107431Y-108588820D01*
X141089432Y-108555145D01*
X141078347Y-108518604D01*
X141074000Y-108474462D01*
X141074000Y-107525538D01*
X141078347Y-107481396D01*
X141089432Y-107444855D01*
X141107431Y-107411180D01*
X141131659Y-107381659D01*
X141161180Y-107357431D01*
X141194855Y-107339432D01*
X141231396Y-107328347D01*
X141275538Y-107324000D01*
X142724462Y-107324000D01*
X142768604Y-107328347D01*
X142768604Y-107328347D01*
G37*
G36*
X139918604Y-104178347D02*
X139955145Y-104189432D01*
X139988820Y-104207431D01*
X140018341Y-104231659D01*
X140042569Y-104261180D01*
X140060568Y-104294855D01*
X140071653Y-104331396D01*
X140076000Y-104375538D01*
X140076000Y-105824462D01*
X140071653Y-105868604D01*
X140060568Y-105905145D01*
X140042569Y-105938820D01*
X140018341Y-105968341D01*
X139988820Y-105992569D01*
X139955145Y-106010568D01*
X139918604Y-106021653D01*
X139874462Y-106026000D01*
X138925538Y-106026000D01*
X138881396Y-106021653D01*
X138844855Y-106010568D01*
X138811180Y-105992569D01*
X138781659Y-105968341D01*
X138757431Y-105938820D01*
X138739432Y-105905145D01*
X138728347Y-105868604D01*
X138724000Y-105824462D01*
X138724000Y-104375538D01*
X138728347Y-104331396D01*
X138739432Y-104294855D01*
X138757431Y-104261180D01*
X138781659Y-104231659D01*
X138811180Y-104207431D01*
X138844855Y-104189432D01*
X138881396Y-104178347D01*
X138925538Y-104174000D01*
X139874462Y-104174000D01*
X139918604Y-104178347D01*
X139918604Y-104178347D01*
G37*
G36*
X137118604Y-104178347D02*
X137155145Y-104189432D01*
X137188820Y-104207431D01*
X137218341Y-104231659D01*
X137242569Y-104261180D01*
X137260568Y-104294855D01*
X137271653Y-104331396D01*
X137276000Y-104375538D01*
X137276000Y-105824462D01*
X137271653Y-105868604D01*
X137260568Y-105905145D01*
X137242569Y-105938820D01*
X137218341Y-105968341D01*
X137188820Y-105992569D01*
X137155145Y-106010568D01*
X137118604Y-106021653D01*
X137074462Y-106026000D01*
X136125538Y-106026000D01*
X136081396Y-106021653D01*
X136044855Y-106010568D01*
X136011180Y-105992569D01*
X135981659Y-105968341D01*
X135957431Y-105938820D01*
X135939432Y-105905145D01*
X135928347Y-105868604D01*
X135924000Y-105824462D01*
X135924000Y-104375538D01*
X135928347Y-104331396D01*
X135939432Y-104294855D01*
X135957431Y-104261180D01*
X135981659Y-104231659D01*
X136011180Y-104207431D01*
X136044855Y-104189432D01*
X136081396Y-104178347D01*
X136125538Y-104174000D01*
X137074462Y-104174000D01*
X137118604Y-104178347D01*
X137118604Y-104178347D01*
G37*
G36*
X145268604Y-104528347D02*
X145305145Y-104539432D01*
X145338820Y-104557431D01*
X145368341Y-104581659D01*
X145392569Y-104611180D01*
X145410568Y-104644855D01*
X145421653Y-104681396D01*
X145426000Y-104725538D01*
X145426000Y-105674462D01*
X145421653Y-105718604D01*
X145410568Y-105755145D01*
X145392569Y-105788820D01*
X145368341Y-105818341D01*
X145338820Y-105842569D01*
X145305145Y-105860568D01*
X145268604Y-105871653D01*
X145224462Y-105876000D01*
X143775538Y-105876000D01*
X143731396Y-105871653D01*
X143694855Y-105860568D01*
X143661180Y-105842569D01*
X143631659Y-105818341D01*
X143607431Y-105788820D01*
X143589432Y-105755145D01*
X143578347Y-105718604D01*
X143574000Y-105674462D01*
X143574000Y-104725538D01*
X143578347Y-104681396D01*
X143589432Y-104644855D01*
X143607431Y-104611180D01*
X143631659Y-104581659D01*
X143661180Y-104557431D01*
X143694855Y-104539432D01*
X143731396Y-104528347D01*
X143775538Y-104524000D01*
X145224462Y-104524000D01*
X145268604Y-104528347D01*
X145268604Y-104528347D01*
G37*
G36*
X142768604Y-104528347D02*
X142805145Y-104539432D01*
X142838820Y-104557431D01*
X142868341Y-104581659D01*
X142892569Y-104611180D01*
X142910568Y-104644855D01*
X142921653Y-104681396D01*
X142926000Y-104725538D01*
X142926000Y-105674462D01*
X142921653Y-105718604D01*
X142910568Y-105755145D01*
X142892569Y-105788820D01*
X142868341Y-105818341D01*
X142838820Y-105842569D01*
X142805145Y-105860568D01*
X142768604Y-105871653D01*
X142724462Y-105876000D01*
X141275538Y-105876000D01*
X141231396Y-105871653D01*
X141194855Y-105860568D01*
X141161180Y-105842569D01*
X141131659Y-105818341D01*
X141107431Y-105788820D01*
X141089432Y-105755145D01*
X141078347Y-105718604D01*
X141074000Y-105674462D01*
X141074000Y-104725538D01*
X141078347Y-104681396D01*
X141089432Y-104644855D01*
X141107431Y-104611180D01*
X141131659Y-104581659D01*
X141161180Y-104557431D01*
X141194855Y-104539432D01*
X141231396Y-104528347D01*
X141275538Y-104524000D01*
X142724462Y-104524000D01*
X142768604Y-104528347D01*
X142768604Y-104528347D01*
G37*
G36*
X142951000Y-103601000D02*
X142049000Y-103601000D01*
X142049000Y-102599000D01*
X142951000Y-102599000D01*
X142951000Y-103601000D01*
X142951000Y-103601000D01*
G37*
G36*
X168901000Y-103501000D02*
X167999000Y-103501000D01*
X167999000Y-102499000D01*
X168901000Y-102499000D01*
X168901000Y-103501000D01*
X168901000Y-103501000D01*
G37*
G36*
X167001000Y-103501000D02*
X166099000Y-103501000D01*
X166099000Y-102499000D01*
X167001000Y-102499000D01*
X167001000Y-103501000D01*
X167001000Y-103501000D01*
G37*
G36*
X172011000Y-102011000D02*
X170309000Y-102011000D01*
X170309000Y-100309000D01*
X172011000Y-100309000D01*
X172011000Y-102011000D01*
X172011000Y-102011000D01*
G37*
G36*
X151088228Y-100341703D02*
X151243100Y-100405853D01*
X151382481Y-100498985D01*
X151501015Y-100617519D01*
X151594147Y-100756900D01*
X151658297Y-100911772D01*
X151691000Y-101076184D01*
X151691000Y-101243816D01*
X151658297Y-101408228D01*
X151594147Y-101563100D01*
X151501015Y-101702481D01*
X151382481Y-101821015D01*
X151243100Y-101914147D01*
X151088228Y-101978297D01*
X150923816Y-102011000D01*
X150756184Y-102011000D01*
X150591772Y-101978297D01*
X150436900Y-101914147D01*
X150297519Y-101821015D01*
X150178985Y-101702481D01*
X150085853Y-101563100D01*
X150021703Y-101408228D01*
X149989000Y-101243816D01*
X149989000Y-101076184D01*
X150021703Y-100911772D01*
X150085853Y-100756900D01*
X150178985Y-100617519D01*
X150297519Y-100498985D01*
X150436900Y-100405853D01*
X150591772Y-100341703D01*
X150756184Y-100309000D01*
X150923816Y-100309000D01*
X151088228Y-100341703D01*
X151088228Y-100341703D01*
G37*
G36*
X142001000Y-101601000D02*
X141099000Y-101601000D01*
X141099000Y-100599000D01*
X142001000Y-100599000D01*
X142001000Y-101601000D01*
X142001000Y-101601000D01*
G37*
G36*
X143901000Y-101601000D02*
X142999000Y-101601000D01*
X142999000Y-100599000D01*
X143901000Y-100599000D01*
X143901000Y-101601000D01*
X143901000Y-101601000D01*
G37*
G36*
X167951000Y-101501000D02*
X167049000Y-101501000D01*
X167049000Y-100499000D01*
X167951000Y-100499000D01*
X167951000Y-101501000D01*
X167951000Y-101501000D01*
G37*
G36*
X100268604Y-98228347D02*
X100305145Y-98239432D01*
X100338820Y-98257431D01*
X100368341Y-98281659D01*
X100392569Y-98311180D01*
X100410568Y-98344855D01*
X100421653Y-98381396D01*
X100426000Y-98425538D01*
X100426000Y-99374462D01*
X100421653Y-99418604D01*
X100410568Y-99455145D01*
X100392569Y-99488820D01*
X100368341Y-99518341D01*
X100338820Y-99542569D01*
X100305145Y-99560568D01*
X100268604Y-99571653D01*
X100224462Y-99576000D01*
X98775538Y-99576000D01*
X98731396Y-99571653D01*
X98694855Y-99560568D01*
X98661180Y-99542569D01*
X98631659Y-99518341D01*
X98607431Y-99488820D01*
X98589432Y-99455145D01*
X98578347Y-99418604D01*
X98574000Y-99374462D01*
X98574000Y-98425538D01*
X98578347Y-98381396D01*
X98589432Y-98344855D01*
X98607431Y-98311180D01*
X98631659Y-98281659D01*
X98661180Y-98257431D01*
X98694855Y-98239432D01*
X98731396Y-98228347D01*
X98775538Y-98224000D01*
X100224462Y-98224000D01*
X100268604Y-98228347D01*
X100268604Y-98228347D01*
G37*
G36*
X113768604Y-98228347D02*
X113805145Y-98239432D01*
X113838820Y-98257431D01*
X113868341Y-98281659D01*
X113892569Y-98311180D01*
X113910568Y-98344855D01*
X113921653Y-98381396D01*
X113926000Y-98425538D01*
X113926000Y-99374462D01*
X113921653Y-99418604D01*
X113910568Y-99455145D01*
X113892569Y-99488820D01*
X113868341Y-99518341D01*
X113838820Y-99542569D01*
X113805145Y-99560568D01*
X113768604Y-99571653D01*
X113724462Y-99576000D01*
X112275538Y-99576000D01*
X112231396Y-99571653D01*
X112194855Y-99560568D01*
X112161180Y-99542569D01*
X112131659Y-99518341D01*
X112107431Y-99488820D01*
X112089432Y-99455145D01*
X112078347Y-99418604D01*
X112074000Y-99374462D01*
X112074000Y-98425538D01*
X112078347Y-98381396D01*
X112089432Y-98344855D01*
X112107431Y-98311180D01*
X112131659Y-98281659D01*
X112161180Y-98257431D01*
X112194855Y-98239432D01*
X112231396Y-98228347D01*
X112275538Y-98224000D01*
X113724462Y-98224000D01*
X113768604Y-98228347D01*
X113768604Y-98228347D01*
G37*
G36*
X171408228Y-97801703D02*
X171563100Y-97865853D01*
X171702481Y-97958985D01*
X171821015Y-98077519D01*
X171914147Y-98216900D01*
X171978297Y-98371772D01*
X172011000Y-98536184D01*
X172011000Y-98703816D01*
X171978297Y-98868228D01*
X171914147Y-99023100D01*
X171821015Y-99162481D01*
X171702481Y-99281015D01*
X171563100Y-99374147D01*
X171408228Y-99438297D01*
X171243816Y-99471000D01*
X171076184Y-99471000D01*
X170911772Y-99438297D01*
X170756900Y-99374147D01*
X170617519Y-99281015D01*
X170498985Y-99162481D01*
X170405853Y-99023100D01*
X170341703Y-98868228D01*
X170309000Y-98703816D01*
X170309000Y-98536184D01*
X170341703Y-98371772D01*
X170405853Y-98216900D01*
X170498985Y-98077519D01*
X170617519Y-97958985D01*
X170756900Y-97865853D01*
X170911772Y-97801703D01*
X171076184Y-97769000D01*
X171243816Y-97769000D01*
X171408228Y-97801703D01*
X171408228Y-97801703D01*
G37*
G36*
X151088228Y-97801703D02*
X151243100Y-97865853D01*
X151382481Y-97958985D01*
X151501015Y-98077519D01*
X151594147Y-98216900D01*
X151658297Y-98371772D01*
X151691000Y-98536184D01*
X151691000Y-98703816D01*
X151658297Y-98868228D01*
X151594147Y-99023100D01*
X151501015Y-99162481D01*
X151382481Y-99281015D01*
X151243100Y-99374147D01*
X151088228Y-99438297D01*
X150923816Y-99471000D01*
X150756184Y-99471000D01*
X150591772Y-99438297D01*
X150436900Y-99374147D01*
X150297519Y-99281015D01*
X150178985Y-99162481D01*
X150085853Y-99023100D01*
X150021703Y-98868228D01*
X149989000Y-98703816D01*
X149989000Y-98536184D01*
X150021703Y-98371772D01*
X150085853Y-98216900D01*
X150178985Y-98077519D01*
X150297519Y-97958985D01*
X150436900Y-97865853D01*
X150591772Y-97801703D01*
X150756184Y-97769000D01*
X150923816Y-97769000D01*
X151088228Y-97801703D01*
X151088228Y-97801703D01*
G37*
G36*
X165118604Y-97578347D02*
X165155145Y-97589432D01*
X165188820Y-97607431D01*
X165218341Y-97631659D01*
X165242569Y-97661180D01*
X165260568Y-97694855D01*
X165271653Y-97731396D01*
X165276000Y-97775538D01*
X165276000Y-99224462D01*
X165271653Y-99268604D01*
X165260568Y-99305145D01*
X165242569Y-99338820D01*
X165218341Y-99368341D01*
X165188820Y-99392569D01*
X165155145Y-99410568D01*
X165118604Y-99421653D01*
X165074462Y-99426000D01*
X164125538Y-99426000D01*
X164081396Y-99421653D01*
X164044855Y-99410568D01*
X164011180Y-99392569D01*
X163981659Y-99368341D01*
X163957431Y-99338820D01*
X163939432Y-99305145D01*
X163928347Y-99268604D01*
X163924000Y-99224462D01*
X163924000Y-97775538D01*
X163928347Y-97731396D01*
X163939432Y-97694855D01*
X163957431Y-97661180D01*
X163981659Y-97631659D01*
X164011180Y-97607431D01*
X164044855Y-97589432D01*
X164081396Y-97578347D01*
X164125538Y-97574000D01*
X165074462Y-97574000D01*
X165118604Y-97578347D01*
X165118604Y-97578347D01*
G37*
G36*
X167918604Y-97578347D02*
X167955145Y-97589432D01*
X167988820Y-97607431D01*
X168018341Y-97631659D01*
X168042569Y-97661180D01*
X168060568Y-97694855D01*
X168071653Y-97731396D01*
X168076000Y-97775538D01*
X168076000Y-99224462D01*
X168071653Y-99268604D01*
X168060568Y-99305145D01*
X168042569Y-99338820D01*
X168018341Y-99368341D01*
X167988820Y-99392569D01*
X167955145Y-99410568D01*
X167918604Y-99421653D01*
X167874462Y-99426000D01*
X166925538Y-99426000D01*
X166881396Y-99421653D01*
X166844855Y-99410568D01*
X166811180Y-99392569D01*
X166781659Y-99368341D01*
X166757431Y-99338820D01*
X166739432Y-99305145D01*
X166728347Y-99268604D01*
X166724000Y-99224462D01*
X166724000Y-97775538D01*
X166728347Y-97731396D01*
X166739432Y-97694855D01*
X166757431Y-97661180D01*
X166781659Y-97631659D01*
X166811180Y-97607431D01*
X166844855Y-97589432D01*
X166881396Y-97578347D01*
X166925538Y-97574000D01*
X167874462Y-97574000D01*
X167918604Y-97578347D01*
X167918604Y-97578347D01*
G37*
G36*
X116777396Y-96165546D02*
X116950466Y-96237234D01*
X117106230Y-96341312D01*
X117238688Y-96473770D01*
X117342766Y-96629534D01*
X117414454Y-96802604D01*
X117451000Y-96986333D01*
X117451000Y-97173667D01*
X117414454Y-97357396D01*
X117342766Y-97530466D01*
X117238688Y-97686230D01*
X117106230Y-97818688D01*
X116950466Y-97922766D01*
X116777396Y-97994454D01*
X116593667Y-98031000D01*
X116406333Y-98031000D01*
X116222604Y-97994454D01*
X116049534Y-97922766D01*
X115893770Y-97818688D01*
X115761312Y-97686230D01*
X115657234Y-97530466D01*
X115585546Y-97357396D01*
X115549000Y-97173667D01*
X115549000Y-96986333D01*
X115585546Y-96802604D01*
X115657234Y-96629534D01*
X115761312Y-96473770D01*
X115893770Y-96341312D01*
X116049534Y-96237234D01*
X116222604Y-96165546D01*
X116406333Y-96129000D01*
X116593667Y-96129000D01*
X116777396Y-96165546D01*
X116777396Y-96165546D01*
G37*
G36*
X103277396Y-96165546D02*
X103450466Y-96237234D01*
X103606230Y-96341312D01*
X103738688Y-96473770D01*
X103842766Y-96629534D01*
X103914454Y-96802604D01*
X103951000Y-96986333D01*
X103951000Y-97173667D01*
X103914454Y-97357396D01*
X103842766Y-97530466D01*
X103738688Y-97686230D01*
X103606230Y-97818688D01*
X103450466Y-97922766D01*
X103277396Y-97994454D01*
X103093667Y-98031000D01*
X102906333Y-98031000D01*
X102722604Y-97994454D01*
X102549534Y-97922766D01*
X102393770Y-97818688D01*
X102261312Y-97686230D01*
X102157234Y-97530466D01*
X102085546Y-97357396D01*
X102049000Y-97173667D01*
X102049000Y-96986333D01*
X102085546Y-96802604D01*
X102157234Y-96629534D01*
X102261312Y-96473770D01*
X102393770Y-96341312D01*
X102549534Y-96237234D01*
X102722604Y-96165546D01*
X102906333Y-96129000D01*
X103093667Y-96129000D01*
X103277396Y-96165546D01*
X103277396Y-96165546D01*
G37*
G36*
X151088228Y-95261703D02*
X151243100Y-95325853D01*
X151382481Y-95418985D01*
X151501015Y-95537519D01*
X151594147Y-95676900D01*
X151658297Y-95831772D01*
X151691000Y-95996184D01*
X151691000Y-96163816D01*
X151658297Y-96328228D01*
X151594147Y-96483100D01*
X151501015Y-96622481D01*
X151382481Y-96741015D01*
X151243100Y-96834147D01*
X151088228Y-96898297D01*
X150923816Y-96931000D01*
X150756184Y-96931000D01*
X150591772Y-96898297D01*
X150436900Y-96834147D01*
X150297519Y-96741015D01*
X150178985Y-96622481D01*
X150085853Y-96483100D01*
X150021703Y-96328228D01*
X149989000Y-96163816D01*
X149989000Y-95996184D01*
X150021703Y-95831772D01*
X150085853Y-95676900D01*
X150178985Y-95537519D01*
X150297519Y-95418985D01*
X150436900Y-95325853D01*
X150591772Y-95261703D01*
X150756184Y-95229000D01*
X150923816Y-95229000D01*
X151088228Y-95261703D01*
X151088228Y-95261703D01*
G37*
G36*
X171408228Y-95261703D02*
X171563100Y-95325853D01*
X171702481Y-95418985D01*
X171821015Y-95537519D01*
X171914147Y-95676900D01*
X171978297Y-95831772D01*
X172011000Y-95996184D01*
X172011000Y-96163816D01*
X171978297Y-96328228D01*
X171914147Y-96483100D01*
X171821015Y-96622481D01*
X171702481Y-96741015D01*
X171563100Y-96834147D01*
X171408228Y-96898297D01*
X171243816Y-96931000D01*
X171076184Y-96931000D01*
X170911772Y-96898297D01*
X170756900Y-96834147D01*
X170617519Y-96741015D01*
X170498985Y-96622481D01*
X170405853Y-96483100D01*
X170341703Y-96328228D01*
X170309000Y-96163816D01*
X170309000Y-95996184D01*
X170341703Y-95831772D01*
X170405853Y-95676900D01*
X170498985Y-95537519D01*
X170617519Y-95418985D01*
X170756900Y-95325853D01*
X170911772Y-95261703D01*
X171076184Y-95229000D01*
X171243816Y-95229000D01*
X171408228Y-95261703D01*
X171408228Y-95261703D01*
G37*
G36*
X100268604Y-95428347D02*
X100305145Y-95439432D01*
X100338820Y-95457431D01*
X100368341Y-95481659D01*
X100392569Y-95511180D01*
X100410568Y-95544855D01*
X100421653Y-95581396D01*
X100426000Y-95625538D01*
X100426000Y-96574462D01*
X100421653Y-96618604D01*
X100410568Y-96655145D01*
X100392569Y-96688820D01*
X100368341Y-96718341D01*
X100338820Y-96742569D01*
X100305145Y-96760568D01*
X100268604Y-96771653D01*
X100224462Y-96776000D01*
X98775538Y-96776000D01*
X98731396Y-96771653D01*
X98694855Y-96760568D01*
X98661180Y-96742569D01*
X98631659Y-96718341D01*
X98607431Y-96688820D01*
X98589432Y-96655145D01*
X98578347Y-96618604D01*
X98574000Y-96574462D01*
X98574000Y-95625538D01*
X98578347Y-95581396D01*
X98589432Y-95544855D01*
X98607431Y-95511180D01*
X98631659Y-95481659D01*
X98661180Y-95457431D01*
X98694855Y-95439432D01*
X98731396Y-95428347D01*
X98775538Y-95424000D01*
X100224462Y-95424000D01*
X100268604Y-95428347D01*
X100268604Y-95428347D01*
G37*
G36*
X113768604Y-95428347D02*
X113805145Y-95439432D01*
X113838820Y-95457431D01*
X113868341Y-95481659D01*
X113892569Y-95511180D01*
X113910568Y-95544855D01*
X113921653Y-95581396D01*
X113926000Y-95625538D01*
X113926000Y-96574462D01*
X113921653Y-96618604D01*
X113910568Y-96655145D01*
X113892569Y-96688820D01*
X113868341Y-96718341D01*
X113838820Y-96742569D01*
X113805145Y-96760568D01*
X113768604Y-96771653D01*
X113724462Y-96776000D01*
X112275538Y-96776000D01*
X112231396Y-96771653D01*
X112194855Y-96760568D01*
X112161180Y-96742569D01*
X112131659Y-96718341D01*
X112107431Y-96688820D01*
X112089432Y-96655145D01*
X112078347Y-96618604D01*
X112074000Y-96574462D01*
X112074000Y-95625538D01*
X112078347Y-95581396D01*
X112089432Y-95544855D01*
X112107431Y-95511180D01*
X112131659Y-95481659D01*
X112161180Y-95457431D01*
X112194855Y-95439432D01*
X112231396Y-95428347D01*
X112275538Y-95424000D01*
X113724462Y-95424000D01*
X113768604Y-95428347D01*
X113768604Y-95428347D01*
G37*
G36*
X165268604Y-95228347D02*
X165305145Y-95239432D01*
X165338820Y-95257431D01*
X165368341Y-95281659D01*
X165392569Y-95311180D01*
X165410568Y-95344855D01*
X165421653Y-95381396D01*
X165426000Y-95425538D01*
X165426000Y-96374462D01*
X165421653Y-96418604D01*
X165410568Y-96455145D01*
X165392569Y-96488820D01*
X165368341Y-96518341D01*
X165338820Y-96542569D01*
X165305145Y-96560568D01*
X165268604Y-96571653D01*
X165224462Y-96576000D01*
X163775538Y-96576000D01*
X163731396Y-96571653D01*
X163694855Y-96560568D01*
X163661180Y-96542569D01*
X163631659Y-96518341D01*
X163607431Y-96488820D01*
X163589432Y-96455145D01*
X163578347Y-96418604D01*
X163574000Y-96374462D01*
X163574000Y-95425538D01*
X163578347Y-95381396D01*
X163589432Y-95344855D01*
X163607431Y-95311180D01*
X163631659Y-95281659D01*
X163661180Y-95257431D01*
X163694855Y-95239432D01*
X163731396Y-95228347D01*
X163775538Y-95224000D01*
X165224462Y-95224000D01*
X165268604Y-95228347D01*
X165268604Y-95228347D01*
G37*
G36*
X116777396Y-93625546D02*
X116950466Y-93697234D01*
X117106230Y-93801312D01*
X117238688Y-93933770D01*
X117342766Y-94089534D01*
X117414454Y-94262604D01*
X117451000Y-94446333D01*
X117451000Y-94633667D01*
X117414454Y-94817396D01*
X117342766Y-94990466D01*
X117238688Y-95146230D01*
X117106230Y-95278688D01*
X116950466Y-95382766D01*
X116777396Y-95454454D01*
X116593667Y-95491000D01*
X116406333Y-95491000D01*
X116222604Y-95454454D01*
X116049534Y-95382766D01*
X115893770Y-95278688D01*
X115761312Y-95146230D01*
X115657234Y-94990466D01*
X115585546Y-94817396D01*
X115549000Y-94633667D01*
X115549000Y-94446333D01*
X115585546Y-94262604D01*
X115657234Y-94089534D01*
X115761312Y-93933770D01*
X115893770Y-93801312D01*
X116049534Y-93697234D01*
X116222604Y-93625546D01*
X116406333Y-93589000D01*
X116593667Y-93589000D01*
X116777396Y-93625546D01*
X116777396Y-93625546D01*
G37*
G36*
X103277396Y-93625546D02*
X103450466Y-93697234D01*
X103606230Y-93801312D01*
X103738688Y-93933770D01*
X103842766Y-94089534D01*
X103914454Y-94262604D01*
X103951000Y-94446333D01*
X103951000Y-94633667D01*
X103914454Y-94817396D01*
X103842766Y-94990466D01*
X103738688Y-95146230D01*
X103606230Y-95278688D01*
X103450466Y-95382766D01*
X103277396Y-95454454D01*
X103093667Y-95491000D01*
X102906333Y-95491000D01*
X102722604Y-95454454D01*
X102549534Y-95382766D01*
X102393770Y-95278688D01*
X102261312Y-95146230D01*
X102157234Y-94990466D01*
X102085546Y-94817396D01*
X102049000Y-94633667D01*
X102049000Y-94446333D01*
X102085546Y-94262604D01*
X102157234Y-94089534D01*
X102261312Y-93933770D01*
X102393770Y-93801312D01*
X102549534Y-93697234D01*
X102722604Y-93625546D01*
X102906333Y-93589000D01*
X103093667Y-93589000D01*
X103277396Y-93625546D01*
X103277396Y-93625546D01*
G37*
G36*
X171408228Y-92721703D02*
X171563100Y-92785853D01*
X171702481Y-92878985D01*
X171821015Y-92997519D01*
X171914147Y-93136900D01*
X171978297Y-93291772D01*
X172011000Y-93456184D01*
X172011000Y-93623816D01*
X171978297Y-93788228D01*
X171914147Y-93943100D01*
X171821015Y-94082481D01*
X171702481Y-94201015D01*
X171563100Y-94294147D01*
X171408228Y-94358297D01*
X171243816Y-94391000D01*
X171076184Y-94391000D01*
X170911772Y-94358297D01*
X170756900Y-94294147D01*
X170617519Y-94201015D01*
X170498985Y-94082481D01*
X170405853Y-93943100D01*
X170341703Y-93788228D01*
X170309000Y-93623816D01*
X170309000Y-93456184D01*
X170341703Y-93291772D01*
X170405853Y-93136900D01*
X170498985Y-92997519D01*
X170617519Y-92878985D01*
X170756900Y-92785853D01*
X170911772Y-92721703D01*
X171076184Y-92689000D01*
X171243816Y-92689000D01*
X171408228Y-92721703D01*
X171408228Y-92721703D01*
G37*
G36*
X151088228Y-92721703D02*
X151243100Y-92785853D01*
X151382481Y-92878985D01*
X151501015Y-92997519D01*
X151594147Y-93136900D01*
X151658297Y-93291772D01*
X151691000Y-93456184D01*
X151691000Y-93623816D01*
X151658297Y-93788228D01*
X151594147Y-93943100D01*
X151501015Y-94082481D01*
X151382481Y-94201015D01*
X151243100Y-94294147D01*
X151088228Y-94358297D01*
X150923816Y-94391000D01*
X150756184Y-94391000D01*
X150591772Y-94358297D01*
X150436900Y-94294147D01*
X150297519Y-94201015D01*
X150178985Y-94082481D01*
X150085853Y-93943100D01*
X150021703Y-93788228D01*
X149989000Y-93623816D01*
X149989000Y-93456184D01*
X150021703Y-93291772D01*
X150085853Y-93136900D01*
X150178985Y-92997519D01*
X150297519Y-92878985D01*
X150436900Y-92785853D01*
X150591772Y-92721703D01*
X150756184Y-92689000D01*
X150923816Y-92689000D01*
X151088228Y-92721703D01*
X151088228Y-92721703D01*
G37*
G36*
X162418604Y-92078347D02*
X162455145Y-92089432D01*
X162488820Y-92107431D01*
X162518341Y-92131659D01*
X162542569Y-92161180D01*
X162560568Y-92194855D01*
X162571653Y-92231396D01*
X162576000Y-92275538D01*
X162576000Y-93724462D01*
X162571653Y-93768604D01*
X162560568Y-93805145D01*
X162542569Y-93838820D01*
X162518341Y-93868341D01*
X162488820Y-93892569D01*
X162455145Y-93910568D01*
X162418604Y-93921653D01*
X162374462Y-93926000D01*
X161425538Y-93926000D01*
X161381396Y-93921653D01*
X161344855Y-93910568D01*
X161311180Y-93892569D01*
X161281659Y-93868341D01*
X161257431Y-93838820D01*
X161239432Y-93805145D01*
X161228347Y-93768604D01*
X161224000Y-93724462D01*
X161224000Y-92275538D01*
X161228347Y-92231396D01*
X161239432Y-92194855D01*
X161257431Y-92161180D01*
X161281659Y-92131659D01*
X161311180Y-92107431D01*
X161344855Y-92089432D01*
X161381396Y-92078347D01*
X161425538Y-92074000D01*
X162374462Y-92074000D01*
X162418604Y-92078347D01*
X162418604Y-92078347D01*
G37*
G36*
X159618604Y-92078347D02*
X159655145Y-92089432D01*
X159688820Y-92107431D01*
X159718341Y-92131659D01*
X159742569Y-92161180D01*
X159760568Y-92194855D01*
X159771653Y-92231396D01*
X159776000Y-92275538D01*
X159776000Y-93724462D01*
X159771653Y-93768604D01*
X159760568Y-93805145D01*
X159742569Y-93838820D01*
X159718341Y-93868341D01*
X159688820Y-93892569D01*
X159655145Y-93910568D01*
X159618604Y-93921653D01*
X159574462Y-93926000D01*
X158625538Y-93926000D01*
X158581396Y-93921653D01*
X158544855Y-93910568D01*
X158511180Y-93892569D01*
X158481659Y-93868341D01*
X158457431Y-93838820D01*
X158439432Y-93805145D01*
X158428347Y-93768604D01*
X158424000Y-93724462D01*
X158424000Y-92275538D01*
X158428347Y-92231396D01*
X158439432Y-92194855D01*
X158457431Y-92161180D01*
X158481659Y-92131659D01*
X158511180Y-92107431D01*
X158544855Y-92089432D01*
X158581396Y-92078347D01*
X158625538Y-92074000D01*
X159574462Y-92074000D01*
X159618604Y-92078347D01*
X159618604Y-92078347D01*
G37*
G36*
X165268604Y-92428347D02*
X165305145Y-92439432D01*
X165338820Y-92457431D01*
X165368341Y-92481659D01*
X165392569Y-92511180D01*
X165410568Y-92544855D01*
X165421653Y-92581396D01*
X165426000Y-92625538D01*
X165426000Y-93574462D01*
X165421653Y-93618604D01*
X165410568Y-93655145D01*
X165392569Y-93688820D01*
X165368341Y-93718341D01*
X165338820Y-93742569D01*
X165305145Y-93760568D01*
X165268604Y-93771653D01*
X165224462Y-93776000D01*
X163775538Y-93776000D01*
X163731396Y-93771653D01*
X163694855Y-93760568D01*
X163661180Y-93742569D01*
X163631659Y-93718341D01*
X163607431Y-93688820D01*
X163589432Y-93655145D01*
X163578347Y-93618604D01*
X163574000Y-93574462D01*
X163574000Y-92625538D01*
X163578347Y-92581396D01*
X163589432Y-92544855D01*
X163607431Y-92511180D01*
X163631659Y-92481659D01*
X163661180Y-92457431D01*
X163694855Y-92439432D01*
X163731396Y-92428347D01*
X163775538Y-92424000D01*
X165224462Y-92424000D01*
X165268604Y-92428347D01*
X165268604Y-92428347D01*
G37*
G36*
X113768604Y-92228347D02*
X113805145Y-92239432D01*
X113838820Y-92257431D01*
X113868341Y-92281659D01*
X113892569Y-92311180D01*
X113910568Y-92344855D01*
X113921653Y-92381396D01*
X113926000Y-92425538D01*
X113926000Y-93374462D01*
X113921653Y-93418604D01*
X113910568Y-93455145D01*
X113892569Y-93488820D01*
X113868341Y-93518341D01*
X113838820Y-93542569D01*
X113805145Y-93560568D01*
X113768604Y-93571653D01*
X113724462Y-93576000D01*
X112275538Y-93576000D01*
X112231396Y-93571653D01*
X112194855Y-93560568D01*
X112161180Y-93542569D01*
X112131659Y-93518341D01*
X112107431Y-93488820D01*
X112089432Y-93455145D01*
X112078347Y-93418604D01*
X112074000Y-93374462D01*
X112074000Y-92425538D01*
X112078347Y-92381396D01*
X112089432Y-92344855D01*
X112107431Y-92311180D01*
X112131659Y-92281659D01*
X112161180Y-92257431D01*
X112194855Y-92239432D01*
X112231396Y-92228347D01*
X112275538Y-92224000D01*
X113724462Y-92224000D01*
X113768604Y-92228347D01*
X113768604Y-92228347D01*
G37*
G36*
X100268604Y-92228347D02*
X100305145Y-92239432D01*
X100338820Y-92257431D01*
X100368341Y-92281659D01*
X100392569Y-92311180D01*
X100410568Y-92344855D01*
X100421653Y-92381396D01*
X100426000Y-92425538D01*
X100426000Y-93374462D01*
X100421653Y-93418604D01*
X100410568Y-93455145D01*
X100392569Y-93488820D01*
X100368341Y-93518341D01*
X100338820Y-93542569D01*
X100305145Y-93560568D01*
X100268604Y-93571653D01*
X100224462Y-93576000D01*
X98775538Y-93576000D01*
X98731396Y-93571653D01*
X98694855Y-93560568D01*
X98661180Y-93542569D01*
X98631659Y-93518341D01*
X98607431Y-93488820D01*
X98589432Y-93455145D01*
X98578347Y-93418604D01*
X98574000Y-93374462D01*
X98574000Y-92425538D01*
X98578347Y-92381396D01*
X98589432Y-92344855D01*
X98607431Y-92311180D01*
X98631659Y-92281659D01*
X98661180Y-92257431D01*
X98694855Y-92239432D01*
X98731396Y-92228347D01*
X98775538Y-92224000D01*
X100224462Y-92224000D01*
X100268604Y-92228347D01*
X100268604Y-92228347D01*
G37*
G36*
X117451000Y-92951000D02*
X115549000Y-92951000D01*
X115549000Y-91049000D01*
X117451000Y-91049000D01*
X117451000Y-92951000D01*
X117451000Y-92951000D01*
G37*
G36*
X103951000Y-92951000D02*
X102049000Y-92951000D01*
X102049000Y-91049000D01*
X103951000Y-91049000D01*
X103951000Y-92951000D01*
X103951000Y-92951000D01*
G37*
G36*
X171408228Y-90181703D02*
X171563100Y-90245853D01*
X171702481Y-90338985D01*
X171821015Y-90457519D01*
X171914147Y-90596900D01*
X171978297Y-90751772D01*
X172011000Y-90916184D01*
X172011000Y-91083816D01*
X171978297Y-91248228D01*
X171914147Y-91403100D01*
X171821015Y-91542481D01*
X171702481Y-91661015D01*
X171563100Y-91754147D01*
X171408228Y-91818297D01*
X171243816Y-91851000D01*
X171076184Y-91851000D01*
X170911772Y-91818297D01*
X170756900Y-91754147D01*
X170617519Y-91661015D01*
X170498985Y-91542481D01*
X170405853Y-91403100D01*
X170341703Y-91248228D01*
X170309000Y-91083816D01*
X170309000Y-90916184D01*
X170341703Y-90751772D01*
X170405853Y-90596900D01*
X170498985Y-90457519D01*
X170617519Y-90338985D01*
X170756900Y-90245853D01*
X170911772Y-90181703D01*
X171076184Y-90149000D01*
X171243816Y-90149000D01*
X171408228Y-90181703D01*
X171408228Y-90181703D01*
G37*
G36*
X151088228Y-90181703D02*
X151243100Y-90245853D01*
X151382481Y-90338985D01*
X151501015Y-90457519D01*
X151594147Y-90596900D01*
X151658297Y-90751772D01*
X151691000Y-90916184D01*
X151691000Y-91083816D01*
X151658297Y-91248228D01*
X151594147Y-91403100D01*
X151501015Y-91542481D01*
X151382481Y-91661015D01*
X151243100Y-91754147D01*
X151088228Y-91818297D01*
X150923816Y-91851000D01*
X150756184Y-91851000D01*
X150591772Y-91818297D01*
X150436900Y-91754147D01*
X150297519Y-91661015D01*
X150178985Y-91542481D01*
X150085853Y-91403100D01*
X150021703Y-91248228D01*
X149989000Y-91083816D01*
X149989000Y-90916184D01*
X150021703Y-90751772D01*
X150085853Y-90596900D01*
X150178985Y-90457519D01*
X150297519Y-90338985D01*
X150436900Y-90245853D01*
X150591772Y-90181703D01*
X150756184Y-90149000D01*
X150923816Y-90149000D01*
X151088228Y-90181703D01*
X151088228Y-90181703D01*
G37*
G36*
X100268604Y-89428347D02*
X100305145Y-89439432D01*
X100338820Y-89457431D01*
X100368341Y-89481659D01*
X100392569Y-89511180D01*
X100410568Y-89544855D01*
X100421653Y-89581396D01*
X100426000Y-89625538D01*
X100426000Y-90574462D01*
X100421653Y-90618604D01*
X100410568Y-90655145D01*
X100392569Y-90688820D01*
X100368341Y-90718341D01*
X100338820Y-90742569D01*
X100305145Y-90760568D01*
X100268604Y-90771653D01*
X100224462Y-90776000D01*
X98775538Y-90776000D01*
X98731396Y-90771653D01*
X98694855Y-90760568D01*
X98661180Y-90742569D01*
X98631659Y-90718341D01*
X98607431Y-90688820D01*
X98589432Y-90655145D01*
X98578347Y-90618604D01*
X98574000Y-90574462D01*
X98574000Y-89625538D01*
X98578347Y-89581396D01*
X98589432Y-89544855D01*
X98607431Y-89511180D01*
X98631659Y-89481659D01*
X98661180Y-89457431D01*
X98694855Y-89439432D01*
X98731396Y-89428347D01*
X98775538Y-89424000D01*
X100224462Y-89424000D01*
X100268604Y-89428347D01*
X100268604Y-89428347D01*
G37*
G36*
X113768604Y-89428347D02*
X113805145Y-89439432D01*
X113838820Y-89457431D01*
X113868341Y-89481659D01*
X113892569Y-89511180D01*
X113910568Y-89544855D01*
X113921653Y-89581396D01*
X113926000Y-89625538D01*
X113926000Y-90574462D01*
X113921653Y-90618604D01*
X113910568Y-90655145D01*
X113892569Y-90688820D01*
X113868341Y-90718341D01*
X113838820Y-90742569D01*
X113805145Y-90760568D01*
X113768604Y-90771653D01*
X113724462Y-90776000D01*
X112275538Y-90776000D01*
X112231396Y-90771653D01*
X112194855Y-90760568D01*
X112161180Y-90742569D01*
X112131659Y-90718341D01*
X112107431Y-90688820D01*
X112089432Y-90655145D01*
X112078347Y-90618604D01*
X112074000Y-90574462D01*
X112074000Y-89625538D01*
X112078347Y-89581396D01*
X112089432Y-89544855D01*
X112107431Y-89511180D01*
X112131659Y-89481659D01*
X112161180Y-89457431D01*
X112194855Y-89439432D01*
X112231396Y-89428347D01*
X112275538Y-89424000D01*
X113724462Y-89424000D01*
X113768604Y-89428347D01*
X113768604Y-89428347D01*
G37*
G36*
X171408228Y-87641703D02*
X171563100Y-87705853D01*
X171702481Y-87798985D01*
X171821015Y-87917519D01*
X171914147Y-88056900D01*
X171978297Y-88211772D01*
X172011000Y-88376184D01*
X172011000Y-88543816D01*
X171978297Y-88708228D01*
X171914147Y-88863100D01*
X171821015Y-89002481D01*
X171702481Y-89121015D01*
X171563100Y-89214147D01*
X171408228Y-89278297D01*
X171243816Y-89311000D01*
X171076184Y-89311000D01*
X170911772Y-89278297D01*
X170756900Y-89214147D01*
X170617519Y-89121015D01*
X170498985Y-89002481D01*
X170405853Y-88863100D01*
X170341703Y-88708228D01*
X170309000Y-88543816D01*
X170309000Y-88376184D01*
X170341703Y-88211772D01*
X170405853Y-88056900D01*
X170498985Y-87917519D01*
X170617519Y-87798985D01*
X170756900Y-87705853D01*
X170911772Y-87641703D01*
X171076184Y-87609000D01*
X171243816Y-87609000D01*
X171408228Y-87641703D01*
X171408228Y-87641703D01*
G37*
G36*
X151088228Y-87641703D02*
X151243100Y-87705853D01*
X151382481Y-87798985D01*
X151501015Y-87917519D01*
X151594147Y-88056900D01*
X151658297Y-88211772D01*
X151691000Y-88376184D01*
X151691000Y-88543816D01*
X151658297Y-88708228D01*
X151594147Y-88863100D01*
X151501015Y-89002481D01*
X151382481Y-89121015D01*
X151243100Y-89214147D01*
X151088228Y-89278297D01*
X150923816Y-89311000D01*
X150756184Y-89311000D01*
X150591772Y-89278297D01*
X150436900Y-89214147D01*
X150297519Y-89121015D01*
X150178985Y-89002481D01*
X150085853Y-88863100D01*
X150021703Y-88708228D01*
X149989000Y-88543816D01*
X149989000Y-88376184D01*
X150021703Y-88211772D01*
X150085853Y-88056900D01*
X150178985Y-87917519D01*
X150297519Y-87798985D01*
X150436900Y-87705853D01*
X150591772Y-87641703D01*
X150756184Y-87609000D01*
X150923816Y-87609000D01*
X151088228Y-87641703D01*
X151088228Y-87641703D01*
G37*
G36*
X171408228Y-85101703D02*
X171563100Y-85165853D01*
X171702481Y-85258985D01*
X171821015Y-85377519D01*
X171914147Y-85516900D01*
X171978297Y-85671772D01*
X172011000Y-85836184D01*
X172011000Y-86003816D01*
X171978297Y-86168228D01*
X171914147Y-86323100D01*
X171821015Y-86462481D01*
X171702481Y-86581015D01*
X171563100Y-86674147D01*
X171408228Y-86738297D01*
X171243816Y-86771000D01*
X171076184Y-86771000D01*
X170911772Y-86738297D01*
X170756900Y-86674147D01*
X170617519Y-86581015D01*
X170498985Y-86462481D01*
X170405853Y-86323100D01*
X170341703Y-86168228D01*
X170309000Y-86003816D01*
X170309000Y-85836184D01*
X170341703Y-85671772D01*
X170405853Y-85516900D01*
X170498985Y-85377519D01*
X170617519Y-85258985D01*
X170756900Y-85165853D01*
X170911772Y-85101703D01*
X171076184Y-85069000D01*
X171243816Y-85069000D01*
X171408228Y-85101703D01*
X171408228Y-85101703D01*
G37*
G36*
X151088228Y-85101703D02*
X151243100Y-85165853D01*
X151382481Y-85258985D01*
X151501015Y-85377519D01*
X151594147Y-85516900D01*
X151658297Y-85671772D01*
X151691000Y-85836184D01*
X151691000Y-86003816D01*
X151658297Y-86168228D01*
X151594147Y-86323100D01*
X151501015Y-86462481D01*
X151382481Y-86581015D01*
X151243100Y-86674147D01*
X151088228Y-86738297D01*
X150923816Y-86771000D01*
X150756184Y-86771000D01*
X150591772Y-86738297D01*
X150436900Y-86674147D01*
X150297519Y-86581015D01*
X150178985Y-86462481D01*
X150085853Y-86323100D01*
X150021703Y-86168228D01*
X149989000Y-86003816D01*
X149989000Y-85836184D01*
X150021703Y-85671772D01*
X150085853Y-85516900D01*
X150178985Y-85377519D01*
X150297519Y-85258985D01*
X150436900Y-85165853D01*
X150591772Y-85101703D01*
X150756184Y-85069000D01*
X150923816Y-85069000D01*
X151088228Y-85101703D01*
X151088228Y-85101703D01*
G37*
G36*
X171408228Y-82561703D02*
X171563100Y-82625853D01*
X171702481Y-82718985D01*
X171821015Y-82837519D01*
X171914147Y-82976900D01*
X171978297Y-83131772D01*
X172011000Y-83296184D01*
X172011000Y-83463816D01*
X171978297Y-83628228D01*
X171914147Y-83783100D01*
X171821015Y-83922481D01*
X171702481Y-84041015D01*
X171563100Y-84134147D01*
X171408228Y-84198297D01*
X171243816Y-84231000D01*
X171076184Y-84231000D01*
X170911772Y-84198297D01*
X170756900Y-84134147D01*
X170617519Y-84041015D01*
X170498985Y-83922481D01*
X170405853Y-83783100D01*
X170341703Y-83628228D01*
X170309000Y-83463816D01*
X170309000Y-83296184D01*
X170341703Y-83131772D01*
X170405853Y-82976900D01*
X170498985Y-82837519D01*
X170617519Y-82718985D01*
X170756900Y-82625853D01*
X170911772Y-82561703D01*
X171076184Y-82529000D01*
X171243816Y-82529000D01*
X171408228Y-82561703D01*
X171408228Y-82561703D01*
G37*
G36*
X151088228Y-82561703D02*
X151243100Y-82625853D01*
X151382481Y-82718985D01*
X151501015Y-82837519D01*
X151594147Y-82976900D01*
X151658297Y-83131772D01*
X151691000Y-83296184D01*
X151691000Y-83463816D01*
X151658297Y-83628228D01*
X151594147Y-83783100D01*
X151501015Y-83922481D01*
X151382481Y-84041015D01*
X151243100Y-84134147D01*
X151088228Y-84198297D01*
X150923816Y-84231000D01*
X150756184Y-84231000D01*
X150591772Y-84198297D01*
X150436900Y-84134147D01*
X150297519Y-84041015D01*
X150178985Y-83922481D01*
X150085853Y-83783100D01*
X150021703Y-83628228D01*
X149989000Y-83463816D01*
X149989000Y-83296184D01*
X150021703Y-83131772D01*
X150085853Y-82976900D01*
X150178985Y-82837519D01*
X150297519Y-82718985D01*
X150436900Y-82625853D01*
X150591772Y-82561703D01*
X150756184Y-82529000D01*
X150923816Y-82529000D01*
X151088228Y-82561703D01*
X151088228Y-82561703D01*
G37*
G36*
X113751000Y-82851000D02*
X110649000Y-82851000D01*
X110649000Y-81149000D01*
X113751000Y-81149000D01*
X113751000Y-82851000D01*
X113751000Y-82851000D01*
G37*
G36*
X109351000Y-82851000D02*
X106249000Y-82851000D01*
X106249000Y-81149000D01*
X109351000Y-81149000D01*
X109351000Y-82851000D01*
X109351000Y-82851000D01*
G37*
G36*
X103951000Y-82801000D02*
X102049000Y-82801000D01*
X102049000Y-80199000D01*
X103951000Y-80199000D01*
X103951000Y-82801000D01*
X103951000Y-82801000D01*
G37*
G36*
X151088228Y-80021703D02*
X151243100Y-80085853D01*
X151382481Y-80178985D01*
X151501015Y-80297519D01*
X151594147Y-80436900D01*
X151658297Y-80591772D01*
X151691000Y-80756184D01*
X151691000Y-80923816D01*
X151658297Y-81088228D01*
X151594147Y-81243100D01*
X151501015Y-81382481D01*
X151382481Y-81501015D01*
X151243100Y-81594147D01*
X151088228Y-81658297D01*
X150923816Y-81691000D01*
X150756184Y-81691000D01*
X150591772Y-81658297D01*
X150436900Y-81594147D01*
X150297519Y-81501015D01*
X150178985Y-81382481D01*
X150085853Y-81243100D01*
X150021703Y-81088228D01*
X149989000Y-80923816D01*
X149989000Y-80756184D01*
X150021703Y-80591772D01*
X150085853Y-80436900D01*
X150178985Y-80297519D01*
X150297519Y-80178985D01*
X150436900Y-80085853D01*
X150591772Y-80021703D01*
X150756184Y-79989000D01*
X150923816Y-79989000D01*
X151088228Y-80021703D01*
X151088228Y-80021703D01*
G37*
G36*
X171408228Y-80021703D02*
X171563100Y-80085853D01*
X171702481Y-80178985D01*
X171821015Y-80297519D01*
X171914147Y-80436900D01*
X171978297Y-80591772D01*
X172011000Y-80756184D01*
X172011000Y-80923816D01*
X171978297Y-81088228D01*
X171914147Y-81243100D01*
X171821015Y-81382481D01*
X171702481Y-81501015D01*
X171563100Y-81594147D01*
X171408228Y-81658297D01*
X171243816Y-81691000D01*
X171076184Y-81691000D01*
X170911772Y-81658297D01*
X170756900Y-81594147D01*
X170617519Y-81501015D01*
X170498985Y-81382481D01*
X170405853Y-81243100D01*
X170341703Y-81088228D01*
X170309000Y-80923816D01*
X170309000Y-80756184D01*
X170341703Y-80591772D01*
X170405853Y-80436900D01*
X170498985Y-80297519D01*
X170617519Y-80178985D01*
X170756900Y-80085853D01*
X170911772Y-80021703D01*
X171076184Y-79989000D01*
X171243816Y-79989000D01*
X171408228Y-80021703D01*
X171408228Y-80021703D01*
G37*
G36*
X171408228Y-77481703D02*
X171563100Y-77545853D01*
X171702481Y-77638985D01*
X171821015Y-77757519D01*
X171914147Y-77896900D01*
X171978297Y-78051772D01*
X172011000Y-78216184D01*
X172011000Y-78383816D01*
X171978297Y-78548228D01*
X171914147Y-78703100D01*
X171821015Y-78842481D01*
X171702481Y-78961015D01*
X171563100Y-79054147D01*
X171408228Y-79118297D01*
X171243816Y-79151000D01*
X171076184Y-79151000D01*
X170911772Y-79118297D01*
X170756900Y-79054147D01*
X170617519Y-78961015D01*
X170498985Y-78842481D01*
X170405853Y-78703100D01*
X170341703Y-78548228D01*
X170309000Y-78383816D01*
X170309000Y-78216184D01*
X170341703Y-78051772D01*
X170405853Y-77896900D01*
X170498985Y-77757519D01*
X170617519Y-77638985D01*
X170756900Y-77545853D01*
X170911772Y-77481703D01*
X171076184Y-77449000D01*
X171243816Y-77449000D01*
X171408228Y-77481703D01*
X171408228Y-77481703D01*
G37*
G36*
X151088228Y-77481703D02*
X151243100Y-77545853D01*
X151382481Y-77638985D01*
X151501015Y-77757519D01*
X151594147Y-77896900D01*
X151658297Y-78051772D01*
X151691000Y-78216184D01*
X151691000Y-78383816D01*
X151658297Y-78548228D01*
X151594147Y-78703100D01*
X151501015Y-78842481D01*
X151382481Y-78961015D01*
X151243100Y-79054147D01*
X151088228Y-79118297D01*
X150923816Y-79151000D01*
X150756184Y-79151000D01*
X150591772Y-79118297D01*
X150436900Y-79054147D01*
X150297519Y-78961015D01*
X150178985Y-78842481D01*
X150085853Y-78703100D01*
X150021703Y-78548228D01*
X149989000Y-78383816D01*
X149989000Y-78216184D01*
X150021703Y-78051772D01*
X150085853Y-77896900D01*
X150178985Y-77757519D01*
X150297519Y-77638985D01*
X150436900Y-77545853D01*
X150591772Y-77481703D01*
X150756184Y-77449000D01*
X150923816Y-77449000D01*
X151088228Y-77481703D01*
X151088228Y-77481703D01*
G37*
G36*
X103951000Y-78801000D02*
X102049000Y-78801000D01*
X102049000Y-76199000D01*
X103951000Y-76199000D01*
X103951000Y-78801000D01*
X103951000Y-78801000D01*
G37*
G36*
X109618604Y-76578347D02*
X109655145Y-76589432D01*
X109688820Y-76607431D01*
X109718341Y-76631659D01*
X109742569Y-76661180D01*
X109760568Y-76694855D01*
X109771653Y-76731396D01*
X109776000Y-76775538D01*
X109776000Y-78224462D01*
X109771653Y-78268604D01*
X109760568Y-78305145D01*
X109742569Y-78338820D01*
X109718341Y-78368341D01*
X109688820Y-78392569D01*
X109655145Y-78410568D01*
X109618604Y-78421653D01*
X109574462Y-78426000D01*
X108625538Y-78426000D01*
X108581396Y-78421653D01*
X108544855Y-78410568D01*
X108511180Y-78392569D01*
X108481659Y-78368341D01*
X108457431Y-78338820D01*
X108439432Y-78305145D01*
X108428347Y-78268604D01*
X108424000Y-78224462D01*
X108424000Y-76775538D01*
X108428347Y-76731396D01*
X108439432Y-76694855D01*
X108457431Y-76661180D01*
X108481659Y-76631659D01*
X108511180Y-76607431D01*
X108544855Y-76589432D01*
X108581396Y-76578347D01*
X108625538Y-76574000D01*
X109574462Y-76574000D01*
X109618604Y-76578347D01*
X109618604Y-76578347D01*
G37*
G36*
X112418604Y-76578347D02*
X112455145Y-76589432D01*
X112488820Y-76607431D01*
X112518341Y-76631659D01*
X112542569Y-76661180D01*
X112560568Y-76694855D01*
X112571653Y-76731396D01*
X112576000Y-76775538D01*
X112576000Y-78224462D01*
X112571653Y-78268604D01*
X112560568Y-78305145D01*
X112542569Y-78338820D01*
X112518341Y-78368341D01*
X112488820Y-78392569D01*
X112455145Y-78410568D01*
X112418604Y-78421653D01*
X112374462Y-78426000D01*
X111425538Y-78426000D01*
X111381396Y-78421653D01*
X111344855Y-78410568D01*
X111311180Y-78392569D01*
X111281659Y-78368341D01*
X111257431Y-78338820D01*
X111239432Y-78305145D01*
X111228347Y-78268604D01*
X111224000Y-78224462D01*
X111224000Y-76775538D01*
X111228347Y-76731396D01*
X111239432Y-76694855D01*
X111257431Y-76661180D01*
X111281659Y-76631659D01*
X111311180Y-76607431D01*
X111344855Y-76589432D01*
X111381396Y-76578347D01*
X111425538Y-76574000D01*
X112374462Y-76574000D01*
X112418604Y-76578347D01*
X112418604Y-76578347D01*
G37*
G36*
X171408228Y-74941703D02*
X171563100Y-75005853D01*
X171702481Y-75098985D01*
X171821015Y-75217519D01*
X171914147Y-75356900D01*
X171978297Y-75511772D01*
X172011000Y-75676184D01*
X172011000Y-75843816D01*
X171978297Y-76008228D01*
X171914147Y-76163100D01*
X171821015Y-76302481D01*
X171702481Y-76421015D01*
X171563100Y-76514147D01*
X171408228Y-76578297D01*
X171243816Y-76611000D01*
X171076184Y-76611000D01*
X170911772Y-76578297D01*
X170756900Y-76514147D01*
X170617519Y-76421015D01*
X170498985Y-76302481D01*
X170405853Y-76163100D01*
X170341703Y-76008228D01*
X170309000Y-75843816D01*
X170309000Y-75676184D01*
X170341703Y-75511772D01*
X170405853Y-75356900D01*
X170498985Y-75217519D01*
X170617519Y-75098985D01*
X170756900Y-75005853D01*
X170911772Y-74941703D01*
X171076184Y-74909000D01*
X171243816Y-74909000D01*
X171408228Y-74941703D01*
X171408228Y-74941703D01*
G37*
G36*
X151088228Y-74941703D02*
X151243100Y-75005853D01*
X151382481Y-75098985D01*
X151501015Y-75217519D01*
X151594147Y-75356900D01*
X151658297Y-75511772D01*
X151691000Y-75676184D01*
X151691000Y-75843816D01*
X151658297Y-76008228D01*
X151594147Y-76163100D01*
X151501015Y-76302481D01*
X151382481Y-76421015D01*
X151243100Y-76514147D01*
X151088228Y-76578297D01*
X150923816Y-76611000D01*
X150756184Y-76611000D01*
X150591772Y-76578297D01*
X150436900Y-76514147D01*
X150297519Y-76421015D01*
X150178985Y-76302481D01*
X150085853Y-76163100D01*
X150021703Y-76008228D01*
X149989000Y-75843816D01*
X149989000Y-75676184D01*
X150021703Y-75511772D01*
X150085853Y-75356900D01*
X150178985Y-75217519D01*
X150297519Y-75098985D01*
X150436900Y-75005853D01*
X150591772Y-74941703D01*
X150756184Y-74909000D01*
X150923816Y-74909000D01*
X151088228Y-74941703D01*
X151088228Y-74941703D01*
G37*
G36*
X143901000Y-75001000D02*
X142999000Y-75001000D01*
X142999000Y-73999000D01*
X143901000Y-73999000D01*
X143901000Y-75001000D01*
X143901000Y-75001000D01*
G37*
G36*
X142001000Y-75001000D02*
X141099000Y-75001000D01*
X141099000Y-73999000D01*
X142001000Y-73999000D01*
X142001000Y-75001000D01*
X142001000Y-75001000D01*
G37*
G36*
X103812308Y-71253498D02*
X103850317Y-71265028D01*
X103885348Y-71283753D01*
X103916050Y-71308950D01*
X103941247Y-71339652D01*
X103959972Y-71374683D01*
X103971502Y-71412692D01*
X103976000Y-71458362D01*
X103976000Y-74541638D01*
X103971502Y-74587308D01*
X103959972Y-74625317D01*
X103941247Y-74660348D01*
X103916050Y-74691050D01*
X103885348Y-74716247D01*
X103850317Y-74734972D01*
X103812308Y-74746502D01*
X103766638Y-74751000D01*
X102958362Y-74751000D01*
X102912692Y-74746502D01*
X102874683Y-74734972D01*
X102839652Y-74716247D01*
X102808950Y-74691050D01*
X102783753Y-74660348D01*
X102765028Y-74625317D01*
X102753498Y-74587308D01*
X102749000Y-74541638D01*
X102749000Y-71458362D01*
X102753498Y-71412692D01*
X102765028Y-71374683D01*
X102783753Y-71339652D01*
X102808950Y-71308950D01*
X102839652Y-71283753D01*
X102874683Y-71265028D01*
X102912692Y-71253498D01*
X102958362Y-71249000D01*
X103766638Y-71249000D01*
X103812308Y-71253498D01*
X103812308Y-71253498D01*
G37*
G36*
X108087308Y-71253498D02*
X108125317Y-71265028D01*
X108160348Y-71283753D01*
X108191050Y-71308950D01*
X108216247Y-71339652D01*
X108234972Y-71374683D01*
X108246502Y-71412692D01*
X108251000Y-71458362D01*
X108251000Y-74541638D01*
X108246502Y-74587308D01*
X108234972Y-74625317D01*
X108216247Y-74660348D01*
X108191050Y-74691050D01*
X108160348Y-74716247D01*
X108125317Y-74734972D01*
X108087308Y-74746502D01*
X108041638Y-74751000D01*
X107233362Y-74751000D01*
X107187692Y-74746502D01*
X107149683Y-74734972D01*
X107114652Y-74716247D01*
X107083950Y-74691050D01*
X107058753Y-74660348D01*
X107040028Y-74625317D01*
X107028498Y-74587308D01*
X107024000Y-74541638D01*
X107024000Y-71458362D01*
X107028498Y-71412692D01*
X107040028Y-71374683D01*
X107058753Y-71339652D01*
X107083950Y-71308950D01*
X107114652Y-71283753D01*
X107149683Y-71265028D01*
X107187692Y-71253498D01*
X107233362Y-71249000D01*
X108041638Y-71249000D01*
X108087308Y-71253498D01*
X108087308Y-71253498D01*
G37*
G36*
X151088228Y-72401703D02*
X151243100Y-72465853D01*
X151382481Y-72558985D01*
X151501015Y-72677519D01*
X151594147Y-72816900D01*
X151658297Y-72971772D01*
X151691000Y-73136184D01*
X151691000Y-73303816D01*
X151658297Y-73468228D01*
X151594147Y-73623100D01*
X151501015Y-73762481D01*
X151382481Y-73881015D01*
X151243100Y-73974147D01*
X151088228Y-74038297D01*
X150923816Y-74071000D01*
X150756184Y-74071000D01*
X150591772Y-74038297D01*
X150436900Y-73974147D01*
X150297519Y-73881015D01*
X150178985Y-73762481D01*
X150085853Y-73623100D01*
X150021703Y-73468228D01*
X149989000Y-73303816D01*
X149989000Y-73136184D01*
X150021703Y-72971772D01*
X150085853Y-72816900D01*
X150178985Y-72677519D01*
X150297519Y-72558985D01*
X150436900Y-72465853D01*
X150591772Y-72401703D01*
X150756184Y-72369000D01*
X150923816Y-72369000D01*
X151088228Y-72401703D01*
X151088228Y-72401703D01*
G37*
G36*
X171408228Y-72401703D02*
X171563100Y-72465853D01*
X171702481Y-72558985D01*
X171821015Y-72677519D01*
X171914147Y-72816900D01*
X171978297Y-72971772D01*
X172011000Y-73136184D01*
X172011000Y-73303816D01*
X171978297Y-73468228D01*
X171914147Y-73623100D01*
X171821015Y-73762481D01*
X171702481Y-73881015D01*
X171563100Y-73974147D01*
X171408228Y-74038297D01*
X171243816Y-74071000D01*
X171076184Y-74071000D01*
X170911772Y-74038297D01*
X170756900Y-73974147D01*
X170617519Y-73881015D01*
X170498985Y-73762481D01*
X170405853Y-73623100D01*
X170341703Y-73468228D01*
X170309000Y-73303816D01*
X170309000Y-73136184D01*
X170341703Y-72971772D01*
X170405853Y-72816900D01*
X170498985Y-72677519D01*
X170617519Y-72558985D01*
X170756900Y-72465853D01*
X170911772Y-72401703D01*
X171076184Y-72369000D01*
X171243816Y-72369000D01*
X171408228Y-72401703D01*
X171408228Y-72401703D01*
G37*
G36*
X142951000Y-73001000D02*
X142049000Y-73001000D01*
X142049000Y-71999000D01*
X142951000Y-71999000D01*
X142951000Y-73001000D01*
X142951000Y-73001000D01*
G37*
G36*
X151088228Y-69861703D02*
X151243100Y-69925853D01*
X151382481Y-70018985D01*
X151501015Y-70137519D01*
X151594147Y-70276900D01*
X151658297Y-70431772D01*
X151691000Y-70596184D01*
X151691000Y-70763816D01*
X151658297Y-70928228D01*
X151594147Y-71083100D01*
X151501015Y-71222481D01*
X151382481Y-71341015D01*
X151243100Y-71434147D01*
X151088228Y-71498297D01*
X150923816Y-71531000D01*
X150756184Y-71531000D01*
X150591772Y-71498297D01*
X150436900Y-71434147D01*
X150297519Y-71341015D01*
X150178985Y-71222481D01*
X150085853Y-71083100D01*
X150021703Y-70928228D01*
X149989000Y-70763816D01*
X149989000Y-70596184D01*
X150021703Y-70431772D01*
X150085853Y-70276900D01*
X150178985Y-70137519D01*
X150297519Y-70018985D01*
X150436900Y-69925853D01*
X150591772Y-69861703D01*
X150756184Y-69829000D01*
X150923816Y-69829000D01*
X151088228Y-69861703D01*
X151088228Y-69861703D01*
G37*
G36*
X171408228Y-69861703D02*
X171563100Y-69925853D01*
X171702481Y-70018985D01*
X171821015Y-70137519D01*
X171914147Y-70276900D01*
X171978297Y-70431772D01*
X172011000Y-70596184D01*
X172011000Y-70763816D01*
X171978297Y-70928228D01*
X171914147Y-71083100D01*
X171821015Y-71222481D01*
X171702481Y-71341015D01*
X171563100Y-71434147D01*
X171408228Y-71498297D01*
X171243816Y-71531000D01*
X171076184Y-71531000D01*
X170911772Y-71498297D01*
X170756900Y-71434147D01*
X170617519Y-71341015D01*
X170498985Y-71222481D01*
X170405853Y-71083100D01*
X170341703Y-70928228D01*
X170309000Y-70763816D01*
X170309000Y-70596184D01*
X170341703Y-70431772D01*
X170405853Y-70276900D01*
X170498985Y-70137519D01*
X170617519Y-70018985D01*
X170756900Y-69925853D01*
X170911772Y-69861703D01*
X171076184Y-69829000D01*
X171243816Y-69829000D01*
X171408228Y-69861703D01*
X171408228Y-69861703D01*
G37*
G36*
X137118604Y-69578347D02*
X137155145Y-69589432D01*
X137188820Y-69607431D01*
X137218341Y-69631659D01*
X137242569Y-69661180D01*
X137260568Y-69694855D01*
X137271653Y-69731396D01*
X137276000Y-69775538D01*
X137276000Y-71224462D01*
X137271653Y-71268602D01*
X137260568Y-71305145D01*
X137242569Y-71338820D01*
X137218341Y-71368341D01*
X137188820Y-71392569D01*
X137155145Y-71410568D01*
X137118604Y-71421653D01*
X137074462Y-71426000D01*
X136125538Y-71426000D01*
X136081396Y-71421653D01*
X136044855Y-71410568D01*
X136011180Y-71392569D01*
X135981659Y-71368341D01*
X135957431Y-71338820D01*
X135939432Y-71305145D01*
X135928347Y-71268602D01*
X135924000Y-71224462D01*
X135924000Y-69775538D01*
X135928347Y-69731396D01*
X135939432Y-69694855D01*
X135957431Y-69661180D01*
X135981659Y-69631659D01*
X136011180Y-69607431D01*
X136044855Y-69589432D01*
X136081396Y-69578347D01*
X136125538Y-69574000D01*
X137074462Y-69574000D01*
X137118604Y-69578347D01*
X137118604Y-69578347D01*
G37*
G36*
X139918604Y-69578347D02*
X139955145Y-69589432D01*
X139988820Y-69607431D01*
X140018341Y-69631659D01*
X140042569Y-69661180D01*
X140060568Y-69694855D01*
X140071653Y-69731396D01*
X140076000Y-69775538D01*
X140076000Y-71224462D01*
X140071653Y-71268602D01*
X140060568Y-71305145D01*
X140042569Y-71338820D01*
X140018341Y-71368341D01*
X139988820Y-71392569D01*
X139955145Y-71410568D01*
X139918604Y-71421653D01*
X139874462Y-71426000D01*
X138925538Y-71426000D01*
X138881396Y-71421653D01*
X138844855Y-71410568D01*
X138811180Y-71392569D01*
X138781659Y-71368341D01*
X138757431Y-71338820D01*
X138739432Y-71305145D01*
X138728347Y-71268602D01*
X138724000Y-71224462D01*
X138724000Y-69775538D01*
X138728347Y-69731396D01*
X138739432Y-69694855D01*
X138757431Y-69661180D01*
X138781659Y-69631659D01*
X138811180Y-69607431D01*
X138844855Y-69589432D01*
X138881396Y-69578347D01*
X138925538Y-69574000D01*
X139874462Y-69574000D01*
X139918604Y-69578347D01*
X139918604Y-69578347D01*
G37*
G36*
X145268604Y-69728347D02*
X145305145Y-69739432D01*
X145338820Y-69757431D01*
X145368341Y-69781659D01*
X145392569Y-69811180D01*
X145410568Y-69844855D01*
X145421653Y-69881396D01*
X145426000Y-69925538D01*
X145426000Y-70874462D01*
X145421653Y-70918604D01*
X145410568Y-70955145D01*
X145392569Y-70988820D01*
X145368341Y-71018341D01*
X145338820Y-71042569D01*
X145305145Y-71060568D01*
X145268604Y-71071653D01*
X145224462Y-71076000D01*
X143775538Y-71076000D01*
X143731396Y-71071653D01*
X143694855Y-71060568D01*
X143661180Y-71042569D01*
X143631659Y-71018341D01*
X143607431Y-70988820D01*
X143589432Y-70955145D01*
X143578347Y-70918604D01*
X143574000Y-70874462D01*
X143574000Y-69925538D01*
X143578347Y-69881396D01*
X143589432Y-69844855D01*
X143607431Y-69811180D01*
X143631659Y-69781659D01*
X143661180Y-69757431D01*
X143694855Y-69739432D01*
X143731396Y-69728347D01*
X143775538Y-69724000D01*
X145224462Y-69724000D01*
X145268604Y-69728347D01*
X145268604Y-69728347D01*
G37*
G36*
X142768604Y-69728347D02*
X142805145Y-69739432D01*
X142838820Y-69757431D01*
X142868341Y-69781659D01*
X142892569Y-69811180D01*
X142910568Y-69844855D01*
X142921653Y-69881396D01*
X142926000Y-69925538D01*
X142926000Y-70874462D01*
X142921653Y-70918604D01*
X142910568Y-70955145D01*
X142892569Y-70988820D01*
X142868341Y-71018341D01*
X142838820Y-71042569D01*
X142805145Y-71060568D01*
X142768604Y-71071653D01*
X142724462Y-71076000D01*
X141275538Y-71076000D01*
X141231396Y-71071653D01*
X141194855Y-71060568D01*
X141161180Y-71042569D01*
X141131659Y-71018341D01*
X141107431Y-70988820D01*
X141089432Y-70955145D01*
X141078347Y-70918604D01*
X141074000Y-70874462D01*
X141074000Y-69925538D01*
X141078347Y-69881396D01*
X141089432Y-69844855D01*
X141107431Y-69811180D01*
X141131659Y-69781659D01*
X141161180Y-69757431D01*
X141194855Y-69739432D01*
X141231396Y-69728347D01*
X141275538Y-69724000D01*
X142724462Y-69724000D01*
X142768604Y-69728347D01*
X142768604Y-69728347D01*
G37*
G36*
X171408228Y-67321703D02*
X171563100Y-67385853D01*
X171702481Y-67478985D01*
X171821015Y-67597519D01*
X171914147Y-67736900D01*
X171978297Y-67891772D01*
X172011000Y-68056184D01*
X172011000Y-68223816D01*
X171978297Y-68388228D01*
X171914147Y-68543100D01*
X171821015Y-68682481D01*
X171702481Y-68801015D01*
X171563100Y-68894147D01*
X171408228Y-68958297D01*
X171243816Y-68991000D01*
X171076184Y-68991000D01*
X170911772Y-68958297D01*
X170756900Y-68894147D01*
X170617519Y-68801015D01*
X170498985Y-68682481D01*
X170405853Y-68543100D01*
X170341703Y-68388228D01*
X170309000Y-68223816D01*
X170309000Y-68056184D01*
X170341703Y-67891772D01*
X170405853Y-67736900D01*
X170498985Y-67597519D01*
X170617519Y-67478985D01*
X170756900Y-67385853D01*
X170911772Y-67321703D01*
X171076184Y-67289000D01*
X171243816Y-67289000D01*
X171408228Y-67321703D01*
X171408228Y-67321703D01*
G37*
G36*
X151088228Y-67321703D02*
X151243100Y-67385853D01*
X151382481Y-67478985D01*
X151501015Y-67597519D01*
X151594147Y-67736900D01*
X151658297Y-67891772D01*
X151691000Y-68056184D01*
X151691000Y-68223816D01*
X151658297Y-68388228D01*
X151594147Y-68543100D01*
X151501015Y-68682481D01*
X151382481Y-68801015D01*
X151243100Y-68894147D01*
X151088228Y-68958297D01*
X150923816Y-68991000D01*
X150756184Y-68991000D01*
X150591772Y-68958297D01*
X150436900Y-68894147D01*
X150297519Y-68801015D01*
X150178985Y-68682481D01*
X150085853Y-68543100D01*
X150021703Y-68388228D01*
X149989000Y-68223816D01*
X149989000Y-68056184D01*
X150021703Y-67891772D01*
X150085853Y-67736900D01*
X150178985Y-67597519D01*
X150297519Y-67478985D01*
X150436900Y-67385853D01*
X150591772Y-67321703D01*
X150756184Y-67289000D01*
X150923816Y-67289000D01*
X151088228Y-67321703D01*
X151088228Y-67321703D01*
G37*
G36*
X142768604Y-66928347D02*
X142805145Y-66939432D01*
X142838820Y-66957431D01*
X142868341Y-66981659D01*
X142892569Y-67011180D01*
X142910568Y-67044855D01*
X142921653Y-67081396D01*
X142926000Y-67125538D01*
X142926000Y-68074462D01*
X142921653Y-68118604D01*
X142910568Y-68155145D01*
X142892569Y-68188820D01*
X142868341Y-68218341D01*
X142838820Y-68242569D01*
X142805145Y-68260568D01*
X142768604Y-68271653D01*
X142724462Y-68276000D01*
X141275538Y-68276000D01*
X141231396Y-68271653D01*
X141194855Y-68260568D01*
X141161180Y-68242569D01*
X141131659Y-68218341D01*
X141107431Y-68188820D01*
X141089432Y-68155145D01*
X141078347Y-68118604D01*
X141074000Y-68074462D01*
X141074000Y-67125538D01*
X141078347Y-67081396D01*
X141089432Y-67044855D01*
X141107431Y-67011180D01*
X141131659Y-66981659D01*
X141161180Y-66957431D01*
X141194855Y-66939432D01*
X141231396Y-66928347D01*
X141275538Y-66924000D01*
X142724462Y-66924000D01*
X142768604Y-66928347D01*
X142768604Y-66928347D01*
G37*
G36*
X145268604Y-66928347D02*
X145305145Y-66939432D01*
X145338820Y-66957431D01*
X145368341Y-66981659D01*
X145392569Y-67011180D01*
X145410568Y-67044855D01*
X145421653Y-67081396D01*
X145426000Y-67125538D01*
X145426000Y-68074462D01*
X145421653Y-68118604D01*
X145410568Y-68155145D01*
X145392569Y-68188820D01*
X145368341Y-68218341D01*
X145338820Y-68242569D01*
X145305145Y-68260568D01*
X145268604Y-68271653D01*
X145224462Y-68276000D01*
X143775538Y-68276000D01*
X143731396Y-68271653D01*
X143694855Y-68260568D01*
X143661180Y-68242569D01*
X143631659Y-68218341D01*
X143607431Y-68188820D01*
X143589432Y-68155145D01*
X143578347Y-68118604D01*
X143574000Y-68074462D01*
X143574000Y-67125538D01*
X143578347Y-67081396D01*
X143589432Y-67044855D01*
X143607431Y-67011180D01*
X143631659Y-66981659D01*
X143661180Y-66957431D01*
X143694855Y-66939432D01*
X143731396Y-66928347D01*
X143775538Y-66924000D01*
X145224462Y-66924000D01*
X145268604Y-66928347D01*
X145268604Y-66928347D01*
G37*
G36*
X105375256Y-53391298D02*
X105481579Y-53412447D01*
X105782042Y-53536903D01*
X106048852Y-53715180D01*
X106052454Y-53717587D01*
X106282413Y-53947546D01*
X106463098Y-54217960D01*
X106587553Y-54518422D01*
X106651000Y-54837389D01*
X106651000Y-55162611D01*
X106587553Y-55481578D01*
X106463098Y-55782040D01*
X106282413Y-56052454D01*
X106052454Y-56282413D01*
X106052451Y-56282415D01*
X105782042Y-56463097D01*
X105481579Y-56587553D01*
X105375256Y-56608702D01*
X105162611Y-56651000D01*
X104837389Y-56651000D01*
X104624744Y-56608702D01*
X104518421Y-56587553D01*
X104217958Y-56463097D01*
X103947549Y-56282415D01*
X103947546Y-56282413D01*
X103717587Y-56052454D01*
X103536902Y-55782040D01*
X103412447Y-55481578D01*
X103349000Y-55162611D01*
X103349000Y-54837389D01*
X103412447Y-54518422D01*
X103536902Y-54217960D01*
X103717587Y-53947546D01*
X103947546Y-53717587D01*
X103951148Y-53715180D01*
X104217958Y-53536903D01*
X104518421Y-53412447D01*
X104624744Y-53391298D01*
X104837389Y-53349000D01*
X105162611Y-53349000D01*
X105375256Y-53391298D01*
X105375256Y-53391298D01*
G37*
G36*
X165375256Y-53391298D02*
X165481579Y-53412447D01*
X165782042Y-53536903D01*
X166048852Y-53715180D01*
X166052454Y-53717587D01*
X166282413Y-53947546D01*
X166463098Y-54217960D01*
X166587553Y-54518422D01*
X166651000Y-54837389D01*
X166651000Y-55162611D01*
X166587553Y-55481578D01*
X166463098Y-55782040D01*
X166282413Y-56052454D01*
X166052454Y-56282413D01*
X166052451Y-56282415D01*
X165782042Y-56463097D01*
X165481579Y-56587553D01*
X165375256Y-56608702D01*
X165162611Y-56651000D01*
X164837389Y-56651000D01*
X164624744Y-56608702D01*
X164518421Y-56587553D01*
X164217958Y-56463097D01*
X163947549Y-56282415D01*
X163947546Y-56282413D01*
X163717587Y-56052454D01*
X163536902Y-55782040D01*
X163412447Y-55481578D01*
X163349000Y-55162611D01*
X163349000Y-54837389D01*
X163412447Y-54518422D01*
X163536902Y-54217960D01*
X163717587Y-53947546D01*
X163947546Y-53717587D01*
X163951148Y-53715180D01*
X164217958Y-53536903D01*
X164518421Y-53412447D01*
X164624744Y-53391298D01*
X164837389Y-53349000D01*
X165162611Y-53349000D01*
X165375256Y-53391298D01*
X165375256Y-53391298D01*
G37*
G36*
X152709167Y-49067439D02*
X152910298Y-49128451D01*
X152956025Y-49152892D01*
X153095661Y-49227529D01*
X153258133Y-49360867D01*
X153391471Y-49523338D01*
X153473124Y-49676101D01*
X153490549Y-49708701D01*
X153551561Y-49909832D01*
X153567000Y-50066589D01*
X153567000Y-50933410D01*
X153551561Y-51090167D01*
X153490549Y-51291299D01*
X153490547Y-51291303D01*
X153391471Y-51476662D01*
X153258133Y-51639133D01*
X153095662Y-51772471D01*
X152942899Y-51854124D01*
X152910299Y-51871549D01*
X152709168Y-51932561D01*
X152500000Y-51953162D01*
X152290833Y-51932561D01*
X152089702Y-51871549D01*
X152057102Y-51854124D01*
X151904339Y-51772471D01*
X151741868Y-51639133D01*
X151608531Y-51476663D01*
X151509453Y-51291301D01*
X151509452Y-51291299D01*
X151448439Y-51090168D01*
X151433000Y-50933411D01*
X151433000Y-50066590D01*
X151448439Y-49909833D01*
X151509451Y-49708702D01*
X151533892Y-49662975D01*
X151608529Y-49523339D01*
X151741867Y-49360867D01*
X151904338Y-49227529D01*
X152057101Y-49145876D01*
X152089701Y-49128451D01*
X152290832Y-49067439D01*
X152500000Y-49046838D01*
X152709167Y-49067439D01*
X152709167Y-49067439D01*
G37*
G36*
X117709167Y-49067439D02*
X117910298Y-49128451D01*
X117956025Y-49152892D01*
X118095661Y-49227529D01*
X118258133Y-49360867D01*
X118391471Y-49523338D01*
X118473124Y-49676101D01*
X118490549Y-49708701D01*
X118551561Y-49909832D01*
X118567000Y-50066589D01*
X118567000Y-50933410D01*
X118551561Y-51090167D01*
X118490549Y-51291299D01*
X118490547Y-51291303D01*
X118391471Y-51476662D01*
X118258133Y-51639133D01*
X118095662Y-51772471D01*
X117942899Y-51854124D01*
X117910299Y-51871549D01*
X117709168Y-51932561D01*
X117500000Y-51953162D01*
X117290833Y-51932561D01*
X117089702Y-51871549D01*
X117057102Y-51854124D01*
X116904339Y-51772471D01*
X116741868Y-51639133D01*
X116608531Y-51476663D01*
X116509453Y-51291301D01*
X116509452Y-51291299D01*
X116448439Y-51090168D01*
X116433000Y-50933411D01*
X116433000Y-50066590D01*
X116448439Y-49909833D01*
X116509451Y-49708702D01*
X116533892Y-49662975D01*
X116608529Y-49523339D01*
X116741867Y-49360867D01*
X116904338Y-49227529D01*
X117057101Y-49145876D01*
X117089701Y-49128451D01*
X117290832Y-49067439D01*
X117500000Y-49046838D01*
X117709167Y-49067439D01*
X117709167Y-49067439D01*
G37*
G36*
X122709167Y-49067439D02*
X122910298Y-49128451D01*
X122956025Y-49152892D01*
X123095661Y-49227529D01*
X123258133Y-49360867D01*
X123391471Y-49523338D01*
X123473124Y-49676101D01*
X123490549Y-49708701D01*
X123551561Y-49909832D01*
X123567000Y-50066589D01*
X123567000Y-50933410D01*
X123551561Y-51090167D01*
X123490549Y-51291299D01*
X123490547Y-51291303D01*
X123391471Y-51476662D01*
X123258133Y-51639133D01*
X123095662Y-51772471D01*
X122942899Y-51854124D01*
X122910299Y-51871549D01*
X122709168Y-51932561D01*
X122500000Y-51953162D01*
X122290833Y-51932561D01*
X122089702Y-51871549D01*
X122057102Y-51854124D01*
X121904339Y-51772471D01*
X121741868Y-51639133D01*
X121608531Y-51476663D01*
X121509453Y-51291301D01*
X121509452Y-51291299D01*
X121448439Y-51090168D01*
X121433000Y-50933411D01*
X121433000Y-50066590D01*
X121448439Y-49909833D01*
X121509451Y-49708702D01*
X121533892Y-49662975D01*
X121608529Y-49523339D01*
X121741867Y-49360867D01*
X121904338Y-49227529D01*
X122057101Y-49145876D01*
X122089701Y-49128451D01*
X122290832Y-49067439D01*
X122500000Y-49046838D01*
X122709167Y-49067439D01*
X122709167Y-49067439D01*
G37*
G36*
X127709167Y-49067439D02*
X127910298Y-49128451D01*
X127956025Y-49152892D01*
X128095661Y-49227529D01*
X128258133Y-49360867D01*
X128391471Y-49523338D01*
X128473124Y-49676101D01*
X128490549Y-49708701D01*
X128551561Y-49909832D01*
X128567000Y-50066589D01*
X128567000Y-50933410D01*
X128551561Y-51090167D01*
X128490549Y-51291299D01*
X128490547Y-51291303D01*
X128391471Y-51476662D01*
X128258133Y-51639133D01*
X128095662Y-51772471D01*
X127942899Y-51854124D01*
X127910299Y-51871549D01*
X127709168Y-51932561D01*
X127500000Y-51953162D01*
X127290833Y-51932561D01*
X127089702Y-51871549D01*
X127057102Y-51854124D01*
X126904339Y-51772471D01*
X126741868Y-51639133D01*
X126608531Y-51476663D01*
X126509453Y-51291301D01*
X126509452Y-51291299D01*
X126448439Y-51090168D01*
X126433000Y-50933411D01*
X126433000Y-50066590D01*
X126448439Y-49909833D01*
X126509451Y-49708702D01*
X126533892Y-49662975D01*
X126608529Y-49523339D01*
X126741867Y-49360867D01*
X126904338Y-49227529D01*
X127057101Y-49145876D01*
X127089701Y-49128451D01*
X127290832Y-49067439D01*
X127500000Y-49046838D01*
X127709167Y-49067439D01*
X127709167Y-49067439D01*
G37*
G36*
X132709167Y-49067439D02*
X132910298Y-49128451D01*
X132956025Y-49152892D01*
X133095661Y-49227529D01*
X133258133Y-49360867D01*
X133391471Y-49523338D01*
X133473124Y-49676101D01*
X133490549Y-49708701D01*
X133551561Y-49909832D01*
X133567000Y-50066589D01*
X133567000Y-50933410D01*
X133551561Y-51090167D01*
X133490549Y-51291299D01*
X133490547Y-51291303D01*
X133391471Y-51476662D01*
X133258133Y-51639133D01*
X133095662Y-51772471D01*
X132942899Y-51854124D01*
X132910299Y-51871549D01*
X132709168Y-51932561D01*
X132500000Y-51953162D01*
X132290833Y-51932561D01*
X132089702Y-51871549D01*
X132057102Y-51854124D01*
X131904339Y-51772471D01*
X131741868Y-51639133D01*
X131608531Y-51476663D01*
X131509453Y-51291301D01*
X131509452Y-51291299D01*
X131448439Y-51090168D01*
X131433000Y-50933411D01*
X131433000Y-50066590D01*
X131448439Y-49909833D01*
X131509451Y-49708702D01*
X131533892Y-49662975D01*
X131608529Y-49523339D01*
X131741867Y-49360867D01*
X131904338Y-49227529D01*
X132057101Y-49145876D01*
X132089701Y-49128451D01*
X132290832Y-49067439D01*
X132500000Y-49046838D01*
X132709167Y-49067439D01*
X132709167Y-49067439D01*
G37*
G36*
X137709167Y-49067439D02*
X137910298Y-49128451D01*
X137956025Y-49152892D01*
X138095661Y-49227529D01*
X138258133Y-49360867D01*
X138391471Y-49523338D01*
X138473124Y-49676101D01*
X138490549Y-49708701D01*
X138551561Y-49909832D01*
X138567000Y-50066589D01*
X138567000Y-50933410D01*
X138551561Y-51090167D01*
X138490549Y-51291299D01*
X138490547Y-51291303D01*
X138391471Y-51476662D01*
X138258133Y-51639133D01*
X138095662Y-51772471D01*
X137942899Y-51854124D01*
X137910299Y-51871549D01*
X137709168Y-51932561D01*
X137500000Y-51953162D01*
X137290833Y-51932561D01*
X137089702Y-51871549D01*
X137057102Y-51854124D01*
X136904339Y-51772471D01*
X136741868Y-51639133D01*
X136608531Y-51476663D01*
X136509453Y-51291301D01*
X136509452Y-51291299D01*
X136448439Y-51090168D01*
X136433000Y-50933411D01*
X136433000Y-50066590D01*
X136448439Y-49909833D01*
X136509451Y-49708702D01*
X136533892Y-49662975D01*
X136608529Y-49523339D01*
X136741867Y-49360867D01*
X136904338Y-49227529D01*
X137057101Y-49145876D01*
X137089701Y-49128451D01*
X137290832Y-49067439D01*
X137500000Y-49046838D01*
X137709167Y-49067439D01*
X137709167Y-49067439D01*
G37*
G36*
X142709167Y-49067439D02*
X142910298Y-49128451D01*
X142956025Y-49152892D01*
X143095661Y-49227529D01*
X143258133Y-49360867D01*
X143391471Y-49523338D01*
X143473124Y-49676101D01*
X143490549Y-49708701D01*
X143551561Y-49909832D01*
X143567000Y-50066589D01*
X143567000Y-50933410D01*
X143551561Y-51090167D01*
X143490549Y-51291299D01*
X143490547Y-51291303D01*
X143391471Y-51476662D01*
X143258133Y-51639133D01*
X143095662Y-51772471D01*
X142942899Y-51854124D01*
X142910299Y-51871549D01*
X142709168Y-51932561D01*
X142500000Y-51953162D01*
X142290833Y-51932561D01*
X142089702Y-51871549D01*
X142057102Y-51854124D01*
X141904339Y-51772471D01*
X141741868Y-51639133D01*
X141608531Y-51476663D01*
X141509453Y-51291301D01*
X141509452Y-51291299D01*
X141448439Y-51090168D01*
X141433000Y-50933411D01*
X141433000Y-50066590D01*
X141448439Y-49909833D01*
X141509451Y-49708702D01*
X141533892Y-49662975D01*
X141608529Y-49523339D01*
X141741867Y-49360867D01*
X141904338Y-49227529D01*
X142057101Y-49145876D01*
X142089701Y-49128451D01*
X142290832Y-49067439D01*
X142500000Y-49046838D01*
X142709167Y-49067439D01*
X142709167Y-49067439D01*
G37*
G36*
X147709167Y-49067439D02*
X147910298Y-49128451D01*
X147956025Y-49152892D01*
X148095661Y-49227529D01*
X148258133Y-49360867D01*
X148391471Y-49523338D01*
X148473124Y-49676101D01*
X148490549Y-49708701D01*
X148551561Y-49909832D01*
X148567000Y-50066589D01*
X148567000Y-50933410D01*
X148551561Y-51090167D01*
X148490549Y-51291299D01*
X148490547Y-51291303D01*
X148391471Y-51476662D01*
X148258133Y-51639133D01*
X148095662Y-51772471D01*
X147942899Y-51854124D01*
X147910299Y-51871549D01*
X147709168Y-51932561D01*
X147500000Y-51953162D01*
X147290833Y-51932561D01*
X147089702Y-51871549D01*
X147057102Y-51854124D01*
X146904339Y-51772471D01*
X146741868Y-51639133D01*
X146608531Y-51476663D01*
X146509453Y-51291301D01*
X146509452Y-51291299D01*
X146448439Y-51090168D01*
X146433000Y-50933411D01*
X146433000Y-50066590D01*
X146448439Y-49909833D01*
X146509451Y-49708702D01*
X146533892Y-49662975D01*
X146608529Y-49523339D01*
X146741867Y-49360867D01*
X146904338Y-49227529D01*
X147057101Y-49145876D01*
X147089701Y-49128451D01*
X147290832Y-49067439D01*
X147500000Y-49046838D01*
X147709167Y-49067439D01*
X147709167Y-49067439D01*
G37*
G36*
X157709167Y-49067439D02*
X157910298Y-49128451D01*
X157956025Y-49152892D01*
X158095661Y-49227529D01*
X158258133Y-49360867D01*
X158391471Y-49523338D01*
X158473124Y-49676101D01*
X158490549Y-49708701D01*
X158551561Y-49909832D01*
X158567000Y-50066589D01*
X158567000Y-50933410D01*
X158551561Y-51090167D01*
X158490549Y-51291299D01*
X158490547Y-51291303D01*
X158391471Y-51476662D01*
X158258133Y-51639133D01*
X158095662Y-51772471D01*
X157942899Y-51854124D01*
X157910299Y-51871549D01*
X157709168Y-51932561D01*
X157500000Y-51953162D01*
X157290833Y-51932561D01*
X157089702Y-51871549D01*
X157057102Y-51854124D01*
X156904339Y-51772471D01*
X156741868Y-51639133D01*
X156608531Y-51476663D01*
X156509453Y-51291301D01*
X156509452Y-51291299D01*
X156448439Y-51090168D01*
X156433000Y-50933411D01*
X156433000Y-50066590D01*
X156448439Y-49909833D01*
X156509451Y-49708702D01*
X156533892Y-49662975D01*
X156608529Y-49523339D01*
X156741867Y-49360867D01*
X156904338Y-49227529D01*
X157057101Y-49145876D01*
X157089701Y-49128451D01*
X157290832Y-49067439D01*
X157500000Y-49046838D01*
X157709167Y-49067439D01*
X157709167Y-49067439D01*
G37*
G36*
X113567000Y-51948000D02*
X111433000Y-51948000D01*
X111433000Y-49052000D01*
X113567000Y-49052000D01*
X113567000Y-51948000D01*
X113567000Y-51948000D01*
G37*
M02*
