G04 #@! TF.GenerationSoftware,KiCad,Pcbnew,(5.0.1)-4*
G04 #@! TF.CreationDate,2020-08-30T22:44:21+08:00*
G04 #@! TF.ProjectId,remote-monitor,72656D6F74652D6D6F6E69746F722E6B,rev?*
G04 #@! TF.SameCoordinates,Original*
G04 #@! TF.FileFunction,Legend,Bot*
G04 #@! TF.FilePolarity,Positive*
%FSLAX46Y46*%
G04 Gerber Fmt 4.6, Leading zero omitted, Abs format (unit mm)*
G04 Created by KiCad (PCBNEW (5.0.1)-4) date 30/08/2020 10:44:21 PM*
%MOMM*%
%LPD*%
G01*
G04 APERTURE LIST*
%ADD10C,0.300000*%
G04 APERTURE END LIST*
D10*
X99909285Y-107371428D02*
X99409285Y-108085714D01*
X99052142Y-107371428D02*
X99052142Y-108871428D01*
X99623571Y-108871428D01*
X99766428Y-108800000D01*
X99837857Y-108728571D01*
X99909285Y-108585714D01*
X99909285Y-108371428D01*
X99837857Y-108228571D01*
X99766428Y-108157142D01*
X99623571Y-108085714D01*
X99052142Y-108085714D01*
X101123571Y-107442857D02*
X100980714Y-107371428D01*
X100695000Y-107371428D01*
X100552142Y-107442857D01*
X100480714Y-107585714D01*
X100480714Y-108157142D01*
X100552142Y-108300000D01*
X100695000Y-108371428D01*
X100980714Y-108371428D01*
X101123571Y-108300000D01*
X101195000Y-108157142D01*
X101195000Y-108014285D01*
X100480714Y-107871428D01*
X101837857Y-107371428D02*
X101837857Y-108371428D01*
X101837857Y-108228571D02*
X101909285Y-108300000D01*
X102052142Y-108371428D01*
X102266428Y-108371428D01*
X102409285Y-108300000D01*
X102480714Y-108157142D01*
X102480714Y-107371428D01*
X102480714Y-108157142D02*
X102552142Y-108300000D01*
X102695000Y-108371428D01*
X102909285Y-108371428D01*
X103052142Y-108300000D01*
X103123571Y-108157142D01*
X103123571Y-107371428D01*
X104052142Y-107371428D02*
X103909285Y-107442857D01*
X103837857Y-107514285D01*
X103766428Y-107657142D01*
X103766428Y-108085714D01*
X103837857Y-108228571D01*
X103909285Y-108300000D01*
X104052142Y-108371428D01*
X104266428Y-108371428D01*
X104409285Y-108300000D01*
X104480714Y-108228571D01*
X104552142Y-108085714D01*
X104552142Y-107657142D01*
X104480714Y-107514285D01*
X104409285Y-107442857D01*
X104266428Y-107371428D01*
X104052142Y-107371428D01*
X104980714Y-108371428D02*
X105552142Y-108371428D01*
X105195000Y-108871428D02*
X105195000Y-107585714D01*
X105266428Y-107442857D01*
X105409285Y-107371428D01*
X105552142Y-107371428D01*
X106623571Y-107442857D02*
X106480714Y-107371428D01*
X106195000Y-107371428D01*
X106052142Y-107442857D01*
X105980714Y-107585714D01*
X105980714Y-108157142D01*
X106052142Y-108300000D01*
X106195000Y-108371428D01*
X106480714Y-108371428D01*
X106623571Y-108300000D01*
X106695000Y-108157142D01*
X106695000Y-108014285D01*
X105980714Y-107871428D01*
X108480714Y-107371428D02*
X108480714Y-108871428D01*
X108980714Y-107800000D01*
X109480714Y-108871428D01*
X109480714Y-107371428D01*
X110409285Y-107371428D02*
X110266428Y-107442857D01*
X110195000Y-107514285D01*
X110123571Y-107657142D01*
X110123571Y-108085714D01*
X110195000Y-108228571D01*
X110266428Y-108300000D01*
X110409285Y-108371428D01*
X110623571Y-108371428D01*
X110766428Y-108300000D01*
X110837857Y-108228571D01*
X110909285Y-108085714D01*
X110909285Y-107657142D01*
X110837857Y-107514285D01*
X110766428Y-107442857D01*
X110623571Y-107371428D01*
X110409285Y-107371428D01*
X111552142Y-108371428D02*
X111552142Y-107371428D01*
X111552142Y-108228571D02*
X111623571Y-108300000D01*
X111766428Y-108371428D01*
X111980714Y-108371428D01*
X112123571Y-108300000D01*
X112195000Y-108157142D01*
X112195000Y-107371428D01*
X112909285Y-107371428D02*
X112909285Y-108371428D01*
X112909285Y-108871428D02*
X112837857Y-108800000D01*
X112909285Y-108728571D01*
X112980714Y-108800000D01*
X112909285Y-108871428D01*
X112909285Y-108728571D01*
X113409285Y-108371428D02*
X113980714Y-108371428D01*
X113623571Y-108871428D02*
X113623571Y-107585714D01*
X113695000Y-107442857D01*
X113837857Y-107371428D01*
X113980714Y-107371428D01*
X114695000Y-107371428D02*
X114552142Y-107442857D01*
X114480714Y-107514285D01*
X114409285Y-107657142D01*
X114409285Y-108085714D01*
X114480714Y-108228571D01*
X114552142Y-108300000D01*
X114695000Y-108371428D01*
X114909285Y-108371428D01*
X115052142Y-108300000D01*
X115123571Y-108228571D01*
X115195000Y-108085714D01*
X115195000Y-107657142D01*
X115123571Y-107514285D01*
X115052142Y-107442857D01*
X114909285Y-107371428D01*
X114695000Y-107371428D01*
X115837857Y-107371428D02*
X115837857Y-108371428D01*
X115837857Y-108085714D02*
X115909285Y-108228571D01*
X115980714Y-108300000D01*
X116123571Y-108371428D01*
X116266428Y-108371428D01*
X117909285Y-107371428D02*
X117909285Y-108871428D01*
X118409285Y-107800000D01*
X118909285Y-108871428D01*
X118909285Y-107371428D01*
X120266428Y-107371428D02*
X120266428Y-108157142D01*
X120195000Y-108300000D01*
X120052142Y-108371428D01*
X119766428Y-108371428D01*
X119623571Y-108300000D01*
X120266428Y-107442857D02*
X120123571Y-107371428D01*
X119766428Y-107371428D01*
X119623571Y-107442857D01*
X119552142Y-107585714D01*
X119552142Y-107728571D01*
X119623571Y-107871428D01*
X119766428Y-107942857D01*
X120123571Y-107942857D01*
X120266428Y-108014285D01*
X120980714Y-107371428D02*
X120980714Y-108371428D01*
X120980714Y-108871428D02*
X120909285Y-108800000D01*
X120980714Y-108728571D01*
X121052142Y-108800000D01*
X120980714Y-108871428D01*
X120980714Y-108728571D01*
X121695000Y-108371428D02*
X121695000Y-107371428D01*
X121695000Y-108228571D02*
X121766428Y-108300000D01*
X121909285Y-108371428D01*
X122123571Y-108371428D01*
X122266428Y-108300000D01*
X122337857Y-108157142D01*
X122337857Y-107371428D01*
X124695000Y-108157142D02*
X124909285Y-108085714D01*
X124980714Y-108014285D01*
X125052142Y-107871428D01*
X125052142Y-107657142D01*
X124980714Y-107514285D01*
X124909285Y-107442857D01*
X124766428Y-107371428D01*
X124195000Y-107371428D01*
X124195000Y-108871428D01*
X124695000Y-108871428D01*
X124837857Y-108800000D01*
X124909285Y-108728571D01*
X124980714Y-108585714D01*
X124980714Y-108442857D01*
X124909285Y-108300000D01*
X124837857Y-108228571D01*
X124695000Y-108157142D01*
X124195000Y-108157142D01*
X125909285Y-107371428D02*
X125766428Y-107442857D01*
X125695000Y-107514285D01*
X125623571Y-107657142D01*
X125623571Y-108085714D01*
X125695000Y-108228571D01*
X125766428Y-108300000D01*
X125909285Y-108371428D01*
X126123571Y-108371428D01*
X126266428Y-108300000D01*
X126337857Y-108228571D01*
X126409285Y-108085714D01*
X126409285Y-107657142D01*
X126337857Y-107514285D01*
X126266428Y-107442857D01*
X126123571Y-107371428D01*
X125909285Y-107371428D01*
X127695000Y-107371428D02*
X127695000Y-108157142D01*
X127623571Y-108300000D01*
X127480714Y-108371428D01*
X127195000Y-108371428D01*
X127052142Y-108300000D01*
X127695000Y-107442857D02*
X127552142Y-107371428D01*
X127195000Y-107371428D01*
X127052142Y-107442857D01*
X126980714Y-107585714D01*
X126980714Y-107728571D01*
X127052142Y-107871428D01*
X127195000Y-107942857D01*
X127552142Y-107942857D01*
X127695000Y-108014285D01*
X128409285Y-107371428D02*
X128409285Y-108371428D01*
X128409285Y-108085714D02*
X128480714Y-108228571D01*
X128552142Y-108300000D01*
X128695000Y-108371428D01*
X128837857Y-108371428D01*
X129980714Y-107371428D02*
X129980714Y-108871428D01*
X129980714Y-107442857D02*
X129837857Y-107371428D01*
X129552142Y-107371428D01*
X129409285Y-107442857D01*
X129337857Y-107514285D01*
X129266428Y-107657142D01*
X129266428Y-108085714D01*
X129337857Y-108228571D01*
X129409285Y-108300000D01*
X129552142Y-108371428D01*
X129837857Y-108371428D01*
X129980714Y-108300000D01*
X132695000Y-107371428D02*
X132195000Y-108085714D01*
X131837857Y-107371428D02*
X131837857Y-108871428D01*
X132409285Y-108871428D01*
X132552142Y-108800000D01*
X132623571Y-108728571D01*
X132695000Y-108585714D01*
X132695000Y-108371428D01*
X132623571Y-108228571D01*
X132552142Y-108157142D01*
X132409285Y-108085714D01*
X131837857Y-108085714D01*
X133909285Y-107442857D02*
X133766428Y-107371428D01*
X133480714Y-107371428D01*
X133337857Y-107442857D01*
X133266428Y-107585714D01*
X133266428Y-108157142D01*
X133337857Y-108300000D01*
X133480714Y-108371428D01*
X133766428Y-108371428D01*
X133909285Y-108300000D01*
X133980714Y-108157142D01*
X133980714Y-108014285D01*
X133266428Y-107871428D01*
X134480714Y-108371428D02*
X134837857Y-107371428D01*
X135195000Y-108371428D01*
X135766428Y-107514285D02*
X135837857Y-107442857D01*
X135766428Y-107371428D01*
X135695000Y-107442857D01*
X135766428Y-107514285D01*
X135766428Y-107371428D01*
X137909285Y-108871428D02*
X138052142Y-108871428D01*
X138195000Y-108800000D01*
X138266428Y-108728571D01*
X138337857Y-108585714D01*
X138409285Y-108300000D01*
X138409285Y-107942857D01*
X138337857Y-107657142D01*
X138266428Y-107514285D01*
X138195000Y-107442857D01*
X138052142Y-107371428D01*
X137909285Y-107371428D01*
X137766428Y-107442857D01*
X137695000Y-107514285D01*
X137623571Y-107657142D01*
X137552142Y-107942857D01*
X137552142Y-108300000D01*
X137623571Y-108585714D01*
X137695000Y-108728571D01*
X137766428Y-108800000D01*
X137909285Y-108871428D01*
X99052142Y-105607142D02*
X99552142Y-105607142D01*
X99766428Y-104821428D02*
X99052142Y-104821428D01*
X99052142Y-106321428D01*
X99766428Y-106321428D01*
X100409285Y-104821428D02*
X100409285Y-105821428D01*
X100409285Y-105535714D02*
X100480714Y-105678571D01*
X100552142Y-105750000D01*
X100695000Y-105821428D01*
X100837857Y-105821428D01*
X101337857Y-104821428D02*
X101337857Y-105821428D01*
X101337857Y-106321428D02*
X101266428Y-106250000D01*
X101337857Y-106178571D01*
X101409285Y-106250000D01*
X101337857Y-106321428D01*
X101337857Y-106178571D01*
X102052142Y-104821428D02*
X102052142Y-106321428D01*
X102195000Y-105392857D02*
X102623571Y-104821428D01*
X102623571Y-105821428D02*
X102052142Y-105250000D01*
X104337857Y-104892857D02*
X104552142Y-104821428D01*
X104909285Y-104821428D01*
X105052142Y-104892857D01*
X105123571Y-104964285D01*
X105195000Y-105107142D01*
X105195000Y-105250000D01*
X105123571Y-105392857D01*
X105052142Y-105464285D01*
X104909285Y-105535714D01*
X104623571Y-105607142D01*
X104480714Y-105678571D01*
X104409285Y-105750000D01*
X104337857Y-105892857D01*
X104337857Y-106035714D01*
X104409285Y-106178571D01*
X104480714Y-106250000D01*
X104623571Y-106321428D01*
X104980714Y-106321428D01*
X105195000Y-106250000D01*
X105623571Y-105821428D02*
X106195000Y-105821428D01*
X105837857Y-106321428D02*
X105837857Y-105035714D01*
X105909285Y-104892857D01*
X106052142Y-104821428D01*
X106195000Y-104821428D01*
X107266428Y-104892857D02*
X107123571Y-104821428D01*
X106837857Y-104821428D01*
X106695000Y-104892857D01*
X106623571Y-105035714D01*
X106623571Y-105607142D01*
X106695000Y-105750000D01*
X106837857Y-105821428D01*
X107123571Y-105821428D01*
X107266428Y-105750000D01*
X107337857Y-105607142D01*
X107337857Y-105464285D01*
X106623571Y-105321428D01*
X107766428Y-105821428D02*
X108337857Y-105821428D01*
X107980714Y-104821428D02*
X107980714Y-106107142D01*
X108052142Y-106250000D01*
X108195000Y-106321428D01*
X108337857Y-106321428D01*
X109480714Y-104821428D02*
X109480714Y-105607142D01*
X109409285Y-105750000D01*
X109266428Y-105821428D01*
X108980714Y-105821428D01*
X108837857Y-105750000D01*
X109480714Y-104892857D02*
X109337857Y-104821428D01*
X108980714Y-104821428D01*
X108837857Y-104892857D01*
X108766428Y-105035714D01*
X108766428Y-105178571D01*
X108837857Y-105321428D01*
X108980714Y-105392857D01*
X109337857Y-105392857D01*
X109480714Y-105464285D01*
X110195000Y-105821428D02*
X110195000Y-104821428D01*
X110195000Y-105678571D02*
X110266428Y-105750000D01*
X110409285Y-105821428D01*
X110623571Y-105821428D01*
X110766428Y-105750000D01*
X110837857Y-105607142D01*
X110837857Y-104821428D01*
X112623571Y-106178571D02*
X112695000Y-106250000D01*
X112837857Y-106321428D01*
X113195000Y-106321428D01*
X113337857Y-106250000D01*
X113409285Y-106178571D01*
X113480714Y-106035714D01*
X113480714Y-105892857D01*
X113409285Y-105678571D01*
X112552142Y-104821428D01*
X113480714Y-104821428D01*
X114409285Y-106321428D02*
X114552142Y-106321428D01*
X114695000Y-106250000D01*
X114766428Y-106178571D01*
X114837857Y-106035714D01*
X114909285Y-105750000D01*
X114909285Y-105392857D01*
X114837857Y-105107142D01*
X114766428Y-104964285D01*
X114695000Y-104892857D01*
X114552142Y-104821428D01*
X114409285Y-104821428D01*
X114266428Y-104892857D01*
X114195000Y-104964285D01*
X114123571Y-105107142D01*
X114052142Y-105392857D01*
X114052142Y-105750000D01*
X114123571Y-106035714D01*
X114195000Y-106178571D01*
X114266428Y-106250000D01*
X114409285Y-106321428D01*
X115480714Y-106178571D02*
X115552142Y-106250000D01*
X115695000Y-106321428D01*
X116052142Y-106321428D01*
X116195000Y-106250000D01*
X116266428Y-106178571D01*
X116337857Y-106035714D01*
X116337857Y-105892857D01*
X116266428Y-105678571D01*
X115409285Y-104821428D01*
X116337857Y-104821428D01*
X117266428Y-106321428D02*
X117409285Y-106321428D01*
X117552142Y-106250000D01*
X117623571Y-106178571D01*
X117695000Y-106035714D01*
X117766428Y-105750000D01*
X117766428Y-105392857D01*
X117695000Y-105107142D01*
X117623571Y-104964285D01*
X117552142Y-104892857D01*
X117409285Y-104821428D01*
X117266428Y-104821428D01*
X117123571Y-104892857D01*
X117052142Y-104964285D01*
X116980714Y-105107142D01*
X116909285Y-105392857D01*
X116909285Y-105750000D01*
X116980714Y-106035714D01*
X117052142Y-106178571D01*
X117123571Y-106250000D01*
X117266428Y-106321428D01*
X99909285Y-102414285D02*
X99837857Y-102342857D01*
X99623571Y-102271428D01*
X99480714Y-102271428D01*
X99266428Y-102342857D01*
X99123571Y-102485714D01*
X99052142Y-102628571D01*
X98980714Y-102914285D01*
X98980714Y-103128571D01*
X99052142Y-103414285D01*
X99123571Y-103557142D01*
X99266428Y-103700000D01*
X99480714Y-103771428D01*
X99623571Y-103771428D01*
X99837857Y-103700000D01*
X99909285Y-103628571D01*
X101409285Y-102414285D02*
X101337857Y-102342857D01*
X101123571Y-102271428D01*
X100980714Y-102271428D01*
X100766428Y-102342857D01*
X100623571Y-102485714D01*
X100552142Y-102628571D01*
X100480714Y-102914285D01*
X100480714Y-103128571D01*
X100552142Y-103414285D01*
X100623571Y-103557142D01*
X100766428Y-103700000D01*
X100980714Y-103771428D01*
X101123571Y-103771428D01*
X101337857Y-103700000D01*
X101409285Y-103628571D01*
X103694999Y-103057142D02*
X103909285Y-102985714D01*
X103980714Y-102914285D01*
X104052142Y-102771428D01*
X104052142Y-102557142D01*
X103980714Y-102414285D01*
X103909285Y-102342857D01*
X103766428Y-102271428D01*
X103194999Y-102271428D01*
X103194999Y-103771428D01*
X103694999Y-103771428D01*
X103837857Y-103700000D01*
X103909285Y-103628571D01*
X103980714Y-103485714D01*
X103980714Y-103342857D01*
X103909285Y-103200000D01*
X103837857Y-103128571D01*
X103694999Y-103057142D01*
X103194999Y-103057142D01*
X104980714Y-102985714D02*
X104980714Y-102271428D01*
X104480714Y-103771428D02*
X104980714Y-102985714D01*
X105480714Y-103771428D01*
X105980714Y-102842857D02*
X107123571Y-102842857D01*
X107837857Y-102271428D02*
X107837857Y-103771428D01*
X108694999Y-102271428D01*
X108694999Y-103771428D01*
X110266428Y-102414285D02*
X110194999Y-102342857D01*
X109980714Y-102271428D01*
X109837857Y-102271428D01*
X109623571Y-102342857D01*
X109480714Y-102485714D01*
X109409285Y-102628571D01*
X109337857Y-102914285D01*
X109337857Y-103128571D01*
X109409285Y-103414285D01*
X109480714Y-103557142D01*
X109623571Y-103700000D01*
X109837857Y-103771428D01*
X109980714Y-103771428D01*
X110194999Y-103700000D01*
X110266428Y-103628571D01*
X111909285Y-103771428D02*
X112837857Y-103771428D01*
X112337857Y-103200000D01*
X112552142Y-103200000D01*
X112694999Y-103128571D01*
X112766428Y-103057142D01*
X112837857Y-102914285D01*
X112837857Y-102557142D01*
X112766428Y-102414285D01*
X112694999Y-102342857D01*
X112552142Y-102271428D01*
X112123571Y-102271428D01*
X111980714Y-102342857D01*
X111909285Y-102414285D01*
X113480714Y-102414285D02*
X113552142Y-102342857D01*
X113480714Y-102271428D01*
X113409285Y-102342857D01*
X113480714Y-102414285D01*
X113480714Y-102271428D01*
X114480714Y-103771428D02*
X114623571Y-103771428D01*
X114766428Y-103700000D01*
X114837857Y-103628571D01*
X114909285Y-103485714D01*
X114980714Y-103200000D01*
X114980714Y-102842857D01*
X114909285Y-102557142D01*
X114837857Y-102414285D01*
X114766428Y-102342857D01*
X114623571Y-102271428D01*
X114480714Y-102271428D01*
X114337857Y-102342857D01*
X114266428Y-102414285D01*
X114194999Y-102557142D01*
X114123571Y-102842857D01*
X114123571Y-103200000D01*
X114194999Y-103485714D01*
X114266428Y-103628571D01*
X114337857Y-103700000D01*
X114480714Y-103771428D01*
X116694999Y-102700000D02*
X117409285Y-102700000D01*
X116552142Y-102271428D02*
X117052142Y-103771428D01*
X117552142Y-102271428D01*
X118052142Y-103771428D02*
X118052142Y-102557142D01*
X118123571Y-102414285D01*
X118194999Y-102342857D01*
X118337857Y-102271428D01*
X118623571Y-102271428D01*
X118766428Y-102342857D01*
X118837857Y-102414285D01*
X118909285Y-102557142D01*
X118909285Y-103771428D01*
M02*
