G04 #@! TF.GenerationSoftware,KiCad,Pcbnew,(5.0.1)-4*
G04 #@! TF.CreationDate,2020-08-29T23:34:48+08:00*
G04 #@! TF.ProjectId,remote-monitor,72656D6F74652D6D6F6E69746F722E6B,rev?*
G04 #@! TF.SameCoordinates,Original*
G04 #@! TF.FileFunction,Copper,L1,Top,Signal*
G04 #@! TF.FilePolarity,Positive*
%FSLAX46Y46*%
G04 Gerber Fmt 4.6, Leading zero omitted, Abs format (unit mm)*
G04 Created by KiCad (PCBNEW (5.0.1)-4) date 29/08/2020 11:34:48 PM*
%MOMM*%
%LPD*%
G01*
G04 APERTURE LIST*
G04 #@! TA.AperFunction,ComponentPad*
%ADD10R,2.032000X2.794000*%
G04 #@! TD*
G04 #@! TA.AperFunction,ComponentPad*
%ADD11O,2.032000X2.794000*%
G04 #@! TD*
G04 #@! TA.AperFunction,ComponentPad*
%ADD12C,1.600000*%
G04 #@! TD*
G04 #@! TA.AperFunction,ComponentPad*
%ADD13R,1.600000X1.600000*%
G04 #@! TD*
G04 #@! TA.AperFunction,SMDPad,CuDef*
%ADD14R,3.000000X1.600000*%
G04 #@! TD*
G04 #@! TA.AperFunction,Conductor*
%ADD15C,0.100000*%
G04 #@! TD*
G04 #@! TA.AperFunction,SMDPad,CuDef*
%ADD16C,1.250000*%
G04 #@! TD*
G04 #@! TA.AperFunction,SMDPad,CuDef*
%ADD17R,1.800000X2.500000*%
G04 #@! TD*
G04 #@! TA.AperFunction,SMDPad,CuDef*
%ADD18R,0.800000X0.900000*%
G04 #@! TD*
G04 #@! TA.AperFunction,ComponentPad*
%ADD19R,1.300000X1.300000*%
G04 #@! TD*
G04 #@! TA.AperFunction,ComponentPad*
%ADD20C,1.300000*%
G04 #@! TD*
G04 #@! TA.AperFunction,ComponentPad*
%ADD21O,1.900000X2.900000*%
G04 #@! TD*
G04 #@! TA.AperFunction,ComponentPad*
%ADD22O,2.900000X1.900000*%
G04 #@! TD*
G04 #@! TA.AperFunction,ComponentPad*
%ADD23R,1.800000X1.800000*%
G04 #@! TD*
G04 #@! TA.AperFunction,ComponentPad*
%ADD24C,1.800000*%
G04 #@! TD*
G04 #@! TA.AperFunction,SMDPad,CuDef*
%ADD25C,1.125000*%
G04 #@! TD*
G04 #@! TA.AperFunction,ViaPad*
%ADD26C,1.270000*%
G04 #@! TD*
G04 #@! TA.AperFunction,Conductor*
%ADD27C,0.635000*%
G04 #@! TD*
G04 #@! TA.AperFunction,Conductor*
%ADD28C,0.381000*%
G04 #@! TD*
G04 #@! TA.AperFunction,Conductor*
%ADD29C,1.016000*%
G04 #@! TD*
G04 #@! TA.AperFunction,Conductor*
%ADD30C,0.254000*%
G04 #@! TD*
G04 APERTURE END LIST*
D10*
G04 #@! TO.P,J1,1*
G04 #@! TO.N,Net-(F1-Pad2)*
X112500000Y-50500000D03*
D11*
G04 #@! TO.P,J1,2*
X117500000Y-50500000D03*
G04 #@! TO.P,J1,3*
X122500000Y-50500000D03*
G04 #@! TO.P,J1,4*
G04 #@! TO.N,GND*
X127500000Y-50500000D03*
G04 #@! TO.P,J1,5*
X132500000Y-50500000D03*
G04 #@! TO.P,J1,6*
X137500000Y-50500000D03*
G04 #@! TO.P,J1,7*
G04 #@! TO.N,Net-(J1-Pad7)*
X142500000Y-50500000D03*
G04 #@! TO.P,J1,8*
G04 #@! TO.N,Net-(J1-Pad8)*
X147500000Y-50500000D03*
G04 #@! TO.P,J1,9*
G04 #@! TO.N,Net-(J1-Pad9)*
X152500000Y-50500000D03*
G04 #@! TO.P,J1,10*
G04 #@! TO.N,/Radio_VOX*
X157500000Y-50500000D03*
G04 #@! TD*
D12*
G04 #@! TO.P,A1,28*
G04 #@! TO.N,+5V*
X150840000Y-101160000D03*
G04 #@! TO.P,A1,27*
G04 #@! TO.N,Net-(A1-Pad27)*
X150840000Y-98620000D03*
G04 #@! TO.P,A1,26*
G04 #@! TO.N,+3V3*
X150840000Y-96080000D03*
G04 #@! TO.P,A1,25*
G04 #@! TO.N,GND*
X150840000Y-93540000D03*
G04 #@! TO.P,A1,24*
G04 #@! TO.N,Net-(A1-Pad24)*
X150840000Y-91000000D03*
G04 #@! TO.P,A1,23*
G04 #@! TO.N,Net-(A1-Pad23)*
X150840000Y-88460000D03*
G04 #@! TO.P,A1,22*
G04 #@! TO.N,Net-(A1-Pad22)*
X150840000Y-85920000D03*
G04 #@! TO.P,A1,21*
G04 #@! TO.N,Net-(A1-Pad21)*
X150840000Y-83380000D03*
G04 #@! TO.P,A1,20*
G04 #@! TO.N,Net-(A1-Pad20)*
X150840000Y-80840000D03*
G04 #@! TO.P,A1,19*
G04 #@! TO.N,Net-(A1-Pad19)*
X150840000Y-78300000D03*
G04 #@! TO.P,A1,18*
G04 #@! TO.N,Net-(A1-Pad18)*
X150840000Y-75760000D03*
G04 #@! TO.P,A1,17*
G04 #@! TO.N,Net-(A1-Pad17)*
X150840000Y-73220000D03*
G04 #@! TO.P,A1,16*
G04 #@! TO.N,/Mains_Sensor*
X150840000Y-70680000D03*
G04 #@! TO.P,A1,15*
X150840000Y-68140000D03*
G04 #@! TO.P,A1,14*
G04 #@! TO.N,Net-(A1-Pad14)*
X171160000Y-68140000D03*
G04 #@! TO.P,A1,13*
G04 #@! TO.N,Net-(A1-Pad13)*
X171160000Y-70680000D03*
G04 #@! TO.P,A1,12*
G04 #@! TO.N,Net-(A1-Pad12)*
X171160000Y-73220000D03*
G04 #@! TO.P,A1,11*
G04 #@! TO.N,Net-(A1-Pad11)*
X171160000Y-75760000D03*
G04 #@! TO.P,A1,10*
G04 #@! TO.N,Net-(A1-Pad10)*
X171160000Y-78300000D03*
G04 #@! TO.P,A1,9*
G04 #@! TO.N,Net-(A1-Pad9)*
X171160000Y-80840000D03*
G04 #@! TO.P,A1,8*
G04 #@! TO.N,Net-(A1-Pad8)*
X171160000Y-83380000D03*
G04 #@! TO.P,A1,7*
G04 #@! TO.N,Net-(A1-Pad7)*
X171160000Y-85920000D03*
G04 #@! TO.P,A1,6*
G04 #@! TO.N,Net-(A1-Pad6)*
X171160000Y-88460000D03*
G04 #@! TO.P,A1,5*
G04 #@! TO.N,Net-(A1-Pad5)*
X171160000Y-91000000D03*
G04 #@! TO.P,A1,4*
G04 #@! TO.N,/Battery_Volts*
X171160000Y-93540000D03*
G04 #@! TO.P,A1,3*
G04 #@! TO.N,/Mains_Sensor*
X171160000Y-96080000D03*
G04 #@! TO.P,A1,2*
G04 #@! TO.N,Net-(A1-Pad2)*
X171160000Y-98620000D03*
D13*
G04 #@! TO.P,A1,1*
G04 #@! TO.N,Net-(A1-Pad1)*
X171160000Y-101160000D03*
G04 #@! TD*
D14*
G04 #@! TO.P,C1,1*
G04 #@! TO.N,Net-(C1-Pad1)*
X107800000Y-82000000D03*
G04 #@! TO.P,C1,2*
G04 #@! TO.N,GND*
X112200000Y-82000000D03*
G04 #@! TD*
D15*
G04 #@! TO.N,GND*
G04 #@! TO.C,C2*
G36*
X145149504Y-107376204D02*
X145173773Y-107379804D01*
X145197571Y-107385765D01*
X145220671Y-107394030D01*
X145242849Y-107404520D01*
X145263893Y-107417133D01*
X145283598Y-107431747D01*
X145301777Y-107448223D01*
X145318253Y-107466402D01*
X145332867Y-107486107D01*
X145345480Y-107507151D01*
X145355970Y-107529329D01*
X145364235Y-107552429D01*
X145370196Y-107576227D01*
X145373796Y-107600496D01*
X145375000Y-107625000D01*
X145375000Y-108375000D01*
X145373796Y-108399504D01*
X145370196Y-108423773D01*
X145364235Y-108447571D01*
X145355970Y-108470671D01*
X145345480Y-108492849D01*
X145332867Y-108513893D01*
X145318253Y-108533598D01*
X145301777Y-108551777D01*
X145283598Y-108568253D01*
X145263893Y-108582867D01*
X145242849Y-108595480D01*
X145220671Y-108605970D01*
X145197571Y-108614235D01*
X145173773Y-108620196D01*
X145149504Y-108623796D01*
X145125000Y-108625000D01*
X143875000Y-108625000D01*
X143850496Y-108623796D01*
X143826227Y-108620196D01*
X143802429Y-108614235D01*
X143779329Y-108605970D01*
X143757151Y-108595480D01*
X143736107Y-108582867D01*
X143716402Y-108568253D01*
X143698223Y-108551777D01*
X143681747Y-108533598D01*
X143667133Y-108513893D01*
X143654520Y-108492849D01*
X143644030Y-108470671D01*
X143635765Y-108447571D01*
X143629804Y-108423773D01*
X143626204Y-108399504D01*
X143625000Y-108375000D01*
X143625000Y-107625000D01*
X143626204Y-107600496D01*
X143629804Y-107576227D01*
X143635765Y-107552429D01*
X143644030Y-107529329D01*
X143654520Y-107507151D01*
X143667133Y-107486107D01*
X143681747Y-107466402D01*
X143698223Y-107448223D01*
X143716402Y-107431747D01*
X143736107Y-107417133D01*
X143757151Y-107404520D01*
X143779329Y-107394030D01*
X143802429Y-107385765D01*
X143826227Y-107379804D01*
X143850496Y-107376204D01*
X143875000Y-107375000D01*
X145125000Y-107375000D01*
X145149504Y-107376204D01*
X145149504Y-107376204D01*
G37*
D16*
G04 #@! TD*
G04 #@! TO.P,C2,2*
G04 #@! TO.N,GND*
X144500000Y-108000000D03*
D15*
G04 #@! TO.N,/Battery_Volts*
G04 #@! TO.C,C2*
G36*
X145149504Y-104576204D02*
X145173773Y-104579804D01*
X145197571Y-104585765D01*
X145220671Y-104594030D01*
X145242849Y-104604520D01*
X145263893Y-104617133D01*
X145283598Y-104631747D01*
X145301777Y-104648223D01*
X145318253Y-104666402D01*
X145332867Y-104686107D01*
X145345480Y-104707151D01*
X145355970Y-104729329D01*
X145364235Y-104752429D01*
X145370196Y-104776227D01*
X145373796Y-104800496D01*
X145375000Y-104825000D01*
X145375000Y-105575000D01*
X145373796Y-105599504D01*
X145370196Y-105623773D01*
X145364235Y-105647571D01*
X145355970Y-105670671D01*
X145345480Y-105692849D01*
X145332867Y-105713893D01*
X145318253Y-105733598D01*
X145301777Y-105751777D01*
X145283598Y-105768253D01*
X145263893Y-105782867D01*
X145242849Y-105795480D01*
X145220671Y-105805970D01*
X145197571Y-105814235D01*
X145173773Y-105820196D01*
X145149504Y-105823796D01*
X145125000Y-105825000D01*
X143875000Y-105825000D01*
X143850496Y-105823796D01*
X143826227Y-105820196D01*
X143802429Y-105814235D01*
X143779329Y-105805970D01*
X143757151Y-105795480D01*
X143736107Y-105782867D01*
X143716402Y-105768253D01*
X143698223Y-105751777D01*
X143681747Y-105733598D01*
X143667133Y-105713893D01*
X143654520Y-105692849D01*
X143644030Y-105670671D01*
X143635765Y-105647571D01*
X143629804Y-105623773D01*
X143626204Y-105599504D01*
X143625000Y-105575000D01*
X143625000Y-104825000D01*
X143626204Y-104800496D01*
X143629804Y-104776227D01*
X143635765Y-104752429D01*
X143644030Y-104729329D01*
X143654520Y-104707151D01*
X143667133Y-104686107D01*
X143681747Y-104666402D01*
X143698223Y-104648223D01*
X143716402Y-104631747D01*
X143736107Y-104617133D01*
X143757151Y-104604520D01*
X143779329Y-104594030D01*
X143802429Y-104585765D01*
X143826227Y-104579804D01*
X143850496Y-104576204D01*
X143875000Y-104575000D01*
X145125000Y-104575000D01*
X145149504Y-104576204D01*
X145149504Y-104576204D01*
G37*
D16*
G04 #@! TD*
G04 #@! TO.P,C2,1*
G04 #@! TO.N,/Battery_Volts*
X144500000Y-105200000D03*
D15*
G04 #@! TO.N,GND*
G04 #@! TO.C,C3*
G36*
X145149504Y-66976204D02*
X145173773Y-66979804D01*
X145197571Y-66985765D01*
X145220671Y-66994030D01*
X145242849Y-67004520D01*
X145263893Y-67017133D01*
X145283598Y-67031747D01*
X145301777Y-67048223D01*
X145318253Y-67066402D01*
X145332867Y-67086107D01*
X145345480Y-67107151D01*
X145355970Y-67129329D01*
X145364235Y-67152429D01*
X145370196Y-67176227D01*
X145373796Y-67200496D01*
X145375000Y-67225000D01*
X145375000Y-67975000D01*
X145373796Y-67999504D01*
X145370196Y-68023773D01*
X145364235Y-68047571D01*
X145355970Y-68070671D01*
X145345480Y-68092849D01*
X145332867Y-68113893D01*
X145318253Y-68133598D01*
X145301777Y-68151777D01*
X145283598Y-68168253D01*
X145263893Y-68182867D01*
X145242849Y-68195480D01*
X145220671Y-68205970D01*
X145197571Y-68214235D01*
X145173773Y-68220196D01*
X145149504Y-68223796D01*
X145125000Y-68225000D01*
X143875000Y-68225000D01*
X143850496Y-68223796D01*
X143826227Y-68220196D01*
X143802429Y-68214235D01*
X143779329Y-68205970D01*
X143757151Y-68195480D01*
X143736107Y-68182867D01*
X143716402Y-68168253D01*
X143698223Y-68151777D01*
X143681747Y-68133598D01*
X143667133Y-68113893D01*
X143654520Y-68092849D01*
X143644030Y-68070671D01*
X143635765Y-68047571D01*
X143629804Y-68023773D01*
X143626204Y-67999504D01*
X143625000Y-67975000D01*
X143625000Y-67225000D01*
X143626204Y-67200496D01*
X143629804Y-67176227D01*
X143635765Y-67152429D01*
X143644030Y-67129329D01*
X143654520Y-67107151D01*
X143667133Y-67086107D01*
X143681747Y-67066402D01*
X143698223Y-67048223D01*
X143716402Y-67031747D01*
X143736107Y-67017133D01*
X143757151Y-67004520D01*
X143779329Y-66994030D01*
X143802429Y-66985765D01*
X143826227Y-66979804D01*
X143850496Y-66976204D01*
X143875000Y-66975000D01*
X145125000Y-66975000D01*
X145149504Y-66976204D01*
X145149504Y-66976204D01*
G37*
D16*
G04 #@! TD*
G04 #@! TO.P,C3,2*
G04 #@! TO.N,GND*
X144500000Y-67600000D03*
D15*
G04 #@! TO.N,/Mains_Sensor*
G04 #@! TO.C,C3*
G36*
X145149504Y-69776204D02*
X145173773Y-69779804D01*
X145197571Y-69785765D01*
X145220671Y-69794030D01*
X145242849Y-69804520D01*
X145263893Y-69817133D01*
X145283598Y-69831747D01*
X145301777Y-69848223D01*
X145318253Y-69866402D01*
X145332867Y-69886107D01*
X145345480Y-69907151D01*
X145355970Y-69929329D01*
X145364235Y-69952429D01*
X145370196Y-69976227D01*
X145373796Y-70000496D01*
X145375000Y-70025000D01*
X145375000Y-70775000D01*
X145373796Y-70799504D01*
X145370196Y-70823773D01*
X145364235Y-70847571D01*
X145355970Y-70870671D01*
X145345480Y-70892849D01*
X145332867Y-70913893D01*
X145318253Y-70933598D01*
X145301777Y-70951777D01*
X145283598Y-70968253D01*
X145263893Y-70982867D01*
X145242849Y-70995480D01*
X145220671Y-71005970D01*
X145197571Y-71014235D01*
X145173773Y-71020196D01*
X145149504Y-71023796D01*
X145125000Y-71025000D01*
X143875000Y-71025000D01*
X143850496Y-71023796D01*
X143826227Y-71020196D01*
X143802429Y-71014235D01*
X143779329Y-71005970D01*
X143757151Y-70995480D01*
X143736107Y-70982867D01*
X143716402Y-70968253D01*
X143698223Y-70951777D01*
X143681747Y-70933598D01*
X143667133Y-70913893D01*
X143654520Y-70892849D01*
X143644030Y-70870671D01*
X143635765Y-70847571D01*
X143629804Y-70823773D01*
X143626204Y-70799504D01*
X143625000Y-70775000D01*
X143625000Y-70025000D01*
X143626204Y-70000496D01*
X143629804Y-69976227D01*
X143635765Y-69952429D01*
X143644030Y-69929329D01*
X143654520Y-69907151D01*
X143667133Y-69886107D01*
X143681747Y-69866402D01*
X143698223Y-69848223D01*
X143716402Y-69831747D01*
X143736107Y-69817133D01*
X143757151Y-69804520D01*
X143779329Y-69794030D01*
X143802429Y-69785765D01*
X143826227Y-69779804D01*
X143850496Y-69776204D01*
X143875000Y-69775000D01*
X145125000Y-69775000D01*
X145149504Y-69776204D01*
X145149504Y-69776204D01*
G37*
D16*
G04 #@! TD*
G04 #@! TO.P,C3,1*
G04 #@! TO.N,/Mains_Sensor*
X144500000Y-70400000D03*
D15*
G04 #@! TO.N,Net-(C1-Pad1)*
G04 #@! TO.C,C4*
G36*
X109499504Y-76626204D02*
X109523773Y-76629804D01*
X109547571Y-76635765D01*
X109570671Y-76644030D01*
X109592849Y-76654520D01*
X109613893Y-76667133D01*
X109633598Y-76681747D01*
X109651777Y-76698223D01*
X109668253Y-76716402D01*
X109682867Y-76736107D01*
X109695480Y-76757151D01*
X109705970Y-76779329D01*
X109714235Y-76802429D01*
X109720196Y-76826227D01*
X109723796Y-76850496D01*
X109725000Y-76875000D01*
X109725000Y-78125000D01*
X109723796Y-78149504D01*
X109720196Y-78173773D01*
X109714235Y-78197571D01*
X109705970Y-78220671D01*
X109695480Y-78242849D01*
X109682867Y-78263893D01*
X109668253Y-78283598D01*
X109651777Y-78301777D01*
X109633598Y-78318253D01*
X109613893Y-78332867D01*
X109592849Y-78345480D01*
X109570671Y-78355970D01*
X109547571Y-78364235D01*
X109523773Y-78370196D01*
X109499504Y-78373796D01*
X109475000Y-78375000D01*
X108725000Y-78375000D01*
X108700496Y-78373796D01*
X108676227Y-78370196D01*
X108652429Y-78364235D01*
X108629329Y-78355970D01*
X108607151Y-78345480D01*
X108586107Y-78332867D01*
X108566402Y-78318253D01*
X108548223Y-78301777D01*
X108531747Y-78283598D01*
X108517133Y-78263893D01*
X108504520Y-78242849D01*
X108494030Y-78220671D01*
X108485765Y-78197571D01*
X108479804Y-78173773D01*
X108476204Y-78149504D01*
X108475000Y-78125000D01*
X108475000Y-76875000D01*
X108476204Y-76850496D01*
X108479804Y-76826227D01*
X108485765Y-76802429D01*
X108494030Y-76779329D01*
X108504520Y-76757151D01*
X108517133Y-76736107D01*
X108531747Y-76716402D01*
X108548223Y-76698223D01*
X108566402Y-76681747D01*
X108586107Y-76667133D01*
X108607151Y-76654520D01*
X108629329Y-76644030D01*
X108652429Y-76635765D01*
X108676227Y-76629804D01*
X108700496Y-76626204D01*
X108725000Y-76625000D01*
X109475000Y-76625000D01*
X109499504Y-76626204D01*
X109499504Y-76626204D01*
G37*
D16*
G04 #@! TD*
G04 #@! TO.P,C4,1*
G04 #@! TO.N,Net-(C1-Pad1)*
X109100000Y-77500000D03*
D15*
G04 #@! TO.N,GND*
G04 #@! TO.C,C4*
G36*
X112299504Y-76626204D02*
X112323773Y-76629804D01*
X112347571Y-76635765D01*
X112370671Y-76644030D01*
X112392849Y-76654520D01*
X112413893Y-76667133D01*
X112433598Y-76681747D01*
X112451777Y-76698223D01*
X112468253Y-76716402D01*
X112482867Y-76736107D01*
X112495480Y-76757151D01*
X112505970Y-76779329D01*
X112514235Y-76802429D01*
X112520196Y-76826227D01*
X112523796Y-76850496D01*
X112525000Y-76875000D01*
X112525000Y-78125000D01*
X112523796Y-78149504D01*
X112520196Y-78173773D01*
X112514235Y-78197571D01*
X112505970Y-78220671D01*
X112495480Y-78242849D01*
X112482867Y-78263893D01*
X112468253Y-78283598D01*
X112451777Y-78301777D01*
X112433598Y-78318253D01*
X112413893Y-78332867D01*
X112392849Y-78345480D01*
X112370671Y-78355970D01*
X112347571Y-78364235D01*
X112323773Y-78370196D01*
X112299504Y-78373796D01*
X112275000Y-78375000D01*
X111525000Y-78375000D01*
X111500496Y-78373796D01*
X111476227Y-78370196D01*
X111452429Y-78364235D01*
X111429329Y-78355970D01*
X111407151Y-78345480D01*
X111386107Y-78332867D01*
X111366402Y-78318253D01*
X111348223Y-78301777D01*
X111331747Y-78283598D01*
X111317133Y-78263893D01*
X111304520Y-78242849D01*
X111294030Y-78220671D01*
X111285765Y-78197571D01*
X111279804Y-78173773D01*
X111276204Y-78149504D01*
X111275000Y-78125000D01*
X111275000Y-76875000D01*
X111276204Y-76850496D01*
X111279804Y-76826227D01*
X111285765Y-76802429D01*
X111294030Y-76779329D01*
X111304520Y-76757151D01*
X111317133Y-76736107D01*
X111331747Y-76716402D01*
X111348223Y-76698223D01*
X111366402Y-76681747D01*
X111386107Y-76667133D01*
X111407151Y-76654520D01*
X111429329Y-76644030D01*
X111452429Y-76635765D01*
X111476227Y-76629804D01*
X111500496Y-76626204D01*
X111525000Y-76625000D01*
X112275000Y-76625000D01*
X112299504Y-76626204D01*
X112299504Y-76626204D01*
G37*
D16*
G04 #@! TD*
G04 #@! TO.P,C4,2*
G04 #@! TO.N,GND*
X111900000Y-77500000D03*
D15*
G04 #@! TO.N,Net-(C1-Pad1)*
G04 #@! TO.C,C5*
G36*
X100149504Y-89476204D02*
X100173773Y-89479804D01*
X100197571Y-89485765D01*
X100220671Y-89494030D01*
X100242849Y-89504520D01*
X100263893Y-89517133D01*
X100283598Y-89531747D01*
X100301777Y-89548223D01*
X100318253Y-89566402D01*
X100332867Y-89586107D01*
X100345480Y-89607151D01*
X100355970Y-89629329D01*
X100364235Y-89652429D01*
X100370196Y-89676227D01*
X100373796Y-89700496D01*
X100375000Y-89725000D01*
X100375000Y-90475000D01*
X100373796Y-90499504D01*
X100370196Y-90523773D01*
X100364235Y-90547571D01*
X100355970Y-90570671D01*
X100345480Y-90592849D01*
X100332867Y-90613893D01*
X100318253Y-90633598D01*
X100301777Y-90651777D01*
X100283598Y-90668253D01*
X100263893Y-90682867D01*
X100242849Y-90695480D01*
X100220671Y-90705970D01*
X100197571Y-90714235D01*
X100173773Y-90720196D01*
X100149504Y-90723796D01*
X100125000Y-90725000D01*
X98875000Y-90725000D01*
X98850496Y-90723796D01*
X98826227Y-90720196D01*
X98802429Y-90714235D01*
X98779329Y-90705970D01*
X98757151Y-90695480D01*
X98736107Y-90682867D01*
X98716402Y-90668253D01*
X98698223Y-90651777D01*
X98681747Y-90633598D01*
X98667133Y-90613893D01*
X98654520Y-90592849D01*
X98644030Y-90570671D01*
X98635765Y-90547571D01*
X98629804Y-90523773D01*
X98626204Y-90499504D01*
X98625000Y-90475000D01*
X98625000Y-89725000D01*
X98626204Y-89700496D01*
X98629804Y-89676227D01*
X98635765Y-89652429D01*
X98644030Y-89629329D01*
X98654520Y-89607151D01*
X98667133Y-89586107D01*
X98681747Y-89566402D01*
X98698223Y-89548223D01*
X98716402Y-89531747D01*
X98736107Y-89517133D01*
X98757151Y-89504520D01*
X98779329Y-89494030D01*
X98802429Y-89485765D01*
X98826227Y-89479804D01*
X98850496Y-89476204D01*
X98875000Y-89475000D01*
X100125000Y-89475000D01*
X100149504Y-89476204D01*
X100149504Y-89476204D01*
G37*
D16*
G04 #@! TD*
G04 #@! TO.P,C5,1*
G04 #@! TO.N,Net-(C1-Pad1)*
X99500000Y-90100000D03*
D15*
G04 #@! TO.N,GND*
G04 #@! TO.C,C5*
G36*
X100149504Y-92276204D02*
X100173773Y-92279804D01*
X100197571Y-92285765D01*
X100220671Y-92294030D01*
X100242849Y-92304520D01*
X100263893Y-92317133D01*
X100283598Y-92331747D01*
X100301777Y-92348223D01*
X100318253Y-92366402D01*
X100332867Y-92386107D01*
X100345480Y-92407151D01*
X100355970Y-92429329D01*
X100364235Y-92452429D01*
X100370196Y-92476227D01*
X100373796Y-92500496D01*
X100375000Y-92525000D01*
X100375000Y-93275000D01*
X100373796Y-93299504D01*
X100370196Y-93323773D01*
X100364235Y-93347571D01*
X100355970Y-93370671D01*
X100345480Y-93392849D01*
X100332867Y-93413893D01*
X100318253Y-93433598D01*
X100301777Y-93451777D01*
X100283598Y-93468253D01*
X100263893Y-93482867D01*
X100242849Y-93495480D01*
X100220671Y-93505970D01*
X100197571Y-93514235D01*
X100173773Y-93520196D01*
X100149504Y-93523796D01*
X100125000Y-93525000D01*
X98875000Y-93525000D01*
X98850496Y-93523796D01*
X98826227Y-93520196D01*
X98802429Y-93514235D01*
X98779329Y-93505970D01*
X98757151Y-93495480D01*
X98736107Y-93482867D01*
X98716402Y-93468253D01*
X98698223Y-93451777D01*
X98681747Y-93433598D01*
X98667133Y-93413893D01*
X98654520Y-93392849D01*
X98644030Y-93370671D01*
X98635765Y-93347571D01*
X98629804Y-93323773D01*
X98626204Y-93299504D01*
X98625000Y-93275000D01*
X98625000Y-92525000D01*
X98626204Y-92500496D01*
X98629804Y-92476227D01*
X98635765Y-92452429D01*
X98644030Y-92429329D01*
X98654520Y-92407151D01*
X98667133Y-92386107D01*
X98681747Y-92366402D01*
X98698223Y-92348223D01*
X98716402Y-92331747D01*
X98736107Y-92317133D01*
X98757151Y-92304520D01*
X98779329Y-92294030D01*
X98802429Y-92285765D01*
X98826227Y-92279804D01*
X98850496Y-92276204D01*
X98875000Y-92275000D01*
X100125000Y-92275000D01*
X100149504Y-92276204D01*
X100149504Y-92276204D01*
G37*
D16*
G04 #@! TD*
G04 #@! TO.P,C5,2*
G04 #@! TO.N,GND*
X99500000Y-92900000D03*
D15*
G04 #@! TO.N,GND*
G04 #@! TO.C,C6*
G36*
X113649504Y-92276204D02*
X113673773Y-92279804D01*
X113697571Y-92285765D01*
X113720671Y-92294030D01*
X113742849Y-92304520D01*
X113763893Y-92317133D01*
X113783598Y-92331747D01*
X113801777Y-92348223D01*
X113818253Y-92366402D01*
X113832867Y-92386107D01*
X113845480Y-92407151D01*
X113855970Y-92429329D01*
X113864235Y-92452429D01*
X113870196Y-92476227D01*
X113873796Y-92500496D01*
X113875000Y-92525000D01*
X113875000Y-93275000D01*
X113873796Y-93299504D01*
X113870196Y-93323773D01*
X113864235Y-93347571D01*
X113855970Y-93370671D01*
X113845480Y-93392849D01*
X113832867Y-93413893D01*
X113818253Y-93433598D01*
X113801777Y-93451777D01*
X113783598Y-93468253D01*
X113763893Y-93482867D01*
X113742849Y-93495480D01*
X113720671Y-93505970D01*
X113697571Y-93514235D01*
X113673773Y-93520196D01*
X113649504Y-93523796D01*
X113625000Y-93525000D01*
X112375000Y-93525000D01*
X112350496Y-93523796D01*
X112326227Y-93520196D01*
X112302429Y-93514235D01*
X112279329Y-93505970D01*
X112257151Y-93495480D01*
X112236107Y-93482867D01*
X112216402Y-93468253D01*
X112198223Y-93451777D01*
X112181747Y-93433598D01*
X112167133Y-93413893D01*
X112154520Y-93392849D01*
X112144030Y-93370671D01*
X112135765Y-93347571D01*
X112129804Y-93323773D01*
X112126204Y-93299504D01*
X112125000Y-93275000D01*
X112125000Y-92525000D01*
X112126204Y-92500496D01*
X112129804Y-92476227D01*
X112135765Y-92452429D01*
X112144030Y-92429329D01*
X112154520Y-92407151D01*
X112167133Y-92386107D01*
X112181747Y-92366402D01*
X112198223Y-92348223D01*
X112216402Y-92331747D01*
X112236107Y-92317133D01*
X112257151Y-92304520D01*
X112279329Y-92294030D01*
X112302429Y-92285765D01*
X112326227Y-92279804D01*
X112350496Y-92276204D01*
X112375000Y-92275000D01*
X113625000Y-92275000D01*
X113649504Y-92276204D01*
X113649504Y-92276204D01*
G37*
D16*
G04 #@! TD*
G04 #@! TO.P,C6,2*
G04 #@! TO.N,GND*
X113000000Y-92900000D03*
D15*
G04 #@! TO.N,Net-(C1-Pad1)*
G04 #@! TO.C,C6*
G36*
X113649504Y-89476204D02*
X113673773Y-89479804D01*
X113697571Y-89485765D01*
X113720671Y-89494030D01*
X113742849Y-89504520D01*
X113763893Y-89517133D01*
X113783598Y-89531747D01*
X113801777Y-89548223D01*
X113818253Y-89566402D01*
X113832867Y-89586107D01*
X113845480Y-89607151D01*
X113855970Y-89629329D01*
X113864235Y-89652429D01*
X113870196Y-89676227D01*
X113873796Y-89700496D01*
X113875000Y-89725000D01*
X113875000Y-90475000D01*
X113873796Y-90499504D01*
X113870196Y-90523773D01*
X113864235Y-90547571D01*
X113855970Y-90570671D01*
X113845480Y-90592849D01*
X113832867Y-90613893D01*
X113818253Y-90633598D01*
X113801777Y-90651777D01*
X113783598Y-90668253D01*
X113763893Y-90682867D01*
X113742849Y-90695480D01*
X113720671Y-90705970D01*
X113697571Y-90714235D01*
X113673773Y-90720196D01*
X113649504Y-90723796D01*
X113625000Y-90725000D01*
X112375000Y-90725000D01*
X112350496Y-90723796D01*
X112326227Y-90720196D01*
X112302429Y-90714235D01*
X112279329Y-90705970D01*
X112257151Y-90695480D01*
X112236107Y-90682867D01*
X112216402Y-90668253D01*
X112198223Y-90651777D01*
X112181747Y-90633598D01*
X112167133Y-90613893D01*
X112154520Y-90592849D01*
X112144030Y-90570671D01*
X112135765Y-90547571D01*
X112129804Y-90523773D01*
X112126204Y-90499504D01*
X112125000Y-90475000D01*
X112125000Y-89725000D01*
X112126204Y-89700496D01*
X112129804Y-89676227D01*
X112135765Y-89652429D01*
X112144030Y-89629329D01*
X112154520Y-89607151D01*
X112167133Y-89586107D01*
X112181747Y-89566402D01*
X112198223Y-89548223D01*
X112216402Y-89531747D01*
X112236107Y-89517133D01*
X112257151Y-89504520D01*
X112279329Y-89494030D01*
X112302429Y-89485765D01*
X112326227Y-89479804D01*
X112350496Y-89476204D01*
X112375000Y-89475000D01*
X113625000Y-89475000D01*
X113649504Y-89476204D01*
X113649504Y-89476204D01*
G37*
D16*
G04 #@! TD*
G04 #@! TO.P,C6,1*
G04 #@! TO.N,Net-(C1-Pad1)*
X113000000Y-90100000D03*
D15*
G04 #@! TO.N,Net-(C7-Pad1)*
G04 #@! TO.C,C7*
G36*
X100149504Y-98276204D02*
X100173773Y-98279804D01*
X100197571Y-98285765D01*
X100220671Y-98294030D01*
X100242849Y-98304520D01*
X100263893Y-98317133D01*
X100283598Y-98331747D01*
X100301777Y-98348223D01*
X100318253Y-98366402D01*
X100332867Y-98386107D01*
X100345480Y-98407151D01*
X100355970Y-98429329D01*
X100364235Y-98452429D01*
X100370196Y-98476227D01*
X100373796Y-98500496D01*
X100375000Y-98525000D01*
X100375000Y-99275000D01*
X100373796Y-99299504D01*
X100370196Y-99323773D01*
X100364235Y-99347571D01*
X100355970Y-99370671D01*
X100345480Y-99392849D01*
X100332867Y-99413893D01*
X100318253Y-99433598D01*
X100301777Y-99451777D01*
X100283598Y-99468253D01*
X100263893Y-99482867D01*
X100242849Y-99495480D01*
X100220671Y-99505970D01*
X100197571Y-99514235D01*
X100173773Y-99520196D01*
X100149504Y-99523796D01*
X100125000Y-99525000D01*
X98875000Y-99525000D01*
X98850496Y-99523796D01*
X98826227Y-99520196D01*
X98802429Y-99514235D01*
X98779329Y-99505970D01*
X98757151Y-99495480D01*
X98736107Y-99482867D01*
X98716402Y-99468253D01*
X98698223Y-99451777D01*
X98681747Y-99433598D01*
X98667133Y-99413893D01*
X98654520Y-99392849D01*
X98644030Y-99370671D01*
X98635765Y-99347571D01*
X98629804Y-99323773D01*
X98626204Y-99299504D01*
X98625000Y-99275000D01*
X98625000Y-98525000D01*
X98626204Y-98500496D01*
X98629804Y-98476227D01*
X98635765Y-98452429D01*
X98644030Y-98429329D01*
X98654520Y-98407151D01*
X98667133Y-98386107D01*
X98681747Y-98366402D01*
X98698223Y-98348223D01*
X98716402Y-98331747D01*
X98736107Y-98317133D01*
X98757151Y-98304520D01*
X98779329Y-98294030D01*
X98802429Y-98285765D01*
X98826227Y-98279804D01*
X98850496Y-98276204D01*
X98875000Y-98275000D01*
X100125000Y-98275000D01*
X100149504Y-98276204D01*
X100149504Y-98276204D01*
G37*
D16*
G04 #@! TD*
G04 #@! TO.P,C7,1*
G04 #@! TO.N,Net-(C7-Pad1)*
X99500000Y-98900000D03*
D15*
G04 #@! TO.N,GND*
G04 #@! TO.C,C7*
G36*
X100149504Y-95476204D02*
X100173773Y-95479804D01*
X100197571Y-95485765D01*
X100220671Y-95494030D01*
X100242849Y-95504520D01*
X100263893Y-95517133D01*
X100283598Y-95531747D01*
X100301777Y-95548223D01*
X100318253Y-95566402D01*
X100332867Y-95586107D01*
X100345480Y-95607151D01*
X100355970Y-95629329D01*
X100364235Y-95652429D01*
X100370196Y-95676227D01*
X100373796Y-95700496D01*
X100375000Y-95725000D01*
X100375000Y-96475000D01*
X100373796Y-96499504D01*
X100370196Y-96523773D01*
X100364235Y-96547571D01*
X100355970Y-96570671D01*
X100345480Y-96592849D01*
X100332867Y-96613893D01*
X100318253Y-96633598D01*
X100301777Y-96651777D01*
X100283598Y-96668253D01*
X100263893Y-96682867D01*
X100242849Y-96695480D01*
X100220671Y-96705970D01*
X100197571Y-96714235D01*
X100173773Y-96720196D01*
X100149504Y-96723796D01*
X100125000Y-96725000D01*
X98875000Y-96725000D01*
X98850496Y-96723796D01*
X98826227Y-96720196D01*
X98802429Y-96714235D01*
X98779329Y-96705970D01*
X98757151Y-96695480D01*
X98736107Y-96682867D01*
X98716402Y-96668253D01*
X98698223Y-96651777D01*
X98681747Y-96633598D01*
X98667133Y-96613893D01*
X98654520Y-96592849D01*
X98644030Y-96570671D01*
X98635765Y-96547571D01*
X98629804Y-96523773D01*
X98626204Y-96499504D01*
X98625000Y-96475000D01*
X98625000Y-95725000D01*
X98626204Y-95700496D01*
X98629804Y-95676227D01*
X98635765Y-95652429D01*
X98644030Y-95629329D01*
X98654520Y-95607151D01*
X98667133Y-95586107D01*
X98681747Y-95566402D01*
X98698223Y-95548223D01*
X98716402Y-95531747D01*
X98736107Y-95517133D01*
X98757151Y-95504520D01*
X98779329Y-95494030D01*
X98802429Y-95485765D01*
X98826227Y-95479804D01*
X98850496Y-95476204D01*
X98875000Y-95475000D01*
X100125000Y-95475000D01*
X100149504Y-95476204D01*
X100149504Y-95476204D01*
G37*
D16*
G04 #@! TD*
G04 #@! TO.P,C7,2*
G04 #@! TO.N,GND*
X99500000Y-96100000D03*
D15*
G04 #@! TO.N,+5V*
G04 #@! TO.C,C8*
G36*
X113649504Y-98276204D02*
X113673773Y-98279804D01*
X113697571Y-98285765D01*
X113720671Y-98294030D01*
X113742849Y-98304520D01*
X113763893Y-98317133D01*
X113783598Y-98331747D01*
X113801777Y-98348223D01*
X113818253Y-98366402D01*
X113832867Y-98386107D01*
X113845480Y-98407151D01*
X113855970Y-98429329D01*
X113864235Y-98452429D01*
X113870196Y-98476227D01*
X113873796Y-98500496D01*
X113875000Y-98525000D01*
X113875000Y-99275000D01*
X113873796Y-99299504D01*
X113870196Y-99323773D01*
X113864235Y-99347571D01*
X113855970Y-99370671D01*
X113845480Y-99392849D01*
X113832867Y-99413893D01*
X113818253Y-99433598D01*
X113801777Y-99451777D01*
X113783598Y-99468253D01*
X113763893Y-99482867D01*
X113742849Y-99495480D01*
X113720671Y-99505970D01*
X113697571Y-99514235D01*
X113673773Y-99520196D01*
X113649504Y-99523796D01*
X113625000Y-99525000D01*
X112375000Y-99525000D01*
X112350496Y-99523796D01*
X112326227Y-99520196D01*
X112302429Y-99514235D01*
X112279329Y-99505970D01*
X112257151Y-99495480D01*
X112236107Y-99482867D01*
X112216402Y-99468253D01*
X112198223Y-99451777D01*
X112181747Y-99433598D01*
X112167133Y-99413893D01*
X112154520Y-99392849D01*
X112144030Y-99370671D01*
X112135765Y-99347571D01*
X112129804Y-99323773D01*
X112126204Y-99299504D01*
X112125000Y-99275000D01*
X112125000Y-98525000D01*
X112126204Y-98500496D01*
X112129804Y-98476227D01*
X112135765Y-98452429D01*
X112144030Y-98429329D01*
X112154520Y-98407151D01*
X112167133Y-98386107D01*
X112181747Y-98366402D01*
X112198223Y-98348223D01*
X112216402Y-98331747D01*
X112236107Y-98317133D01*
X112257151Y-98304520D01*
X112279329Y-98294030D01*
X112302429Y-98285765D01*
X112326227Y-98279804D01*
X112350496Y-98276204D01*
X112375000Y-98275000D01*
X113625000Y-98275000D01*
X113649504Y-98276204D01*
X113649504Y-98276204D01*
G37*
D16*
G04 #@! TD*
G04 #@! TO.P,C8,1*
G04 #@! TO.N,+5V*
X113000000Y-98900000D03*
D15*
G04 #@! TO.N,GND*
G04 #@! TO.C,C8*
G36*
X113649504Y-95476204D02*
X113673773Y-95479804D01*
X113697571Y-95485765D01*
X113720671Y-95494030D01*
X113742849Y-95504520D01*
X113763893Y-95517133D01*
X113783598Y-95531747D01*
X113801777Y-95548223D01*
X113818253Y-95566402D01*
X113832867Y-95586107D01*
X113845480Y-95607151D01*
X113855970Y-95629329D01*
X113864235Y-95652429D01*
X113870196Y-95676227D01*
X113873796Y-95700496D01*
X113875000Y-95725000D01*
X113875000Y-96475000D01*
X113873796Y-96499504D01*
X113870196Y-96523773D01*
X113864235Y-96547571D01*
X113855970Y-96570671D01*
X113845480Y-96592849D01*
X113832867Y-96613893D01*
X113818253Y-96633598D01*
X113801777Y-96651777D01*
X113783598Y-96668253D01*
X113763893Y-96682867D01*
X113742849Y-96695480D01*
X113720671Y-96705970D01*
X113697571Y-96714235D01*
X113673773Y-96720196D01*
X113649504Y-96723796D01*
X113625000Y-96725000D01*
X112375000Y-96725000D01*
X112350496Y-96723796D01*
X112326227Y-96720196D01*
X112302429Y-96714235D01*
X112279329Y-96705970D01*
X112257151Y-96695480D01*
X112236107Y-96682867D01*
X112216402Y-96668253D01*
X112198223Y-96651777D01*
X112181747Y-96633598D01*
X112167133Y-96613893D01*
X112154520Y-96592849D01*
X112144030Y-96570671D01*
X112135765Y-96547571D01*
X112129804Y-96523773D01*
X112126204Y-96499504D01*
X112125000Y-96475000D01*
X112125000Y-95725000D01*
X112126204Y-95700496D01*
X112129804Y-95676227D01*
X112135765Y-95652429D01*
X112144030Y-95629329D01*
X112154520Y-95607151D01*
X112167133Y-95586107D01*
X112181747Y-95566402D01*
X112198223Y-95548223D01*
X112216402Y-95531747D01*
X112236107Y-95517133D01*
X112257151Y-95504520D01*
X112279329Y-95494030D01*
X112302429Y-95485765D01*
X112326227Y-95479804D01*
X112350496Y-95476204D01*
X112375000Y-95475000D01*
X113625000Y-95475000D01*
X113649504Y-95476204D01*
X113649504Y-95476204D01*
G37*
D16*
G04 #@! TD*
G04 #@! TO.P,C8,2*
G04 #@! TO.N,GND*
X113000000Y-96100000D03*
D15*
G04 #@! TO.N,Net-(A1-Pad2)*
G04 #@! TO.C,C9*
G36*
X167799504Y-97626204D02*
X167823773Y-97629804D01*
X167847571Y-97635765D01*
X167870671Y-97644030D01*
X167892849Y-97654520D01*
X167913893Y-97667133D01*
X167933598Y-97681747D01*
X167951777Y-97698223D01*
X167968253Y-97716402D01*
X167982867Y-97736107D01*
X167995480Y-97757151D01*
X168005970Y-97779329D01*
X168014235Y-97802429D01*
X168020196Y-97826227D01*
X168023796Y-97850496D01*
X168025000Y-97875000D01*
X168025000Y-99125000D01*
X168023796Y-99149504D01*
X168020196Y-99173773D01*
X168014235Y-99197571D01*
X168005970Y-99220671D01*
X167995480Y-99242849D01*
X167982867Y-99263893D01*
X167968253Y-99283598D01*
X167951777Y-99301777D01*
X167933598Y-99318253D01*
X167913893Y-99332867D01*
X167892849Y-99345480D01*
X167870671Y-99355970D01*
X167847571Y-99364235D01*
X167823773Y-99370196D01*
X167799504Y-99373796D01*
X167775000Y-99375000D01*
X167025000Y-99375000D01*
X167000496Y-99373796D01*
X166976227Y-99370196D01*
X166952429Y-99364235D01*
X166929329Y-99355970D01*
X166907151Y-99345480D01*
X166886107Y-99332867D01*
X166866402Y-99318253D01*
X166848223Y-99301777D01*
X166831747Y-99283598D01*
X166817133Y-99263893D01*
X166804520Y-99242849D01*
X166794030Y-99220671D01*
X166785765Y-99197571D01*
X166779804Y-99173773D01*
X166776204Y-99149504D01*
X166775000Y-99125000D01*
X166775000Y-97875000D01*
X166776204Y-97850496D01*
X166779804Y-97826227D01*
X166785765Y-97802429D01*
X166794030Y-97779329D01*
X166804520Y-97757151D01*
X166817133Y-97736107D01*
X166831747Y-97716402D01*
X166848223Y-97698223D01*
X166866402Y-97681747D01*
X166886107Y-97667133D01*
X166907151Y-97654520D01*
X166929329Y-97644030D01*
X166952429Y-97635765D01*
X166976227Y-97629804D01*
X167000496Y-97626204D01*
X167025000Y-97625000D01*
X167775000Y-97625000D01*
X167799504Y-97626204D01*
X167799504Y-97626204D01*
G37*
D16*
G04 #@! TD*
G04 #@! TO.P,C9,2*
G04 #@! TO.N,Net-(A1-Pad2)*
X167400000Y-98500000D03*
D15*
G04 #@! TO.N,Net-(C9-Pad1)*
G04 #@! TO.C,C9*
G36*
X164999504Y-97626204D02*
X165023773Y-97629804D01*
X165047571Y-97635765D01*
X165070671Y-97644030D01*
X165092849Y-97654520D01*
X165113893Y-97667133D01*
X165133598Y-97681747D01*
X165151777Y-97698223D01*
X165168253Y-97716402D01*
X165182867Y-97736107D01*
X165195480Y-97757151D01*
X165205970Y-97779329D01*
X165214235Y-97802429D01*
X165220196Y-97826227D01*
X165223796Y-97850496D01*
X165225000Y-97875000D01*
X165225000Y-99125000D01*
X165223796Y-99149504D01*
X165220196Y-99173773D01*
X165214235Y-99197571D01*
X165205970Y-99220671D01*
X165195480Y-99242849D01*
X165182867Y-99263893D01*
X165168253Y-99283598D01*
X165151777Y-99301777D01*
X165133598Y-99318253D01*
X165113893Y-99332867D01*
X165092849Y-99345480D01*
X165070671Y-99355970D01*
X165047571Y-99364235D01*
X165023773Y-99370196D01*
X164999504Y-99373796D01*
X164975000Y-99375000D01*
X164225000Y-99375000D01*
X164200496Y-99373796D01*
X164176227Y-99370196D01*
X164152429Y-99364235D01*
X164129329Y-99355970D01*
X164107151Y-99345480D01*
X164086107Y-99332867D01*
X164066402Y-99318253D01*
X164048223Y-99301777D01*
X164031747Y-99283598D01*
X164017133Y-99263893D01*
X164004520Y-99242849D01*
X163994030Y-99220671D01*
X163985765Y-99197571D01*
X163979804Y-99173773D01*
X163976204Y-99149504D01*
X163975000Y-99125000D01*
X163975000Y-97875000D01*
X163976204Y-97850496D01*
X163979804Y-97826227D01*
X163985765Y-97802429D01*
X163994030Y-97779329D01*
X164004520Y-97757151D01*
X164017133Y-97736107D01*
X164031747Y-97716402D01*
X164048223Y-97698223D01*
X164066402Y-97681747D01*
X164086107Y-97667133D01*
X164107151Y-97654520D01*
X164129329Y-97644030D01*
X164152429Y-97635765D01*
X164176227Y-97629804D01*
X164200496Y-97626204D01*
X164225000Y-97625000D01*
X164975000Y-97625000D01*
X164999504Y-97626204D01*
X164999504Y-97626204D01*
G37*
D16*
G04 #@! TD*
G04 #@! TO.P,C9,1*
G04 #@! TO.N,Net-(C9-Pad1)*
X164600000Y-98500000D03*
D17*
G04 #@! TO.P,D1,1*
G04 #@! TO.N,Net-(C1-Pad1)*
X103000000Y-81500000D03*
G04 #@! TO.P,D1,2*
G04 #@! TO.N,Net-(D1-Pad2)*
X103000000Y-77500000D03*
G04 #@! TD*
D18*
G04 #@! TO.P,D2,1*
G04 #@! TO.N,GND*
X143450000Y-101100000D03*
G04 #@! TO.P,D2,2*
G04 #@! TO.N,+3V3*
X141550000Y-101100000D03*
G04 #@! TO.P,D2,3*
G04 #@! TO.N,/Battery_Volts*
X142500000Y-103100000D03*
G04 #@! TD*
G04 #@! TO.P,D3,3*
G04 #@! TO.N,/Mains_Sensor*
X142500000Y-72500000D03*
G04 #@! TO.P,D3,2*
G04 #@! TO.N,+3V3*
X143450000Y-74500000D03*
G04 #@! TO.P,D3,1*
G04 #@! TO.N,GND*
X141550000Y-74500000D03*
G04 #@! TD*
G04 #@! TO.P,D4,1*
G04 #@! TO.N,GND*
X166550000Y-103000000D03*
G04 #@! TO.P,D4,2*
G04 #@! TO.N,+3V3*
X168450000Y-103000000D03*
G04 #@! TO.P,D4,3*
G04 #@! TO.N,Net-(A1-Pad2)*
X167500000Y-101000000D03*
G04 #@! TD*
D19*
G04 #@! TO.P,J2,1*
G04 #@! TO.N,Net-(F2-Pad1)*
X115944000Y-122778000D03*
D20*
G04 #@! TO.P,J2,2*
G04 #@! TO.N,Net-(J2-Pad2)*
X118444000Y-122778000D03*
G04 #@! TO.P,J2,3*
X120444000Y-122778000D03*
G04 #@! TO.P,J2,4*
G04 #@! TO.N,GND*
X122944000Y-122778000D03*
D21*
G04 #@! TO.P,J2,5*
X112874000Y-122178000D03*
X126014000Y-122178000D03*
D22*
X119444000Y-117998000D03*
G04 #@! TD*
D15*
G04 #@! TO.N,/Battery_Volts*
G04 #@! TO.C,R1*
G36*
X139799504Y-104226204D02*
X139823773Y-104229804D01*
X139847571Y-104235765D01*
X139870671Y-104244030D01*
X139892849Y-104254520D01*
X139913893Y-104267133D01*
X139933598Y-104281747D01*
X139951777Y-104298223D01*
X139968253Y-104316402D01*
X139982867Y-104336107D01*
X139995480Y-104357151D01*
X140005970Y-104379329D01*
X140014235Y-104402429D01*
X140020196Y-104426227D01*
X140023796Y-104450496D01*
X140025000Y-104475000D01*
X140025000Y-105725000D01*
X140023796Y-105749504D01*
X140020196Y-105773773D01*
X140014235Y-105797571D01*
X140005970Y-105820671D01*
X139995480Y-105842849D01*
X139982867Y-105863893D01*
X139968253Y-105883598D01*
X139951777Y-105901777D01*
X139933598Y-105918253D01*
X139913893Y-105932867D01*
X139892849Y-105945480D01*
X139870671Y-105955970D01*
X139847571Y-105964235D01*
X139823773Y-105970196D01*
X139799504Y-105973796D01*
X139775000Y-105975000D01*
X139025000Y-105975000D01*
X139000496Y-105973796D01*
X138976227Y-105970196D01*
X138952429Y-105964235D01*
X138929329Y-105955970D01*
X138907151Y-105945480D01*
X138886107Y-105932867D01*
X138866402Y-105918253D01*
X138848223Y-105901777D01*
X138831747Y-105883598D01*
X138817133Y-105863893D01*
X138804520Y-105842849D01*
X138794030Y-105820671D01*
X138785765Y-105797571D01*
X138779804Y-105773773D01*
X138776204Y-105749504D01*
X138775000Y-105725000D01*
X138775000Y-104475000D01*
X138776204Y-104450496D01*
X138779804Y-104426227D01*
X138785765Y-104402429D01*
X138794030Y-104379329D01*
X138804520Y-104357151D01*
X138817133Y-104336107D01*
X138831747Y-104316402D01*
X138848223Y-104298223D01*
X138866402Y-104281747D01*
X138886107Y-104267133D01*
X138907151Y-104254520D01*
X138929329Y-104244030D01*
X138952429Y-104235765D01*
X138976227Y-104229804D01*
X139000496Y-104226204D01*
X139025000Y-104225000D01*
X139775000Y-104225000D01*
X139799504Y-104226204D01*
X139799504Y-104226204D01*
G37*
D16*
G04 #@! TD*
G04 #@! TO.P,R1,1*
G04 #@! TO.N,/Battery_Volts*
X139400000Y-105100000D03*
D15*
G04 #@! TO.N,Net-(F1-Pad2)*
G04 #@! TO.C,R1*
G36*
X136999504Y-104226204D02*
X137023773Y-104229804D01*
X137047571Y-104235765D01*
X137070671Y-104244030D01*
X137092849Y-104254520D01*
X137113893Y-104267133D01*
X137133598Y-104281747D01*
X137151777Y-104298223D01*
X137168253Y-104316402D01*
X137182867Y-104336107D01*
X137195480Y-104357151D01*
X137205970Y-104379329D01*
X137214235Y-104402429D01*
X137220196Y-104426227D01*
X137223796Y-104450496D01*
X137225000Y-104475000D01*
X137225000Y-105725000D01*
X137223796Y-105749504D01*
X137220196Y-105773773D01*
X137214235Y-105797571D01*
X137205970Y-105820671D01*
X137195480Y-105842849D01*
X137182867Y-105863893D01*
X137168253Y-105883598D01*
X137151777Y-105901777D01*
X137133598Y-105918253D01*
X137113893Y-105932867D01*
X137092849Y-105945480D01*
X137070671Y-105955970D01*
X137047571Y-105964235D01*
X137023773Y-105970196D01*
X136999504Y-105973796D01*
X136975000Y-105975000D01*
X136225000Y-105975000D01*
X136200496Y-105973796D01*
X136176227Y-105970196D01*
X136152429Y-105964235D01*
X136129329Y-105955970D01*
X136107151Y-105945480D01*
X136086107Y-105932867D01*
X136066402Y-105918253D01*
X136048223Y-105901777D01*
X136031747Y-105883598D01*
X136017133Y-105863893D01*
X136004520Y-105842849D01*
X135994030Y-105820671D01*
X135985765Y-105797571D01*
X135979804Y-105773773D01*
X135976204Y-105749504D01*
X135975000Y-105725000D01*
X135975000Y-104475000D01*
X135976204Y-104450496D01*
X135979804Y-104426227D01*
X135985765Y-104402429D01*
X135994030Y-104379329D01*
X136004520Y-104357151D01*
X136017133Y-104336107D01*
X136031747Y-104316402D01*
X136048223Y-104298223D01*
X136066402Y-104281747D01*
X136086107Y-104267133D01*
X136107151Y-104254520D01*
X136129329Y-104244030D01*
X136152429Y-104235765D01*
X136176227Y-104229804D01*
X136200496Y-104226204D01*
X136225000Y-104225000D01*
X136975000Y-104225000D01*
X136999504Y-104226204D01*
X136999504Y-104226204D01*
G37*
D16*
G04 #@! TD*
G04 #@! TO.P,R1,2*
G04 #@! TO.N,Net-(F1-Pad2)*
X136600000Y-105100000D03*
D15*
G04 #@! TO.N,Net-(J1-Pad8)*
G04 #@! TO.C,R2*
G36*
X136999504Y-69626204D02*
X137023773Y-69629804D01*
X137047571Y-69635765D01*
X137070671Y-69644030D01*
X137092849Y-69654520D01*
X137113893Y-69667133D01*
X137133598Y-69681747D01*
X137151777Y-69698223D01*
X137168253Y-69716402D01*
X137182867Y-69736107D01*
X137195480Y-69757151D01*
X137205970Y-69779329D01*
X137214235Y-69802429D01*
X137220196Y-69826227D01*
X137223796Y-69850496D01*
X137225000Y-69875000D01*
X137225000Y-71125000D01*
X137223796Y-71149504D01*
X137220196Y-71173773D01*
X137214235Y-71197571D01*
X137205970Y-71220671D01*
X137195480Y-71242849D01*
X137182867Y-71263893D01*
X137168253Y-71283598D01*
X137151777Y-71301777D01*
X137133598Y-71318253D01*
X137113893Y-71332867D01*
X137092849Y-71345480D01*
X137070671Y-71355970D01*
X137047571Y-71364235D01*
X137023773Y-71370196D01*
X136999504Y-71373796D01*
X136975000Y-71375000D01*
X136225000Y-71375000D01*
X136200496Y-71373796D01*
X136176227Y-71370196D01*
X136152429Y-71364235D01*
X136129329Y-71355970D01*
X136107151Y-71345480D01*
X136086107Y-71332867D01*
X136066402Y-71318253D01*
X136048223Y-71301777D01*
X136031747Y-71283598D01*
X136017133Y-71263893D01*
X136004520Y-71242849D01*
X135994030Y-71220671D01*
X135985765Y-71197571D01*
X135979804Y-71173773D01*
X135976204Y-71149504D01*
X135975000Y-71125000D01*
X135975000Y-69875000D01*
X135976204Y-69850496D01*
X135979804Y-69826227D01*
X135985765Y-69802429D01*
X135994030Y-69779329D01*
X136004520Y-69757151D01*
X136017133Y-69736107D01*
X136031747Y-69716402D01*
X136048223Y-69698223D01*
X136066402Y-69681747D01*
X136086107Y-69667133D01*
X136107151Y-69654520D01*
X136129329Y-69644030D01*
X136152429Y-69635765D01*
X136176227Y-69629804D01*
X136200496Y-69626204D01*
X136225000Y-69625000D01*
X136975000Y-69625000D01*
X136999504Y-69626204D01*
X136999504Y-69626204D01*
G37*
D16*
G04 #@! TD*
G04 #@! TO.P,R2,2*
G04 #@! TO.N,Net-(J1-Pad8)*
X136600000Y-70500000D03*
D15*
G04 #@! TO.N,/Mains_Sensor*
G04 #@! TO.C,R2*
G36*
X139799504Y-69626204D02*
X139823773Y-69629804D01*
X139847571Y-69635765D01*
X139870671Y-69644030D01*
X139892849Y-69654520D01*
X139913893Y-69667133D01*
X139933598Y-69681747D01*
X139951777Y-69698223D01*
X139968253Y-69716402D01*
X139982867Y-69736107D01*
X139995480Y-69757151D01*
X140005970Y-69779329D01*
X140014235Y-69802429D01*
X140020196Y-69826227D01*
X140023796Y-69850496D01*
X140025000Y-69875000D01*
X140025000Y-71125000D01*
X140023796Y-71149504D01*
X140020196Y-71173773D01*
X140014235Y-71197571D01*
X140005970Y-71220671D01*
X139995480Y-71242849D01*
X139982867Y-71263893D01*
X139968253Y-71283598D01*
X139951777Y-71301777D01*
X139933598Y-71318253D01*
X139913893Y-71332867D01*
X139892849Y-71345480D01*
X139870671Y-71355970D01*
X139847571Y-71364235D01*
X139823773Y-71370196D01*
X139799504Y-71373796D01*
X139775000Y-71375000D01*
X139025000Y-71375000D01*
X139000496Y-71373796D01*
X138976227Y-71370196D01*
X138952429Y-71364235D01*
X138929329Y-71355970D01*
X138907151Y-71345480D01*
X138886107Y-71332867D01*
X138866402Y-71318253D01*
X138848223Y-71301777D01*
X138831747Y-71283598D01*
X138817133Y-71263893D01*
X138804520Y-71242849D01*
X138794030Y-71220671D01*
X138785765Y-71197571D01*
X138779804Y-71173773D01*
X138776204Y-71149504D01*
X138775000Y-71125000D01*
X138775000Y-69875000D01*
X138776204Y-69850496D01*
X138779804Y-69826227D01*
X138785765Y-69802429D01*
X138794030Y-69779329D01*
X138804520Y-69757151D01*
X138817133Y-69736107D01*
X138831747Y-69716402D01*
X138848223Y-69698223D01*
X138866402Y-69681747D01*
X138886107Y-69667133D01*
X138907151Y-69654520D01*
X138929329Y-69644030D01*
X138952429Y-69635765D01*
X138976227Y-69629804D01*
X139000496Y-69626204D01*
X139025000Y-69625000D01*
X139775000Y-69625000D01*
X139799504Y-69626204D01*
X139799504Y-69626204D01*
G37*
D16*
G04 #@! TD*
G04 #@! TO.P,R2,1*
G04 #@! TO.N,/Mains_Sensor*
X139400000Y-70500000D03*
D15*
G04 #@! TO.N,/Battery_Volts*
G04 #@! TO.C,R3*
G36*
X142649504Y-104576204D02*
X142673773Y-104579804D01*
X142697571Y-104585765D01*
X142720671Y-104594030D01*
X142742849Y-104604520D01*
X142763893Y-104617133D01*
X142783598Y-104631747D01*
X142801777Y-104648223D01*
X142818253Y-104666402D01*
X142832867Y-104686107D01*
X142845480Y-104707151D01*
X142855970Y-104729329D01*
X142864235Y-104752429D01*
X142870196Y-104776227D01*
X142873796Y-104800496D01*
X142875000Y-104825000D01*
X142875000Y-105575000D01*
X142873796Y-105599504D01*
X142870196Y-105623773D01*
X142864235Y-105647571D01*
X142855970Y-105670671D01*
X142845480Y-105692849D01*
X142832867Y-105713893D01*
X142818253Y-105733598D01*
X142801777Y-105751777D01*
X142783598Y-105768253D01*
X142763893Y-105782867D01*
X142742849Y-105795480D01*
X142720671Y-105805970D01*
X142697571Y-105814235D01*
X142673773Y-105820196D01*
X142649504Y-105823796D01*
X142625000Y-105825000D01*
X141375000Y-105825000D01*
X141350496Y-105823796D01*
X141326227Y-105820196D01*
X141302429Y-105814235D01*
X141279329Y-105805970D01*
X141257151Y-105795480D01*
X141236107Y-105782867D01*
X141216402Y-105768253D01*
X141198223Y-105751777D01*
X141181747Y-105733598D01*
X141167133Y-105713893D01*
X141154520Y-105692849D01*
X141144030Y-105670671D01*
X141135765Y-105647571D01*
X141129804Y-105623773D01*
X141126204Y-105599504D01*
X141125000Y-105575000D01*
X141125000Y-104825000D01*
X141126204Y-104800496D01*
X141129804Y-104776227D01*
X141135765Y-104752429D01*
X141144030Y-104729329D01*
X141154520Y-104707151D01*
X141167133Y-104686107D01*
X141181747Y-104666402D01*
X141198223Y-104648223D01*
X141216402Y-104631747D01*
X141236107Y-104617133D01*
X141257151Y-104604520D01*
X141279329Y-104594030D01*
X141302429Y-104585765D01*
X141326227Y-104579804D01*
X141350496Y-104576204D01*
X141375000Y-104575000D01*
X142625000Y-104575000D01*
X142649504Y-104576204D01*
X142649504Y-104576204D01*
G37*
D16*
G04 #@! TD*
G04 #@! TO.P,R3,2*
G04 #@! TO.N,/Battery_Volts*
X142000000Y-105200000D03*
D15*
G04 #@! TO.N,GND*
G04 #@! TO.C,R3*
G36*
X142649504Y-107376204D02*
X142673773Y-107379804D01*
X142697571Y-107385765D01*
X142720671Y-107394030D01*
X142742849Y-107404520D01*
X142763893Y-107417133D01*
X142783598Y-107431747D01*
X142801777Y-107448223D01*
X142818253Y-107466402D01*
X142832867Y-107486107D01*
X142845480Y-107507151D01*
X142855970Y-107529329D01*
X142864235Y-107552429D01*
X142870196Y-107576227D01*
X142873796Y-107600496D01*
X142875000Y-107625000D01*
X142875000Y-108375000D01*
X142873796Y-108399504D01*
X142870196Y-108423773D01*
X142864235Y-108447571D01*
X142855970Y-108470671D01*
X142845480Y-108492849D01*
X142832867Y-108513893D01*
X142818253Y-108533598D01*
X142801777Y-108551777D01*
X142783598Y-108568253D01*
X142763893Y-108582867D01*
X142742849Y-108595480D01*
X142720671Y-108605970D01*
X142697571Y-108614235D01*
X142673773Y-108620196D01*
X142649504Y-108623796D01*
X142625000Y-108625000D01*
X141375000Y-108625000D01*
X141350496Y-108623796D01*
X141326227Y-108620196D01*
X141302429Y-108614235D01*
X141279329Y-108605970D01*
X141257151Y-108595480D01*
X141236107Y-108582867D01*
X141216402Y-108568253D01*
X141198223Y-108551777D01*
X141181747Y-108533598D01*
X141167133Y-108513893D01*
X141154520Y-108492849D01*
X141144030Y-108470671D01*
X141135765Y-108447571D01*
X141129804Y-108423773D01*
X141126204Y-108399504D01*
X141125000Y-108375000D01*
X141125000Y-107625000D01*
X141126204Y-107600496D01*
X141129804Y-107576227D01*
X141135765Y-107552429D01*
X141144030Y-107529329D01*
X141154520Y-107507151D01*
X141167133Y-107486107D01*
X141181747Y-107466402D01*
X141198223Y-107448223D01*
X141216402Y-107431747D01*
X141236107Y-107417133D01*
X141257151Y-107404520D01*
X141279329Y-107394030D01*
X141302429Y-107385765D01*
X141326227Y-107379804D01*
X141350496Y-107376204D01*
X141375000Y-107375000D01*
X142625000Y-107375000D01*
X142649504Y-107376204D01*
X142649504Y-107376204D01*
G37*
D16*
G04 #@! TD*
G04 #@! TO.P,R3,1*
G04 #@! TO.N,GND*
X142000000Y-108000000D03*
D15*
G04 #@! TO.N,GND*
G04 #@! TO.C,R4*
G36*
X142649504Y-66976204D02*
X142673773Y-66979804D01*
X142697571Y-66985765D01*
X142720671Y-66994030D01*
X142742849Y-67004520D01*
X142763893Y-67017133D01*
X142783598Y-67031747D01*
X142801777Y-67048223D01*
X142818253Y-67066402D01*
X142832867Y-67086107D01*
X142845480Y-67107151D01*
X142855970Y-67129329D01*
X142864235Y-67152429D01*
X142870196Y-67176227D01*
X142873796Y-67200496D01*
X142875000Y-67225000D01*
X142875000Y-67975000D01*
X142873796Y-67999504D01*
X142870196Y-68023773D01*
X142864235Y-68047571D01*
X142855970Y-68070671D01*
X142845480Y-68092849D01*
X142832867Y-68113893D01*
X142818253Y-68133598D01*
X142801777Y-68151777D01*
X142783598Y-68168253D01*
X142763893Y-68182867D01*
X142742849Y-68195480D01*
X142720671Y-68205970D01*
X142697571Y-68214235D01*
X142673773Y-68220196D01*
X142649504Y-68223796D01*
X142625000Y-68225000D01*
X141375000Y-68225000D01*
X141350496Y-68223796D01*
X141326227Y-68220196D01*
X141302429Y-68214235D01*
X141279329Y-68205970D01*
X141257151Y-68195480D01*
X141236107Y-68182867D01*
X141216402Y-68168253D01*
X141198223Y-68151777D01*
X141181747Y-68133598D01*
X141167133Y-68113893D01*
X141154520Y-68092849D01*
X141144030Y-68070671D01*
X141135765Y-68047571D01*
X141129804Y-68023773D01*
X141126204Y-67999504D01*
X141125000Y-67975000D01*
X141125000Y-67225000D01*
X141126204Y-67200496D01*
X141129804Y-67176227D01*
X141135765Y-67152429D01*
X141144030Y-67129329D01*
X141154520Y-67107151D01*
X141167133Y-67086107D01*
X141181747Y-67066402D01*
X141198223Y-67048223D01*
X141216402Y-67031747D01*
X141236107Y-67017133D01*
X141257151Y-67004520D01*
X141279329Y-66994030D01*
X141302429Y-66985765D01*
X141326227Y-66979804D01*
X141350496Y-66976204D01*
X141375000Y-66975000D01*
X142625000Y-66975000D01*
X142649504Y-66976204D01*
X142649504Y-66976204D01*
G37*
D16*
G04 #@! TD*
G04 #@! TO.P,R4,1*
G04 #@! TO.N,GND*
X142000000Y-67600000D03*
D15*
G04 #@! TO.N,/Mains_Sensor*
G04 #@! TO.C,R4*
G36*
X142649504Y-69776204D02*
X142673773Y-69779804D01*
X142697571Y-69785765D01*
X142720671Y-69794030D01*
X142742849Y-69804520D01*
X142763893Y-69817133D01*
X142783598Y-69831747D01*
X142801777Y-69848223D01*
X142818253Y-69866402D01*
X142832867Y-69886107D01*
X142845480Y-69907151D01*
X142855970Y-69929329D01*
X142864235Y-69952429D01*
X142870196Y-69976227D01*
X142873796Y-70000496D01*
X142875000Y-70025000D01*
X142875000Y-70775000D01*
X142873796Y-70799504D01*
X142870196Y-70823773D01*
X142864235Y-70847571D01*
X142855970Y-70870671D01*
X142845480Y-70892849D01*
X142832867Y-70913893D01*
X142818253Y-70933598D01*
X142801777Y-70951777D01*
X142783598Y-70968253D01*
X142763893Y-70982867D01*
X142742849Y-70995480D01*
X142720671Y-71005970D01*
X142697571Y-71014235D01*
X142673773Y-71020196D01*
X142649504Y-71023796D01*
X142625000Y-71025000D01*
X141375000Y-71025000D01*
X141350496Y-71023796D01*
X141326227Y-71020196D01*
X141302429Y-71014235D01*
X141279329Y-71005970D01*
X141257151Y-70995480D01*
X141236107Y-70982867D01*
X141216402Y-70968253D01*
X141198223Y-70951777D01*
X141181747Y-70933598D01*
X141167133Y-70913893D01*
X141154520Y-70892849D01*
X141144030Y-70870671D01*
X141135765Y-70847571D01*
X141129804Y-70823773D01*
X141126204Y-70799504D01*
X141125000Y-70775000D01*
X141125000Y-70025000D01*
X141126204Y-70000496D01*
X141129804Y-69976227D01*
X141135765Y-69952429D01*
X141144030Y-69929329D01*
X141154520Y-69907151D01*
X141167133Y-69886107D01*
X141181747Y-69866402D01*
X141198223Y-69848223D01*
X141216402Y-69831747D01*
X141236107Y-69817133D01*
X141257151Y-69804520D01*
X141279329Y-69794030D01*
X141302429Y-69785765D01*
X141326227Y-69779804D01*
X141350496Y-69776204D01*
X141375000Y-69775000D01*
X142625000Y-69775000D01*
X142649504Y-69776204D01*
X142649504Y-69776204D01*
G37*
D16*
G04 #@! TD*
G04 #@! TO.P,R4,2*
G04 #@! TO.N,/Mains_Sensor*
X142000000Y-70400000D03*
D15*
G04 #@! TO.N,Net-(C9-Pad1)*
G04 #@! TO.C,R5*
G36*
X165149504Y-95276204D02*
X165173773Y-95279804D01*
X165197571Y-95285765D01*
X165220671Y-95294030D01*
X165242849Y-95304520D01*
X165263893Y-95317133D01*
X165283598Y-95331747D01*
X165301777Y-95348223D01*
X165318253Y-95366402D01*
X165332867Y-95386107D01*
X165345480Y-95407151D01*
X165355970Y-95429329D01*
X165364235Y-95452429D01*
X165370196Y-95476227D01*
X165373796Y-95500496D01*
X165375000Y-95525000D01*
X165375000Y-96275000D01*
X165373796Y-96299504D01*
X165370196Y-96323773D01*
X165364235Y-96347571D01*
X165355970Y-96370671D01*
X165345480Y-96392849D01*
X165332867Y-96413893D01*
X165318253Y-96433598D01*
X165301777Y-96451777D01*
X165283598Y-96468253D01*
X165263893Y-96482867D01*
X165242849Y-96495480D01*
X165220671Y-96505970D01*
X165197571Y-96514235D01*
X165173773Y-96520196D01*
X165149504Y-96523796D01*
X165125000Y-96525000D01*
X163875000Y-96525000D01*
X163850496Y-96523796D01*
X163826227Y-96520196D01*
X163802429Y-96514235D01*
X163779329Y-96505970D01*
X163757151Y-96495480D01*
X163736107Y-96482867D01*
X163716402Y-96468253D01*
X163698223Y-96451777D01*
X163681747Y-96433598D01*
X163667133Y-96413893D01*
X163654520Y-96392849D01*
X163644030Y-96370671D01*
X163635765Y-96347571D01*
X163629804Y-96323773D01*
X163626204Y-96299504D01*
X163625000Y-96275000D01*
X163625000Y-95525000D01*
X163626204Y-95500496D01*
X163629804Y-95476227D01*
X163635765Y-95452429D01*
X163644030Y-95429329D01*
X163654520Y-95407151D01*
X163667133Y-95386107D01*
X163681747Y-95366402D01*
X163698223Y-95348223D01*
X163716402Y-95331747D01*
X163736107Y-95317133D01*
X163757151Y-95304520D01*
X163779329Y-95294030D01*
X163802429Y-95285765D01*
X163826227Y-95279804D01*
X163850496Y-95276204D01*
X163875000Y-95275000D01*
X165125000Y-95275000D01*
X165149504Y-95276204D01*
X165149504Y-95276204D01*
G37*
D16*
G04 #@! TD*
G04 #@! TO.P,R5,1*
G04 #@! TO.N,Net-(C9-Pad1)*
X164500000Y-95900000D03*
D15*
G04 #@! TO.N,/Radio_VOX*
G04 #@! TO.C,R5*
G36*
X165149504Y-92476204D02*
X165173773Y-92479804D01*
X165197571Y-92485765D01*
X165220671Y-92494030D01*
X165242849Y-92504520D01*
X165263893Y-92517133D01*
X165283598Y-92531747D01*
X165301777Y-92548223D01*
X165318253Y-92566402D01*
X165332867Y-92586107D01*
X165345480Y-92607151D01*
X165355970Y-92629329D01*
X165364235Y-92652429D01*
X165370196Y-92676227D01*
X165373796Y-92700496D01*
X165375000Y-92725000D01*
X165375000Y-93475000D01*
X165373796Y-93499504D01*
X165370196Y-93523773D01*
X165364235Y-93547571D01*
X165355970Y-93570671D01*
X165345480Y-93592849D01*
X165332867Y-93613893D01*
X165318253Y-93633598D01*
X165301777Y-93651777D01*
X165283598Y-93668253D01*
X165263893Y-93682867D01*
X165242849Y-93695480D01*
X165220671Y-93705970D01*
X165197571Y-93714235D01*
X165173773Y-93720196D01*
X165149504Y-93723796D01*
X165125000Y-93725000D01*
X163875000Y-93725000D01*
X163850496Y-93723796D01*
X163826227Y-93720196D01*
X163802429Y-93714235D01*
X163779329Y-93705970D01*
X163757151Y-93695480D01*
X163736107Y-93682867D01*
X163716402Y-93668253D01*
X163698223Y-93651777D01*
X163681747Y-93633598D01*
X163667133Y-93613893D01*
X163654520Y-93592849D01*
X163644030Y-93570671D01*
X163635765Y-93547571D01*
X163629804Y-93523773D01*
X163626204Y-93499504D01*
X163625000Y-93475000D01*
X163625000Y-92725000D01*
X163626204Y-92700496D01*
X163629804Y-92676227D01*
X163635765Y-92652429D01*
X163644030Y-92629329D01*
X163654520Y-92607151D01*
X163667133Y-92586107D01*
X163681747Y-92566402D01*
X163698223Y-92548223D01*
X163716402Y-92531747D01*
X163736107Y-92517133D01*
X163757151Y-92504520D01*
X163779329Y-92494030D01*
X163802429Y-92485765D01*
X163826227Y-92479804D01*
X163850496Y-92476204D01*
X163875000Y-92475000D01*
X165125000Y-92475000D01*
X165149504Y-92476204D01*
X165149504Y-92476204D01*
G37*
D16*
G04 #@! TD*
G04 #@! TO.P,R5,2*
G04 #@! TO.N,/Radio_VOX*
X164500000Y-93100000D03*
D15*
G04 #@! TO.N,GND*
G04 #@! TO.C,R6*
G36*
X159499504Y-92126204D02*
X159523773Y-92129804D01*
X159547571Y-92135765D01*
X159570671Y-92144030D01*
X159592849Y-92154520D01*
X159613893Y-92167133D01*
X159633598Y-92181747D01*
X159651777Y-92198223D01*
X159668253Y-92216402D01*
X159682867Y-92236107D01*
X159695480Y-92257151D01*
X159705970Y-92279329D01*
X159714235Y-92302429D01*
X159720196Y-92326227D01*
X159723796Y-92350496D01*
X159725000Y-92375000D01*
X159725000Y-93625000D01*
X159723796Y-93649504D01*
X159720196Y-93673773D01*
X159714235Y-93697571D01*
X159705970Y-93720671D01*
X159695480Y-93742849D01*
X159682867Y-93763893D01*
X159668253Y-93783598D01*
X159651777Y-93801777D01*
X159633598Y-93818253D01*
X159613893Y-93832867D01*
X159592849Y-93845480D01*
X159570671Y-93855970D01*
X159547571Y-93864235D01*
X159523773Y-93870196D01*
X159499504Y-93873796D01*
X159475000Y-93875000D01*
X158725000Y-93875000D01*
X158700496Y-93873796D01*
X158676227Y-93870196D01*
X158652429Y-93864235D01*
X158629329Y-93855970D01*
X158607151Y-93845480D01*
X158586107Y-93832867D01*
X158566402Y-93818253D01*
X158548223Y-93801777D01*
X158531747Y-93783598D01*
X158517133Y-93763893D01*
X158504520Y-93742849D01*
X158494030Y-93720671D01*
X158485765Y-93697571D01*
X158479804Y-93673773D01*
X158476204Y-93649504D01*
X158475000Y-93625000D01*
X158475000Y-92375000D01*
X158476204Y-92350496D01*
X158479804Y-92326227D01*
X158485765Y-92302429D01*
X158494030Y-92279329D01*
X158504520Y-92257151D01*
X158517133Y-92236107D01*
X158531747Y-92216402D01*
X158548223Y-92198223D01*
X158566402Y-92181747D01*
X158586107Y-92167133D01*
X158607151Y-92154520D01*
X158629329Y-92144030D01*
X158652429Y-92135765D01*
X158676227Y-92129804D01*
X158700496Y-92126204D01*
X158725000Y-92125000D01*
X159475000Y-92125000D01*
X159499504Y-92126204D01*
X159499504Y-92126204D01*
G37*
D16*
G04 #@! TD*
G04 #@! TO.P,R6,2*
G04 #@! TO.N,GND*
X159100000Y-93000000D03*
D15*
G04 #@! TO.N,/Radio_VOX*
G04 #@! TO.C,R6*
G36*
X162299504Y-92126204D02*
X162323773Y-92129804D01*
X162347571Y-92135765D01*
X162370671Y-92144030D01*
X162392849Y-92154520D01*
X162413893Y-92167133D01*
X162433598Y-92181747D01*
X162451777Y-92198223D01*
X162468253Y-92216402D01*
X162482867Y-92236107D01*
X162495480Y-92257151D01*
X162505970Y-92279329D01*
X162514235Y-92302429D01*
X162520196Y-92326227D01*
X162523796Y-92350496D01*
X162525000Y-92375000D01*
X162525000Y-93625000D01*
X162523796Y-93649504D01*
X162520196Y-93673773D01*
X162514235Y-93697571D01*
X162505970Y-93720671D01*
X162495480Y-93742849D01*
X162482867Y-93763893D01*
X162468253Y-93783598D01*
X162451777Y-93801777D01*
X162433598Y-93818253D01*
X162413893Y-93832867D01*
X162392849Y-93845480D01*
X162370671Y-93855970D01*
X162347571Y-93864235D01*
X162323773Y-93870196D01*
X162299504Y-93873796D01*
X162275000Y-93875000D01*
X161525000Y-93875000D01*
X161500496Y-93873796D01*
X161476227Y-93870196D01*
X161452429Y-93864235D01*
X161429329Y-93855970D01*
X161407151Y-93845480D01*
X161386107Y-93832867D01*
X161366402Y-93818253D01*
X161348223Y-93801777D01*
X161331747Y-93783598D01*
X161317133Y-93763893D01*
X161304520Y-93742849D01*
X161294030Y-93720671D01*
X161285765Y-93697571D01*
X161279804Y-93673773D01*
X161276204Y-93649504D01*
X161275000Y-93625000D01*
X161275000Y-92375000D01*
X161276204Y-92350496D01*
X161279804Y-92326227D01*
X161285765Y-92302429D01*
X161294030Y-92279329D01*
X161304520Y-92257151D01*
X161317133Y-92236107D01*
X161331747Y-92216402D01*
X161348223Y-92198223D01*
X161366402Y-92181747D01*
X161386107Y-92167133D01*
X161407151Y-92154520D01*
X161429329Y-92144030D01*
X161452429Y-92135765D01*
X161476227Y-92129804D01*
X161500496Y-92126204D01*
X161525000Y-92125000D01*
X162275000Y-92125000D01*
X162299504Y-92126204D01*
X162299504Y-92126204D01*
G37*
D16*
G04 #@! TD*
G04 #@! TO.P,R6,1*
G04 #@! TO.N,/Radio_VOX*
X161900000Y-93000000D03*
D23*
G04 #@! TO.P,U1,1*
G04 #@! TO.N,Net-(C1-Pad1)*
X103000000Y-92000000D03*
D24*
G04 #@! TO.P,U1,2*
G04 #@! TO.N,GND*
X103000000Y-94540000D03*
G04 #@! TO.P,U1,3*
G04 #@! TO.N,Net-(C7-Pad1)*
X103000000Y-97080000D03*
G04 #@! TD*
G04 #@! TO.P,U2,3*
G04 #@! TO.N,+5V*
X116500000Y-97080000D03*
G04 #@! TO.P,U2,2*
G04 #@! TO.N,GND*
X116500000Y-94540000D03*
D23*
G04 #@! TO.P,U2,1*
G04 #@! TO.N,Net-(C1-Pad1)*
X116500000Y-92000000D03*
G04 #@! TD*
D15*
G04 #@! TO.N,Net-(F1-Pad2)*
G04 #@! TO.C,F1*
G36*
X107974505Y-71301204D02*
X107998773Y-71304804D01*
X108022572Y-71310765D01*
X108045671Y-71319030D01*
X108067850Y-71329520D01*
X108088893Y-71342132D01*
X108108599Y-71356747D01*
X108126777Y-71373223D01*
X108143253Y-71391401D01*
X108157868Y-71411107D01*
X108170480Y-71432150D01*
X108180970Y-71454329D01*
X108189235Y-71477428D01*
X108195196Y-71501227D01*
X108198796Y-71525495D01*
X108200000Y-71549999D01*
X108200000Y-74450001D01*
X108198796Y-74474505D01*
X108195196Y-74498773D01*
X108189235Y-74522572D01*
X108180970Y-74545671D01*
X108170480Y-74567850D01*
X108157868Y-74588893D01*
X108143253Y-74608599D01*
X108126777Y-74626777D01*
X108108599Y-74643253D01*
X108088893Y-74657868D01*
X108067850Y-74670480D01*
X108045671Y-74680970D01*
X108022572Y-74689235D01*
X107998773Y-74695196D01*
X107974505Y-74698796D01*
X107950001Y-74700000D01*
X107324999Y-74700000D01*
X107300495Y-74698796D01*
X107276227Y-74695196D01*
X107252428Y-74689235D01*
X107229329Y-74680970D01*
X107207150Y-74670480D01*
X107186107Y-74657868D01*
X107166401Y-74643253D01*
X107148223Y-74626777D01*
X107131747Y-74608599D01*
X107117132Y-74588893D01*
X107104520Y-74567850D01*
X107094030Y-74545671D01*
X107085765Y-74522572D01*
X107079804Y-74498773D01*
X107076204Y-74474505D01*
X107075000Y-74450001D01*
X107075000Y-71549999D01*
X107076204Y-71525495D01*
X107079804Y-71501227D01*
X107085765Y-71477428D01*
X107094030Y-71454329D01*
X107104520Y-71432150D01*
X107117132Y-71411107D01*
X107131747Y-71391401D01*
X107148223Y-71373223D01*
X107166401Y-71356747D01*
X107186107Y-71342132D01*
X107207150Y-71329520D01*
X107229329Y-71319030D01*
X107252428Y-71310765D01*
X107276227Y-71304804D01*
X107300495Y-71301204D01*
X107324999Y-71300000D01*
X107950001Y-71300000D01*
X107974505Y-71301204D01*
X107974505Y-71301204D01*
G37*
D25*
G04 #@! TD*
G04 #@! TO.P,F1,2*
G04 #@! TO.N,Net-(F1-Pad2)*
X107637500Y-73000000D03*
D15*
G04 #@! TO.N,Net-(D1-Pad2)*
G04 #@! TO.C,F1*
G36*
X103699505Y-71301204D02*
X103723773Y-71304804D01*
X103747572Y-71310765D01*
X103770671Y-71319030D01*
X103792850Y-71329520D01*
X103813893Y-71342132D01*
X103833599Y-71356747D01*
X103851777Y-71373223D01*
X103868253Y-71391401D01*
X103882868Y-71411107D01*
X103895480Y-71432150D01*
X103905970Y-71454329D01*
X103914235Y-71477428D01*
X103920196Y-71501227D01*
X103923796Y-71525495D01*
X103925000Y-71549999D01*
X103925000Y-74450001D01*
X103923796Y-74474505D01*
X103920196Y-74498773D01*
X103914235Y-74522572D01*
X103905970Y-74545671D01*
X103895480Y-74567850D01*
X103882868Y-74588893D01*
X103868253Y-74608599D01*
X103851777Y-74626777D01*
X103833599Y-74643253D01*
X103813893Y-74657868D01*
X103792850Y-74670480D01*
X103770671Y-74680970D01*
X103747572Y-74689235D01*
X103723773Y-74695196D01*
X103699505Y-74698796D01*
X103675001Y-74700000D01*
X103049999Y-74700000D01*
X103025495Y-74698796D01*
X103001227Y-74695196D01*
X102977428Y-74689235D01*
X102954329Y-74680970D01*
X102932150Y-74670480D01*
X102911107Y-74657868D01*
X102891401Y-74643253D01*
X102873223Y-74626777D01*
X102856747Y-74608599D01*
X102842132Y-74588893D01*
X102829520Y-74567850D01*
X102819030Y-74545671D01*
X102810765Y-74522572D01*
X102804804Y-74498773D01*
X102801204Y-74474505D01*
X102800000Y-74450001D01*
X102800000Y-71549999D01*
X102801204Y-71525495D01*
X102804804Y-71501227D01*
X102810765Y-71477428D01*
X102819030Y-71454329D01*
X102829520Y-71432150D01*
X102842132Y-71411107D01*
X102856747Y-71391401D01*
X102873223Y-71373223D01*
X102891401Y-71356747D01*
X102911107Y-71342132D01*
X102932150Y-71329520D01*
X102954329Y-71319030D01*
X102977428Y-71310765D01*
X103001227Y-71304804D01*
X103025495Y-71301204D01*
X103049999Y-71300000D01*
X103675001Y-71300000D01*
X103699505Y-71301204D01*
X103699505Y-71301204D01*
G37*
D25*
G04 #@! TD*
G04 #@! TO.P,F1,1*
G04 #@! TO.N,Net-(D1-Pad2)*
X103362500Y-73000000D03*
D15*
G04 #@! TO.N,Net-(F2-Pad1)*
G04 #@! TO.C,F2*
G36*
X117474505Y-114076204D02*
X117498773Y-114079804D01*
X117522572Y-114085765D01*
X117545671Y-114094030D01*
X117567850Y-114104520D01*
X117588893Y-114117132D01*
X117608599Y-114131747D01*
X117626777Y-114148223D01*
X117643253Y-114166401D01*
X117657868Y-114186107D01*
X117670480Y-114207150D01*
X117680970Y-114229329D01*
X117689235Y-114252428D01*
X117695196Y-114276227D01*
X117698796Y-114300495D01*
X117700000Y-114324999D01*
X117700000Y-114950001D01*
X117698796Y-114974505D01*
X117695196Y-114998773D01*
X117689235Y-115022572D01*
X117680970Y-115045671D01*
X117670480Y-115067850D01*
X117657868Y-115088893D01*
X117643253Y-115108599D01*
X117626777Y-115126777D01*
X117608599Y-115143253D01*
X117588893Y-115157868D01*
X117567850Y-115170480D01*
X117545671Y-115180970D01*
X117522572Y-115189235D01*
X117498773Y-115195196D01*
X117474505Y-115198796D01*
X117450001Y-115200000D01*
X114549999Y-115200000D01*
X114525495Y-115198796D01*
X114501227Y-115195196D01*
X114477428Y-115189235D01*
X114454329Y-115180970D01*
X114432150Y-115170480D01*
X114411107Y-115157868D01*
X114391401Y-115143253D01*
X114373223Y-115126777D01*
X114356747Y-115108599D01*
X114342132Y-115088893D01*
X114329520Y-115067850D01*
X114319030Y-115045671D01*
X114310765Y-115022572D01*
X114304804Y-114998773D01*
X114301204Y-114974505D01*
X114300000Y-114950001D01*
X114300000Y-114324999D01*
X114301204Y-114300495D01*
X114304804Y-114276227D01*
X114310765Y-114252428D01*
X114319030Y-114229329D01*
X114329520Y-114207150D01*
X114342132Y-114186107D01*
X114356747Y-114166401D01*
X114373223Y-114148223D01*
X114391401Y-114131747D01*
X114411107Y-114117132D01*
X114432150Y-114104520D01*
X114454329Y-114094030D01*
X114477428Y-114085765D01*
X114501227Y-114079804D01*
X114525495Y-114076204D01*
X114549999Y-114075000D01*
X117450001Y-114075000D01*
X117474505Y-114076204D01*
X117474505Y-114076204D01*
G37*
D25*
G04 #@! TD*
G04 #@! TO.P,F2,1*
G04 #@! TO.N,Net-(F2-Pad1)*
X116000000Y-114637500D03*
D15*
G04 #@! TO.N,Net-(C7-Pad1)*
G04 #@! TO.C,F2*
G36*
X117474505Y-109801204D02*
X117498773Y-109804804D01*
X117522572Y-109810765D01*
X117545671Y-109819030D01*
X117567850Y-109829520D01*
X117588893Y-109842132D01*
X117608599Y-109856747D01*
X117626777Y-109873223D01*
X117643253Y-109891401D01*
X117657868Y-109911107D01*
X117670480Y-109932150D01*
X117680970Y-109954329D01*
X117689235Y-109977428D01*
X117695196Y-110001227D01*
X117698796Y-110025495D01*
X117700000Y-110049999D01*
X117700000Y-110675001D01*
X117698796Y-110699505D01*
X117695196Y-110723773D01*
X117689235Y-110747572D01*
X117680970Y-110770671D01*
X117670480Y-110792850D01*
X117657868Y-110813893D01*
X117643253Y-110833599D01*
X117626777Y-110851777D01*
X117608599Y-110868253D01*
X117588893Y-110882868D01*
X117567850Y-110895480D01*
X117545671Y-110905970D01*
X117522572Y-110914235D01*
X117498773Y-110920196D01*
X117474505Y-110923796D01*
X117450001Y-110925000D01*
X114549999Y-110925000D01*
X114525495Y-110923796D01*
X114501227Y-110920196D01*
X114477428Y-110914235D01*
X114454329Y-110905970D01*
X114432150Y-110895480D01*
X114411107Y-110882868D01*
X114391401Y-110868253D01*
X114373223Y-110851777D01*
X114356747Y-110833599D01*
X114342132Y-110813893D01*
X114329520Y-110792850D01*
X114319030Y-110770671D01*
X114310765Y-110747572D01*
X114304804Y-110723773D01*
X114301204Y-110699505D01*
X114300000Y-110675001D01*
X114300000Y-110049999D01*
X114301204Y-110025495D01*
X114304804Y-110001227D01*
X114310765Y-109977428D01*
X114319030Y-109954329D01*
X114329520Y-109932150D01*
X114342132Y-109911107D01*
X114356747Y-109891401D01*
X114373223Y-109873223D01*
X114391401Y-109856747D01*
X114411107Y-109842132D01*
X114432150Y-109829520D01*
X114454329Y-109819030D01*
X114477428Y-109810765D01*
X114501227Y-109804804D01*
X114525495Y-109801204D01*
X114549999Y-109800000D01*
X117450001Y-109800000D01*
X117474505Y-109801204D01*
X117474505Y-109801204D01*
G37*
D25*
G04 #@! TD*
G04 #@! TO.P,F2,2*
G04 #@! TO.N,Net-(C7-Pad1)*
X116000000Y-110362500D03*
D26*
G04 #@! TO.N,GND*
X155000000Y-103500000D03*
G04 #@! TD*
D27*
G04 #@! TO.N,+5V*
X116500000Y-97080000D02*
X116500000Y-98500000D01*
X116100000Y-98900000D02*
X113000000Y-98900000D01*
X116500000Y-98500000D02*
X116100000Y-98900000D01*
G04 #@! TO.N,+3V3*
X168450000Y-104085000D02*
X168450000Y-103000000D01*
X167535000Y-105000000D02*
X168450000Y-104085000D01*
X162000000Y-105000000D02*
X167535000Y-105000000D01*
X150840000Y-96080000D02*
X153080000Y-96080000D01*
X153080000Y-96080000D02*
X162000000Y-105000000D01*
X143580000Y-96080000D02*
X150840000Y-96080000D01*
X143450000Y-74500000D02*
X143450000Y-95950000D01*
X143450000Y-95950000D02*
X143580000Y-96080000D01*
X142920000Y-96080000D02*
X143580000Y-96080000D01*
X141550000Y-101100000D02*
X141550000Y-97450000D01*
X141550000Y-97450000D02*
X142920000Y-96080000D01*
D28*
G04 #@! TO.N,/Battery_Volts*
X147200000Y-105200000D02*
X144500000Y-105200000D01*
X172540000Y-93540000D02*
X173500000Y-94500000D01*
X171160000Y-93540000D02*
X172540000Y-93540000D01*
X173500000Y-94500000D02*
X173500000Y-104000000D01*
X173500000Y-104000000D02*
X170500000Y-107000000D01*
X170500000Y-107000000D02*
X149000000Y-107000000D01*
X149000000Y-107000000D02*
X147200000Y-105200000D01*
X142000000Y-105200000D02*
X144500000Y-105200000D01*
X139500000Y-105200000D02*
X139400000Y-105100000D01*
X142000000Y-105200000D02*
X139500000Y-105200000D01*
X142500000Y-104700000D02*
X142000000Y-105200000D01*
X142500000Y-103100000D02*
X142500000Y-104700000D01*
G04 #@! TO.N,/Mains_Sensor*
X141900000Y-70500000D02*
X142000000Y-70400000D01*
X142000000Y-70400000D02*
X144500000Y-70400000D01*
X142500000Y-70900000D02*
X142000000Y-70400000D01*
X142500000Y-72500000D02*
X142500000Y-70900000D01*
X150560000Y-70400000D02*
X150840000Y-70680000D01*
X144500000Y-70400000D02*
X150560000Y-70400000D01*
X150840000Y-70680000D02*
X150840000Y-68140000D01*
X139500000Y-70400000D02*
X139400000Y-70500000D01*
X142000000Y-70400000D02*
X139500000Y-70400000D01*
G04 #@! TO.N,Net-(A1-Pad2)*
X167520000Y-98620000D02*
X167400000Y-98500000D01*
X171160000Y-98620000D02*
X167520000Y-98620000D01*
X167500000Y-98600000D02*
X167400000Y-98500000D01*
X167500000Y-101000000D02*
X167500000Y-98600000D01*
G04 #@! TO.N,Net-(C1-Pad1)*
X103500000Y-82000000D02*
X103000000Y-81500000D01*
D29*
X107800000Y-82000000D02*
X103500000Y-82000000D01*
X108000000Y-77500000D02*
X109100000Y-77500000D01*
X107800000Y-82000000D02*
X107800000Y-77700000D01*
X107800000Y-77700000D02*
X108000000Y-77500000D01*
X107800000Y-87000000D02*
X114500000Y-87000000D01*
X107800000Y-82000000D02*
X107800000Y-87000000D01*
X114500000Y-87000000D02*
X116500000Y-89000000D01*
D28*
X100475000Y-90100000D02*
X99500000Y-90100000D01*
D27*
X102381000Y-90100000D02*
X100475000Y-90100000D01*
X103000000Y-90719000D02*
X102381000Y-90100000D01*
X103000000Y-92000000D02*
X103000000Y-90719000D01*
X116400000Y-90100000D02*
X113000000Y-90100000D01*
D28*
X116500000Y-90000000D02*
X116400000Y-90100000D01*
D29*
X116500000Y-90000000D02*
X116500000Y-92000000D01*
X116500000Y-89000000D02*
X116500000Y-90000000D01*
X105000000Y-92000000D02*
X103000000Y-92000000D01*
X107800000Y-89200000D02*
X105000000Y-92000000D01*
X107800000Y-87000000D02*
X107800000Y-89200000D01*
G04 #@! TO.N,Net-(C7-Pad1)*
X116000000Y-108500000D02*
X116000000Y-110362500D01*
X114500000Y-107000000D02*
X116000000Y-108500000D01*
X110000000Y-107000000D02*
X114500000Y-107000000D01*
X103000000Y-100000000D02*
X110000000Y-107000000D01*
D27*
X102900000Y-98900000D02*
X99500000Y-98900000D01*
D28*
X103000000Y-99000000D02*
X102900000Y-98900000D01*
D29*
X103000000Y-99000000D02*
X103000000Y-100000000D01*
X103000000Y-97080000D02*
X103000000Y-99000000D01*
D28*
G04 #@! TO.N,Net-(C9-Pad1)*
X164600000Y-96000000D02*
X164500000Y-95900000D01*
X164600000Y-98500000D02*
X164600000Y-96000000D01*
G04 #@! TO.N,Net-(D1-Pad2)*
X103362500Y-77137500D02*
X103000000Y-77500000D01*
D29*
X103362500Y-73000000D02*
X103362500Y-77137500D01*
G04 #@! TO.N,Net-(F1-Pad2)*
X112500000Y-73000000D02*
X107637500Y-73000000D01*
X112500000Y-50500000D02*
X112500000Y-73000000D01*
D27*
X136600000Y-89100000D02*
X136600000Y-105100000D01*
X112500000Y-70500000D02*
X118000000Y-70500000D01*
X118000000Y-70500000D02*
X136600000Y-89100000D01*
D28*
G04 #@! TO.N,Net-(F2-Pad1)*
X116000000Y-122722000D02*
X115944000Y-122778000D01*
D29*
X116000000Y-114637500D02*
X116000000Y-122722000D01*
D28*
G04 #@! TO.N,/Radio_VOX*
X162000000Y-93100000D02*
X161900000Y-93000000D01*
X164500000Y-93100000D02*
X162000000Y-93100000D01*
X161900000Y-93000000D02*
X161900000Y-63400000D01*
X157500000Y-59000000D02*
X157500000Y-50500000D01*
X161900000Y-63400000D02*
X157500000Y-59000000D01*
G04 #@! TO.N,Net-(J1-Pad8)*
X136600000Y-70500000D02*
X136600000Y-65900000D01*
X147500000Y-55000000D02*
X147500000Y-50500000D01*
X136600000Y-65900000D02*
X147500000Y-55000000D01*
D27*
G04 #@! TO.N,Net-(J2-Pad2)*
X118444000Y-122778000D02*
X120444000Y-122778000D01*
G04 #@! TD*
D30*
G04 #@! TO.N,GND*
G36*
X174290001Y-94240228D02*
X174277604Y-94177906D01*
X174095152Y-93904848D01*
X174026226Y-93858793D01*
X173181209Y-93013777D01*
X173135152Y-92944848D01*
X172862094Y-92762396D01*
X172621303Y-92714500D01*
X172621301Y-92714500D01*
X172540000Y-92698328D01*
X172458699Y-92714500D01*
X172363896Y-92714500D01*
X171972862Y-92323466D01*
X171843784Y-92270000D01*
X171972862Y-92216534D01*
X172376534Y-91812862D01*
X172595000Y-91285439D01*
X172595000Y-90714561D01*
X172376534Y-90187138D01*
X171972862Y-89783466D01*
X171843784Y-89730000D01*
X171972862Y-89676534D01*
X172376534Y-89272862D01*
X172595000Y-88745439D01*
X172595000Y-88174561D01*
X172376534Y-87647138D01*
X171972862Y-87243466D01*
X171843784Y-87190000D01*
X171972862Y-87136534D01*
X172376534Y-86732862D01*
X172595000Y-86205439D01*
X172595000Y-85634561D01*
X172376534Y-85107138D01*
X171972862Y-84703466D01*
X171843784Y-84650000D01*
X171972862Y-84596534D01*
X172376534Y-84192862D01*
X172595000Y-83665439D01*
X172595000Y-83094561D01*
X172376534Y-82567138D01*
X171972862Y-82163466D01*
X171843784Y-82110000D01*
X171972862Y-82056534D01*
X172376534Y-81652862D01*
X172595000Y-81125439D01*
X172595000Y-80554561D01*
X172376534Y-80027138D01*
X171972862Y-79623466D01*
X171843784Y-79570000D01*
X171972862Y-79516534D01*
X172376534Y-79112862D01*
X172595000Y-78585439D01*
X172595000Y-78014561D01*
X172376534Y-77487138D01*
X171972862Y-77083466D01*
X171843784Y-77030000D01*
X171972862Y-76976534D01*
X172376534Y-76572862D01*
X172595000Y-76045439D01*
X172595000Y-75474561D01*
X172376534Y-74947138D01*
X171972862Y-74543466D01*
X171843784Y-74490000D01*
X171972862Y-74436534D01*
X172376534Y-74032862D01*
X172595000Y-73505439D01*
X172595000Y-72934561D01*
X172376534Y-72407138D01*
X171972862Y-72003466D01*
X171843784Y-71950000D01*
X171972862Y-71896534D01*
X172376534Y-71492862D01*
X172595000Y-70965439D01*
X172595000Y-70394561D01*
X172376534Y-69867138D01*
X171972862Y-69463466D01*
X171843784Y-69410000D01*
X171972862Y-69356534D01*
X172376534Y-68952862D01*
X172595000Y-68425439D01*
X172595000Y-67854561D01*
X172376534Y-67327138D01*
X171972862Y-66923466D01*
X171445439Y-66705000D01*
X170874561Y-66705000D01*
X170347138Y-66923466D01*
X169943466Y-67327138D01*
X169725000Y-67854561D01*
X169725000Y-68425439D01*
X169943466Y-68952862D01*
X170347138Y-69356534D01*
X170476216Y-69410000D01*
X170347138Y-69463466D01*
X169943466Y-69867138D01*
X169725000Y-70394561D01*
X169725000Y-70965439D01*
X169943466Y-71492862D01*
X170347138Y-71896534D01*
X170476216Y-71950000D01*
X170347138Y-72003466D01*
X169943466Y-72407138D01*
X169725000Y-72934561D01*
X169725000Y-73505439D01*
X169943466Y-74032862D01*
X170347138Y-74436534D01*
X170476216Y-74490000D01*
X170347138Y-74543466D01*
X169943466Y-74947138D01*
X169725000Y-75474561D01*
X169725000Y-76045439D01*
X169943466Y-76572862D01*
X170347138Y-76976534D01*
X170476216Y-77030000D01*
X170347138Y-77083466D01*
X169943466Y-77487138D01*
X169725000Y-78014561D01*
X169725000Y-78585439D01*
X169943466Y-79112862D01*
X170347138Y-79516534D01*
X170476216Y-79570000D01*
X170347138Y-79623466D01*
X169943466Y-80027138D01*
X169725000Y-80554561D01*
X169725000Y-81125439D01*
X169943466Y-81652862D01*
X170347138Y-82056534D01*
X170476216Y-82110000D01*
X170347138Y-82163466D01*
X169943466Y-82567138D01*
X169725000Y-83094561D01*
X169725000Y-83665439D01*
X169943466Y-84192862D01*
X170347138Y-84596534D01*
X170476216Y-84650000D01*
X170347138Y-84703466D01*
X169943466Y-85107138D01*
X169725000Y-85634561D01*
X169725000Y-86205439D01*
X169943466Y-86732862D01*
X170347138Y-87136534D01*
X170476216Y-87190000D01*
X170347138Y-87243466D01*
X169943466Y-87647138D01*
X169725000Y-88174561D01*
X169725000Y-88745439D01*
X169943466Y-89272862D01*
X170347138Y-89676534D01*
X170476216Y-89730000D01*
X170347138Y-89783466D01*
X169943466Y-90187138D01*
X169725000Y-90714561D01*
X169725000Y-91285439D01*
X169943466Y-91812862D01*
X170347138Y-92216534D01*
X170476216Y-92270000D01*
X170347138Y-92323466D01*
X169943466Y-92727138D01*
X169725000Y-93254561D01*
X169725000Y-93825439D01*
X169943466Y-94352862D01*
X170347138Y-94756534D01*
X170476216Y-94810000D01*
X170347138Y-94863466D01*
X169943466Y-95267138D01*
X169725000Y-95794561D01*
X169725000Y-96365439D01*
X169943466Y-96892862D01*
X170347138Y-97296534D01*
X170476216Y-97350000D01*
X170347138Y-97403466D01*
X169956104Y-97794500D01*
X168656427Y-97794500D01*
X168604126Y-97531565D01*
X168409586Y-97240414D01*
X168118435Y-97045874D01*
X167775000Y-96977560D01*
X167025000Y-96977560D01*
X166681565Y-97045874D01*
X166390414Y-97240414D01*
X166195874Y-97531565D01*
X166127560Y-97875000D01*
X166127560Y-99125000D01*
X166195874Y-99468435D01*
X166390414Y-99759586D01*
X166674500Y-99949406D01*
X166674500Y-100070602D01*
X166642191Y-100092191D01*
X166501843Y-100302235D01*
X166452560Y-100550000D01*
X166452560Y-101450000D01*
X166501843Y-101697765D01*
X166642191Y-101907809D01*
X166852235Y-102048157D01*
X167100000Y-102097440D01*
X167588684Y-102097440D01*
X167451843Y-102302235D01*
X167402560Y-102550000D01*
X167402560Y-103450000D01*
X167451843Y-103697765D01*
X167467206Y-103720757D01*
X167140463Y-104047500D01*
X162394538Y-104047500D01*
X153872038Y-95525000D01*
X162977560Y-95525000D01*
X162977560Y-96275000D01*
X163045874Y-96618435D01*
X163240414Y-96909586D01*
X163531565Y-97104126D01*
X163734092Y-97144412D01*
X163590414Y-97240414D01*
X163395874Y-97531565D01*
X163327560Y-97875000D01*
X163327560Y-99125000D01*
X163395874Y-99468435D01*
X163590414Y-99759586D01*
X163881565Y-99954126D01*
X164225000Y-100022440D01*
X164975000Y-100022440D01*
X165318435Y-99954126D01*
X165609586Y-99759586D01*
X165804126Y-99468435D01*
X165872440Y-99125000D01*
X165872440Y-97875000D01*
X165804126Y-97531565D01*
X165609586Y-97240414D01*
X165425500Y-97117412D01*
X165425500Y-97112666D01*
X165468435Y-97104126D01*
X165759586Y-96909586D01*
X165954126Y-96618435D01*
X166022440Y-96275000D01*
X166022440Y-95525000D01*
X165954126Y-95181565D01*
X165759586Y-94890414D01*
X165468435Y-94695874D01*
X165125000Y-94627560D01*
X163875000Y-94627560D01*
X163531565Y-94695874D01*
X163240414Y-94890414D01*
X163045874Y-95181565D01*
X162977560Y-95525000D01*
X153872038Y-95525000D01*
X153819857Y-95472820D01*
X153766714Y-95393286D01*
X153451647Y-95182765D01*
X153173810Y-95127500D01*
X153080000Y-95108840D01*
X152986190Y-95127500D01*
X151916896Y-95127500D01*
X151652862Y-94863466D01*
X151539417Y-94816475D01*
X151594005Y-94793864D01*
X151668139Y-94547745D01*
X150840000Y-93719605D01*
X150011861Y-94547745D01*
X150085995Y-94793864D01*
X150144448Y-94814874D01*
X150027138Y-94863466D01*
X149763104Y-95127500D01*
X144402500Y-95127500D01*
X144402500Y-93323223D01*
X149393035Y-93323223D01*
X149420222Y-93893454D01*
X149586136Y-94294005D01*
X149832255Y-94368139D01*
X150660395Y-93540000D01*
X151019605Y-93540000D01*
X151847745Y-94368139D01*
X152093864Y-94294005D01*
X152286965Y-93756777D01*
X152259778Y-93186546D01*
X152093864Y-92785995D01*
X151847745Y-92711861D01*
X151019605Y-93540000D01*
X150660395Y-93540000D01*
X149832255Y-92711861D01*
X149586136Y-92785995D01*
X149393035Y-93323223D01*
X144402500Y-93323223D01*
X144402500Y-75266095D01*
X144448157Y-75197765D01*
X144497440Y-74950000D01*
X144497440Y-74050000D01*
X144448157Y-73802235D01*
X144307809Y-73592191D01*
X144097765Y-73451843D01*
X143850000Y-73402560D01*
X143361316Y-73402560D01*
X143498157Y-73197765D01*
X143547440Y-72950000D01*
X143547440Y-72050000D01*
X143498157Y-71802235D01*
X143357809Y-71592191D01*
X143325500Y-71570603D01*
X143325500Y-71466438D01*
X143531565Y-71604126D01*
X143875000Y-71672440D01*
X145125000Y-71672440D01*
X145468435Y-71604126D01*
X145759586Y-71409586D01*
X145882588Y-71225500D01*
X149512721Y-71225500D01*
X149623466Y-71492862D01*
X150027138Y-71896534D01*
X150156216Y-71950000D01*
X150027138Y-72003466D01*
X149623466Y-72407138D01*
X149405000Y-72934561D01*
X149405000Y-73505439D01*
X149623466Y-74032862D01*
X150027138Y-74436534D01*
X150156216Y-74490000D01*
X150027138Y-74543466D01*
X149623466Y-74947138D01*
X149405000Y-75474561D01*
X149405000Y-76045439D01*
X149623466Y-76572862D01*
X150027138Y-76976534D01*
X150156216Y-77030000D01*
X150027138Y-77083466D01*
X149623466Y-77487138D01*
X149405000Y-78014561D01*
X149405000Y-78585439D01*
X149623466Y-79112862D01*
X150027138Y-79516534D01*
X150156216Y-79570000D01*
X150027138Y-79623466D01*
X149623466Y-80027138D01*
X149405000Y-80554561D01*
X149405000Y-81125439D01*
X149623466Y-81652862D01*
X150027138Y-82056534D01*
X150156216Y-82110000D01*
X150027138Y-82163466D01*
X149623466Y-82567138D01*
X149405000Y-83094561D01*
X149405000Y-83665439D01*
X149623466Y-84192862D01*
X150027138Y-84596534D01*
X150156216Y-84650000D01*
X150027138Y-84703466D01*
X149623466Y-85107138D01*
X149405000Y-85634561D01*
X149405000Y-86205439D01*
X149623466Y-86732862D01*
X150027138Y-87136534D01*
X150156216Y-87190000D01*
X150027138Y-87243466D01*
X149623466Y-87647138D01*
X149405000Y-88174561D01*
X149405000Y-88745439D01*
X149623466Y-89272862D01*
X150027138Y-89676534D01*
X150156216Y-89730000D01*
X150027138Y-89783466D01*
X149623466Y-90187138D01*
X149405000Y-90714561D01*
X149405000Y-91285439D01*
X149623466Y-91812862D01*
X150027138Y-92216534D01*
X150140583Y-92263525D01*
X150085995Y-92286136D01*
X150011861Y-92532255D01*
X150840000Y-93360395D01*
X151668139Y-92532255D01*
X151594005Y-92286136D01*
X151535552Y-92265126D01*
X151652862Y-92216534D01*
X152056534Y-91812862D01*
X152275000Y-91285439D01*
X152275000Y-90714561D01*
X152056534Y-90187138D01*
X151652862Y-89783466D01*
X151523784Y-89730000D01*
X151652862Y-89676534D01*
X152056534Y-89272862D01*
X152275000Y-88745439D01*
X152275000Y-88174561D01*
X152056534Y-87647138D01*
X151652862Y-87243466D01*
X151523784Y-87190000D01*
X151652862Y-87136534D01*
X152056534Y-86732862D01*
X152275000Y-86205439D01*
X152275000Y-85634561D01*
X152056534Y-85107138D01*
X151652862Y-84703466D01*
X151523784Y-84650000D01*
X151652862Y-84596534D01*
X152056534Y-84192862D01*
X152275000Y-83665439D01*
X152275000Y-83094561D01*
X152056534Y-82567138D01*
X151652862Y-82163466D01*
X151523784Y-82110000D01*
X151652862Y-82056534D01*
X152056534Y-81652862D01*
X152275000Y-81125439D01*
X152275000Y-80554561D01*
X152056534Y-80027138D01*
X151652862Y-79623466D01*
X151523784Y-79570000D01*
X151652862Y-79516534D01*
X152056534Y-79112862D01*
X152275000Y-78585439D01*
X152275000Y-78014561D01*
X152056534Y-77487138D01*
X151652862Y-77083466D01*
X151523784Y-77030000D01*
X151652862Y-76976534D01*
X152056534Y-76572862D01*
X152275000Y-76045439D01*
X152275000Y-75474561D01*
X152056534Y-74947138D01*
X151652862Y-74543466D01*
X151523784Y-74490000D01*
X151652862Y-74436534D01*
X152056534Y-74032862D01*
X152275000Y-73505439D01*
X152275000Y-72934561D01*
X152056534Y-72407138D01*
X151652862Y-72003466D01*
X151523784Y-71950000D01*
X151652862Y-71896534D01*
X152056534Y-71492862D01*
X152275000Y-70965439D01*
X152275000Y-70394561D01*
X152056534Y-69867138D01*
X151665500Y-69476104D01*
X151665500Y-69343896D01*
X152056534Y-68952862D01*
X152275000Y-68425439D01*
X152275000Y-67854561D01*
X152056534Y-67327138D01*
X151652862Y-66923466D01*
X151125439Y-66705000D01*
X150554561Y-66705000D01*
X150027138Y-66923466D01*
X149623466Y-67327138D01*
X149405000Y-67854561D01*
X149405000Y-68425439D01*
X149623466Y-68952862D01*
X150014501Y-69343897D01*
X150014500Y-69476104D01*
X149916104Y-69574500D01*
X145882588Y-69574500D01*
X145759586Y-69390414D01*
X145468435Y-69195874D01*
X145125000Y-69127560D01*
X143875000Y-69127560D01*
X143531565Y-69195874D01*
X143250000Y-69384009D01*
X142968435Y-69195874D01*
X142625000Y-69127560D01*
X141375000Y-69127560D01*
X141031565Y-69195874D01*
X140740414Y-69390414D01*
X140617412Y-69574500D01*
X140612666Y-69574500D01*
X140604126Y-69531565D01*
X140409586Y-69240414D01*
X140118435Y-69045874D01*
X139775000Y-68977560D01*
X139025000Y-68977560D01*
X138681565Y-69045874D01*
X138390414Y-69240414D01*
X138195874Y-69531565D01*
X138127560Y-69875000D01*
X138127560Y-71125000D01*
X138195874Y-71468435D01*
X138390414Y-71759586D01*
X138681565Y-71954126D01*
X139025000Y-72022440D01*
X139775000Y-72022440D01*
X140118435Y-71954126D01*
X140409586Y-71759586D01*
X140604126Y-71468435D01*
X140644412Y-71265908D01*
X140740414Y-71409586D01*
X141031565Y-71604126D01*
X141375000Y-71672440D01*
X141588570Y-71672440D01*
X141501843Y-71802235D01*
X141452560Y-72050000D01*
X141452560Y-72950000D01*
X141501843Y-73197765D01*
X141642191Y-73407809D01*
X141852235Y-73548157D01*
X142100000Y-73597440D01*
X142588684Y-73597440D01*
X142451843Y-73802235D01*
X142402560Y-74050000D01*
X142402560Y-74950000D01*
X142451843Y-75197765D01*
X142497500Y-75266095D01*
X142497501Y-95216743D01*
X142434568Y-95258794D01*
X142233286Y-95393286D01*
X142180147Y-95472814D01*
X140942817Y-96710146D01*
X140863287Y-96763286D01*
X140757799Y-96921160D01*
X140652765Y-97078354D01*
X140578840Y-97450000D01*
X140597501Y-97543815D01*
X140597500Y-100333905D01*
X140551843Y-100402235D01*
X140502560Y-100650000D01*
X140502560Y-101550000D01*
X140551843Y-101797765D01*
X140692191Y-102007809D01*
X140902235Y-102148157D01*
X141150000Y-102197440D01*
X141638684Y-102197440D01*
X141501843Y-102402235D01*
X141452560Y-102650000D01*
X141452560Y-103550000D01*
X141501843Y-103797765D01*
X141588570Y-103927560D01*
X141375000Y-103927560D01*
X141031565Y-103995874D01*
X140740414Y-104190414D01*
X140644412Y-104334092D01*
X140604126Y-104131565D01*
X140409586Y-103840414D01*
X140118435Y-103645874D01*
X139775000Y-103577560D01*
X139025000Y-103577560D01*
X138681565Y-103645874D01*
X138390414Y-103840414D01*
X138195874Y-104131565D01*
X138127560Y-104475000D01*
X138127560Y-105725000D01*
X138195874Y-106068435D01*
X138390414Y-106359586D01*
X138681565Y-106554126D01*
X139025000Y-106622440D01*
X139775000Y-106622440D01*
X140118435Y-106554126D01*
X140409586Y-106359586D01*
X140604126Y-106068435D01*
X140612666Y-106025500D01*
X140617412Y-106025500D01*
X140740414Y-106209586D01*
X141031565Y-106404126D01*
X141375000Y-106472440D01*
X142625000Y-106472440D01*
X142968435Y-106404126D01*
X143250000Y-106215991D01*
X143531565Y-106404126D01*
X143875000Y-106472440D01*
X145125000Y-106472440D01*
X145468435Y-106404126D01*
X145759586Y-106209586D01*
X145882588Y-106025500D01*
X146858068Y-106025500D01*
X148358795Y-107526229D01*
X148404848Y-107595152D01*
X148473771Y-107641205D01*
X148473772Y-107641206D01*
X148525760Y-107675943D01*
X148677906Y-107777604D01*
X148918697Y-107825500D01*
X148918701Y-107825500D01*
X148999999Y-107841671D01*
X149081297Y-107825500D01*
X170418699Y-107825500D01*
X170500000Y-107841672D01*
X170581301Y-107825500D01*
X170581303Y-107825500D01*
X170822094Y-107777604D01*
X171095152Y-107595152D01*
X171141209Y-107526223D01*
X174026226Y-104641207D01*
X174095152Y-104595152D01*
X174277604Y-104322094D01*
X174290001Y-104259771D01*
X174290001Y-124290000D01*
X95710000Y-124290000D01*
X95710000Y-122305000D01*
X111289000Y-122305000D01*
X111289000Y-122805000D01*
X111458252Y-123401886D01*
X111843039Y-123888567D01*
X112384780Y-124190950D01*
X112501412Y-124218586D01*
X112747000Y-124098584D01*
X112747000Y-122305000D01*
X113001000Y-122305000D01*
X113001000Y-124098584D01*
X113246588Y-124218586D01*
X113363220Y-124190950D01*
X113904961Y-123888567D01*
X114289748Y-123401886D01*
X114459000Y-122805000D01*
X114459000Y-122305000D01*
X113001000Y-122305000D01*
X112747000Y-122305000D01*
X111289000Y-122305000D01*
X95710000Y-122305000D01*
X95710000Y-121551000D01*
X111289000Y-121551000D01*
X111289000Y-122051000D01*
X112747000Y-122051000D01*
X112747000Y-120257416D01*
X113001000Y-120257416D01*
X113001000Y-122051000D01*
X114459000Y-122051000D01*
X114459000Y-121551000D01*
X114289748Y-120954114D01*
X113904961Y-120467433D01*
X113363220Y-120165050D01*
X113246588Y-120137414D01*
X113001000Y-120257416D01*
X112747000Y-120257416D01*
X112501412Y-120137414D01*
X112384780Y-120165050D01*
X111843039Y-120467433D01*
X111458252Y-120954114D01*
X111289000Y-121551000D01*
X95710000Y-121551000D01*
X95710000Y-114258654D01*
X101273000Y-114258654D01*
X101273000Y-115741346D01*
X101840402Y-117111176D01*
X102888824Y-118159598D01*
X104258654Y-118727000D01*
X105741346Y-118727000D01*
X107111176Y-118159598D01*
X108159598Y-117111176D01*
X108727000Y-115741346D01*
X108727000Y-114324999D01*
X113652560Y-114324999D01*
X113652560Y-114950001D01*
X113720873Y-115293436D01*
X113915414Y-115584586D01*
X114206564Y-115779127D01*
X114549999Y-115847440D01*
X114857000Y-115847440D01*
X114857001Y-121656286D01*
X114836191Y-121670191D01*
X114695843Y-121880235D01*
X114646560Y-122128000D01*
X114646560Y-123428000D01*
X114695843Y-123675765D01*
X114836191Y-123885809D01*
X115046235Y-124026157D01*
X115294000Y-124075440D01*
X116594000Y-124075440D01*
X116841765Y-124026157D01*
X117051809Y-123885809D01*
X117192157Y-123675765D01*
X117241440Y-123428000D01*
X117241440Y-123232631D01*
X117354629Y-123505894D01*
X117716106Y-123867371D01*
X118188398Y-124063000D01*
X118699602Y-124063000D01*
X119171894Y-123867371D01*
X119308765Y-123730500D01*
X119579235Y-123730500D01*
X119716106Y-123867371D01*
X120188398Y-124063000D01*
X120699602Y-124063000D01*
X121171894Y-123867371D01*
X121362249Y-123677016D01*
X122224590Y-123677016D01*
X122280271Y-123907611D01*
X122763078Y-124075622D01*
X123273428Y-124046083D01*
X123607729Y-123907611D01*
X123663410Y-123677016D01*
X122944000Y-122957605D01*
X122224590Y-123677016D01*
X121362249Y-123677016D01*
X121533371Y-123505894D01*
X121687169Y-123134592D01*
X121814389Y-123441729D01*
X122044984Y-123497410D01*
X122764395Y-122778000D01*
X123123605Y-122778000D01*
X123843016Y-123497410D01*
X124073611Y-123441729D01*
X124241622Y-122958922D01*
X124212083Y-122448572D01*
X124152614Y-122305000D01*
X124429000Y-122305000D01*
X124429000Y-122805000D01*
X124598252Y-123401886D01*
X124983039Y-123888567D01*
X125524780Y-124190950D01*
X125641412Y-124218586D01*
X125887000Y-124098584D01*
X125887000Y-122305000D01*
X126141000Y-122305000D01*
X126141000Y-124098584D01*
X126386588Y-124218586D01*
X126503220Y-124190950D01*
X127044961Y-123888567D01*
X127429748Y-123401886D01*
X127599000Y-122805000D01*
X127599000Y-122305000D01*
X126141000Y-122305000D01*
X125887000Y-122305000D01*
X124429000Y-122305000D01*
X124152614Y-122305000D01*
X124073611Y-122114271D01*
X123843016Y-122058590D01*
X123123605Y-122778000D01*
X122764395Y-122778000D01*
X122044984Y-122058590D01*
X121814389Y-122114271D01*
X121698223Y-122448094D01*
X121533371Y-122050106D01*
X121362249Y-121878984D01*
X122224590Y-121878984D01*
X122944000Y-122598395D01*
X123663410Y-121878984D01*
X123607729Y-121648389D01*
X123327866Y-121551000D01*
X124429000Y-121551000D01*
X124429000Y-122051000D01*
X125887000Y-122051000D01*
X125887000Y-120257416D01*
X126141000Y-120257416D01*
X126141000Y-122051000D01*
X127599000Y-122051000D01*
X127599000Y-121551000D01*
X127429748Y-120954114D01*
X127044961Y-120467433D01*
X126503220Y-120165050D01*
X126386588Y-120137414D01*
X126141000Y-120257416D01*
X125887000Y-120257416D01*
X125641412Y-120137414D01*
X125524780Y-120165050D01*
X124983039Y-120467433D01*
X124598252Y-120954114D01*
X124429000Y-121551000D01*
X123327866Y-121551000D01*
X123124922Y-121480378D01*
X122614572Y-121509917D01*
X122280271Y-121648389D01*
X122224590Y-121878984D01*
X121362249Y-121878984D01*
X121171894Y-121688629D01*
X120699602Y-121493000D01*
X120188398Y-121493000D01*
X119716106Y-121688629D01*
X119579235Y-121825500D01*
X119308765Y-121825500D01*
X119171894Y-121688629D01*
X118699602Y-121493000D01*
X118188398Y-121493000D01*
X117716106Y-121688629D01*
X117354629Y-122050106D01*
X117241440Y-122323369D01*
X117241440Y-122128000D01*
X117192157Y-121880235D01*
X117143000Y-121806667D01*
X117143000Y-118370588D01*
X117403414Y-118370588D01*
X117431050Y-118487220D01*
X117733433Y-119028961D01*
X118220114Y-119413748D01*
X118817000Y-119583000D01*
X119317000Y-119583000D01*
X119317000Y-118125000D01*
X119571000Y-118125000D01*
X119571000Y-119583000D01*
X120071000Y-119583000D01*
X120667886Y-119413748D01*
X121154567Y-119028961D01*
X121456950Y-118487220D01*
X121484586Y-118370588D01*
X121364584Y-118125000D01*
X119571000Y-118125000D01*
X119317000Y-118125000D01*
X117523416Y-118125000D01*
X117403414Y-118370588D01*
X117143000Y-118370588D01*
X117143000Y-117625412D01*
X117403414Y-117625412D01*
X117523416Y-117871000D01*
X119317000Y-117871000D01*
X119317000Y-116413000D01*
X119571000Y-116413000D01*
X119571000Y-117871000D01*
X121364584Y-117871000D01*
X121484586Y-117625412D01*
X121456950Y-117508780D01*
X121154567Y-116967039D01*
X120667886Y-116582252D01*
X120071000Y-116413000D01*
X119571000Y-116413000D01*
X119317000Y-116413000D01*
X118817000Y-116413000D01*
X118220114Y-116582252D01*
X117733433Y-116967039D01*
X117431050Y-117508780D01*
X117403414Y-117625412D01*
X117143000Y-117625412D01*
X117143000Y-115847440D01*
X117450001Y-115847440D01*
X117793436Y-115779127D01*
X118084586Y-115584586D01*
X118279127Y-115293436D01*
X118347440Y-114950001D01*
X118347440Y-114324999D01*
X118334244Y-114258654D01*
X161273000Y-114258654D01*
X161273000Y-115741346D01*
X161840402Y-117111176D01*
X162888824Y-118159598D01*
X164258654Y-118727000D01*
X165741346Y-118727000D01*
X167111176Y-118159598D01*
X168159598Y-117111176D01*
X168727000Y-115741346D01*
X168727000Y-114258654D01*
X168159598Y-112888824D01*
X167111176Y-111840402D01*
X165741346Y-111273000D01*
X164258654Y-111273000D01*
X162888824Y-111840402D01*
X161840402Y-112888824D01*
X161273000Y-114258654D01*
X118334244Y-114258654D01*
X118279127Y-113981564D01*
X118084586Y-113690414D01*
X117793436Y-113495873D01*
X117450001Y-113427560D01*
X114549999Y-113427560D01*
X114206564Y-113495873D01*
X113915414Y-113690414D01*
X113720873Y-113981564D01*
X113652560Y-114324999D01*
X108727000Y-114324999D01*
X108727000Y-114258654D01*
X108159598Y-112888824D01*
X107111176Y-111840402D01*
X105741346Y-111273000D01*
X104258654Y-111273000D01*
X102888824Y-111840402D01*
X101840402Y-112888824D01*
X101273000Y-114258654D01*
X95710000Y-114258654D01*
X95710000Y-98525000D01*
X97977560Y-98525000D01*
X97977560Y-99275000D01*
X98045874Y-99618435D01*
X98240414Y-99909586D01*
X98531565Y-100104126D01*
X98875000Y-100172440D01*
X100125000Y-100172440D01*
X100468435Y-100104126D01*
X100759586Y-99909586D01*
X100797729Y-99852500D01*
X101857000Y-99852500D01*
X101857000Y-99887429D01*
X101834608Y-100000000D01*
X101857000Y-100112571D01*
X101857000Y-100112572D01*
X101923318Y-100445976D01*
X102175944Y-100824057D01*
X102271380Y-100887825D01*
X109112175Y-107728621D01*
X109175943Y-107824057D01*
X109554024Y-108076682D01*
X109887428Y-108143000D01*
X109887429Y-108143000D01*
X110000000Y-108165392D01*
X110112571Y-108143000D01*
X114026555Y-108143000D01*
X114857000Y-108973446D01*
X114857000Y-109152560D01*
X114549999Y-109152560D01*
X114206564Y-109220873D01*
X113915414Y-109415414D01*
X113720873Y-109706564D01*
X113652560Y-110049999D01*
X113652560Y-110675001D01*
X113720873Y-111018436D01*
X113915414Y-111309586D01*
X114206564Y-111504127D01*
X114549999Y-111572440D01*
X117450001Y-111572440D01*
X117793436Y-111504127D01*
X118084586Y-111309586D01*
X118279127Y-111018436D01*
X118347440Y-110675001D01*
X118347440Y-110049999D01*
X118279127Y-109706564D01*
X118084586Y-109415414D01*
X117793436Y-109220873D01*
X117450001Y-109152560D01*
X117143000Y-109152560D01*
X117143000Y-108612570D01*
X117165392Y-108499999D01*
X117094380Y-108143000D01*
X117076682Y-108054024D01*
X116824057Y-107675943D01*
X116728621Y-107612175D01*
X115387827Y-106271382D01*
X115324057Y-106175943D01*
X114945976Y-105923318D01*
X114612572Y-105857000D01*
X114612571Y-105857000D01*
X114500000Y-105834608D01*
X114387429Y-105857000D01*
X110473446Y-105857000D01*
X104143000Y-99526555D01*
X104143000Y-98525000D01*
X111477560Y-98525000D01*
X111477560Y-99275000D01*
X111545874Y-99618435D01*
X111740414Y-99909586D01*
X112031565Y-100104126D01*
X112375000Y-100172440D01*
X113625000Y-100172440D01*
X113968435Y-100104126D01*
X114259586Y-99909586D01*
X114297729Y-99852500D01*
X116006190Y-99852500D01*
X116100000Y-99871160D01*
X116193810Y-99852500D01*
X116471647Y-99797235D01*
X116786714Y-99586714D01*
X116839857Y-99507180D01*
X117107180Y-99239857D01*
X117186714Y-99186714D01*
X117397235Y-98871647D01*
X117452500Y-98593810D01*
X117452500Y-98593806D01*
X117471159Y-98500001D01*
X117452500Y-98406196D01*
X117452500Y-98298317D01*
X117801310Y-97949507D01*
X118035000Y-97385330D01*
X118035000Y-96774670D01*
X117801310Y-96210493D01*
X117369507Y-95778690D01*
X117349885Y-95770562D01*
X117400554Y-95620159D01*
X116500000Y-94719605D01*
X115599446Y-95620159D01*
X115650115Y-95770562D01*
X115630493Y-95778690D01*
X115198690Y-96210493D01*
X114965000Y-96774670D01*
X114965000Y-97385330D01*
X115197859Y-97947500D01*
X114297729Y-97947500D01*
X114259586Y-97890414D01*
X113968435Y-97695874D01*
X113625000Y-97627560D01*
X112375000Y-97627560D01*
X112031565Y-97695874D01*
X111740414Y-97890414D01*
X111545874Y-98181565D01*
X111477560Y-98525000D01*
X104143000Y-98525000D01*
X104143000Y-98107817D01*
X104301310Y-97949507D01*
X104535000Y-97385330D01*
X104535000Y-96774670D01*
X104301310Y-96210493D01*
X103869507Y-95778690D01*
X103849885Y-95770562D01*
X103900554Y-95620159D01*
X103000000Y-94719605D01*
X102099446Y-95620159D01*
X102150115Y-95770562D01*
X102130493Y-95778690D01*
X101698690Y-96210493D01*
X101465000Y-96774670D01*
X101465000Y-97385330D01*
X101697859Y-97947500D01*
X100797729Y-97947500D01*
X100759586Y-97890414D01*
X100468435Y-97695874D01*
X100125000Y-97627560D01*
X98875000Y-97627560D01*
X98531565Y-97695874D01*
X98240414Y-97890414D01*
X98045874Y-98181565D01*
X97977560Y-98525000D01*
X95710000Y-98525000D01*
X95710000Y-89725000D01*
X97977560Y-89725000D01*
X97977560Y-90475000D01*
X98045874Y-90818435D01*
X98240414Y-91109586D01*
X98531565Y-91304126D01*
X98875000Y-91372440D01*
X100125000Y-91372440D01*
X100468435Y-91304126D01*
X100759586Y-91109586D01*
X100797729Y-91052500D01*
X101462008Y-91052500D01*
X101452560Y-91100000D01*
X101452560Y-92900000D01*
X101501843Y-93147765D01*
X101642191Y-93357809D01*
X101840114Y-93490058D01*
X101805282Y-93524890D01*
X101919839Y-93639447D01*
X101663357Y-93725852D01*
X101453542Y-94299336D01*
X101479161Y-94909460D01*
X101663357Y-95354148D01*
X101919841Y-95440554D01*
X102820395Y-94540000D01*
X102806253Y-94525858D01*
X102985858Y-94346253D01*
X103000000Y-94360395D01*
X103014143Y-94346253D01*
X103193748Y-94525858D01*
X103179605Y-94540000D01*
X104080159Y-95440554D01*
X104336643Y-95354148D01*
X104546458Y-94780664D01*
X104520839Y-94170540D01*
X104336643Y-93725852D01*
X104080161Y-93639447D01*
X104194718Y-93524890D01*
X104159886Y-93490058D01*
X104357809Y-93357809D01*
X104498157Y-93147765D01*
X104499105Y-93143000D01*
X104887429Y-93143000D01*
X105000000Y-93165392D01*
X105112571Y-93143000D01*
X105112572Y-93143000D01*
X105445976Y-93076682D01*
X105824057Y-92824057D01*
X105887827Y-92728618D01*
X108528620Y-90087826D01*
X108624057Y-90024057D01*
X108876682Y-89645976D01*
X108943000Y-89312572D01*
X108943000Y-89312571D01*
X108965392Y-89200000D01*
X108943000Y-89087429D01*
X108943000Y-88143000D01*
X114026555Y-88143000D01*
X115031054Y-89147500D01*
X114297729Y-89147500D01*
X114259586Y-89090414D01*
X113968435Y-88895874D01*
X113625000Y-88827560D01*
X112375000Y-88827560D01*
X112031565Y-88895874D01*
X111740414Y-89090414D01*
X111545874Y-89381565D01*
X111477560Y-89725000D01*
X111477560Y-90475000D01*
X111545874Y-90818435D01*
X111740414Y-91109586D01*
X112031565Y-91304126D01*
X112375000Y-91372440D01*
X113625000Y-91372440D01*
X113968435Y-91304126D01*
X114259586Y-91109586D01*
X114297729Y-91052500D01*
X114962008Y-91052500D01*
X114952560Y-91100000D01*
X114952560Y-92900000D01*
X115001843Y-93147765D01*
X115142191Y-93357809D01*
X115340114Y-93490058D01*
X115305282Y-93524890D01*
X115419839Y-93639447D01*
X115163357Y-93725852D01*
X114953542Y-94299336D01*
X114979161Y-94909460D01*
X115163357Y-95354148D01*
X115419841Y-95440554D01*
X116320395Y-94540000D01*
X116306253Y-94525858D01*
X116485858Y-94346253D01*
X116500000Y-94360395D01*
X116514143Y-94346253D01*
X116693748Y-94525858D01*
X116679605Y-94540000D01*
X117580159Y-95440554D01*
X117836643Y-95354148D01*
X118046458Y-94780664D01*
X118020839Y-94170540D01*
X117836643Y-93725852D01*
X117580161Y-93639447D01*
X117694718Y-93524890D01*
X117659886Y-93490058D01*
X117857809Y-93357809D01*
X117998157Y-93147765D01*
X118047440Y-92900000D01*
X118047440Y-91100000D01*
X117998157Y-90852235D01*
X117857809Y-90642191D01*
X117647765Y-90501843D01*
X117643000Y-90500895D01*
X117643000Y-89112570D01*
X117665392Y-88999999D01*
X117632493Y-88834608D01*
X117576682Y-88554024D01*
X117324057Y-88175943D01*
X117228621Y-88112175D01*
X115387827Y-86271382D01*
X115324057Y-86175943D01*
X114945976Y-85923318D01*
X114612572Y-85857000D01*
X114612571Y-85857000D01*
X114500000Y-85834608D01*
X114387429Y-85857000D01*
X108943000Y-85857000D01*
X108943000Y-83447440D01*
X109300000Y-83447440D01*
X109547765Y-83398157D01*
X109757809Y-83257809D01*
X109898157Y-83047765D01*
X109947440Y-82800000D01*
X109947440Y-81200000D01*
X109898157Y-80952235D01*
X109757809Y-80742191D01*
X109547765Y-80601843D01*
X109300000Y-80552560D01*
X108943000Y-80552560D01*
X108943000Y-79022440D01*
X109475000Y-79022440D01*
X109818435Y-78954126D01*
X110109586Y-78759586D01*
X110304126Y-78468435D01*
X110372440Y-78125000D01*
X110372440Y-76875000D01*
X110304126Y-76531565D01*
X110109586Y-76240414D01*
X109818435Y-76045874D01*
X109475000Y-75977560D01*
X108725000Y-75977560D01*
X108381565Y-76045874D01*
X108090414Y-76240414D01*
X108024253Y-76339432D01*
X108000000Y-76334608D01*
X107554024Y-76423318D01*
X107175943Y-76675943D01*
X107112173Y-76771382D01*
X107071380Y-76812175D01*
X106975944Y-76875943D01*
X106725960Y-77250072D01*
X106723319Y-77254024D01*
X106634608Y-77700000D01*
X106657001Y-77812576D01*
X106657000Y-80552560D01*
X106300000Y-80552560D01*
X106052235Y-80601843D01*
X105842191Y-80742191D01*
X105765477Y-80857000D01*
X104547440Y-80857000D01*
X104547440Y-80250000D01*
X104498157Y-80002235D01*
X104357809Y-79792191D01*
X104147765Y-79651843D01*
X103900000Y-79602560D01*
X102100000Y-79602560D01*
X101852235Y-79651843D01*
X101642191Y-79792191D01*
X101501843Y-80002235D01*
X101452560Y-80250000D01*
X101452560Y-82750000D01*
X101501843Y-82997765D01*
X101642191Y-83207809D01*
X101852235Y-83348157D01*
X102100000Y-83397440D01*
X103900000Y-83397440D01*
X104147765Y-83348157D01*
X104357809Y-83207809D01*
X104401113Y-83143000D01*
X105765477Y-83143000D01*
X105842191Y-83257809D01*
X106052235Y-83398157D01*
X106300000Y-83447440D01*
X106657000Y-83447440D01*
X106657001Y-86887423D01*
X106634608Y-87000000D01*
X106657000Y-87112572D01*
X106657001Y-88726553D01*
X104526555Y-90857000D01*
X104499105Y-90857000D01*
X104498157Y-90852235D01*
X104357809Y-90642191D01*
X104147765Y-90501843D01*
X103918910Y-90456321D01*
X103897235Y-90347353D01*
X103686714Y-90032286D01*
X103607183Y-89979145D01*
X103120856Y-89492819D01*
X103067714Y-89413286D01*
X102752647Y-89202765D01*
X102474810Y-89147500D01*
X102381000Y-89128840D01*
X102287190Y-89147500D01*
X100797729Y-89147500D01*
X100759586Y-89090414D01*
X100468435Y-88895874D01*
X100125000Y-88827560D01*
X98875000Y-88827560D01*
X98531565Y-88895874D01*
X98240414Y-89090414D01*
X98045874Y-89381565D01*
X97977560Y-89725000D01*
X95710000Y-89725000D01*
X95710000Y-76250000D01*
X101452560Y-76250000D01*
X101452560Y-78750000D01*
X101501843Y-78997765D01*
X101642191Y-79207809D01*
X101852235Y-79348157D01*
X102100000Y-79397440D01*
X103900000Y-79397440D01*
X104147765Y-79348157D01*
X104357809Y-79207809D01*
X104498157Y-78997765D01*
X104547440Y-78750000D01*
X104547440Y-76250000D01*
X104505500Y-76039151D01*
X104505500Y-74786533D01*
X104572440Y-74450001D01*
X104572440Y-71549999D01*
X106427560Y-71549999D01*
X106427560Y-74450001D01*
X106495873Y-74793436D01*
X106690414Y-75084586D01*
X106981564Y-75279127D01*
X107324999Y-75347440D01*
X107950001Y-75347440D01*
X108293436Y-75279127D01*
X108584586Y-75084586D01*
X108779127Y-74793436D01*
X108847440Y-74450001D01*
X108847440Y-74143000D01*
X112387428Y-74143000D01*
X112500000Y-74165392D01*
X112612572Y-74143000D01*
X112945976Y-74076682D01*
X113324057Y-73824057D01*
X113576682Y-73445976D01*
X113665392Y-73000000D01*
X113643000Y-72887428D01*
X113643000Y-71452500D01*
X117605463Y-71452500D01*
X135647500Y-89494538D01*
X135647501Y-103802270D01*
X135590414Y-103840414D01*
X135395874Y-104131565D01*
X135327560Y-104475000D01*
X135327560Y-105725000D01*
X135395874Y-106068435D01*
X135590414Y-106359586D01*
X135881565Y-106554126D01*
X136225000Y-106622440D01*
X136975000Y-106622440D01*
X137318435Y-106554126D01*
X137609586Y-106359586D01*
X137804126Y-106068435D01*
X137872440Y-105725000D01*
X137872440Y-104475000D01*
X137804126Y-104131565D01*
X137609586Y-103840414D01*
X137552500Y-103802271D01*
X137552500Y-89193808D01*
X137571160Y-89099999D01*
X137502341Y-88754024D01*
X137497235Y-88728353D01*
X137286714Y-88413286D01*
X137207184Y-88360146D01*
X118739857Y-69892820D01*
X118727951Y-69875000D01*
X135327560Y-69875000D01*
X135327560Y-71125000D01*
X135395874Y-71468435D01*
X135590414Y-71759586D01*
X135881565Y-71954126D01*
X136225000Y-72022440D01*
X136975000Y-72022440D01*
X137318435Y-71954126D01*
X137609586Y-71759586D01*
X137804126Y-71468435D01*
X137872440Y-71125000D01*
X137872440Y-69875000D01*
X137804126Y-69531565D01*
X137609586Y-69240414D01*
X137425500Y-69117412D01*
X137425500Y-66241932D01*
X148026226Y-55641207D01*
X148095152Y-55595152D01*
X148186586Y-55458311D01*
X148277604Y-55322095D01*
X148341672Y-55000000D01*
X148325500Y-54918697D01*
X148325500Y-52315059D01*
X148690305Y-52071305D01*
X149055208Y-51525188D01*
X149151000Y-51043608D01*
X149151000Y-49956392D01*
X150849000Y-49956392D01*
X150849000Y-51043609D01*
X150944792Y-51525188D01*
X151309696Y-52071305D01*
X151855813Y-52436208D01*
X152500000Y-52564345D01*
X153144188Y-52436208D01*
X153690305Y-52071305D01*
X154055208Y-51525188D01*
X154151000Y-51043608D01*
X154151000Y-49956392D01*
X155849000Y-49956392D01*
X155849000Y-51043609D01*
X155944792Y-51525188D01*
X156309696Y-52071305D01*
X156674501Y-52315059D01*
X156674500Y-58918698D01*
X156658328Y-59000000D01*
X156674500Y-59081301D01*
X156674500Y-59081302D01*
X156722396Y-59322093D01*
X156904848Y-59595152D01*
X156973777Y-59641209D01*
X161074501Y-63741934D01*
X161074500Y-91617412D01*
X160890414Y-91740414D01*
X160695874Y-92031565D01*
X160627560Y-92375000D01*
X160627560Y-93625000D01*
X160695874Y-93968435D01*
X160890414Y-94259586D01*
X161181565Y-94454126D01*
X161525000Y-94522440D01*
X162275000Y-94522440D01*
X162618435Y-94454126D01*
X162909586Y-94259586D01*
X163104126Y-93968435D01*
X163112666Y-93925500D01*
X163117412Y-93925500D01*
X163240414Y-94109586D01*
X163531565Y-94304126D01*
X163875000Y-94372440D01*
X165125000Y-94372440D01*
X165468435Y-94304126D01*
X165759586Y-94109586D01*
X165954126Y-93818435D01*
X166022440Y-93475000D01*
X166022440Y-92725000D01*
X165954126Y-92381565D01*
X165759586Y-92090414D01*
X165468435Y-91895874D01*
X165125000Y-91827560D01*
X163875000Y-91827560D01*
X163531565Y-91895874D01*
X163240414Y-92090414D01*
X163144412Y-92234092D01*
X163104126Y-92031565D01*
X162909586Y-91740414D01*
X162725500Y-91617412D01*
X162725500Y-63481303D01*
X162741672Y-63400000D01*
X162677604Y-63077906D01*
X162541206Y-62873773D01*
X162495152Y-62804848D01*
X162426226Y-62758793D01*
X158325500Y-58658068D01*
X158325500Y-54258654D01*
X161273000Y-54258654D01*
X161273000Y-55741346D01*
X161840402Y-57111176D01*
X162888824Y-58159598D01*
X164258654Y-58727000D01*
X165741346Y-58727000D01*
X167111176Y-58159598D01*
X168159598Y-57111176D01*
X168727000Y-55741346D01*
X168727000Y-54258654D01*
X168159598Y-52888824D01*
X167111176Y-51840402D01*
X165741346Y-51273000D01*
X164258654Y-51273000D01*
X162888824Y-51840402D01*
X161840402Y-52888824D01*
X161273000Y-54258654D01*
X158325500Y-54258654D01*
X158325500Y-52315059D01*
X158690305Y-52071305D01*
X159055208Y-51525188D01*
X159151000Y-51043608D01*
X159151000Y-49956391D01*
X159055208Y-49474812D01*
X158690305Y-48928695D01*
X158144187Y-48563792D01*
X157500000Y-48435655D01*
X156855812Y-48563792D01*
X156309695Y-48928695D01*
X155944792Y-49474813D01*
X155849000Y-49956392D01*
X154151000Y-49956392D01*
X154151000Y-49956391D01*
X154055208Y-49474812D01*
X153690305Y-48928695D01*
X153144187Y-48563792D01*
X152500000Y-48435655D01*
X151855812Y-48563792D01*
X151309695Y-48928695D01*
X150944792Y-49474813D01*
X150849000Y-49956392D01*
X149151000Y-49956392D01*
X149151000Y-49956391D01*
X149055208Y-49474812D01*
X148690305Y-48928695D01*
X148144187Y-48563792D01*
X147500000Y-48435655D01*
X146855812Y-48563792D01*
X146309695Y-48928695D01*
X145944792Y-49474813D01*
X145849000Y-49956392D01*
X145849000Y-51043609D01*
X145944792Y-51525188D01*
X146309696Y-52071305D01*
X146674501Y-52315059D01*
X146674500Y-54658067D01*
X136073775Y-65258793D01*
X136004849Y-65304848D01*
X135958794Y-65373774D01*
X135822397Y-65577906D01*
X135758328Y-65900000D01*
X135774501Y-65981306D01*
X135774500Y-69117412D01*
X135590414Y-69240414D01*
X135395874Y-69531565D01*
X135327560Y-69875000D01*
X118727951Y-69875000D01*
X118686714Y-69813286D01*
X118371647Y-69602765D01*
X118093810Y-69547500D01*
X118000000Y-69528840D01*
X117906190Y-69547500D01*
X113643000Y-69547500D01*
X113643000Y-52519178D01*
X113763765Y-52495157D01*
X113973809Y-52354809D01*
X114114157Y-52144765D01*
X114163440Y-51897000D01*
X114163440Y-49956392D01*
X115849000Y-49956392D01*
X115849000Y-51043609D01*
X115944792Y-51525188D01*
X116309696Y-52071305D01*
X116855813Y-52436208D01*
X117500000Y-52564345D01*
X118144188Y-52436208D01*
X118690305Y-52071305D01*
X119055208Y-51525188D01*
X119151000Y-51043608D01*
X119151000Y-49956392D01*
X120849000Y-49956392D01*
X120849000Y-51043609D01*
X120944792Y-51525188D01*
X121309696Y-52071305D01*
X121855813Y-52436208D01*
X122500000Y-52564345D01*
X123144188Y-52436208D01*
X123690305Y-52071305D01*
X124055208Y-51525188D01*
X124151000Y-51043608D01*
X124151000Y-50627000D01*
X125849000Y-50627000D01*
X125849000Y-51008000D01*
X126023276Y-51630143D01*
X126422370Y-52138236D01*
X126985523Y-52454926D01*
X127117056Y-52486975D01*
X127373000Y-52367836D01*
X127373000Y-50627000D01*
X127627000Y-50627000D01*
X127627000Y-52367836D01*
X127882944Y-52486975D01*
X128014477Y-52454926D01*
X128577630Y-52138236D01*
X128976724Y-51630143D01*
X129151000Y-51008000D01*
X129151000Y-50627000D01*
X130849000Y-50627000D01*
X130849000Y-51008000D01*
X131023276Y-51630143D01*
X131422370Y-52138236D01*
X131985523Y-52454926D01*
X132117056Y-52486975D01*
X132373000Y-52367836D01*
X132373000Y-50627000D01*
X132627000Y-50627000D01*
X132627000Y-52367836D01*
X132882944Y-52486975D01*
X133014477Y-52454926D01*
X133577630Y-52138236D01*
X133976724Y-51630143D01*
X134151000Y-51008000D01*
X134151000Y-50627000D01*
X135849000Y-50627000D01*
X135849000Y-51008000D01*
X136023276Y-51630143D01*
X136422370Y-52138236D01*
X136985523Y-52454926D01*
X137117056Y-52486975D01*
X137373000Y-52367836D01*
X137373000Y-50627000D01*
X137627000Y-50627000D01*
X137627000Y-52367836D01*
X137882944Y-52486975D01*
X138014477Y-52454926D01*
X138577630Y-52138236D01*
X138976724Y-51630143D01*
X139151000Y-51008000D01*
X139151000Y-50627000D01*
X137627000Y-50627000D01*
X137373000Y-50627000D01*
X135849000Y-50627000D01*
X134151000Y-50627000D01*
X132627000Y-50627000D01*
X132373000Y-50627000D01*
X130849000Y-50627000D01*
X129151000Y-50627000D01*
X127627000Y-50627000D01*
X127373000Y-50627000D01*
X125849000Y-50627000D01*
X124151000Y-50627000D01*
X124151000Y-49992000D01*
X125849000Y-49992000D01*
X125849000Y-50373000D01*
X127373000Y-50373000D01*
X127373000Y-48632164D01*
X127627000Y-48632164D01*
X127627000Y-50373000D01*
X129151000Y-50373000D01*
X129151000Y-49992000D01*
X130849000Y-49992000D01*
X130849000Y-50373000D01*
X132373000Y-50373000D01*
X132373000Y-48632164D01*
X132627000Y-48632164D01*
X132627000Y-50373000D01*
X134151000Y-50373000D01*
X134151000Y-49992000D01*
X135849000Y-49992000D01*
X135849000Y-50373000D01*
X137373000Y-50373000D01*
X137373000Y-48632164D01*
X137627000Y-48632164D01*
X137627000Y-50373000D01*
X139151000Y-50373000D01*
X139151000Y-49992000D01*
X139141026Y-49956392D01*
X140849000Y-49956392D01*
X140849000Y-51043609D01*
X140944792Y-51525188D01*
X141309696Y-52071305D01*
X141855813Y-52436208D01*
X142500000Y-52564345D01*
X143144188Y-52436208D01*
X143690305Y-52071305D01*
X144055208Y-51525188D01*
X144151000Y-51043608D01*
X144151000Y-49956391D01*
X144055208Y-49474812D01*
X143690305Y-48928695D01*
X143144187Y-48563792D01*
X142500000Y-48435655D01*
X141855812Y-48563792D01*
X141309695Y-48928695D01*
X140944792Y-49474813D01*
X140849000Y-49956392D01*
X139141026Y-49956392D01*
X138976724Y-49369857D01*
X138577630Y-48861764D01*
X138014477Y-48545074D01*
X137882944Y-48513025D01*
X137627000Y-48632164D01*
X137373000Y-48632164D01*
X137117056Y-48513025D01*
X136985523Y-48545074D01*
X136422370Y-48861764D01*
X136023276Y-49369857D01*
X135849000Y-49992000D01*
X134151000Y-49992000D01*
X133976724Y-49369857D01*
X133577630Y-48861764D01*
X133014477Y-48545074D01*
X132882944Y-48513025D01*
X132627000Y-48632164D01*
X132373000Y-48632164D01*
X132117056Y-48513025D01*
X131985523Y-48545074D01*
X131422370Y-48861764D01*
X131023276Y-49369857D01*
X130849000Y-49992000D01*
X129151000Y-49992000D01*
X128976724Y-49369857D01*
X128577630Y-48861764D01*
X128014477Y-48545074D01*
X127882944Y-48513025D01*
X127627000Y-48632164D01*
X127373000Y-48632164D01*
X127117056Y-48513025D01*
X126985523Y-48545074D01*
X126422370Y-48861764D01*
X126023276Y-49369857D01*
X125849000Y-49992000D01*
X124151000Y-49992000D01*
X124151000Y-49956391D01*
X124055208Y-49474812D01*
X123690305Y-48928695D01*
X123144187Y-48563792D01*
X122500000Y-48435655D01*
X121855812Y-48563792D01*
X121309695Y-48928695D01*
X120944792Y-49474813D01*
X120849000Y-49956392D01*
X119151000Y-49956392D01*
X119151000Y-49956391D01*
X119055208Y-49474812D01*
X118690305Y-48928695D01*
X118144187Y-48563792D01*
X117500000Y-48435655D01*
X116855812Y-48563792D01*
X116309695Y-48928695D01*
X115944792Y-49474813D01*
X115849000Y-49956392D01*
X114163440Y-49956392D01*
X114163440Y-49103000D01*
X114114157Y-48855235D01*
X113973809Y-48645191D01*
X113763765Y-48504843D01*
X113516000Y-48455560D01*
X111484000Y-48455560D01*
X111236235Y-48504843D01*
X111026191Y-48645191D01*
X110885843Y-48855235D01*
X110836560Y-49103000D01*
X110836560Y-51897000D01*
X110885843Y-52144765D01*
X111026191Y-52354809D01*
X111236235Y-52495157D01*
X111357000Y-52519178D01*
X111357001Y-71857000D01*
X108847440Y-71857000D01*
X108847440Y-71549999D01*
X108779127Y-71206564D01*
X108584586Y-70915414D01*
X108293436Y-70720873D01*
X107950001Y-70652560D01*
X107324999Y-70652560D01*
X106981564Y-70720873D01*
X106690414Y-70915414D01*
X106495873Y-71206564D01*
X106427560Y-71549999D01*
X104572440Y-71549999D01*
X104504127Y-71206564D01*
X104309586Y-70915414D01*
X104018436Y-70720873D01*
X103675001Y-70652560D01*
X103049999Y-70652560D01*
X102706564Y-70720873D01*
X102415414Y-70915414D01*
X102220873Y-71206564D01*
X102152560Y-71549999D01*
X102152560Y-74450001D01*
X102219500Y-74786536D01*
X102219501Y-75602560D01*
X102100000Y-75602560D01*
X101852235Y-75651843D01*
X101642191Y-75792191D01*
X101501843Y-76002235D01*
X101452560Y-76250000D01*
X95710000Y-76250000D01*
X95710000Y-54258654D01*
X101273000Y-54258654D01*
X101273000Y-55741346D01*
X101840402Y-57111176D01*
X102888824Y-58159598D01*
X104258654Y-58727000D01*
X105741346Y-58727000D01*
X107111176Y-58159598D01*
X108159598Y-57111176D01*
X108727000Y-55741346D01*
X108727000Y-54258654D01*
X108159598Y-52888824D01*
X107111176Y-51840402D01*
X105741346Y-51273000D01*
X104258654Y-51273000D01*
X102888824Y-51840402D01*
X101840402Y-52888824D01*
X101273000Y-54258654D01*
X95710000Y-54258654D01*
X95710000Y-45710000D01*
X174290000Y-45710000D01*
X174290001Y-94240228D01*
X174290001Y-94240228D01*
G37*
X174290001Y-94240228D02*
X174277604Y-94177906D01*
X174095152Y-93904848D01*
X174026226Y-93858793D01*
X173181209Y-93013777D01*
X173135152Y-92944848D01*
X172862094Y-92762396D01*
X172621303Y-92714500D01*
X172621301Y-92714500D01*
X172540000Y-92698328D01*
X172458699Y-92714500D01*
X172363896Y-92714500D01*
X171972862Y-92323466D01*
X171843784Y-92270000D01*
X171972862Y-92216534D01*
X172376534Y-91812862D01*
X172595000Y-91285439D01*
X172595000Y-90714561D01*
X172376534Y-90187138D01*
X171972862Y-89783466D01*
X171843784Y-89730000D01*
X171972862Y-89676534D01*
X172376534Y-89272862D01*
X172595000Y-88745439D01*
X172595000Y-88174561D01*
X172376534Y-87647138D01*
X171972862Y-87243466D01*
X171843784Y-87190000D01*
X171972862Y-87136534D01*
X172376534Y-86732862D01*
X172595000Y-86205439D01*
X172595000Y-85634561D01*
X172376534Y-85107138D01*
X171972862Y-84703466D01*
X171843784Y-84650000D01*
X171972862Y-84596534D01*
X172376534Y-84192862D01*
X172595000Y-83665439D01*
X172595000Y-83094561D01*
X172376534Y-82567138D01*
X171972862Y-82163466D01*
X171843784Y-82110000D01*
X171972862Y-82056534D01*
X172376534Y-81652862D01*
X172595000Y-81125439D01*
X172595000Y-80554561D01*
X172376534Y-80027138D01*
X171972862Y-79623466D01*
X171843784Y-79570000D01*
X171972862Y-79516534D01*
X172376534Y-79112862D01*
X172595000Y-78585439D01*
X172595000Y-78014561D01*
X172376534Y-77487138D01*
X171972862Y-77083466D01*
X171843784Y-77030000D01*
X171972862Y-76976534D01*
X172376534Y-76572862D01*
X172595000Y-76045439D01*
X172595000Y-75474561D01*
X172376534Y-74947138D01*
X171972862Y-74543466D01*
X171843784Y-74490000D01*
X171972862Y-74436534D01*
X172376534Y-74032862D01*
X172595000Y-73505439D01*
X172595000Y-72934561D01*
X172376534Y-72407138D01*
X171972862Y-72003466D01*
X171843784Y-71950000D01*
X171972862Y-71896534D01*
X172376534Y-71492862D01*
X172595000Y-70965439D01*
X172595000Y-70394561D01*
X172376534Y-69867138D01*
X171972862Y-69463466D01*
X171843784Y-69410000D01*
X171972862Y-69356534D01*
X172376534Y-68952862D01*
X172595000Y-68425439D01*
X172595000Y-67854561D01*
X172376534Y-67327138D01*
X171972862Y-66923466D01*
X171445439Y-66705000D01*
X170874561Y-66705000D01*
X170347138Y-66923466D01*
X169943466Y-67327138D01*
X169725000Y-67854561D01*
X169725000Y-68425439D01*
X169943466Y-68952862D01*
X170347138Y-69356534D01*
X170476216Y-69410000D01*
X170347138Y-69463466D01*
X169943466Y-69867138D01*
X169725000Y-70394561D01*
X169725000Y-70965439D01*
X169943466Y-71492862D01*
X170347138Y-71896534D01*
X170476216Y-71950000D01*
X170347138Y-72003466D01*
X169943466Y-72407138D01*
X169725000Y-72934561D01*
X169725000Y-73505439D01*
X169943466Y-74032862D01*
X170347138Y-74436534D01*
X170476216Y-74490000D01*
X170347138Y-74543466D01*
X169943466Y-74947138D01*
X169725000Y-75474561D01*
X169725000Y-76045439D01*
X169943466Y-76572862D01*
X170347138Y-76976534D01*
X170476216Y-77030000D01*
X170347138Y-77083466D01*
X169943466Y-77487138D01*
X169725000Y-78014561D01*
X169725000Y-78585439D01*
X169943466Y-79112862D01*
X170347138Y-79516534D01*
X170476216Y-79570000D01*
X170347138Y-79623466D01*
X169943466Y-80027138D01*
X169725000Y-80554561D01*
X169725000Y-81125439D01*
X169943466Y-81652862D01*
X170347138Y-82056534D01*
X170476216Y-82110000D01*
X170347138Y-82163466D01*
X169943466Y-82567138D01*
X169725000Y-83094561D01*
X169725000Y-83665439D01*
X169943466Y-84192862D01*
X170347138Y-84596534D01*
X170476216Y-84650000D01*
X170347138Y-84703466D01*
X169943466Y-85107138D01*
X169725000Y-85634561D01*
X169725000Y-86205439D01*
X169943466Y-86732862D01*
X170347138Y-87136534D01*
X170476216Y-87190000D01*
X170347138Y-87243466D01*
X169943466Y-87647138D01*
X169725000Y-88174561D01*
X169725000Y-88745439D01*
X169943466Y-89272862D01*
X170347138Y-89676534D01*
X170476216Y-89730000D01*
X170347138Y-89783466D01*
X169943466Y-90187138D01*
X169725000Y-90714561D01*
X169725000Y-91285439D01*
X169943466Y-91812862D01*
X170347138Y-92216534D01*
X170476216Y-92270000D01*
X170347138Y-92323466D01*
X169943466Y-92727138D01*
X169725000Y-93254561D01*
X169725000Y-93825439D01*
X169943466Y-94352862D01*
X170347138Y-94756534D01*
X170476216Y-94810000D01*
X170347138Y-94863466D01*
X169943466Y-95267138D01*
X169725000Y-95794561D01*
X169725000Y-96365439D01*
X169943466Y-96892862D01*
X170347138Y-97296534D01*
X170476216Y-97350000D01*
X170347138Y-97403466D01*
X169956104Y-97794500D01*
X168656427Y-97794500D01*
X168604126Y-97531565D01*
X168409586Y-97240414D01*
X168118435Y-97045874D01*
X167775000Y-96977560D01*
X167025000Y-96977560D01*
X166681565Y-97045874D01*
X166390414Y-97240414D01*
X166195874Y-97531565D01*
X166127560Y-97875000D01*
X166127560Y-99125000D01*
X166195874Y-99468435D01*
X166390414Y-99759586D01*
X166674500Y-99949406D01*
X166674500Y-100070602D01*
X166642191Y-100092191D01*
X166501843Y-100302235D01*
X166452560Y-100550000D01*
X166452560Y-101450000D01*
X166501843Y-101697765D01*
X166642191Y-101907809D01*
X166852235Y-102048157D01*
X167100000Y-102097440D01*
X167588684Y-102097440D01*
X167451843Y-102302235D01*
X167402560Y-102550000D01*
X167402560Y-103450000D01*
X167451843Y-103697765D01*
X167467206Y-103720757D01*
X167140463Y-104047500D01*
X162394538Y-104047500D01*
X153872038Y-95525000D01*
X162977560Y-95525000D01*
X162977560Y-96275000D01*
X163045874Y-96618435D01*
X163240414Y-96909586D01*
X163531565Y-97104126D01*
X163734092Y-97144412D01*
X163590414Y-97240414D01*
X163395874Y-97531565D01*
X163327560Y-97875000D01*
X163327560Y-99125000D01*
X163395874Y-99468435D01*
X163590414Y-99759586D01*
X163881565Y-99954126D01*
X164225000Y-100022440D01*
X164975000Y-100022440D01*
X165318435Y-99954126D01*
X165609586Y-99759586D01*
X165804126Y-99468435D01*
X165872440Y-99125000D01*
X165872440Y-97875000D01*
X165804126Y-97531565D01*
X165609586Y-97240414D01*
X165425500Y-97117412D01*
X165425500Y-97112666D01*
X165468435Y-97104126D01*
X165759586Y-96909586D01*
X165954126Y-96618435D01*
X166022440Y-96275000D01*
X166022440Y-95525000D01*
X165954126Y-95181565D01*
X165759586Y-94890414D01*
X165468435Y-94695874D01*
X165125000Y-94627560D01*
X163875000Y-94627560D01*
X163531565Y-94695874D01*
X163240414Y-94890414D01*
X163045874Y-95181565D01*
X162977560Y-95525000D01*
X153872038Y-95525000D01*
X153819857Y-95472820D01*
X153766714Y-95393286D01*
X153451647Y-95182765D01*
X153173810Y-95127500D01*
X153080000Y-95108840D01*
X152986190Y-95127500D01*
X151916896Y-95127500D01*
X151652862Y-94863466D01*
X151539417Y-94816475D01*
X151594005Y-94793864D01*
X151668139Y-94547745D01*
X150840000Y-93719605D01*
X150011861Y-94547745D01*
X150085995Y-94793864D01*
X150144448Y-94814874D01*
X150027138Y-94863466D01*
X149763104Y-95127500D01*
X144402500Y-95127500D01*
X144402500Y-93323223D01*
X149393035Y-93323223D01*
X149420222Y-93893454D01*
X149586136Y-94294005D01*
X149832255Y-94368139D01*
X150660395Y-93540000D01*
X151019605Y-93540000D01*
X151847745Y-94368139D01*
X152093864Y-94294005D01*
X152286965Y-93756777D01*
X152259778Y-93186546D01*
X152093864Y-92785995D01*
X151847745Y-92711861D01*
X151019605Y-93540000D01*
X150660395Y-93540000D01*
X149832255Y-92711861D01*
X149586136Y-92785995D01*
X149393035Y-93323223D01*
X144402500Y-93323223D01*
X144402500Y-75266095D01*
X144448157Y-75197765D01*
X144497440Y-74950000D01*
X144497440Y-74050000D01*
X144448157Y-73802235D01*
X144307809Y-73592191D01*
X144097765Y-73451843D01*
X143850000Y-73402560D01*
X143361316Y-73402560D01*
X143498157Y-73197765D01*
X143547440Y-72950000D01*
X143547440Y-72050000D01*
X143498157Y-71802235D01*
X143357809Y-71592191D01*
X143325500Y-71570603D01*
X143325500Y-71466438D01*
X143531565Y-71604126D01*
X143875000Y-71672440D01*
X145125000Y-71672440D01*
X145468435Y-71604126D01*
X145759586Y-71409586D01*
X145882588Y-71225500D01*
X149512721Y-71225500D01*
X149623466Y-71492862D01*
X150027138Y-71896534D01*
X150156216Y-71950000D01*
X150027138Y-72003466D01*
X149623466Y-72407138D01*
X149405000Y-72934561D01*
X149405000Y-73505439D01*
X149623466Y-74032862D01*
X150027138Y-74436534D01*
X150156216Y-74490000D01*
X150027138Y-74543466D01*
X149623466Y-74947138D01*
X149405000Y-75474561D01*
X149405000Y-76045439D01*
X149623466Y-76572862D01*
X150027138Y-76976534D01*
X150156216Y-77030000D01*
X150027138Y-77083466D01*
X149623466Y-77487138D01*
X149405000Y-78014561D01*
X149405000Y-78585439D01*
X149623466Y-79112862D01*
X150027138Y-79516534D01*
X150156216Y-79570000D01*
X150027138Y-79623466D01*
X149623466Y-80027138D01*
X149405000Y-80554561D01*
X149405000Y-81125439D01*
X149623466Y-81652862D01*
X150027138Y-82056534D01*
X150156216Y-82110000D01*
X150027138Y-82163466D01*
X149623466Y-82567138D01*
X149405000Y-83094561D01*
X149405000Y-83665439D01*
X149623466Y-84192862D01*
X150027138Y-84596534D01*
X150156216Y-84650000D01*
X150027138Y-84703466D01*
X149623466Y-85107138D01*
X149405000Y-85634561D01*
X149405000Y-86205439D01*
X149623466Y-86732862D01*
X150027138Y-87136534D01*
X150156216Y-87190000D01*
X150027138Y-87243466D01*
X149623466Y-87647138D01*
X149405000Y-88174561D01*
X149405000Y-88745439D01*
X149623466Y-89272862D01*
X150027138Y-89676534D01*
X150156216Y-89730000D01*
X150027138Y-89783466D01*
X149623466Y-90187138D01*
X149405000Y-90714561D01*
X149405000Y-91285439D01*
X149623466Y-91812862D01*
X150027138Y-92216534D01*
X150140583Y-92263525D01*
X150085995Y-92286136D01*
X150011861Y-92532255D01*
X150840000Y-93360395D01*
X151668139Y-92532255D01*
X151594005Y-92286136D01*
X151535552Y-92265126D01*
X151652862Y-92216534D01*
X152056534Y-91812862D01*
X152275000Y-91285439D01*
X152275000Y-90714561D01*
X152056534Y-90187138D01*
X151652862Y-89783466D01*
X151523784Y-89730000D01*
X151652862Y-89676534D01*
X152056534Y-89272862D01*
X152275000Y-88745439D01*
X152275000Y-88174561D01*
X152056534Y-87647138D01*
X151652862Y-87243466D01*
X151523784Y-87190000D01*
X151652862Y-87136534D01*
X152056534Y-86732862D01*
X152275000Y-86205439D01*
X152275000Y-85634561D01*
X152056534Y-85107138D01*
X151652862Y-84703466D01*
X151523784Y-84650000D01*
X151652862Y-84596534D01*
X152056534Y-84192862D01*
X152275000Y-83665439D01*
X152275000Y-83094561D01*
X152056534Y-82567138D01*
X151652862Y-82163466D01*
X151523784Y-82110000D01*
X151652862Y-82056534D01*
X152056534Y-81652862D01*
X152275000Y-81125439D01*
X152275000Y-80554561D01*
X152056534Y-80027138D01*
X151652862Y-79623466D01*
X151523784Y-79570000D01*
X151652862Y-79516534D01*
X152056534Y-79112862D01*
X152275000Y-78585439D01*
X152275000Y-78014561D01*
X152056534Y-77487138D01*
X151652862Y-77083466D01*
X151523784Y-77030000D01*
X151652862Y-76976534D01*
X152056534Y-76572862D01*
X152275000Y-76045439D01*
X152275000Y-75474561D01*
X152056534Y-74947138D01*
X151652862Y-74543466D01*
X151523784Y-74490000D01*
X151652862Y-74436534D01*
X152056534Y-74032862D01*
X152275000Y-73505439D01*
X152275000Y-72934561D01*
X152056534Y-72407138D01*
X151652862Y-72003466D01*
X151523784Y-71950000D01*
X151652862Y-71896534D01*
X152056534Y-71492862D01*
X152275000Y-70965439D01*
X152275000Y-70394561D01*
X152056534Y-69867138D01*
X151665500Y-69476104D01*
X151665500Y-69343896D01*
X152056534Y-68952862D01*
X152275000Y-68425439D01*
X152275000Y-67854561D01*
X152056534Y-67327138D01*
X151652862Y-66923466D01*
X151125439Y-66705000D01*
X150554561Y-66705000D01*
X150027138Y-66923466D01*
X149623466Y-67327138D01*
X149405000Y-67854561D01*
X149405000Y-68425439D01*
X149623466Y-68952862D01*
X150014501Y-69343897D01*
X150014500Y-69476104D01*
X149916104Y-69574500D01*
X145882588Y-69574500D01*
X145759586Y-69390414D01*
X145468435Y-69195874D01*
X145125000Y-69127560D01*
X143875000Y-69127560D01*
X143531565Y-69195874D01*
X143250000Y-69384009D01*
X142968435Y-69195874D01*
X142625000Y-69127560D01*
X141375000Y-69127560D01*
X141031565Y-69195874D01*
X140740414Y-69390414D01*
X140617412Y-69574500D01*
X140612666Y-69574500D01*
X140604126Y-69531565D01*
X140409586Y-69240414D01*
X140118435Y-69045874D01*
X139775000Y-68977560D01*
X139025000Y-68977560D01*
X138681565Y-69045874D01*
X138390414Y-69240414D01*
X138195874Y-69531565D01*
X138127560Y-69875000D01*
X138127560Y-71125000D01*
X138195874Y-71468435D01*
X138390414Y-71759586D01*
X138681565Y-71954126D01*
X139025000Y-72022440D01*
X139775000Y-72022440D01*
X140118435Y-71954126D01*
X140409586Y-71759586D01*
X140604126Y-71468435D01*
X140644412Y-71265908D01*
X140740414Y-71409586D01*
X141031565Y-71604126D01*
X141375000Y-71672440D01*
X141588570Y-71672440D01*
X141501843Y-71802235D01*
X141452560Y-72050000D01*
X141452560Y-72950000D01*
X141501843Y-73197765D01*
X141642191Y-73407809D01*
X141852235Y-73548157D01*
X142100000Y-73597440D01*
X142588684Y-73597440D01*
X142451843Y-73802235D01*
X142402560Y-74050000D01*
X142402560Y-74950000D01*
X142451843Y-75197765D01*
X142497500Y-75266095D01*
X142497501Y-95216743D01*
X142434568Y-95258794D01*
X142233286Y-95393286D01*
X142180147Y-95472814D01*
X140942817Y-96710146D01*
X140863287Y-96763286D01*
X140757799Y-96921160D01*
X140652765Y-97078354D01*
X140578840Y-97450000D01*
X140597501Y-97543815D01*
X140597500Y-100333905D01*
X140551843Y-100402235D01*
X140502560Y-100650000D01*
X140502560Y-101550000D01*
X140551843Y-101797765D01*
X140692191Y-102007809D01*
X140902235Y-102148157D01*
X141150000Y-102197440D01*
X141638684Y-102197440D01*
X141501843Y-102402235D01*
X141452560Y-102650000D01*
X141452560Y-103550000D01*
X141501843Y-103797765D01*
X141588570Y-103927560D01*
X141375000Y-103927560D01*
X141031565Y-103995874D01*
X140740414Y-104190414D01*
X140644412Y-104334092D01*
X140604126Y-104131565D01*
X140409586Y-103840414D01*
X140118435Y-103645874D01*
X139775000Y-103577560D01*
X139025000Y-103577560D01*
X138681565Y-103645874D01*
X138390414Y-103840414D01*
X138195874Y-104131565D01*
X138127560Y-104475000D01*
X138127560Y-105725000D01*
X138195874Y-106068435D01*
X138390414Y-106359586D01*
X138681565Y-106554126D01*
X139025000Y-106622440D01*
X139775000Y-106622440D01*
X140118435Y-106554126D01*
X140409586Y-106359586D01*
X140604126Y-106068435D01*
X140612666Y-106025500D01*
X140617412Y-106025500D01*
X140740414Y-106209586D01*
X141031565Y-106404126D01*
X141375000Y-106472440D01*
X142625000Y-106472440D01*
X142968435Y-106404126D01*
X143250000Y-106215991D01*
X143531565Y-106404126D01*
X143875000Y-106472440D01*
X145125000Y-106472440D01*
X145468435Y-106404126D01*
X145759586Y-106209586D01*
X145882588Y-106025500D01*
X146858068Y-106025500D01*
X148358795Y-107526229D01*
X148404848Y-107595152D01*
X148473771Y-107641205D01*
X148473772Y-107641206D01*
X148525760Y-107675943D01*
X148677906Y-107777604D01*
X148918697Y-107825500D01*
X148918701Y-107825500D01*
X148999999Y-107841671D01*
X149081297Y-107825500D01*
X170418699Y-107825500D01*
X170500000Y-107841672D01*
X170581301Y-107825500D01*
X170581303Y-107825500D01*
X170822094Y-107777604D01*
X171095152Y-107595152D01*
X171141209Y-107526223D01*
X174026226Y-104641207D01*
X174095152Y-104595152D01*
X174277604Y-104322094D01*
X174290001Y-104259771D01*
X174290001Y-124290000D01*
X95710000Y-124290000D01*
X95710000Y-122305000D01*
X111289000Y-122305000D01*
X111289000Y-122805000D01*
X111458252Y-123401886D01*
X111843039Y-123888567D01*
X112384780Y-124190950D01*
X112501412Y-124218586D01*
X112747000Y-124098584D01*
X112747000Y-122305000D01*
X113001000Y-122305000D01*
X113001000Y-124098584D01*
X113246588Y-124218586D01*
X113363220Y-124190950D01*
X113904961Y-123888567D01*
X114289748Y-123401886D01*
X114459000Y-122805000D01*
X114459000Y-122305000D01*
X113001000Y-122305000D01*
X112747000Y-122305000D01*
X111289000Y-122305000D01*
X95710000Y-122305000D01*
X95710000Y-121551000D01*
X111289000Y-121551000D01*
X111289000Y-122051000D01*
X112747000Y-122051000D01*
X112747000Y-120257416D01*
X113001000Y-120257416D01*
X113001000Y-122051000D01*
X114459000Y-122051000D01*
X114459000Y-121551000D01*
X114289748Y-120954114D01*
X113904961Y-120467433D01*
X113363220Y-120165050D01*
X113246588Y-120137414D01*
X113001000Y-120257416D01*
X112747000Y-120257416D01*
X112501412Y-120137414D01*
X112384780Y-120165050D01*
X111843039Y-120467433D01*
X111458252Y-120954114D01*
X111289000Y-121551000D01*
X95710000Y-121551000D01*
X95710000Y-114258654D01*
X101273000Y-114258654D01*
X101273000Y-115741346D01*
X101840402Y-117111176D01*
X102888824Y-118159598D01*
X104258654Y-118727000D01*
X105741346Y-118727000D01*
X107111176Y-118159598D01*
X108159598Y-117111176D01*
X108727000Y-115741346D01*
X108727000Y-114324999D01*
X113652560Y-114324999D01*
X113652560Y-114950001D01*
X113720873Y-115293436D01*
X113915414Y-115584586D01*
X114206564Y-115779127D01*
X114549999Y-115847440D01*
X114857000Y-115847440D01*
X114857001Y-121656286D01*
X114836191Y-121670191D01*
X114695843Y-121880235D01*
X114646560Y-122128000D01*
X114646560Y-123428000D01*
X114695843Y-123675765D01*
X114836191Y-123885809D01*
X115046235Y-124026157D01*
X115294000Y-124075440D01*
X116594000Y-124075440D01*
X116841765Y-124026157D01*
X117051809Y-123885809D01*
X117192157Y-123675765D01*
X117241440Y-123428000D01*
X117241440Y-123232631D01*
X117354629Y-123505894D01*
X117716106Y-123867371D01*
X118188398Y-124063000D01*
X118699602Y-124063000D01*
X119171894Y-123867371D01*
X119308765Y-123730500D01*
X119579235Y-123730500D01*
X119716106Y-123867371D01*
X120188398Y-124063000D01*
X120699602Y-124063000D01*
X121171894Y-123867371D01*
X121362249Y-123677016D01*
X122224590Y-123677016D01*
X122280271Y-123907611D01*
X122763078Y-124075622D01*
X123273428Y-124046083D01*
X123607729Y-123907611D01*
X123663410Y-123677016D01*
X122944000Y-122957605D01*
X122224590Y-123677016D01*
X121362249Y-123677016D01*
X121533371Y-123505894D01*
X121687169Y-123134592D01*
X121814389Y-123441729D01*
X122044984Y-123497410D01*
X122764395Y-122778000D01*
X123123605Y-122778000D01*
X123843016Y-123497410D01*
X124073611Y-123441729D01*
X124241622Y-122958922D01*
X124212083Y-122448572D01*
X124152614Y-122305000D01*
X124429000Y-122305000D01*
X124429000Y-122805000D01*
X124598252Y-123401886D01*
X124983039Y-123888567D01*
X125524780Y-124190950D01*
X125641412Y-124218586D01*
X125887000Y-124098584D01*
X125887000Y-122305000D01*
X126141000Y-122305000D01*
X126141000Y-124098584D01*
X126386588Y-124218586D01*
X126503220Y-124190950D01*
X127044961Y-123888567D01*
X127429748Y-123401886D01*
X127599000Y-122805000D01*
X127599000Y-122305000D01*
X126141000Y-122305000D01*
X125887000Y-122305000D01*
X124429000Y-122305000D01*
X124152614Y-122305000D01*
X124073611Y-122114271D01*
X123843016Y-122058590D01*
X123123605Y-122778000D01*
X122764395Y-122778000D01*
X122044984Y-122058590D01*
X121814389Y-122114271D01*
X121698223Y-122448094D01*
X121533371Y-122050106D01*
X121362249Y-121878984D01*
X122224590Y-121878984D01*
X122944000Y-122598395D01*
X123663410Y-121878984D01*
X123607729Y-121648389D01*
X123327866Y-121551000D01*
X124429000Y-121551000D01*
X124429000Y-122051000D01*
X125887000Y-122051000D01*
X125887000Y-120257416D01*
X126141000Y-120257416D01*
X126141000Y-122051000D01*
X127599000Y-122051000D01*
X127599000Y-121551000D01*
X127429748Y-120954114D01*
X127044961Y-120467433D01*
X126503220Y-120165050D01*
X126386588Y-120137414D01*
X126141000Y-120257416D01*
X125887000Y-120257416D01*
X125641412Y-120137414D01*
X125524780Y-120165050D01*
X124983039Y-120467433D01*
X124598252Y-120954114D01*
X124429000Y-121551000D01*
X123327866Y-121551000D01*
X123124922Y-121480378D01*
X122614572Y-121509917D01*
X122280271Y-121648389D01*
X122224590Y-121878984D01*
X121362249Y-121878984D01*
X121171894Y-121688629D01*
X120699602Y-121493000D01*
X120188398Y-121493000D01*
X119716106Y-121688629D01*
X119579235Y-121825500D01*
X119308765Y-121825500D01*
X119171894Y-121688629D01*
X118699602Y-121493000D01*
X118188398Y-121493000D01*
X117716106Y-121688629D01*
X117354629Y-122050106D01*
X117241440Y-122323369D01*
X117241440Y-122128000D01*
X117192157Y-121880235D01*
X117143000Y-121806667D01*
X117143000Y-118370588D01*
X117403414Y-118370588D01*
X117431050Y-118487220D01*
X117733433Y-119028961D01*
X118220114Y-119413748D01*
X118817000Y-119583000D01*
X119317000Y-119583000D01*
X119317000Y-118125000D01*
X119571000Y-118125000D01*
X119571000Y-119583000D01*
X120071000Y-119583000D01*
X120667886Y-119413748D01*
X121154567Y-119028961D01*
X121456950Y-118487220D01*
X121484586Y-118370588D01*
X121364584Y-118125000D01*
X119571000Y-118125000D01*
X119317000Y-118125000D01*
X117523416Y-118125000D01*
X117403414Y-118370588D01*
X117143000Y-118370588D01*
X117143000Y-117625412D01*
X117403414Y-117625412D01*
X117523416Y-117871000D01*
X119317000Y-117871000D01*
X119317000Y-116413000D01*
X119571000Y-116413000D01*
X119571000Y-117871000D01*
X121364584Y-117871000D01*
X121484586Y-117625412D01*
X121456950Y-117508780D01*
X121154567Y-116967039D01*
X120667886Y-116582252D01*
X120071000Y-116413000D01*
X119571000Y-116413000D01*
X119317000Y-116413000D01*
X118817000Y-116413000D01*
X118220114Y-116582252D01*
X117733433Y-116967039D01*
X117431050Y-117508780D01*
X117403414Y-117625412D01*
X117143000Y-117625412D01*
X117143000Y-115847440D01*
X117450001Y-115847440D01*
X117793436Y-115779127D01*
X118084586Y-115584586D01*
X118279127Y-115293436D01*
X118347440Y-114950001D01*
X118347440Y-114324999D01*
X118334244Y-114258654D01*
X161273000Y-114258654D01*
X161273000Y-115741346D01*
X161840402Y-117111176D01*
X162888824Y-118159598D01*
X164258654Y-118727000D01*
X165741346Y-118727000D01*
X167111176Y-118159598D01*
X168159598Y-117111176D01*
X168727000Y-115741346D01*
X168727000Y-114258654D01*
X168159598Y-112888824D01*
X167111176Y-111840402D01*
X165741346Y-111273000D01*
X164258654Y-111273000D01*
X162888824Y-111840402D01*
X161840402Y-112888824D01*
X161273000Y-114258654D01*
X118334244Y-114258654D01*
X118279127Y-113981564D01*
X118084586Y-113690414D01*
X117793436Y-113495873D01*
X117450001Y-113427560D01*
X114549999Y-113427560D01*
X114206564Y-113495873D01*
X113915414Y-113690414D01*
X113720873Y-113981564D01*
X113652560Y-114324999D01*
X108727000Y-114324999D01*
X108727000Y-114258654D01*
X108159598Y-112888824D01*
X107111176Y-111840402D01*
X105741346Y-111273000D01*
X104258654Y-111273000D01*
X102888824Y-111840402D01*
X101840402Y-112888824D01*
X101273000Y-114258654D01*
X95710000Y-114258654D01*
X95710000Y-98525000D01*
X97977560Y-98525000D01*
X97977560Y-99275000D01*
X98045874Y-99618435D01*
X98240414Y-99909586D01*
X98531565Y-100104126D01*
X98875000Y-100172440D01*
X100125000Y-100172440D01*
X100468435Y-100104126D01*
X100759586Y-99909586D01*
X100797729Y-99852500D01*
X101857000Y-99852500D01*
X101857000Y-99887429D01*
X101834608Y-100000000D01*
X101857000Y-100112571D01*
X101857000Y-100112572D01*
X101923318Y-100445976D01*
X102175944Y-100824057D01*
X102271380Y-100887825D01*
X109112175Y-107728621D01*
X109175943Y-107824057D01*
X109554024Y-108076682D01*
X109887428Y-108143000D01*
X109887429Y-108143000D01*
X110000000Y-108165392D01*
X110112571Y-108143000D01*
X114026555Y-108143000D01*
X114857000Y-108973446D01*
X114857000Y-109152560D01*
X114549999Y-109152560D01*
X114206564Y-109220873D01*
X113915414Y-109415414D01*
X113720873Y-109706564D01*
X113652560Y-110049999D01*
X113652560Y-110675001D01*
X113720873Y-111018436D01*
X113915414Y-111309586D01*
X114206564Y-111504127D01*
X114549999Y-111572440D01*
X117450001Y-111572440D01*
X117793436Y-111504127D01*
X118084586Y-111309586D01*
X118279127Y-111018436D01*
X118347440Y-110675001D01*
X118347440Y-110049999D01*
X118279127Y-109706564D01*
X118084586Y-109415414D01*
X117793436Y-109220873D01*
X117450001Y-109152560D01*
X117143000Y-109152560D01*
X117143000Y-108612570D01*
X117165392Y-108499999D01*
X117094380Y-108143000D01*
X117076682Y-108054024D01*
X116824057Y-107675943D01*
X116728621Y-107612175D01*
X115387827Y-106271382D01*
X115324057Y-106175943D01*
X114945976Y-105923318D01*
X114612572Y-105857000D01*
X114612571Y-105857000D01*
X114500000Y-105834608D01*
X114387429Y-105857000D01*
X110473446Y-105857000D01*
X104143000Y-99526555D01*
X104143000Y-98525000D01*
X111477560Y-98525000D01*
X111477560Y-99275000D01*
X111545874Y-99618435D01*
X111740414Y-99909586D01*
X112031565Y-100104126D01*
X112375000Y-100172440D01*
X113625000Y-100172440D01*
X113968435Y-100104126D01*
X114259586Y-99909586D01*
X114297729Y-99852500D01*
X116006190Y-99852500D01*
X116100000Y-99871160D01*
X116193810Y-99852500D01*
X116471647Y-99797235D01*
X116786714Y-99586714D01*
X116839857Y-99507180D01*
X117107180Y-99239857D01*
X117186714Y-99186714D01*
X117397235Y-98871647D01*
X117452500Y-98593810D01*
X117452500Y-98593806D01*
X117471159Y-98500001D01*
X117452500Y-98406196D01*
X117452500Y-98298317D01*
X117801310Y-97949507D01*
X118035000Y-97385330D01*
X118035000Y-96774670D01*
X117801310Y-96210493D01*
X117369507Y-95778690D01*
X117349885Y-95770562D01*
X117400554Y-95620159D01*
X116500000Y-94719605D01*
X115599446Y-95620159D01*
X115650115Y-95770562D01*
X115630493Y-95778690D01*
X115198690Y-96210493D01*
X114965000Y-96774670D01*
X114965000Y-97385330D01*
X115197859Y-97947500D01*
X114297729Y-97947500D01*
X114259586Y-97890414D01*
X113968435Y-97695874D01*
X113625000Y-97627560D01*
X112375000Y-97627560D01*
X112031565Y-97695874D01*
X111740414Y-97890414D01*
X111545874Y-98181565D01*
X111477560Y-98525000D01*
X104143000Y-98525000D01*
X104143000Y-98107817D01*
X104301310Y-97949507D01*
X104535000Y-97385330D01*
X104535000Y-96774670D01*
X104301310Y-96210493D01*
X103869507Y-95778690D01*
X103849885Y-95770562D01*
X103900554Y-95620159D01*
X103000000Y-94719605D01*
X102099446Y-95620159D01*
X102150115Y-95770562D01*
X102130493Y-95778690D01*
X101698690Y-96210493D01*
X101465000Y-96774670D01*
X101465000Y-97385330D01*
X101697859Y-97947500D01*
X100797729Y-97947500D01*
X100759586Y-97890414D01*
X100468435Y-97695874D01*
X100125000Y-97627560D01*
X98875000Y-97627560D01*
X98531565Y-97695874D01*
X98240414Y-97890414D01*
X98045874Y-98181565D01*
X97977560Y-98525000D01*
X95710000Y-98525000D01*
X95710000Y-89725000D01*
X97977560Y-89725000D01*
X97977560Y-90475000D01*
X98045874Y-90818435D01*
X98240414Y-91109586D01*
X98531565Y-91304126D01*
X98875000Y-91372440D01*
X100125000Y-91372440D01*
X100468435Y-91304126D01*
X100759586Y-91109586D01*
X100797729Y-91052500D01*
X101462008Y-91052500D01*
X101452560Y-91100000D01*
X101452560Y-92900000D01*
X101501843Y-93147765D01*
X101642191Y-93357809D01*
X101840114Y-93490058D01*
X101805282Y-93524890D01*
X101919839Y-93639447D01*
X101663357Y-93725852D01*
X101453542Y-94299336D01*
X101479161Y-94909460D01*
X101663357Y-95354148D01*
X101919841Y-95440554D01*
X102820395Y-94540000D01*
X102806253Y-94525858D01*
X102985858Y-94346253D01*
X103000000Y-94360395D01*
X103014143Y-94346253D01*
X103193748Y-94525858D01*
X103179605Y-94540000D01*
X104080159Y-95440554D01*
X104336643Y-95354148D01*
X104546458Y-94780664D01*
X104520839Y-94170540D01*
X104336643Y-93725852D01*
X104080161Y-93639447D01*
X104194718Y-93524890D01*
X104159886Y-93490058D01*
X104357809Y-93357809D01*
X104498157Y-93147765D01*
X104499105Y-93143000D01*
X104887429Y-93143000D01*
X105000000Y-93165392D01*
X105112571Y-93143000D01*
X105112572Y-93143000D01*
X105445976Y-93076682D01*
X105824057Y-92824057D01*
X105887827Y-92728618D01*
X108528620Y-90087826D01*
X108624057Y-90024057D01*
X108876682Y-89645976D01*
X108943000Y-89312572D01*
X108943000Y-89312571D01*
X108965392Y-89200000D01*
X108943000Y-89087429D01*
X108943000Y-88143000D01*
X114026555Y-88143000D01*
X115031054Y-89147500D01*
X114297729Y-89147500D01*
X114259586Y-89090414D01*
X113968435Y-88895874D01*
X113625000Y-88827560D01*
X112375000Y-88827560D01*
X112031565Y-88895874D01*
X111740414Y-89090414D01*
X111545874Y-89381565D01*
X111477560Y-89725000D01*
X111477560Y-90475000D01*
X111545874Y-90818435D01*
X111740414Y-91109586D01*
X112031565Y-91304126D01*
X112375000Y-91372440D01*
X113625000Y-91372440D01*
X113968435Y-91304126D01*
X114259586Y-91109586D01*
X114297729Y-91052500D01*
X114962008Y-91052500D01*
X114952560Y-91100000D01*
X114952560Y-92900000D01*
X115001843Y-93147765D01*
X115142191Y-93357809D01*
X115340114Y-93490058D01*
X115305282Y-93524890D01*
X115419839Y-93639447D01*
X115163357Y-93725852D01*
X114953542Y-94299336D01*
X114979161Y-94909460D01*
X115163357Y-95354148D01*
X115419841Y-95440554D01*
X116320395Y-94540000D01*
X116306253Y-94525858D01*
X116485858Y-94346253D01*
X116500000Y-94360395D01*
X116514143Y-94346253D01*
X116693748Y-94525858D01*
X116679605Y-94540000D01*
X117580159Y-95440554D01*
X117836643Y-95354148D01*
X118046458Y-94780664D01*
X118020839Y-94170540D01*
X117836643Y-93725852D01*
X117580161Y-93639447D01*
X117694718Y-93524890D01*
X117659886Y-93490058D01*
X117857809Y-93357809D01*
X117998157Y-93147765D01*
X118047440Y-92900000D01*
X118047440Y-91100000D01*
X117998157Y-90852235D01*
X117857809Y-90642191D01*
X117647765Y-90501843D01*
X117643000Y-90500895D01*
X117643000Y-89112570D01*
X117665392Y-88999999D01*
X117632493Y-88834608D01*
X117576682Y-88554024D01*
X117324057Y-88175943D01*
X117228621Y-88112175D01*
X115387827Y-86271382D01*
X115324057Y-86175943D01*
X114945976Y-85923318D01*
X114612572Y-85857000D01*
X114612571Y-85857000D01*
X114500000Y-85834608D01*
X114387429Y-85857000D01*
X108943000Y-85857000D01*
X108943000Y-83447440D01*
X109300000Y-83447440D01*
X109547765Y-83398157D01*
X109757809Y-83257809D01*
X109898157Y-83047765D01*
X109947440Y-82800000D01*
X109947440Y-81200000D01*
X109898157Y-80952235D01*
X109757809Y-80742191D01*
X109547765Y-80601843D01*
X109300000Y-80552560D01*
X108943000Y-80552560D01*
X108943000Y-79022440D01*
X109475000Y-79022440D01*
X109818435Y-78954126D01*
X110109586Y-78759586D01*
X110304126Y-78468435D01*
X110372440Y-78125000D01*
X110372440Y-76875000D01*
X110304126Y-76531565D01*
X110109586Y-76240414D01*
X109818435Y-76045874D01*
X109475000Y-75977560D01*
X108725000Y-75977560D01*
X108381565Y-76045874D01*
X108090414Y-76240414D01*
X108024253Y-76339432D01*
X108000000Y-76334608D01*
X107554024Y-76423318D01*
X107175943Y-76675943D01*
X107112173Y-76771382D01*
X107071380Y-76812175D01*
X106975944Y-76875943D01*
X106725960Y-77250072D01*
X106723319Y-77254024D01*
X106634608Y-77700000D01*
X106657001Y-77812576D01*
X106657000Y-80552560D01*
X106300000Y-80552560D01*
X106052235Y-80601843D01*
X105842191Y-80742191D01*
X105765477Y-80857000D01*
X104547440Y-80857000D01*
X104547440Y-80250000D01*
X104498157Y-80002235D01*
X104357809Y-79792191D01*
X104147765Y-79651843D01*
X103900000Y-79602560D01*
X102100000Y-79602560D01*
X101852235Y-79651843D01*
X101642191Y-79792191D01*
X101501843Y-80002235D01*
X101452560Y-80250000D01*
X101452560Y-82750000D01*
X101501843Y-82997765D01*
X101642191Y-83207809D01*
X101852235Y-83348157D01*
X102100000Y-83397440D01*
X103900000Y-83397440D01*
X104147765Y-83348157D01*
X104357809Y-83207809D01*
X104401113Y-83143000D01*
X105765477Y-83143000D01*
X105842191Y-83257809D01*
X106052235Y-83398157D01*
X106300000Y-83447440D01*
X106657000Y-83447440D01*
X106657001Y-86887423D01*
X106634608Y-87000000D01*
X106657000Y-87112572D01*
X106657001Y-88726553D01*
X104526555Y-90857000D01*
X104499105Y-90857000D01*
X104498157Y-90852235D01*
X104357809Y-90642191D01*
X104147765Y-90501843D01*
X103918910Y-90456321D01*
X103897235Y-90347353D01*
X103686714Y-90032286D01*
X103607183Y-89979145D01*
X103120856Y-89492819D01*
X103067714Y-89413286D01*
X102752647Y-89202765D01*
X102474810Y-89147500D01*
X102381000Y-89128840D01*
X102287190Y-89147500D01*
X100797729Y-89147500D01*
X100759586Y-89090414D01*
X100468435Y-88895874D01*
X100125000Y-88827560D01*
X98875000Y-88827560D01*
X98531565Y-88895874D01*
X98240414Y-89090414D01*
X98045874Y-89381565D01*
X97977560Y-89725000D01*
X95710000Y-89725000D01*
X95710000Y-76250000D01*
X101452560Y-76250000D01*
X101452560Y-78750000D01*
X101501843Y-78997765D01*
X101642191Y-79207809D01*
X101852235Y-79348157D01*
X102100000Y-79397440D01*
X103900000Y-79397440D01*
X104147765Y-79348157D01*
X104357809Y-79207809D01*
X104498157Y-78997765D01*
X104547440Y-78750000D01*
X104547440Y-76250000D01*
X104505500Y-76039151D01*
X104505500Y-74786533D01*
X104572440Y-74450001D01*
X104572440Y-71549999D01*
X106427560Y-71549999D01*
X106427560Y-74450001D01*
X106495873Y-74793436D01*
X106690414Y-75084586D01*
X106981564Y-75279127D01*
X107324999Y-75347440D01*
X107950001Y-75347440D01*
X108293436Y-75279127D01*
X108584586Y-75084586D01*
X108779127Y-74793436D01*
X108847440Y-74450001D01*
X108847440Y-74143000D01*
X112387428Y-74143000D01*
X112500000Y-74165392D01*
X112612572Y-74143000D01*
X112945976Y-74076682D01*
X113324057Y-73824057D01*
X113576682Y-73445976D01*
X113665392Y-73000000D01*
X113643000Y-72887428D01*
X113643000Y-71452500D01*
X117605463Y-71452500D01*
X135647500Y-89494538D01*
X135647501Y-103802270D01*
X135590414Y-103840414D01*
X135395874Y-104131565D01*
X135327560Y-104475000D01*
X135327560Y-105725000D01*
X135395874Y-106068435D01*
X135590414Y-106359586D01*
X135881565Y-106554126D01*
X136225000Y-106622440D01*
X136975000Y-106622440D01*
X137318435Y-106554126D01*
X137609586Y-106359586D01*
X137804126Y-106068435D01*
X137872440Y-105725000D01*
X137872440Y-104475000D01*
X137804126Y-104131565D01*
X137609586Y-103840414D01*
X137552500Y-103802271D01*
X137552500Y-89193808D01*
X137571160Y-89099999D01*
X137502341Y-88754024D01*
X137497235Y-88728353D01*
X137286714Y-88413286D01*
X137207184Y-88360146D01*
X118739857Y-69892820D01*
X118727951Y-69875000D01*
X135327560Y-69875000D01*
X135327560Y-71125000D01*
X135395874Y-71468435D01*
X135590414Y-71759586D01*
X135881565Y-71954126D01*
X136225000Y-72022440D01*
X136975000Y-72022440D01*
X137318435Y-71954126D01*
X137609586Y-71759586D01*
X137804126Y-71468435D01*
X137872440Y-71125000D01*
X137872440Y-69875000D01*
X137804126Y-69531565D01*
X137609586Y-69240414D01*
X137425500Y-69117412D01*
X137425500Y-66241932D01*
X148026226Y-55641207D01*
X148095152Y-55595152D01*
X148186586Y-55458311D01*
X148277604Y-55322095D01*
X148341672Y-55000000D01*
X148325500Y-54918697D01*
X148325500Y-52315059D01*
X148690305Y-52071305D01*
X149055208Y-51525188D01*
X149151000Y-51043608D01*
X149151000Y-49956392D01*
X150849000Y-49956392D01*
X150849000Y-51043609D01*
X150944792Y-51525188D01*
X151309696Y-52071305D01*
X151855813Y-52436208D01*
X152500000Y-52564345D01*
X153144188Y-52436208D01*
X153690305Y-52071305D01*
X154055208Y-51525188D01*
X154151000Y-51043608D01*
X154151000Y-49956392D01*
X155849000Y-49956392D01*
X155849000Y-51043609D01*
X155944792Y-51525188D01*
X156309696Y-52071305D01*
X156674501Y-52315059D01*
X156674500Y-58918698D01*
X156658328Y-59000000D01*
X156674500Y-59081301D01*
X156674500Y-59081302D01*
X156722396Y-59322093D01*
X156904848Y-59595152D01*
X156973777Y-59641209D01*
X161074501Y-63741934D01*
X161074500Y-91617412D01*
X160890414Y-91740414D01*
X160695874Y-92031565D01*
X160627560Y-92375000D01*
X160627560Y-93625000D01*
X160695874Y-93968435D01*
X160890414Y-94259586D01*
X161181565Y-94454126D01*
X161525000Y-94522440D01*
X162275000Y-94522440D01*
X162618435Y-94454126D01*
X162909586Y-94259586D01*
X163104126Y-93968435D01*
X163112666Y-93925500D01*
X163117412Y-93925500D01*
X163240414Y-94109586D01*
X163531565Y-94304126D01*
X163875000Y-94372440D01*
X165125000Y-94372440D01*
X165468435Y-94304126D01*
X165759586Y-94109586D01*
X165954126Y-93818435D01*
X166022440Y-93475000D01*
X166022440Y-92725000D01*
X165954126Y-92381565D01*
X165759586Y-92090414D01*
X165468435Y-91895874D01*
X165125000Y-91827560D01*
X163875000Y-91827560D01*
X163531565Y-91895874D01*
X163240414Y-92090414D01*
X163144412Y-92234092D01*
X163104126Y-92031565D01*
X162909586Y-91740414D01*
X162725500Y-91617412D01*
X162725500Y-63481303D01*
X162741672Y-63400000D01*
X162677604Y-63077906D01*
X162541206Y-62873773D01*
X162495152Y-62804848D01*
X162426226Y-62758793D01*
X158325500Y-58658068D01*
X158325500Y-54258654D01*
X161273000Y-54258654D01*
X161273000Y-55741346D01*
X161840402Y-57111176D01*
X162888824Y-58159598D01*
X164258654Y-58727000D01*
X165741346Y-58727000D01*
X167111176Y-58159598D01*
X168159598Y-57111176D01*
X168727000Y-55741346D01*
X168727000Y-54258654D01*
X168159598Y-52888824D01*
X167111176Y-51840402D01*
X165741346Y-51273000D01*
X164258654Y-51273000D01*
X162888824Y-51840402D01*
X161840402Y-52888824D01*
X161273000Y-54258654D01*
X158325500Y-54258654D01*
X158325500Y-52315059D01*
X158690305Y-52071305D01*
X159055208Y-51525188D01*
X159151000Y-51043608D01*
X159151000Y-49956391D01*
X159055208Y-49474812D01*
X158690305Y-48928695D01*
X158144187Y-48563792D01*
X157500000Y-48435655D01*
X156855812Y-48563792D01*
X156309695Y-48928695D01*
X155944792Y-49474813D01*
X155849000Y-49956392D01*
X154151000Y-49956392D01*
X154151000Y-49956391D01*
X154055208Y-49474812D01*
X153690305Y-48928695D01*
X153144187Y-48563792D01*
X152500000Y-48435655D01*
X151855812Y-48563792D01*
X151309695Y-48928695D01*
X150944792Y-49474813D01*
X150849000Y-49956392D01*
X149151000Y-49956392D01*
X149151000Y-49956391D01*
X149055208Y-49474812D01*
X148690305Y-48928695D01*
X148144187Y-48563792D01*
X147500000Y-48435655D01*
X146855812Y-48563792D01*
X146309695Y-48928695D01*
X145944792Y-49474813D01*
X145849000Y-49956392D01*
X145849000Y-51043609D01*
X145944792Y-51525188D01*
X146309696Y-52071305D01*
X146674501Y-52315059D01*
X146674500Y-54658067D01*
X136073775Y-65258793D01*
X136004849Y-65304848D01*
X135958794Y-65373774D01*
X135822397Y-65577906D01*
X135758328Y-65900000D01*
X135774501Y-65981306D01*
X135774500Y-69117412D01*
X135590414Y-69240414D01*
X135395874Y-69531565D01*
X135327560Y-69875000D01*
X118727951Y-69875000D01*
X118686714Y-69813286D01*
X118371647Y-69602765D01*
X118093810Y-69547500D01*
X118000000Y-69528840D01*
X117906190Y-69547500D01*
X113643000Y-69547500D01*
X113643000Y-52519178D01*
X113763765Y-52495157D01*
X113973809Y-52354809D01*
X114114157Y-52144765D01*
X114163440Y-51897000D01*
X114163440Y-49956392D01*
X115849000Y-49956392D01*
X115849000Y-51043609D01*
X115944792Y-51525188D01*
X116309696Y-52071305D01*
X116855813Y-52436208D01*
X117500000Y-52564345D01*
X118144188Y-52436208D01*
X118690305Y-52071305D01*
X119055208Y-51525188D01*
X119151000Y-51043608D01*
X119151000Y-49956392D01*
X120849000Y-49956392D01*
X120849000Y-51043609D01*
X120944792Y-51525188D01*
X121309696Y-52071305D01*
X121855813Y-52436208D01*
X122500000Y-52564345D01*
X123144188Y-52436208D01*
X123690305Y-52071305D01*
X124055208Y-51525188D01*
X124151000Y-51043608D01*
X124151000Y-50627000D01*
X125849000Y-50627000D01*
X125849000Y-51008000D01*
X126023276Y-51630143D01*
X126422370Y-52138236D01*
X126985523Y-52454926D01*
X127117056Y-52486975D01*
X127373000Y-52367836D01*
X127373000Y-50627000D01*
X127627000Y-50627000D01*
X127627000Y-52367836D01*
X127882944Y-52486975D01*
X128014477Y-52454926D01*
X128577630Y-52138236D01*
X128976724Y-51630143D01*
X129151000Y-51008000D01*
X129151000Y-50627000D01*
X130849000Y-50627000D01*
X130849000Y-51008000D01*
X131023276Y-51630143D01*
X131422370Y-52138236D01*
X131985523Y-52454926D01*
X132117056Y-52486975D01*
X132373000Y-52367836D01*
X132373000Y-50627000D01*
X132627000Y-50627000D01*
X132627000Y-52367836D01*
X132882944Y-52486975D01*
X133014477Y-52454926D01*
X133577630Y-52138236D01*
X133976724Y-51630143D01*
X134151000Y-51008000D01*
X134151000Y-50627000D01*
X135849000Y-50627000D01*
X135849000Y-51008000D01*
X136023276Y-51630143D01*
X136422370Y-52138236D01*
X136985523Y-52454926D01*
X137117056Y-52486975D01*
X137373000Y-52367836D01*
X137373000Y-50627000D01*
X137627000Y-50627000D01*
X137627000Y-52367836D01*
X137882944Y-52486975D01*
X138014477Y-52454926D01*
X138577630Y-52138236D01*
X138976724Y-51630143D01*
X139151000Y-51008000D01*
X139151000Y-50627000D01*
X137627000Y-50627000D01*
X137373000Y-50627000D01*
X135849000Y-50627000D01*
X134151000Y-50627000D01*
X132627000Y-50627000D01*
X132373000Y-50627000D01*
X130849000Y-50627000D01*
X129151000Y-50627000D01*
X127627000Y-50627000D01*
X127373000Y-50627000D01*
X125849000Y-50627000D01*
X124151000Y-50627000D01*
X124151000Y-49992000D01*
X125849000Y-49992000D01*
X125849000Y-50373000D01*
X127373000Y-50373000D01*
X127373000Y-48632164D01*
X127627000Y-48632164D01*
X127627000Y-50373000D01*
X129151000Y-50373000D01*
X129151000Y-49992000D01*
X130849000Y-49992000D01*
X130849000Y-50373000D01*
X132373000Y-50373000D01*
X132373000Y-48632164D01*
X132627000Y-48632164D01*
X132627000Y-50373000D01*
X134151000Y-50373000D01*
X134151000Y-49992000D01*
X135849000Y-49992000D01*
X135849000Y-50373000D01*
X137373000Y-50373000D01*
X137373000Y-48632164D01*
X137627000Y-48632164D01*
X137627000Y-50373000D01*
X139151000Y-50373000D01*
X139151000Y-49992000D01*
X139141026Y-49956392D01*
X140849000Y-49956392D01*
X140849000Y-51043609D01*
X140944792Y-51525188D01*
X141309696Y-52071305D01*
X141855813Y-52436208D01*
X142500000Y-52564345D01*
X143144188Y-52436208D01*
X143690305Y-52071305D01*
X144055208Y-51525188D01*
X144151000Y-51043608D01*
X144151000Y-49956391D01*
X144055208Y-49474812D01*
X143690305Y-48928695D01*
X143144187Y-48563792D01*
X142500000Y-48435655D01*
X141855812Y-48563792D01*
X141309695Y-48928695D01*
X140944792Y-49474813D01*
X140849000Y-49956392D01*
X139141026Y-49956392D01*
X138976724Y-49369857D01*
X138577630Y-48861764D01*
X138014477Y-48545074D01*
X137882944Y-48513025D01*
X137627000Y-48632164D01*
X137373000Y-48632164D01*
X137117056Y-48513025D01*
X136985523Y-48545074D01*
X136422370Y-48861764D01*
X136023276Y-49369857D01*
X135849000Y-49992000D01*
X134151000Y-49992000D01*
X133976724Y-49369857D01*
X133577630Y-48861764D01*
X133014477Y-48545074D01*
X132882944Y-48513025D01*
X132627000Y-48632164D01*
X132373000Y-48632164D01*
X132117056Y-48513025D01*
X131985523Y-48545074D01*
X131422370Y-48861764D01*
X131023276Y-49369857D01*
X130849000Y-49992000D01*
X129151000Y-49992000D01*
X128976724Y-49369857D01*
X128577630Y-48861764D01*
X128014477Y-48545074D01*
X127882944Y-48513025D01*
X127627000Y-48632164D01*
X127373000Y-48632164D01*
X127117056Y-48513025D01*
X126985523Y-48545074D01*
X126422370Y-48861764D01*
X126023276Y-49369857D01*
X125849000Y-49992000D01*
X124151000Y-49992000D01*
X124151000Y-49956391D01*
X124055208Y-49474812D01*
X123690305Y-48928695D01*
X123144187Y-48563792D01*
X122500000Y-48435655D01*
X121855812Y-48563792D01*
X121309695Y-48928695D01*
X120944792Y-49474813D01*
X120849000Y-49956392D01*
X119151000Y-49956392D01*
X119151000Y-49956391D01*
X119055208Y-49474812D01*
X118690305Y-48928695D01*
X118144187Y-48563792D01*
X117500000Y-48435655D01*
X116855812Y-48563792D01*
X116309695Y-48928695D01*
X115944792Y-49474813D01*
X115849000Y-49956392D01*
X114163440Y-49956392D01*
X114163440Y-49103000D01*
X114114157Y-48855235D01*
X113973809Y-48645191D01*
X113763765Y-48504843D01*
X113516000Y-48455560D01*
X111484000Y-48455560D01*
X111236235Y-48504843D01*
X111026191Y-48645191D01*
X110885843Y-48855235D01*
X110836560Y-49103000D01*
X110836560Y-51897000D01*
X110885843Y-52144765D01*
X111026191Y-52354809D01*
X111236235Y-52495157D01*
X111357000Y-52519178D01*
X111357001Y-71857000D01*
X108847440Y-71857000D01*
X108847440Y-71549999D01*
X108779127Y-71206564D01*
X108584586Y-70915414D01*
X108293436Y-70720873D01*
X107950001Y-70652560D01*
X107324999Y-70652560D01*
X106981564Y-70720873D01*
X106690414Y-70915414D01*
X106495873Y-71206564D01*
X106427560Y-71549999D01*
X104572440Y-71549999D01*
X104504127Y-71206564D01*
X104309586Y-70915414D01*
X104018436Y-70720873D01*
X103675001Y-70652560D01*
X103049999Y-70652560D01*
X102706564Y-70720873D01*
X102415414Y-70915414D01*
X102220873Y-71206564D01*
X102152560Y-71549999D01*
X102152560Y-74450001D01*
X102219500Y-74786536D01*
X102219501Y-75602560D01*
X102100000Y-75602560D01*
X101852235Y-75651843D01*
X101642191Y-75792191D01*
X101501843Y-76002235D01*
X101452560Y-76250000D01*
X95710000Y-76250000D01*
X95710000Y-54258654D01*
X101273000Y-54258654D01*
X101273000Y-55741346D01*
X101840402Y-57111176D01*
X102888824Y-58159598D01*
X104258654Y-58727000D01*
X105741346Y-58727000D01*
X107111176Y-58159598D01*
X108159598Y-57111176D01*
X108727000Y-55741346D01*
X108727000Y-54258654D01*
X108159598Y-52888824D01*
X107111176Y-51840402D01*
X105741346Y-51273000D01*
X104258654Y-51273000D01*
X102888824Y-51840402D01*
X101840402Y-52888824D01*
X101273000Y-54258654D01*
X95710000Y-54258654D01*
X95710000Y-45710000D01*
X174290000Y-45710000D01*
X174290001Y-94240228D01*
G36*
X172674500Y-94841933D02*
X172674501Y-103658066D01*
X170158068Y-106174500D01*
X149341934Y-106174500D01*
X147841209Y-104673777D01*
X147795152Y-104604848D01*
X147522094Y-104422396D01*
X147281303Y-104374500D01*
X147281301Y-104374500D01*
X147200000Y-104358328D01*
X147118699Y-104374500D01*
X145882588Y-104374500D01*
X145759586Y-104190414D01*
X145468435Y-103995874D01*
X145125000Y-103927560D01*
X143875000Y-103927560D01*
X143531565Y-103995874D01*
X143325500Y-104133562D01*
X143325500Y-104029397D01*
X143357809Y-104007809D01*
X143498157Y-103797765D01*
X143547440Y-103550000D01*
X143547440Y-102650000D01*
X143498157Y-102402235D01*
X143357809Y-102192191D01*
X143147765Y-102051843D01*
X142900000Y-102002560D01*
X142411316Y-102002560D01*
X142548157Y-101797765D01*
X142597440Y-101550000D01*
X142597440Y-100650000D01*
X142548157Y-100402235D01*
X142502500Y-100333905D01*
X142502500Y-97844537D01*
X143314539Y-97032500D01*
X143486190Y-97032500D01*
X143580000Y-97051160D01*
X143673810Y-97032500D01*
X149763104Y-97032500D01*
X150027138Y-97296534D01*
X150156216Y-97350000D01*
X150027138Y-97403466D01*
X149623466Y-97807138D01*
X149405000Y-98334561D01*
X149405000Y-98905439D01*
X149623466Y-99432862D01*
X150027138Y-99836534D01*
X150156216Y-99890000D01*
X150027138Y-99943466D01*
X149623466Y-100347138D01*
X149405000Y-100874561D01*
X149405000Y-101445439D01*
X149623466Y-101972862D01*
X150027138Y-102376534D01*
X150554561Y-102595000D01*
X151125439Y-102595000D01*
X151652862Y-102376534D01*
X152056534Y-101972862D01*
X152275000Y-101445439D01*
X152275000Y-100874561D01*
X152056534Y-100347138D01*
X151652862Y-99943466D01*
X151523784Y-99890000D01*
X151652862Y-99836534D01*
X152056534Y-99432862D01*
X152275000Y-98905439D01*
X152275000Y-98334561D01*
X152056534Y-97807138D01*
X151652862Y-97403466D01*
X151523784Y-97350000D01*
X151652862Y-97296534D01*
X151916896Y-97032500D01*
X152685463Y-97032500D01*
X161260145Y-105607183D01*
X161313286Y-105686714D01*
X161544500Y-105841206D01*
X161628353Y-105897235D01*
X162000000Y-105971160D01*
X162093810Y-105952500D01*
X167441190Y-105952500D01*
X167535000Y-105971160D01*
X167628810Y-105952500D01*
X167906647Y-105897235D01*
X168221714Y-105686714D01*
X168274856Y-105607181D01*
X169057183Y-104824854D01*
X169136714Y-104771714D01*
X169347235Y-104456647D01*
X169402500Y-104178810D01*
X169402500Y-104178806D01*
X169421159Y-104085001D01*
X169402500Y-103991196D01*
X169402500Y-103766095D01*
X169448157Y-103697765D01*
X169497440Y-103450000D01*
X169497440Y-102550000D01*
X169448157Y-102302235D01*
X169307809Y-102092191D01*
X169097765Y-101951843D01*
X168850000Y-101902560D01*
X168361316Y-101902560D01*
X168498157Y-101697765D01*
X168547440Y-101450000D01*
X168547440Y-100550000D01*
X168498157Y-100302235D01*
X168357809Y-100092191D01*
X168325500Y-100070603D01*
X168325500Y-99815770D01*
X168409586Y-99759586D01*
X168604126Y-99468435D01*
X168608688Y-99445500D01*
X169956104Y-99445500D01*
X170245866Y-99735262D01*
X170112235Y-99761843D01*
X169902191Y-99902191D01*
X169761843Y-100112235D01*
X169712560Y-100360000D01*
X169712560Y-101960000D01*
X169761843Y-102207765D01*
X169902191Y-102417809D01*
X170112235Y-102558157D01*
X170360000Y-102607440D01*
X171960000Y-102607440D01*
X172207765Y-102558157D01*
X172417809Y-102417809D01*
X172558157Y-102207765D01*
X172607440Y-101960000D01*
X172607440Y-100360000D01*
X172558157Y-100112235D01*
X172417809Y-99902191D01*
X172207765Y-99761843D01*
X172074134Y-99735262D01*
X172376534Y-99432862D01*
X172595000Y-98905439D01*
X172595000Y-98334561D01*
X172376534Y-97807138D01*
X171972862Y-97403466D01*
X171843784Y-97350000D01*
X171972862Y-97296534D01*
X172376534Y-96892862D01*
X172595000Y-96365439D01*
X172595000Y-95794561D01*
X172376534Y-95267138D01*
X171972862Y-94863466D01*
X171843784Y-94810000D01*
X171972862Y-94756534D01*
X172280982Y-94448414D01*
X172674500Y-94841933D01*
X172674500Y-94841933D01*
G37*
X172674500Y-94841933D02*
X172674501Y-103658066D01*
X170158068Y-106174500D01*
X149341934Y-106174500D01*
X147841209Y-104673777D01*
X147795152Y-104604848D01*
X147522094Y-104422396D01*
X147281303Y-104374500D01*
X147281301Y-104374500D01*
X147200000Y-104358328D01*
X147118699Y-104374500D01*
X145882588Y-104374500D01*
X145759586Y-104190414D01*
X145468435Y-103995874D01*
X145125000Y-103927560D01*
X143875000Y-103927560D01*
X143531565Y-103995874D01*
X143325500Y-104133562D01*
X143325500Y-104029397D01*
X143357809Y-104007809D01*
X143498157Y-103797765D01*
X143547440Y-103550000D01*
X143547440Y-102650000D01*
X143498157Y-102402235D01*
X143357809Y-102192191D01*
X143147765Y-102051843D01*
X142900000Y-102002560D01*
X142411316Y-102002560D01*
X142548157Y-101797765D01*
X142597440Y-101550000D01*
X142597440Y-100650000D01*
X142548157Y-100402235D01*
X142502500Y-100333905D01*
X142502500Y-97844537D01*
X143314539Y-97032500D01*
X143486190Y-97032500D01*
X143580000Y-97051160D01*
X143673810Y-97032500D01*
X149763104Y-97032500D01*
X150027138Y-97296534D01*
X150156216Y-97350000D01*
X150027138Y-97403466D01*
X149623466Y-97807138D01*
X149405000Y-98334561D01*
X149405000Y-98905439D01*
X149623466Y-99432862D01*
X150027138Y-99836534D01*
X150156216Y-99890000D01*
X150027138Y-99943466D01*
X149623466Y-100347138D01*
X149405000Y-100874561D01*
X149405000Y-101445439D01*
X149623466Y-101972862D01*
X150027138Y-102376534D01*
X150554561Y-102595000D01*
X151125439Y-102595000D01*
X151652862Y-102376534D01*
X152056534Y-101972862D01*
X152275000Y-101445439D01*
X152275000Y-100874561D01*
X152056534Y-100347138D01*
X151652862Y-99943466D01*
X151523784Y-99890000D01*
X151652862Y-99836534D01*
X152056534Y-99432862D01*
X152275000Y-98905439D01*
X152275000Y-98334561D01*
X152056534Y-97807138D01*
X151652862Y-97403466D01*
X151523784Y-97350000D01*
X151652862Y-97296534D01*
X151916896Y-97032500D01*
X152685463Y-97032500D01*
X161260145Y-105607183D01*
X161313286Y-105686714D01*
X161544500Y-105841206D01*
X161628353Y-105897235D01*
X162000000Y-105971160D01*
X162093810Y-105952500D01*
X167441190Y-105952500D01*
X167535000Y-105971160D01*
X167628810Y-105952500D01*
X167906647Y-105897235D01*
X168221714Y-105686714D01*
X168274856Y-105607181D01*
X169057183Y-104824854D01*
X169136714Y-104771714D01*
X169347235Y-104456647D01*
X169402500Y-104178810D01*
X169402500Y-104178806D01*
X169421159Y-104085001D01*
X169402500Y-103991196D01*
X169402500Y-103766095D01*
X169448157Y-103697765D01*
X169497440Y-103450000D01*
X169497440Y-102550000D01*
X169448157Y-102302235D01*
X169307809Y-102092191D01*
X169097765Y-101951843D01*
X168850000Y-101902560D01*
X168361316Y-101902560D01*
X168498157Y-101697765D01*
X168547440Y-101450000D01*
X168547440Y-100550000D01*
X168498157Y-100302235D01*
X168357809Y-100092191D01*
X168325500Y-100070603D01*
X168325500Y-99815770D01*
X168409586Y-99759586D01*
X168604126Y-99468435D01*
X168608688Y-99445500D01*
X169956104Y-99445500D01*
X170245866Y-99735262D01*
X170112235Y-99761843D01*
X169902191Y-99902191D01*
X169761843Y-100112235D01*
X169712560Y-100360000D01*
X169712560Y-101960000D01*
X169761843Y-102207765D01*
X169902191Y-102417809D01*
X170112235Y-102558157D01*
X170360000Y-102607440D01*
X171960000Y-102607440D01*
X172207765Y-102558157D01*
X172417809Y-102417809D01*
X172558157Y-102207765D01*
X172607440Y-101960000D01*
X172607440Y-100360000D01*
X172558157Y-100112235D01*
X172417809Y-99902191D01*
X172207765Y-99761843D01*
X172074134Y-99735262D01*
X172376534Y-99432862D01*
X172595000Y-98905439D01*
X172595000Y-98334561D01*
X172376534Y-97807138D01*
X171972862Y-97403466D01*
X171843784Y-97350000D01*
X171972862Y-97296534D01*
X172376534Y-96892862D01*
X172595000Y-96365439D01*
X172595000Y-95794561D01*
X172376534Y-95267138D01*
X171972862Y-94863466D01*
X171843784Y-94810000D01*
X171972862Y-94756534D01*
X172280982Y-94448414D01*
X172674500Y-94841933D01*
G04 #@! TD*
M02*
