G04 #@! TF.GenerationSoftware,KiCad,Pcbnew,(5.0.1)-4*
G04 #@! TF.CreationDate,2020-08-29T23:34:48+08:00*
G04 #@! TF.ProjectId,remote-monitor,72656D6F74652D6D6F6E69746F722E6B,rev?*
G04 #@! TF.SameCoordinates,Original*
G04 #@! TF.FileFunction,Legend,Top*
G04 #@! TF.FilePolarity,Positive*
%FSLAX46Y46*%
G04 Gerber Fmt 4.6, Leading zero omitted, Abs format (unit mm)*
G04 Created by KiCad (PCBNEW (5.0.1)-4) date 29/08/2020 11:34:48 PM*
%MOMM*%
%LPD*%
G01*
G04 APERTURE LIST*
%ADD10C,0.300000*%
%ADD11C,0.400000*%
%ADD12C,0.150000*%
%ADD13C,0.120000*%
G04 APERTURE END LIST*
D10*
X146821428Y-57052142D02*
X148321428Y-57052142D01*
X147250000Y-57552142D01*
X148321428Y-58052142D01*
X146821428Y-58052142D01*
X146821428Y-59409285D02*
X147607142Y-59409285D01*
X147750000Y-59337857D01*
X147821428Y-59195000D01*
X147821428Y-58909285D01*
X147750000Y-58766428D01*
X146892857Y-59409285D02*
X146821428Y-59266428D01*
X146821428Y-58909285D01*
X146892857Y-58766428D01*
X147035714Y-58695000D01*
X147178571Y-58695000D01*
X147321428Y-58766428D01*
X147392857Y-58909285D01*
X147392857Y-59266428D01*
X147464285Y-59409285D01*
X146821428Y-60123571D02*
X147821428Y-60123571D01*
X148321428Y-60123571D02*
X148250000Y-60052142D01*
X148178571Y-60123571D01*
X148250000Y-60195000D01*
X148321428Y-60123571D01*
X148178571Y-60123571D01*
X147821428Y-60837857D02*
X146821428Y-60837857D01*
X147678571Y-60837857D02*
X147750000Y-60909285D01*
X147821428Y-61052142D01*
X147821428Y-61266428D01*
X147750000Y-61409285D01*
X147607142Y-61480714D01*
X146821428Y-61480714D01*
D11*
X167000000Y-50500000D02*
X161000000Y-50500000D01*
X167000000Y-48500000D02*
X167000000Y-50500000D01*
X112500000Y-58500000D02*
X115500000Y-58500000D01*
X112500000Y-56000000D02*
X112500000Y-58500000D01*
X122500000Y-58500000D02*
X119500000Y-58500000D01*
X122500000Y-56000000D02*
X122500000Y-58500000D01*
X127500000Y-58500000D02*
X130500000Y-58500000D01*
X127500000Y-56000000D02*
X127500000Y-58500000D01*
X137500000Y-58500000D02*
X134500000Y-58500000D01*
X137500000Y-56000000D02*
X137500000Y-58500000D01*
D10*
X151821428Y-57052142D02*
X153321428Y-57052142D01*
X151821428Y-57909285D01*
X153321428Y-57909285D01*
X151964285Y-59480714D02*
X151892857Y-59409285D01*
X151821428Y-59195000D01*
X151821428Y-59052142D01*
X151892857Y-58837857D01*
X152035714Y-58695000D01*
X152178571Y-58623571D01*
X152464285Y-58552142D01*
X152678571Y-58552142D01*
X152964285Y-58623571D01*
X153107142Y-58695000D01*
X153250000Y-58837857D01*
X153321428Y-59052142D01*
X153321428Y-59195000D01*
X153250000Y-59409285D01*
X153178571Y-59480714D01*
X162409285Y-47678571D02*
X161909285Y-46964285D01*
X161552142Y-47678571D02*
X161552142Y-46178571D01*
X162123571Y-46178571D01*
X162266428Y-46250000D01*
X162337857Y-46321428D01*
X162409285Y-46464285D01*
X162409285Y-46678571D01*
X162337857Y-46821428D01*
X162266428Y-46892857D01*
X162123571Y-46964285D01*
X161552142Y-46964285D01*
X163695000Y-47678571D02*
X163695000Y-46892857D01*
X163623571Y-46750000D01*
X163480714Y-46678571D01*
X163195000Y-46678571D01*
X163052142Y-46750000D01*
X163695000Y-47607142D02*
X163552142Y-47678571D01*
X163195000Y-47678571D01*
X163052142Y-47607142D01*
X162980714Y-47464285D01*
X162980714Y-47321428D01*
X163052142Y-47178571D01*
X163195000Y-47107142D01*
X163552142Y-47107142D01*
X163695000Y-47035714D01*
X165052142Y-47678571D02*
X165052142Y-46178571D01*
X165052142Y-47607142D02*
X164909285Y-47678571D01*
X164623571Y-47678571D01*
X164480714Y-47607142D01*
X164409285Y-47535714D01*
X164337857Y-47392857D01*
X164337857Y-46964285D01*
X164409285Y-46821428D01*
X164480714Y-46750000D01*
X164623571Y-46678571D01*
X164909285Y-46678571D01*
X165052142Y-46750000D01*
X165766428Y-47678571D02*
X165766428Y-46678571D01*
X165766428Y-46178571D02*
X165695000Y-46250000D01*
X165766428Y-46321428D01*
X165837857Y-46250000D01*
X165766428Y-46178571D01*
X165766428Y-46321428D01*
X166695000Y-47678571D02*
X166552142Y-47607142D01*
X166480714Y-47535714D01*
X166409285Y-47392857D01*
X166409285Y-46964285D01*
X166480714Y-46821428D01*
X166552142Y-46750000D01*
X166695000Y-46678571D01*
X166909285Y-46678571D01*
X167052142Y-46750000D01*
X167123571Y-46821428D01*
X167195000Y-46964285D01*
X167195000Y-47392857D01*
X167123571Y-47535714D01*
X167052142Y-47607142D01*
X166909285Y-47678571D01*
X166695000Y-47678571D01*
X168766428Y-46178571D02*
X169266428Y-47678571D01*
X169766428Y-46178571D01*
X170552142Y-46178571D02*
X170837857Y-46178571D01*
X170980714Y-46250000D01*
X171123571Y-46392857D01*
X171195000Y-46678571D01*
X171195000Y-47178571D01*
X171123571Y-47464285D01*
X170980714Y-47607142D01*
X170837857Y-47678571D01*
X170552142Y-47678571D01*
X170409285Y-47607142D01*
X170266428Y-47464285D01*
X170195000Y-47178571D01*
X170195000Y-46678571D01*
X170266428Y-46392857D01*
X170409285Y-46250000D01*
X170552142Y-46178571D01*
X171695000Y-46178571D02*
X172695000Y-47678571D01*
X172695000Y-46178571D02*
X171695000Y-47678571D01*
X141821428Y-57052142D02*
X143321428Y-57052142D01*
X141821428Y-57909285D01*
X143321428Y-57909285D01*
X141964285Y-59480714D02*
X141892857Y-59409285D01*
X141821428Y-59195000D01*
X141821428Y-59052142D01*
X141892857Y-58837857D01*
X142035714Y-58695000D01*
X142178571Y-58623571D01*
X142464285Y-58552142D01*
X142678571Y-58552142D01*
X142964285Y-58623571D01*
X143107142Y-58695000D01*
X143250000Y-58837857D01*
X143321428Y-59052142D01*
X143321428Y-59195000D01*
X143250000Y-59409285D01*
X143178571Y-59480714D01*
X133250000Y-57837857D02*
X133321428Y-57695000D01*
X133321428Y-57480714D01*
X133250000Y-57266428D01*
X133107142Y-57123571D01*
X132964285Y-57052142D01*
X132678571Y-56980714D01*
X132464285Y-56980714D01*
X132178571Y-57052142D01*
X132035714Y-57123571D01*
X131892857Y-57266428D01*
X131821428Y-57480714D01*
X131821428Y-57623571D01*
X131892857Y-57837857D01*
X131964285Y-57909285D01*
X132464285Y-57909285D01*
X132464285Y-57623571D01*
X131821428Y-58552142D02*
X133321428Y-58552142D01*
X131821428Y-59409285D01*
X133321428Y-59409285D01*
X131821428Y-60123571D02*
X133321428Y-60123571D01*
X133321428Y-60480714D01*
X133250000Y-60695000D01*
X133107142Y-60837857D01*
X132964285Y-60909285D01*
X132678571Y-60980714D01*
X132464285Y-60980714D01*
X132178571Y-60909285D01*
X132035714Y-60837857D01*
X131892857Y-60695000D01*
X131821428Y-60480714D01*
X131821428Y-60123571D01*
X116821428Y-57837857D02*
X116821428Y-56980714D01*
X116821428Y-57409285D02*
X118321428Y-57409285D01*
X118107142Y-57266428D01*
X117964285Y-57123571D01*
X117892857Y-56980714D01*
X118178571Y-58409285D02*
X118250000Y-58480714D01*
X118321428Y-58623571D01*
X118321428Y-58980714D01*
X118250000Y-59123571D01*
X118178571Y-59195000D01*
X118035714Y-59266428D01*
X117892857Y-59266428D01*
X117678571Y-59195000D01*
X116821428Y-58337857D01*
X116821428Y-59266428D01*
X118321428Y-59695000D02*
X116821428Y-60195000D01*
X118321428Y-60695000D01*
X117607142Y-62837857D02*
X117535714Y-63052142D01*
X117464285Y-63123571D01*
X117321428Y-63195000D01*
X117107142Y-63195000D01*
X116964285Y-63123571D01*
X116892857Y-63052142D01*
X116821428Y-62909285D01*
X116821428Y-62337857D01*
X118321428Y-62337857D01*
X118321428Y-62837857D01*
X118250000Y-62980714D01*
X118178571Y-63052142D01*
X118035714Y-63123571D01*
X117892857Y-63123571D01*
X117750000Y-63052142D01*
X117678571Y-62980714D01*
X117607142Y-62837857D01*
X117607142Y-62337857D01*
X116821428Y-64480714D02*
X117607142Y-64480714D01*
X117750000Y-64409285D01*
X117821428Y-64266428D01*
X117821428Y-63980714D01*
X117750000Y-63837857D01*
X116892857Y-64480714D02*
X116821428Y-64337857D01*
X116821428Y-63980714D01*
X116892857Y-63837857D01*
X117035714Y-63766428D01*
X117178571Y-63766428D01*
X117321428Y-63837857D01*
X117392857Y-63980714D01*
X117392857Y-64337857D01*
X117464285Y-64480714D01*
X117821428Y-64980714D02*
X117821428Y-65552142D01*
X118321428Y-65195000D02*
X117035714Y-65195000D01*
X116892857Y-65266428D01*
X116821428Y-65409285D01*
X116821428Y-65552142D01*
X117821428Y-65837857D02*
X117821428Y-66409285D01*
X118321428Y-66052142D02*
X117035714Y-66052142D01*
X116892857Y-66123571D01*
X116821428Y-66266428D01*
X116821428Y-66409285D01*
X116892857Y-67480714D02*
X116821428Y-67337857D01*
X116821428Y-67052142D01*
X116892857Y-66909285D01*
X117035714Y-66837857D01*
X117607142Y-66837857D01*
X117750000Y-66909285D01*
X117821428Y-67052142D01*
X117821428Y-67337857D01*
X117750000Y-67480714D01*
X117607142Y-67552142D01*
X117464285Y-67552142D01*
X117321428Y-66837857D01*
X116821428Y-68195000D02*
X117821428Y-68195000D01*
X117535714Y-68195000D02*
X117678571Y-68266428D01*
X117750000Y-68337857D01*
X117821428Y-68480714D01*
X117821428Y-68623571D01*
X117821428Y-68980714D02*
X116821428Y-69337857D01*
X117821428Y-69695000D02*
X116821428Y-69337857D01*
X116464285Y-69195000D01*
X116392857Y-69123571D01*
X116321428Y-68980714D01*
D12*
G04 #@! TO.C,J1*
X160000000Y-45500000D02*
X160000000Y-55500000D01*
X155000000Y-45500000D02*
X155000000Y-55500000D01*
X150000000Y-45500000D02*
X150000000Y-55500000D01*
X145000000Y-45500000D02*
X145000000Y-55500000D01*
X115000000Y-45500000D02*
X115000000Y-55500000D01*
X120000000Y-45500000D02*
X120000000Y-55500000D01*
X125000000Y-45500000D02*
X125000000Y-55500000D01*
X130000000Y-45500000D02*
X130000000Y-55500000D01*
X135000000Y-45500000D02*
X135000000Y-55500000D01*
X140000000Y-45500000D02*
X140000000Y-55500000D01*
X110000000Y-45500000D02*
X110000000Y-55500000D01*
X110000000Y-55500000D02*
X160000000Y-55500000D01*
X160000000Y-45500000D02*
X110000000Y-45500000D01*
D13*
G04 #@! TO.C,A1*
X150749953Y-61793055D02*
X171250913Y-61793055D01*
X148501223Y-121044665D02*
X148501223Y-63892937D01*
X148501223Y-63892937D02*
G75*
G02X150749953Y-61793055I2174971J-75136D01*
G01*
X150751476Y-123294919D02*
G75*
G02X148501223Y-121044665I-185J2250068D01*
G01*
X173501421Y-121045427D02*
G75*
G02X171250913Y-123295936I-2250502J-7D01*
G01*
X171250913Y-123295936D02*
X150751476Y-123294919D01*
X171250913Y-61793054D02*
G75*
G02X173501421Y-63893699I76660J-2173725D01*
G01*
X173501421Y-63893699D02*
X173501421Y-121045427D01*
G04 #@! TO.C,C1*
X112760000Y-84760000D02*
X112760000Y-83060000D01*
X112760000Y-79240000D02*
X112760000Y-80940000D01*
X108304437Y-79240000D02*
X112760000Y-79240000D01*
X108304437Y-84760000D02*
X112760000Y-84760000D01*
X107240000Y-83695563D02*
X107240000Y-83060000D01*
X107240000Y-80304437D02*
X107240000Y-80940000D01*
X107240000Y-80304437D02*
X108304437Y-79240000D01*
X107240000Y-83695563D02*
X108304437Y-84760000D01*
X106375000Y-80315000D02*
X107000000Y-80315000D01*
X106687500Y-80002500D02*
X106687500Y-80627500D01*
G04 #@! TO.C,C2*
X143590000Y-105997936D02*
X143590000Y-107202064D01*
X145410000Y-105997936D02*
X145410000Y-107202064D01*
G04 #@! TO.C,C3*
X145410000Y-69602064D02*
X145410000Y-68397936D01*
X143590000Y-69602064D02*
X143590000Y-68397936D01*
G04 #@! TO.C,C4*
X109897936Y-76590000D02*
X111102064Y-76590000D01*
X109897936Y-78410000D02*
X111102064Y-78410000D01*
G04 #@! TO.C,C5*
X100410000Y-90897936D02*
X100410000Y-92102064D01*
X98590000Y-90897936D02*
X98590000Y-92102064D01*
G04 #@! TO.C,C6*
X112090000Y-90897936D02*
X112090000Y-92102064D01*
X113910000Y-90897936D02*
X113910000Y-92102064D01*
G04 #@! TO.C,C7*
X98590000Y-98102064D02*
X98590000Y-96897936D01*
X100410000Y-98102064D02*
X100410000Y-96897936D01*
G04 #@! TO.C,C8*
X112090000Y-98102064D02*
X112090000Y-96897936D01*
X113910000Y-98102064D02*
X113910000Y-96897936D01*
G04 #@! TO.C,C9*
X165397936Y-99410000D02*
X166602064Y-99410000D01*
X165397936Y-97590000D02*
X166602064Y-97590000D01*
G04 #@! TO.C,D1*
X101350000Y-82900000D02*
X104650000Y-82900000D01*
X104650000Y-82900000D02*
X104650000Y-77500000D01*
X101350000Y-82900000D02*
X101350000Y-77500000D01*
G04 #@! TO.C,D2*
X140920000Y-102860000D02*
X141850000Y-102860000D01*
X144080000Y-102860000D02*
X143150000Y-102860000D01*
X144080000Y-102860000D02*
X144080000Y-100700000D01*
X140920000Y-102860000D02*
X140920000Y-101400000D01*
G04 #@! TO.C,D3*
X144080000Y-72740000D02*
X144080000Y-74200000D01*
X140920000Y-72740000D02*
X140920000Y-74900000D01*
X140920000Y-72740000D02*
X141850000Y-72740000D01*
X144080000Y-72740000D02*
X143150000Y-72740000D01*
G04 #@! TO.C,D4*
X169080000Y-101240000D02*
X168150000Y-101240000D01*
X165920000Y-101240000D02*
X166850000Y-101240000D01*
X165920000Y-101240000D02*
X165920000Y-103400000D01*
X169080000Y-101240000D02*
X169080000Y-102700000D01*
G04 #@! TO.C,J2*
X112744000Y-117878000D02*
X117694000Y-117878000D01*
X112744000Y-117878000D02*
X112744000Y-120478000D01*
X126144000Y-117878000D02*
X126144000Y-120478000D01*
X126144000Y-117878000D02*
X121194000Y-117878000D01*
X126144000Y-123878000D02*
X112744000Y-123878000D01*
G04 #@! TO.C,R1*
X138602064Y-106010000D02*
X137397936Y-106010000D01*
X138602064Y-104190000D02*
X137397936Y-104190000D01*
G04 #@! TO.C,R2*
X138602064Y-69590000D02*
X137397936Y-69590000D01*
X138602064Y-71410000D02*
X137397936Y-71410000D01*
G04 #@! TO.C,R3*
X142910000Y-107202064D02*
X142910000Y-105997936D01*
X141090000Y-107202064D02*
X141090000Y-105997936D01*
G04 #@! TO.C,R4*
X142910000Y-68397936D02*
X142910000Y-69602064D01*
X141090000Y-68397936D02*
X141090000Y-69602064D01*
G04 #@! TO.C,R5*
X163590000Y-95102064D02*
X163590000Y-93897936D01*
X165410000Y-95102064D02*
X165410000Y-93897936D01*
G04 #@! TO.C,R6*
X161102064Y-92090000D02*
X159897936Y-92090000D01*
X161102064Y-93910000D02*
X159897936Y-93910000D01*
G04 #@! TO.C,U1*
X104140000Y-90600000D02*
X104140000Y-89210000D01*
X101900000Y-90600000D02*
X104140000Y-90600000D01*
X101900000Y-98480000D02*
X101900000Y-90600000D01*
X104140000Y-98480000D02*
X101900000Y-98480000D01*
X104140000Y-99880000D02*
X104140000Y-98480000D01*
X104150000Y-99880000D02*
X105920000Y-99880000D01*
X105920000Y-99880000D02*
X105920000Y-89210000D01*
X105920000Y-89210000D02*
X104140000Y-89210000D01*
G04 #@! TO.C,U2*
X119420000Y-89210000D02*
X117640000Y-89210000D01*
X119420000Y-99880000D02*
X119420000Y-89210000D01*
X117650000Y-99880000D02*
X119420000Y-99880000D01*
X117640000Y-99880000D02*
X117640000Y-98480000D01*
X117640000Y-98480000D02*
X115400000Y-98480000D01*
X115400000Y-98480000D02*
X115400000Y-90600000D01*
X115400000Y-90600000D02*
X117640000Y-90600000D01*
X117640000Y-90600000D02*
X117640000Y-89210000D01*
G04 #@! TO.C,F1*
X104113748Y-74710000D02*
X106886252Y-74710000D01*
X104113748Y-71290000D02*
X106886252Y-71290000D01*
G04 #@! TO.C,F2*
X114290000Y-113886252D02*
X114290000Y-111113748D01*
X117710000Y-113886252D02*
X117710000Y-111113748D01*
G04 #@! TO.C,J1*
D12*
X108166666Y-45952380D02*
X108166666Y-46666666D01*
X108119047Y-46809523D01*
X108023809Y-46904761D01*
X107880952Y-46952380D01*
X107785714Y-46952380D01*
X109166666Y-46952380D02*
X108595238Y-46952380D01*
X108880952Y-46952380D02*
X108880952Y-45952380D01*
X108785714Y-46095238D01*
X108690476Y-46190476D01*
X108595238Y-46238095D01*
G04 #@! TO.C,A1*
X146285714Y-122166666D02*
X146761904Y-122166666D01*
X146190476Y-122452380D02*
X146523809Y-121452380D01*
X146857142Y-122452380D01*
X147714285Y-122452380D02*
X147142857Y-122452380D01*
X147428571Y-122452380D02*
X147428571Y-121452380D01*
X147333333Y-121595238D01*
X147238095Y-121690476D01*
X147142857Y-121738095D01*
G04 #@! TO.C,C1*
X113833333Y-84357142D02*
X113785714Y-84404761D01*
X113642857Y-84452380D01*
X113547619Y-84452380D01*
X113404761Y-84404761D01*
X113309523Y-84309523D01*
X113261904Y-84214285D01*
X113214285Y-84023809D01*
X113214285Y-83880952D01*
X113261904Y-83690476D01*
X113309523Y-83595238D01*
X113404761Y-83500000D01*
X113547619Y-83452380D01*
X113642857Y-83452380D01*
X113785714Y-83500000D01*
X113833333Y-83547619D01*
X114785714Y-84452380D02*
X114214285Y-84452380D01*
X114500000Y-84452380D02*
X114500000Y-83452380D01*
X114404761Y-83595238D01*
X114309523Y-83690476D01*
X114214285Y-83738095D01*
G04 #@! TO.C,C2*
X144333333Y-110357142D02*
X144285714Y-110404761D01*
X144142857Y-110452380D01*
X144047619Y-110452380D01*
X143904761Y-110404761D01*
X143809523Y-110309523D01*
X143761904Y-110214285D01*
X143714285Y-110023809D01*
X143714285Y-109880952D01*
X143761904Y-109690476D01*
X143809523Y-109595238D01*
X143904761Y-109500000D01*
X144047619Y-109452380D01*
X144142857Y-109452380D01*
X144285714Y-109500000D01*
X144333333Y-109547619D01*
X144714285Y-109547619D02*
X144761904Y-109500000D01*
X144857142Y-109452380D01*
X145095238Y-109452380D01*
X145190476Y-109500000D01*
X145238095Y-109547619D01*
X145285714Y-109642857D01*
X145285714Y-109738095D01*
X145238095Y-109880952D01*
X144666666Y-110452380D01*
X145285714Y-110452380D01*
G04 #@! TO.C,C3*
X144333333Y-66357142D02*
X144285714Y-66404761D01*
X144142857Y-66452380D01*
X144047619Y-66452380D01*
X143904761Y-66404761D01*
X143809523Y-66309523D01*
X143761904Y-66214285D01*
X143714285Y-66023809D01*
X143714285Y-65880952D01*
X143761904Y-65690476D01*
X143809523Y-65595238D01*
X143904761Y-65500000D01*
X144047619Y-65452380D01*
X144142857Y-65452380D01*
X144285714Y-65500000D01*
X144333333Y-65547619D01*
X144666666Y-65452380D02*
X145285714Y-65452380D01*
X144952380Y-65833333D01*
X145095238Y-65833333D01*
X145190476Y-65880952D01*
X145238095Y-65928571D01*
X145285714Y-66023809D01*
X145285714Y-66261904D01*
X145238095Y-66357142D01*
X145190476Y-66404761D01*
X145095238Y-66452380D01*
X144809523Y-66452380D01*
X144714285Y-66404761D01*
X144666666Y-66357142D01*
G04 #@! TO.C,C4*
X113833333Y-77857142D02*
X113785714Y-77904761D01*
X113642857Y-77952380D01*
X113547619Y-77952380D01*
X113404761Y-77904761D01*
X113309523Y-77809523D01*
X113261904Y-77714285D01*
X113214285Y-77523809D01*
X113214285Y-77380952D01*
X113261904Y-77190476D01*
X113309523Y-77095238D01*
X113404761Y-77000000D01*
X113547619Y-76952380D01*
X113642857Y-76952380D01*
X113785714Y-77000000D01*
X113833333Y-77047619D01*
X114690476Y-77285714D02*
X114690476Y-77952380D01*
X114452380Y-76904761D02*
X114214285Y-77619047D01*
X114833333Y-77619047D01*
G04 #@! TO.C,C5*
X96833333Y-91857142D02*
X96785714Y-91904761D01*
X96642857Y-91952380D01*
X96547619Y-91952380D01*
X96404761Y-91904761D01*
X96309523Y-91809523D01*
X96261904Y-91714285D01*
X96214285Y-91523809D01*
X96214285Y-91380952D01*
X96261904Y-91190476D01*
X96309523Y-91095238D01*
X96404761Y-91000000D01*
X96547619Y-90952380D01*
X96642857Y-90952380D01*
X96785714Y-91000000D01*
X96833333Y-91047619D01*
X97738095Y-90952380D02*
X97261904Y-90952380D01*
X97214285Y-91428571D01*
X97261904Y-91380952D01*
X97357142Y-91333333D01*
X97595238Y-91333333D01*
X97690476Y-91380952D01*
X97738095Y-91428571D01*
X97785714Y-91523809D01*
X97785714Y-91761904D01*
X97738095Y-91857142D01*
X97690476Y-91904761D01*
X97595238Y-91952380D01*
X97357142Y-91952380D01*
X97261904Y-91904761D01*
X97214285Y-91857142D01*
G04 #@! TO.C,C6*
X110333333Y-91857142D02*
X110285714Y-91904761D01*
X110142857Y-91952380D01*
X110047619Y-91952380D01*
X109904761Y-91904761D01*
X109809523Y-91809523D01*
X109761904Y-91714285D01*
X109714285Y-91523809D01*
X109714285Y-91380952D01*
X109761904Y-91190476D01*
X109809523Y-91095238D01*
X109904761Y-91000000D01*
X110047619Y-90952380D01*
X110142857Y-90952380D01*
X110285714Y-91000000D01*
X110333333Y-91047619D01*
X111190476Y-90952380D02*
X111000000Y-90952380D01*
X110904761Y-91000000D01*
X110857142Y-91047619D01*
X110761904Y-91190476D01*
X110714285Y-91380952D01*
X110714285Y-91761904D01*
X110761904Y-91857142D01*
X110809523Y-91904761D01*
X110904761Y-91952380D01*
X111095238Y-91952380D01*
X111190476Y-91904761D01*
X111238095Y-91857142D01*
X111285714Y-91761904D01*
X111285714Y-91523809D01*
X111238095Y-91428571D01*
X111190476Y-91380952D01*
X111095238Y-91333333D01*
X110904761Y-91333333D01*
X110809523Y-91380952D01*
X110761904Y-91428571D01*
X110714285Y-91523809D01*
G04 #@! TO.C,C7*
X96833333Y-97857142D02*
X96785714Y-97904761D01*
X96642857Y-97952380D01*
X96547619Y-97952380D01*
X96404761Y-97904761D01*
X96309523Y-97809523D01*
X96261904Y-97714285D01*
X96214285Y-97523809D01*
X96214285Y-97380952D01*
X96261904Y-97190476D01*
X96309523Y-97095238D01*
X96404761Y-97000000D01*
X96547619Y-96952380D01*
X96642857Y-96952380D01*
X96785714Y-97000000D01*
X96833333Y-97047619D01*
X97166666Y-96952380D02*
X97833333Y-96952380D01*
X97404761Y-97952380D01*
G04 #@! TO.C,C8*
X110333333Y-97857142D02*
X110285714Y-97904761D01*
X110142857Y-97952380D01*
X110047619Y-97952380D01*
X109904761Y-97904761D01*
X109809523Y-97809523D01*
X109761904Y-97714285D01*
X109714285Y-97523809D01*
X109714285Y-97380952D01*
X109761904Y-97190476D01*
X109809523Y-97095238D01*
X109904761Y-97000000D01*
X110047619Y-96952380D01*
X110142857Y-96952380D01*
X110285714Y-97000000D01*
X110333333Y-97047619D01*
X110904761Y-97380952D02*
X110809523Y-97333333D01*
X110761904Y-97285714D01*
X110714285Y-97190476D01*
X110714285Y-97142857D01*
X110761904Y-97047619D01*
X110809523Y-97000000D01*
X110904761Y-96952380D01*
X111095238Y-96952380D01*
X111190476Y-97000000D01*
X111238095Y-97047619D01*
X111285714Y-97142857D01*
X111285714Y-97190476D01*
X111238095Y-97285714D01*
X111190476Y-97333333D01*
X111095238Y-97380952D01*
X110904761Y-97380952D01*
X110809523Y-97428571D01*
X110761904Y-97476190D01*
X110714285Y-97571428D01*
X110714285Y-97761904D01*
X110761904Y-97857142D01*
X110809523Y-97904761D01*
X110904761Y-97952380D01*
X111095238Y-97952380D01*
X111190476Y-97904761D01*
X111238095Y-97857142D01*
X111285714Y-97761904D01*
X111285714Y-97571428D01*
X111238095Y-97476190D01*
X111190476Y-97428571D01*
X111095238Y-97380952D01*
G04 #@! TO.C,C9*
X167333333Y-97037142D02*
X167285714Y-97084761D01*
X167142857Y-97132380D01*
X167047619Y-97132380D01*
X166904761Y-97084761D01*
X166809523Y-96989523D01*
X166761904Y-96894285D01*
X166714285Y-96703809D01*
X166714285Y-96560952D01*
X166761904Y-96370476D01*
X166809523Y-96275238D01*
X166904761Y-96180000D01*
X167047619Y-96132380D01*
X167142857Y-96132380D01*
X167285714Y-96180000D01*
X167333333Y-96227619D01*
X167809523Y-97132380D02*
X168000000Y-97132380D01*
X168095238Y-97084761D01*
X168142857Y-97037142D01*
X168238095Y-96894285D01*
X168285714Y-96703809D01*
X168285714Y-96322857D01*
X168238095Y-96227619D01*
X168190476Y-96180000D01*
X168095238Y-96132380D01*
X167904761Y-96132380D01*
X167809523Y-96180000D01*
X167761904Y-96227619D01*
X167714285Y-96322857D01*
X167714285Y-96560952D01*
X167761904Y-96656190D01*
X167809523Y-96703809D01*
X167904761Y-96751428D01*
X168095238Y-96751428D01*
X168190476Y-96703809D01*
X168238095Y-96656190D01*
X168285714Y-96560952D01*
G04 #@! TO.C,D1*
X99261904Y-79952380D02*
X99261904Y-78952380D01*
X99500000Y-78952380D01*
X99642857Y-79000000D01*
X99738095Y-79095238D01*
X99785714Y-79190476D01*
X99833333Y-79380952D01*
X99833333Y-79523809D01*
X99785714Y-79714285D01*
X99738095Y-79809523D01*
X99642857Y-79904761D01*
X99500000Y-79952380D01*
X99261904Y-79952380D01*
X100785714Y-79952380D02*
X100214285Y-79952380D01*
X100500000Y-79952380D02*
X100500000Y-78952380D01*
X100404761Y-79095238D01*
X100309523Y-79190476D01*
X100214285Y-79238095D01*
G04 #@! TO.C,D2*
X144761904Y-102552380D02*
X144761904Y-101552380D01*
X145000000Y-101552380D01*
X145142857Y-101600000D01*
X145238095Y-101695238D01*
X145285714Y-101790476D01*
X145333333Y-101980952D01*
X145333333Y-102123809D01*
X145285714Y-102314285D01*
X145238095Y-102409523D01*
X145142857Y-102504761D01*
X145000000Y-102552380D01*
X144761904Y-102552380D01*
X145714285Y-101647619D02*
X145761904Y-101600000D01*
X145857142Y-101552380D01*
X146095238Y-101552380D01*
X146190476Y-101600000D01*
X146238095Y-101647619D01*
X146285714Y-101742857D01*
X146285714Y-101838095D01*
X146238095Y-101980952D01*
X145666666Y-102552380D01*
X146285714Y-102552380D01*
G04 #@! TO.C,D3*
X144761904Y-73952380D02*
X144761904Y-72952380D01*
X145000000Y-72952380D01*
X145142857Y-73000000D01*
X145238095Y-73095238D01*
X145285714Y-73190476D01*
X145333333Y-73380952D01*
X145333333Y-73523809D01*
X145285714Y-73714285D01*
X145238095Y-73809523D01*
X145142857Y-73904761D01*
X145000000Y-73952380D01*
X144761904Y-73952380D01*
X145666666Y-72952380D02*
X146285714Y-72952380D01*
X145952380Y-73333333D01*
X146095238Y-73333333D01*
X146190476Y-73380952D01*
X146238095Y-73428571D01*
X146285714Y-73523809D01*
X146285714Y-73761904D01*
X146238095Y-73857142D01*
X146190476Y-73904761D01*
X146095238Y-73952380D01*
X145809523Y-73952380D01*
X145714285Y-73904761D01*
X145666666Y-73857142D01*
G04 #@! TO.C,D4*
X163761904Y-102452380D02*
X163761904Y-101452380D01*
X164000000Y-101452380D01*
X164142857Y-101500000D01*
X164238095Y-101595238D01*
X164285714Y-101690476D01*
X164333333Y-101880952D01*
X164333333Y-102023809D01*
X164285714Y-102214285D01*
X164238095Y-102309523D01*
X164142857Y-102404761D01*
X164000000Y-102452380D01*
X163761904Y-102452380D01*
X165190476Y-101785714D02*
X165190476Y-102452380D01*
X164952380Y-101404761D02*
X164714285Y-102119047D01*
X165333333Y-102119047D01*
G04 #@! TO.C,J2*
X125166666Y-115952380D02*
X125166666Y-116666666D01*
X125119047Y-116809523D01*
X125023809Y-116904761D01*
X124880952Y-116952380D01*
X124785714Y-116952380D01*
X125595238Y-116047619D02*
X125642857Y-116000000D01*
X125738095Y-115952380D01*
X125976190Y-115952380D01*
X126071428Y-116000000D01*
X126119047Y-116047619D01*
X126166666Y-116142857D01*
X126166666Y-116238095D01*
X126119047Y-116380952D01*
X125547619Y-116952380D01*
X126166666Y-116952380D01*
G04 #@! TO.C,R1*
X137833333Y-107952380D02*
X137500000Y-107476190D01*
X137261904Y-107952380D02*
X137261904Y-106952380D01*
X137642857Y-106952380D01*
X137738095Y-107000000D01*
X137785714Y-107047619D01*
X137833333Y-107142857D01*
X137833333Y-107285714D01*
X137785714Y-107380952D01*
X137738095Y-107428571D01*
X137642857Y-107476190D01*
X137261904Y-107476190D01*
X138785714Y-107952380D02*
X138214285Y-107952380D01*
X138500000Y-107952380D02*
X138500000Y-106952380D01*
X138404761Y-107095238D01*
X138309523Y-107190476D01*
X138214285Y-107238095D01*
G04 #@! TO.C,R2*
X137833333Y-68952380D02*
X137500000Y-68476190D01*
X137261904Y-68952380D02*
X137261904Y-67952380D01*
X137642857Y-67952380D01*
X137738095Y-68000000D01*
X137785714Y-68047619D01*
X137833333Y-68142857D01*
X137833333Y-68285714D01*
X137785714Y-68380952D01*
X137738095Y-68428571D01*
X137642857Y-68476190D01*
X137261904Y-68476190D01*
X138214285Y-68047619D02*
X138261904Y-68000000D01*
X138357142Y-67952380D01*
X138595238Y-67952380D01*
X138690476Y-68000000D01*
X138738095Y-68047619D01*
X138785714Y-68142857D01*
X138785714Y-68238095D01*
X138738095Y-68380952D01*
X138166666Y-68952380D01*
X138785714Y-68952380D01*
G04 #@! TO.C,R3*
X141833333Y-110452380D02*
X141500000Y-109976190D01*
X141261904Y-110452380D02*
X141261904Y-109452380D01*
X141642857Y-109452380D01*
X141738095Y-109500000D01*
X141785714Y-109547619D01*
X141833333Y-109642857D01*
X141833333Y-109785714D01*
X141785714Y-109880952D01*
X141738095Y-109928571D01*
X141642857Y-109976190D01*
X141261904Y-109976190D01*
X142166666Y-109452380D02*
X142785714Y-109452380D01*
X142452380Y-109833333D01*
X142595238Y-109833333D01*
X142690476Y-109880952D01*
X142738095Y-109928571D01*
X142785714Y-110023809D01*
X142785714Y-110261904D01*
X142738095Y-110357142D01*
X142690476Y-110404761D01*
X142595238Y-110452380D01*
X142309523Y-110452380D01*
X142214285Y-110404761D01*
X142166666Y-110357142D01*
G04 #@! TO.C,R4*
X141833333Y-66452380D02*
X141500000Y-65976190D01*
X141261904Y-66452380D02*
X141261904Y-65452380D01*
X141642857Y-65452380D01*
X141738095Y-65500000D01*
X141785714Y-65547619D01*
X141833333Y-65642857D01*
X141833333Y-65785714D01*
X141785714Y-65880952D01*
X141738095Y-65928571D01*
X141642857Y-65976190D01*
X141261904Y-65976190D01*
X142690476Y-65785714D02*
X142690476Y-66452380D01*
X142452380Y-65404761D02*
X142214285Y-66119047D01*
X142833333Y-66119047D01*
G04 #@! TO.C,R5*
X164333333Y-91952380D02*
X164000000Y-91476190D01*
X163761904Y-91952380D02*
X163761904Y-90952380D01*
X164142857Y-90952380D01*
X164238095Y-91000000D01*
X164285714Y-91047619D01*
X164333333Y-91142857D01*
X164333333Y-91285714D01*
X164285714Y-91380952D01*
X164238095Y-91428571D01*
X164142857Y-91476190D01*
X163761904Y-91476190D01*
X165238095Y-90952380D02*
X164761904Y-90952380D01*
X164714285Y-91428571D01*
X164761904Y-91380952D01*
X164857142Y-91333333D01*
X165095238Y-91333333D01*
X165190476Y-91380952D01*
X165238095Y-91428571D01*
X165285714Y-91523809D01*
X165285714Y-91761904D01*
X165238095Y-91857142D01*
X165190476Y-91904761D01*
X165095238Y-91952380D01*
X164857142Y-91952380D01*
X164761904Y-91904761D01*
X164714285Y-91857142D01*
G04 #@! TO.C,R6*
X160333333Y-95452380D02*
X160000000Y-94976190D01*
X159761904Y-95452380D02*
X159761904Y-94452380D01*
X160142857Y-94452380D01*
X160238095Y-94500000D01*
X160285714Y-94547619D01*
X160333333Y-94642857D01*
X160333333Y-94785714D01*
X160285714Y-94880952D01*
X160238095Y-94928571D01*
X160142857Y-94976190D01*
X159761904Y-94976190D01*
X161190476Y-94452380D02*
X161000000Y-94452380D01*
X160904761Y-94500000D01*
X160857142Y-94547619D01*
X160761904Y-94690476D01*
X160714285Y-94880952D01*
X160714285Y-95261904D01*
X160761904Y-95357142D01*
X160809523Y-95404761D01*
X160904761Y-95452380D01*
X161095238Y-95452380D01*
X161190476Y-95404761D01*
X161238095Y-95357142D01*
X161285714Y-95261904D01*
X161285714Y-95023809D01*
X161238095Y-94928571D01*
X161190476Y-94880952D01*
X161095238Y-94833333D01*
X160904761Y-94833333D01*
X160809523Y-94880952D01*
X160761904Y-94928571D01*
X160714285Y-95023809D01*
G04 #@! TO.C,U1*
X102238095Y-87452380D02*
X102238095Y-88261904D01*
X102285714Y-88357142D01*
X102333333Y-88404761D01*
X102428571Y-88452380D01*
X102619047Y-88452380D01*
X102714285Y-88404761D01*
X102761904Y-88357142D01*
X102809523Y-88261904D01*
X102809523Y-87452380D01*
X103809523Y-88452380D02*
X103238095Y-88452380D01*
X103523809Y-88452380D02*
X103523809Y-87452380D01*
X103428571Y-87595238D01*
X103333333Y-87690476D01*
X103238095Y-87738095D01*
G04 #@! TO.C,U2*
X115738095Y-87452380D02*
X115738095Y-88261904D01*
X115785714Y-88357142D01*
X115833333Y-88404761D01*
X115928571Y-88452380D01*
X116119047Y-88452380D01*
X116214285Y-88404761D01*
X116261904Y-88357142D01*
X116309523Y-88261904D01*
X116309523Y-87452380D01*
X116738095Y-87547619D02*
X116785714Y-87500000D01*
X116880952Y-87452380D01*
X117119047Y-87452380D01*
X117214285Y-87500000D01*
X117261904Y-87547619D01*
X117309523Y-87642857D01*
X117309523Y-87738095D01*
X117261904Y-87880952D01*
X116690476Y-88452380D01*
X117309523Y-88452380D01*
G04 #@! TO.C,F1*
X105166666Y-70278571D02*
X104833333Y-70278571D01*
X104833333Y-70802380D02*
X104833333Y-69802380D01*
X105309523Y-69802380D01*
X106214285Y-70802380D02*
X105642857Y-70802380D01*
X105928571Y-70802380D02*
X105928571Y-69802380D01*
X105833333Y-69945238D01*
X105738095Y-70040476D01*
X105642857Y-70088095D01*
G04 #@! TO.C,F2*
X112666666Y-112428571D02*
X112333333Y-112428571D01*
X112333333Y-112952380D02*
X112333333Y-111952380D01*
X112809523Y-111952380D01*
X113142857Y-112047619D02*
X113190476Y-112000000D01*
X113285714Y-111952380D01*
X113523809Y-111952380D01*
X113619047Y-112000000D01*
X113666666Y-112047619D01*
X113714285Y-112142857D01*
X113714285Y-112238095D01*
X113666666Y-112380952D01*
X113095238Y-112952380D01*
X113714285Y-112952380D01*
G04 #@! TD*
M02*
