G04 #@! TF.GenerationSoftware,KiCad,Pcbnew,(5.0.1)-4*
G04 #@! TF.CreationDate,2020-08-30T22:44:21+08:00*
G04 #@! TF.ProjectId,remote-monitor,72656D6F74652D6D6F6E69746F722E6B,rev?*
G04 #@! TF.SameCoordinates,Original*
G04 #@! TF.FileFunction,Copper,L2,Bot,Signal*
G04 #@! TF.FilePolarity,Positive*
%FSLAX46Y46*%
G04 Gerber Fmt 4.6, Leading zero omitted, Abs format (unit mm)*
G04 Created by KiCad (PCBNEW (5.0.1)-4) date 30/08/2020 10:44:21 PM*
%MOMM*%
%LPD*%
G01*
G04 APERTURE LIST*
G04 #@! TA.AperFunction,ComponentPad*
%ADD10R,2.032000X2.794000*%
G04 #@! TD*
G04 #@! TA.AperFunction,ComponentPad*
%ADD11O,2.032000X2.794000*%
G04 #@! TD*
G04 #@! TA.AperFunction,ComponentPad*
%ADD12C,1.600000*%
G04 #@! TD*
G04 #@! TA.AperFunction,ComponentPad*
%ADD13R,1.600000X1.600000*%
G04 #@! TD*
G04 #@! TA.AperFunction,ComponentPad*
%ADD14R,1.300000X1.300000*%
G04 #@! TD*
G04 #@! TA.AperFunction,ComponentPad*
%ADD15C,1.300000*%
G04 #@! TD*
G04 #@! TA.AperFunction,ComponentPad*
%ADD16O,1.900000X2.900000*%
G04 #@! TD*
G04 #@! TA.AperFunction,ComponentPad*
%ADD17O,2.900000X1.900000*%
G04 #@! TD*
G04 #@! TA.AperFunction,ComponentPad*
%ADD18R,1.800000X1.800000*%
G04 #@! TD*
G04 #@! TA.AperFunction,ComponentPad*
%ADD19C,1.800000*%
G04 #@! TD*
G04 #@! TA.AperFunction,ViaPad*
%ADD20C,1.270000*%
G04 #@! TD*
G04 #@! TA.AperFunction,Conductor*
%ADD21C,0.635000*%
G04 #@! TD*
G04 #@! TA.AperFunction,Conductor*
%ADD22C,2.032000*%
G04 #@! TD*
G04 #@! TA.AperFunction,Conductor*
%ADD23C,0.381000*%
G04 #@! TD*
G04 #@! TA.AperFunction,Conductor*
%ADD24C,0.254000*%
G04 #@! TD*
G04 APERTURE END LIST*
D10*
G04 #@! TO.P,J1,1*
G04 #@! TO.N,Net-(F1-Pad2)*
X112500000Y-50500000D03*
D11*
G04 #@! TO.P,J1,2*
X117500000Y-50500000D03*
G04 #@! TO.P,J1,3*
X122500000Y-50500000D03*
G04 #@! TO.P,J1,4*
G04 #@! TO.N,GND*
X127500000Y-50500000D03*
G04 #@! TO.P,J1,5*
X132500000Y-50500000D03*
G04 #@! TO.P,J1,6*
X137500000Y-50500000D03*
G04 #@! TO.P,J1,7*
G04 #@! TO.N,Net-(J1-Pad7)*
X142500000Y-50500000D03*
G04 #@! TO.P,J1,8*
G04 #@! TO.N,Net-(J1-Pad8)*
X147500000Y-50500000D03*
G04 #@! TO.P,J1,9*
G04 #@! TO.N,Net-(J1-Pad9)*
X152500000Y-50500000D03*
G04 #@! TO.P,J1,10*
G04 #@! TO.N,/Radio_VOX*
X157500000Y-50500000D03*
G04 #@! TD*
D12*
G04 #@! TO.P,A1,28*
G04 #@! TO.N,+5V*
X147840000Y-101160000D03*
G04 #@! TO.P,A1,27*
G04 #@! TO.N,Net-(A1-Pad27)*
X147840000Y-98620000D03*
G04 #@! TO.P,A1,26*
G04 #@! TO.N,+3V3*
X147840000Y-96080000D03*
G04 #@! TO.P,A1,25*
G04 #@! TO.N,GND*
X147840000Y-93540000D03*
G04 #@! TO.P,A1,24*
G04 #@! TO.N,Net-(A1-Pad24)*
X147840000Y-91000000D03*
G04 #@! TO.P,A1,23*
G04 #@! TO.N,Net-(A1-Pad23)*
X147840000Y-88460000D03*
G04 #@! TO.P,A1,22*
G04 #@! TO.N,Net-(A1-Pad22)*
X147840000Y-85920000D03*
G04 #@! TO.P,A1,21*
G04 #@! TO.N,Net-(A1-Pad21)*
X147840000Y-83380000D03*
G04 #@! TO.P,A1,20*
G04 #@! TO.N,Net-(A1-Pad20)*
X147840000Y-80840000D03*
G04 #@! TO.P,A1,19*
G04 #@! TO.N,Net-(A1-Pad19)*
X147840000Y-78300000D03*
G04 #@! TO.P,A1,18*
G04 #@! TO.N,Net-(A1-Pad18)*
X147840000Y-75760000D03*
G04 #@! TO.P,A1,17*
G04 #@! TO.N,Net-(A1-Pad17)*
X147840000Y-73220000D03*
G04 #@! TO.P,A1,16*
G04 #@! TO.N,/Mains_Sensor*
X147840000Y-70680000D03*
G04 #@! TO.P,A1,15*
X147840000Y-68140000D03*
G04 #@! TO.P,A1,14*
G04 #@! TO.N,Net-(A1-Pad14)*
X168160000Y-68140000D03*
G04 #@! TO.P,A1,13*
G04 #@! TO.N,Net-(A1-Pad13)*
X168160000Y-70680000D03*
G04 #@! TO.P,A1,12*
G04 #@! TO.N,Net-(A1-Pad12)*
X168160000Y-73220000D03*
G04 #@! TO.P,A1,11*
G04 #@! TO.N,Net-(A1-Pad11)*
X168160000Y-75760000D03*
G04 #@! TO.P,A1,10*
G04 #@! TO.N,Net-(A1-Pad10)*
X168160000Y-78300000D03*
G04 #@! TO.P,A1,9*
G04 #@! TO.N,Net-(A1-Pad9)*
X168160000Y-80840000D03*
G04 #@! TO.P,A1,8*
G04 #@! TO.N,Net-(A1-Pad8)*
X168160000Y-83380000D03*
G04 #@! TO.P,A1,7*
G04 #@! TO.N,Net-(A1-Pad7)*
X168160000Y-85920000D03*
G04 #@! TO.P,A1,6*
G04 #@! TO.N,Net-(A1-Pad6)*
X168160000Y-88460000D03*
G04 #@! TO.P,A1,5*
G04 #@! TO.N,Net-(A1-Pad5)*
X168160000Y-91000000D03*
G04 #@! TO.P,A1,4*
G04 #@! TO.N,/Battery_Volts*
X168160000Y-93540000D03*
G04 #@! TO.P,A1,3*
G04 #@! TO.N,/Mains_Sensor*
X168160000Y-96080000D03*
G04 #@! TO.P,A1,2*
G04 #@! TO.N,Net-(A1-Pad2)*
X168160000Y-98620000D03*
D13*
G04 #@! TO.P,A1,1*
G04 #@! TO.N,Net-(A1-Pad1)*
X168160000Y-101160000D03*
G04 #@! TD*
D14*
G04 #@! TO.P,J2,1*
G04 #@! TO.N,Net-(F2-Pad1)*
X115944000Y-122778000D03*
D15*
G04 #@! TO.P,J2,2*
G04 #@! TO.N,Net-(J2-Pad2)*
X118444000Y-122778000D03*
G04 #@! TO.P,J2,3*
X120444000Y-122778000D03*
G04 #@! TO.P,J2,4*
G04 #@! TO.N,GND*
X122944000Y-122778000D03*
D16*
G04 #@! TO.P,J2,5*
X112874000Y-122178000D03*
X126014000Y-122178000D03*
D17*
X119444000Y-117998000D03*
G04 #@! TD*
D18*
G04 #@! TO.P,U1,1*
G04 #@! TO.N,Net-(C1-Pad1)*
X105000000Y-92000000D03*
D19*
G04 #@! TO.P,U1,2*
G04 #@! TO.N,GND*
X105000000Y-94540000D03*
G04 #@! TO.P,U1,3*
G04 #@! TO.N,Net-(C7-Pad1)*
X105000000Y-97080000D03*
G04 #@! TD*
G04 #@! TO.P,U2,3*
G04 #@! TO.N,+5V*
X118500000Y-97080000D03*
G04 #@! TO.P,U2,2*
G04 #@! TO.N,GND*
X118500000Y-94540000D03*
D18*
G04 #@! TO.P,U2,1*
G04 #@! TO.N,Net-(C1-Pad1)*
X118500000Y-92000000D03*
G04 #@! TD*
D20*
G04 #@! TO.N,GND*
X150000000Y-104500000D03*
G04 #@! TD*
D21*
G04 #@! TO.N,+5V*
X119660000Y-101160000D02*
X147840000Y-101160000D01*
X118500000Y-97080000D02*
X118500000Y-100000000D01*
X118500000Y-100000000D02*
X119660000Y-101160000D01*
D22*
G04 #@! TO.N,GND*
X127500000Y-50500000D02*
X132500000Y-50500000D01*
X132500000Y-50500000D02*
X137500000Y-50500000D01*
D23*
G04 #@! TO.N,/Mains_Sensor*
X166080000Y-96080000D02*
X168160000Y-96080000D01*
X162500000Y-92500000D02*
X166080000Y-96080000D01*
X162500000Y-80500000D02*
X162500000Y-92500000D01*
X147840000Y-70680000D02*
X152680000Y-70680000D01*
X152680000Y-70680000D02*
X162500000Y-80500000D01*
D22*
G04 #@! TO.N,Net-(F1-Pad2)*
X122500000Y-50500000D02*
X117500000Y-50500000D01*
X117500000Y-50500000D02*
X112500000Y-50500000D01*
G04 #@! TD*
D24*
G04 #@! TO.N,GND*
G36*
X172290001Y-124290000D02*
X97710000Y-124290000D01*
X97710000Y-122305000D01*
X111289000Y-122305000D01*
X111289000Y-122805000D01*
X111458252Y-123401886D01*
X111843039Y-123888567D01*
X112384780Y-124190950D01*
X112501412Y-124218586D01*
X112747000Y-124098584D01*
X112747000Y-122305000D01*
X113001000Y-122305000D01*
X113001000Y-124098584D01*
X113246588Y-124218586D01*
X113363220Y-124190950D01*
X113904961Y-123888567D01*
X114289748Y-123401886D01*
X114459000Y-122805000D01*
X114459000Y-122305000D01*
X113001000Y-122305000D01*
X112747000Y-122305000D01*
X111289000Y-122305000D01*
X97710000Y-122305000D01*
X97710000Y-122128000D01*
X114646560Y-122128000D01*
X114646560Y-123428000D01*
X114695843Y-123675765D01*
X114836191Y-123885809D01*
X115046235Y-124026157D01*
X115294000Y-124075440D01*
X116594000Y-124075440D01*
X116841765Y-124026157D01*
X117051809Y-123885809D01*
X117192157Y-123675765D01*
X117241440Y-123428000D01*
X117241440Y-123232631D01*
X117354629Y-123505894D01*
X117716106Y-123867371D01*
X118188398Y-124063000D01*
X118699602Y-124063000D01*
X119171894Y-123867371D01*
X119444000Y-123595265D01*
X119716106Y-123867371D01*
X120188398Y-124063000D01*
X120699602Y-124063000D01*
X121171894Y-123867371D01*
X121362249Y-123677016D01*
X122224590Y-123677016D01*
X122280271Y-123907611D01*
X122763078Y-124075622D01*
X123273428Y-124046083D01*
X123607729Y-123907611D01*
X123663410Y-123677016D01*
X122944000Y-122957605D01*
X122224590Y-123677016D01*
X121362249Y-123677016D01*
X121533371Y-123505894D01*
X121687169Y-123134592D01*
X121814389Y-123441729D01*
X122044984Y-123497410D01*
X122764395Y-122778000D01*
X123123605Y-122778000D01*
X123843016Y-123497410D01*
X124073611Y-123441729D01*
X124241622Y-122958922D01*
X124212083Y-122448572D01*
X124152614Y-122305000D01*
X124429000Y-122305000D01*
X124429000Y-122805000D01*
X124598252Y-123401886D01*
X124983039Y-123888567D01*
X125524780Y-124190950D01*
X125641412Y-124218586D01*
X125887000Y-124098584D01*
X125887000Y-122305000D01*
X126141000Y-122305000D01*
X126141000Y-124098584D01*
X126386588Y-124218586D01*
X126503220Y-124190950D01*
X127044961Y-123888567D01*
X127429748Y-123401886D01*
X127599000Y-122805000D01*
X127599000Y-122305000D01*
X126141000Y-122305000D01*
X125887000Y-122305000D01*
X124429000Y-122305000D01*
X124152614Y-122305000D01*
X124073611Y-122114271D01*
X123843016Y-122058590D01*
X123123605Y-122778000D01*
X122764395Y-122778000D01*
X122044984Y-122058590D01*
X121814389Y-122114271D01*
X121698223Y-122448094D01*
X121533371Y-122050106D01*
X121362249Y-121878984D01*
X122224590Y-121878984D01*
X122944000Y-122598395D01*
X123663410Y-121878984D01*
X123607729Y-121648389D01*
X123327866Y-121551000D01*
X124429000Y-121551000D01*
X124429000Y-122051000D01*
X125887000Y-122051000D01*
X125887000Y-120257416D01*
X126141000Y-120257416D01*
X126141000Y-122051000D01*
X127599000Y-122051000D01*
X127599000Y-121551000D01*
X127429748Y-120954114D01*
X127044961Y-120467433D01*
X126503220Y-120165050D01*
X126386588Y-120137414D01*
X126141000Y-120257416D01*
X125887000Y-120257416D01*
X125641412Y-120137414D01*
X125524780Y-120165050D01*
X124983039Y-120467433D01*
X124598252Y-120954114D01*
X124429000Y-121551000D01*
X123327866Y-121551000D01*
X123124922Y-121480378D01*
X122614572Y-121509917D01*
X122280271Y-121648389D01*
X122224590Y-121878984D01*
X121362249Y-121878984D01*
X121171894Y-121688629D01*
X120699602Y-121493000D01*
X120188398Y-121493000D01*
X119716106Y-121688629D01*
X119444000Y-121960735D01*
X119171894Y-121688629D01*
X118699602Y-121493000D01*
X118188398Y-121493000D01*
X117716106Y-121688629D01*
X117354629Y-122050106D01*
X117241440Y-122323369D01*
X117241440Y-122128000D01*
X117192157Y-121880235D01*
X117051809Y-121670191D01*
X116841765Y-121529843D01*
X116594000Y-121480560D01*
X115294000Y-121480560D01*
X115046235Y-121529843D01*
X114836191Y-121670191D01*
X114695843Y-121880235D01*
X114646560Y-122128000D01*
X97710000Y-122128000D01*
X97710000Y-117258654D01*
X102273000Y-117258654D01*
X102273000Y-118741346D01*
X102840402Y-120111176D01*
X103888824Y-121159598D01*
X105258654Y-121727000D01*
X106741346Y-121727000D01*
X107166247Y-121551000D01*
X111289000Y-121551000D01*
X111289000Y-122051000D01*
X112747000Y-122051000D01*
X112747000Y-120257416D01*
X113001000Y-120257416D01*
X113001000Y-122051000D01*
X114459000Y-122051000D01*
X114459000Y-121551000D01*
X114289748Y-120954114D01*
X113904961Y-120467433D01*
X113363220Y-120165050D01*
X113246588Y-120137414D01*
X113001000Y-120257416D01*
X112747000Y-120257416D01*
X112501412Y-120137414D01*
X112384780Y-120165050D01*
X111843039Y-120467433D01*
X111458252Y-120954114D01*
X111289000Y-121551000D01*
X107166247Y-121551000D01*
X108111176Y-121159598D01*
X109159598Y-120111176D01*
X109727000Y-118741346D01*
X109727000Y-118370588D01*
X117403414Y-118370588D01*
X117431050Y-118487220D01*
X117733433Y-119028961D01*
X118220114Y-119413748D01*
X118817000Y-119583000D01*
X119317000Y-119583000D01*
X119317000Y-118125000D01*
X119571000Y-118125000D01*
X119571000Y-119583000D01*
X120071000Y-119583000D01*
X120667886Y-119413748D01*
X121154567Y-119028961D01*
X121456950Y-118487220D01*
X121484586Y-118370588D01*
X121364584Y-118125000D01*
X119571000Y-118125000D01*
X119317000Y-118125000D01*
X117523416Y-118125000D01*
X117403414Y-118370588D01*
X109727000Y-118370588D01*
X109727000Y-117625412D01*
X117403414Y-117625412D01*
X117523416Y-117871000D01*
X119317000Y-117871000D01*
X119317000Y-116413000D01*
X119571000Y-116413000D01*
X119571000Y-117871000D01*
X121364584Y-117871000D01*
X121484586Y-117625412D01*
X121456950Y-117508780D01*
X121317338Y-117258654D01*
X160273000Y-117258654D01*
X160273000Y-118741346D01*
X160840402Y-120111176D01*
X161888824Y-121159598D01*
X163258654Y-121727000D01*
X164741346Y-121727000D01*
X166111176Y-121159598D01*
X167159598Y-120111176D01*
X167727000Y-118741346D01*
X167727000Y-117258654D01*
X167159598Y-115888824D01*
X166111176Y-114840402D01*
X164741346Y-114273000D01*
X163258654Y-114273000D01*
X161888824Y-114840402D01*
X160840402Y-115888824D01*
X160273000Y-117258654D01*
X121317338Y-117258654D01*
X121154567Y-116967039D01*
X120667886Y-116582252D01*
X120071000Y-116413000D01*
X119571000Y-116413000D01*
X119317000Y-116413000D01*
X118817000Y-116413000D01*
X118220114Y-116582252D01*
X117733433Y-116967039D01*
X117431050Y-117508780D01*
X117403414Y-117625412D01*
X109727000Y-117625412D01*
X109727000Y-117258654D01*
X109159598Y-115888824D01*
X108111176Y-114840402D01*
X106741346Y-114273000D01*
X105258654Y-114273000D01*
X103888824Y-114840402D01*
X102840402Y-115888824D01*
X102273000Y-117258654D01*
X97710000Y-117258654D01*
X97710000Y-96774670D01*
X103465000Y-96774670D01*
X103465000Y-97385330D01*
X103698690Y-97949507D01*
X104130493Y-98381310D01*
X104694670Y-98615000D01*
X105305330Y-98615000D01*
X105869507Y-98381310D01*
X106301310Y-97949507D01*
X106535000Y-97385330D01*
X106535000Y-96774670D01*
X116965000Y-96774670D01*
X116965000Y-97385330D01*
X117198690Y-97949507D01*
X117547500Y-98298317D01*
X117547501Y-99906185D01*
X117528840Y-100000000D01*
X117602765Y-100371646D01*
X117602766Y-100371647D01*
X117813287Y-100686714D01*
X117892817Y-100739854D01*
X118920147Y-101767186D01*
X118973286Y-101846714D01*
X119052814Y-101899853D01*
X119288353Y-102057235D01*
X119660000Y-102131160D01*
X119753810Y-102112500D01*
X146763104Y-102112500D01*
X147027138Y-102376534D01*
X147554561Y-102595000D01*
X148125439Y-102595000D01*
X148652862Y-102376534D01*
X149056534Y-101972862D01*
X149275000Y-101445439D01*
X149275000Y-100874561D01*
X149056534Y-100347138D01*
X148652862Y-99943466D01*
X148523784Y-99890000D01*
X148652862Y-99836534D01*
X149056534Y-99432862D01*
X149275000Y-98905439D01*
X149275000Y-98334561D01*
X149056534Y-97807138D01*
X148652862Y-97403466D01*
X148523784Y-97350000D01*
X148652862Y-97296534D01*
X149056534Y-96892862D01*
X149275000Y-96365439D01*
X149275000Y-95794561D01*
X149056534Y-95267138D01*
X148652862Y-94863466D01*
X148539417Y-94816475D01*
X148594005Y-94793864D01*
X148668139Y-94547745D01*
X147840000Y-93719605D01*
X147011861Y-94547745D01*
X147085995Y-94793864D01*
X147144448Y-94814874D01*
X147027138Y-94863466D01*
X146623466Y-95267138D01*
X146405000Y-95794561D01*
X146405000Y-96365439D01*
X146623466Y-96892862D01*
X147027138Y-97296534D01*
X147156216Y-97350000D01*
X147027138Y-97403466D01*
X146623466Y-97807138D01*
X146405000Y-98334561D01*
X146405000Y-98905439D01*
X146623466Y-99432862D01*
X147027138Y-99836534D01*
X147156216Y-99890000D01*
X147027138Y-99943466D01*
X146763104Y-100207500D01*
X120054538Y-100207500D01*
X119452500Y-99605462D01*
X119452500Y-98298317D01*
X119801310Y-97949507D01*
X120035000Y-97385330D01*
X120035000Y-96774670D01*
X119801310Y-96210493D01*
X119369507Y-95778690D01*
X119349885Y-95770562D01*
X119400554Y-95620159D01*
X118500000Y-94719605D01*
X117599446Y-95620159D01*
X117650115Y-95770562D01*
X117630493Y-95778690D01*
X117198690Y-96210493D01*
X116965000Y-96774670D01*
X106535000Y-96774670D01*
X106301310Y-96210493D01*
X105869507Y-95778690D01*
X105849885Y-95770562D01*
X105900554Y-95620159D01*
X105000000Y-94719605D01*
X104099446Y-95620159D01*
X104150115Y-95770562D01*
X104130493Y-95778690D01*
X103698690Y-96210493D01*
X103465000Y-96774670D01*
X97710000Y-96774670D01*
X97710000Y-91100000D01*
X103452560Y-91100000D01*
X103452560Y-92900000D01*
X103501843Y-93147765D01*
X103642191Y-93357809D01*
X103840114Y-93490058D01*
X103805282Y-93524890D01*
X103919839Y-93639447D01*
X103663357Y-93725852D01*
X103453542Y-94299336D01*
X103479161Y-94909460D01*
X103663357Y-95354148D01*
X103919841Y-95440554D01*
X104820395Y-94540000D01*
X104806253Y-94525858D01*
X104985858Y-94346253D01*
X105000000Y-94360395D01*
X105014143Y-94346253D01*
X105193748Y-94525858D01*
X105179605Y-94540000D01*
X106080159Y-95440554D01*
X106336643Y-95354148D01*
X106546458Y-94780664D01*
X106520839Y-94170540D01*
X106336643Y-93725852D01*
X106080161Y-93639447D01*
X106194718Y-93524890D01*
X106159886Y-93490058D01*
X106357809Y-93357809D01*
X106498157Y-93147765D01*
X106547440Y-92900000D01*
X106547440Y-91100000D01*
X116952560Y-91100000D01*
X116952560Y-92900000D01*
X117001843Y-93147765D01*
X117142191Y-93357809D01*
X117340114Y-93490058D01*
X117305282Y-93524890D01*
X117419839Y-93639447D01*
X117163357Y-93725852D01*
X116953542Y-94299336D01*
X116979161Y-94909460D01*
X117163357Y-95354148D01*
X117419841Y-95440554D01*
X118320395Y-94540000D01*
X118306253Y-94525858D01*
X118485858Y-94346253D01*
X118500000Y-94360395D01*
X118514143Y-94346253D01*
X118693748Y-94525858D01*
X118679605Y-94540000D01*
X119580159Y-95440554D01*
X119836643Y-95354148D01*
X120046458Y-94780664D01*
X120020839Y-94170540D01*
X119836643Y-93725852D01*
X119580161Y-93639447D01*
X119694718Y-93524890D01*
X119659886Y-93490058D01*
X119857809Y-93357809D01*
X119880918Y-93323223D01*
X146393035Y-93323223D01*
X146420222Y-93893454D01*
X146586136Y-94294005D01*
X146832255Y-94368139D01*
X147660395Y-93540000D01*
X148019605Y-93540000D01*
X148847745Y-94368139D01*
X149093864Y-94294005D01*
X149286965Y-93756777D01*
X149259778Y-93186546D01*
X149093864Y-92785995D01*
X148847745Y-92711861D01*
X148019605Y-93540000D01*
X147660395Y-93540000D01*
X146832255Y-92711861D01*
X146586136Y-92785995D01*
X146393035Y-93323223D01*
X119880918Y-93323223D01*
X119998157Y-93147765D01*
X120047440Y-92900000D01*
X120047440Y-91100000D01*
X119998157Y-90852235D01*
X119857809Y-90642191D01*
X119647765Y-90501843D01*
X119400000Y-90452560D01*
X117600000Y-90452560D01*
X117352235Y-90501843D01*
X117142191Y-90642191D01*
X117001843Y-90852235D01*
X116952560Y-91100000D01*
X106547440Y-91100000D01*
X106498157Y-90852235D01*
X106357809Y-90642191D01*
X106147765Y-90501843D01*
X105900000Y-90452560D01*
X104100000Y-90452560D01*
X103852235Y-90501843D01*
X103642191Y-90642191D01*
X103501843Y-90852235D01*
X103452560Y-91100000D01*
X97710000Y-91100000D01*
X97710000Y-67854561D01*
X146405000Y-67854561D01*
X146405000Y-68425439D01*
X146623466Y-68952862D01*
X147027138Y-69356534D01*
X147156216Y-69410000D01*
X147027138Y-69463466D01*
X146623466Y-69867138D01*
X146405000Y-70394561D01*
X146405000Y-70965439D01*
X146623466Y-71492862D01*
X147027138Y-71896534D01*
X147156216Y-71950000D01*
X147027138Y-72003466D01*
X146623466Y-72407138D01*
X146405000Y-72934561D01*
X146405000Y-73505439D01*
X146623466Y-74032862D01*
X147027138Y-74436534D01*
X147156216Y-74490000D01*
X147027138Y-74543466D01*
X146623466Y-74947138D01*
X146405000Y-75474561D01*
X146405000Y-76045439D01*
X146623466Y-76572862D01*
X147027138Y-76976534D01*
X147156216Y-77030000D01*
X147027138Y-77083466D01*
X146623466Y-77487138D01*
X146405000Y-78014561D01*
X146405000Y-78585439D01*
X146623466Y-79112862D01*
X147027138Y-79516534D01*
X147156216Y-79570000D01*
X147027138Y-79623466D01*
X146623466Y-80027138D01*
X146405000Y-80554561D01*
X146405000Y-81125439D01*
X146623466Y-81652862D01*
X147027138Y-82056534D01*
X147156216Y-82110000D01*
X147027138Y-82163466D01*
X146623466Y-82567138D01*
X146405000Y-83094561D01*
X146405000Y-83665439D01*
X146623466Y-84192862D01*
X147027138Y-84596534D01*
X147156216Y-84650000D01*
X147027138Y-84703466D01*
X146623466Y-85107138D01*
X146405000Y-85634561D01*
X146405000Y-86205439D01*
X146623466Y-86732862D01*
X147027138Y-87136534D01*
X147156216Y-87190000D01*
X147027138Y-87243466D01*
X146623466Y-87647138D01*
X146405000Y-88174561D01*
X146405000Y-88745439D01*
X146623466Y-89272862D01*
X147027138Y-89676534D01*
X147156216Y-89730000D01*
X147027138Y-89783466D01*
X146623466Y-90187138D01*
X146405000Y-90714561D01*
X146405000Y-91285439D01*
X146623466Y-91812862D01*
X147027138Y-92216534D01*
X147140583Y-92263525D01*
X147085995Y-92286136D01*
X147011861Y-92532255D01*
X147840000Y-93360395D01*
X148668139Y-92532255D01*
X148594005Y-92286136D01*
X148535552Y-92265126D01*
X148652862Y-92216534D01*
X149056534Y-91812862D01*
X149275000Y-91285439D01*
X149275000Y-90714561D01*
X149056534Y-90187138D01*
X148652862Y-89783466D01*
X148523784Y-89730000D01*
X148652862Y-89676534D01*
X149056534Y-89272862D01*
X149275000Y-88745439D01*
X149275000Y-88174561D01*
X149056534Y-87647138D01*
X148652862Y-87243466D01*
X148523784Y-87190000D01*
X148652862Y-87136534D01*
X149056534Y-86732862D01*
X149275000Y-86205439D01*
X149275000Y-85634561D01*
X149056534Y-85107138D01*
X148652862Y-84703466D01*
X148523784Y-84650000D01*
X148652862Y-84596534D01*
X149056534Y-84192862D01*
X149275000Y-83665439D01*
X149275000Y-83094561D01*
X149056534Y-82567138D01*
X148652862Y-82163466D01*
X148523784Y-82110000D01*
X148652862Y-82056534D01*
X149056534Y-81652862D01*
X149275000Y-81125439D01*
X149275000Y-80554561D01*
X149056534Y-80027138D01*
X148652862Y-79623466D01*
X148523784Y-79570000D01*
X148652862Y-79516534D01*
X149056534Y-79112862D01*
X149275000Y-78585439D01*
X149275000Y-78014561D01*
X149056534Y-77487138D01*
X148652862Y-77083466D01*
X148523784Y-77030000D01*
X148652862Y-76976534D01*
X149056534Y-76572862D01*
X149275000Y-76045439D01*
X149275000Y-75474561D01*
X149056534Y-74947138D01*
X148652862Y-74543466D01*
X148523784Y-74490000D01*
X148652862Y-74436534D01*
X149056534Y-74032862D01*
X149275000Y-73505439D01*
X149275000Y-72934561D01*
X149056534Y-72407138D01*
X148652862Y-72003466D01*
X148523784Y-71950000D01*
X148652862Y-71896534D01*
X149043896Y-71505500D01*
X152338068Y-71505500D01*
X161674500Y-80841933D01*
X161674501Y-92418694D01*
X161658328Y-92500000D01*
X161722397Y-92822094D01*
X161904849Y-93095152D01*
X161973775Y-93141207D01*
X165438793Y-96606226D01*
X165484848Y-96675152D01*
X165553773Y-96721206D01*
X165757906Y-96857604D01*
X166080000Y-96921672D01*
X166161303Y-96905500D01*
X166956104Y-96905500D01*
X167347138Y-97296534D01*
X167476216Y-97350000D01*
X167347138Y-97403466D01*
X166943466Y-97807138D01*
X166725000Y-98334561D01*
X166725000Y-98905439D01*
X166943466Y-99432862D01*
X167245866Y-99735262D01*
X167112235Y-99761843D01*
X166902191Y-99902191D01*
X166761843Y-100112235D01*
X166712560Y-100360000D01*
X166712560Y-101960000D01*
X166761843Y-102207765D01*
X166902191Y-102417809D01*
X167112235Y-102558157D01*
X167360000Y-102607440D01*
X168960000Y-102607440D01*
X169207765Y-102558157D01*
X169417809Y-102417809D01*
X169558157Y-102207765D01*
X169607440Y-101960000D01*
X169607440Y-100360000D01*
X169558157Y-100112235D01*
X169417809Y-99902191D01*
X169207765Y-99761843D01*
X169074134Y-99735262D01*
X169376534Y-99432862D01*
X169595000Y-98905439D01*
X169595000Y-98334561D01*
X169376534Y-97807138D01*
X168972862Y-97403466D01*
X168843784Y-97350000D01*
X168972862Y-97296534D01*
X169376534Y-96892862D01*
X169595000Y-96365439D01*
X169595000Y-95794561D01*
X169376534Y-95267138D01*
X168972862Y-94863466D01*
X168843784Y-94810000D01*
X168972862Y-94756534D01*
X169376534Y-94352862D01*
X169595000Y-93825439D01*
X169595000Y-93254561D01*
X169376534Y-92727138D01*
X168972862Y-92323466D01*
X168843784Y-92270000D01*
X168972862Y-92216534D01*
X169376534Y-91812862D01*
X169595000Y-91285439D01*
X169595000Y-90714561D01*
X169376534Y-90187138D01*
X168972862Y-89783466D01*
X168843784Y-89730000D01*
X168972862Y-89676534D01*
X169376534Y-89272862D01*
X169595000Y-88745439D01*
X169595000Y-88174561D01*
X169376534Y-87647138D01*
X168972862Y-87243466D01*
X168843784Y-87190000D01*
X168972862Y-87136534D01*
X169376534Y-86732862D01*
X169595000Y-86205439D01*
X169595000Y-85634561D01*
X169376534Y-85107138D01*
X168972862Y-84703466D01*
X168843784Y-84650000D01*
X168972862Y-84596534D01*
X169376534Y-84192862D01*
X169595000Y-83665439D01*
X169595000Y-83094561D01*
X169376534Y-82567138D01*
X168972862Y-82163466D01*
X168843784Y-82110000D01*
X168972862Y-82056534D01*
X169376534Y-81652862D01*
X169595000Y-81125439D01*
X169595000Y-80554561D01*
X169376534Y-80027138D01*
X168972862Y-79623466D01*
X168843784Y-79570000D01*
X168972862Y-79516534D01*
X169376534Y-79112862D01*
X169595000Y-78585439D01*
X169595000Y-78014561D01*
X169376534Y-77487138D01*
X168972862Y-77083466D01*
X168843784Y-77030000D01*
X168972862Y-76976534D01*
X169376534Y-76572862D01*
X169595000Y-76045439D01*
X169595000Y-75474561D01*
X169376534Y-74947138D01*
X168972862Y-74543466D01*
X168843784Y-74490000D01*
X168972862Y-74436534D01*
X169376534Y-74032862D01*
X169595000Y-73505439D01*
X169595000Y-72934561D01*
X169376534Y-72407138D01*
X168972862Y-72003466D01*
X168843784Y-71950000D01*
X168972862Y-71896534D01*
X169376534Y-71492862D01*
X169595000Y-70965439D01*
X169595000Y-70394561D01*
X169376534Y-69867138D01*
X168972862Y-69463466D01*
X168843784Y-69410000D01*
X168972862Y-69356534D01*
X169376534Y-68952862D01*
X169595000Y-68425439D01*
X169595000Y-67854561D01*
X169376534Y-67327138D01*
X168972862Y-66923466D01*
X168445439Y-66705000D01*
X167874561Y-66705000D01*
X167347138Y-66923466D01*
X166943466Y-67327138D01*
X166725000Y-67854561D01*
X166725000Y-68425439D01*
X166943466Y-68952862D01*
X167347138Y-69356534D01*
X167476216Y-69410000D01*
X167347138Y-69463466D01*
X166943466Y-69867138D01*
X166725000Y-70394561D01*
X166725000Y-70965439D01*
X166943466Y-71492862D01*
X167347138Y-71896534D01*
X167476216Y-71950000D01*
X167347138Y-72003466D01*
X166943466Y-72407138D01*
X166725000Y-72934561D01*
X166725000Y-73505439D01*
X166943466Y-74032862D01*
X167347138Y-74436534D01*
X167476216Y-74490000D01*
X167347138Y-74543466D01*
X166943466Y-74947138D01*
X166725000Y-75474561D01*
X166725000Y-76045439D01*
X166943466Y-76572862D01*
X167347138Y-76976534D01*
X167476216Y-77030000D01*
X167347138Y-77083466D01*
X166943466Y-77487138D01*
X166725000Y-78014561D01*
X166725000Y-78585439D01*
X166943466Y-79112862D01*
X167347138Y-79516534D01*
X167476216Y-79570000D01*
X167347138Y-79623466D01*
X166943466Y-80027138D01*
X166725000Y-80554561D01*
X166725000Y-81125439D01*
X166943466Y-81652862D01*
X167347138Y-82056534D01*
X167476216Y-82110000D01*
X167347138Y-82163466D01*
X166943466Y-82567138D01*
X166725000Y-83094561D01*
X166725000Y-83665439D01*
X166943466Y-84192862D01*
X167347138Y-84596534D01*
X167476216Y-84650000D01*
X167347138Y-84703466D01*
X166943466Y-85107138D01*
X166725000Y-85634561D01*
X166725000Y-86205439D01*
X166943466Y-86732862D01*
X167347138Y-87136534D01*
X167476216Y-87190000D01*
X167347138Y-87243466D01*
X166943466Y-87647138D01*
X166725000Y-88174561D01*
X166725000Y-88745439D01*
X166943466Y-89272862D01*
X167347138Y-89676534D01*
X167476216Y-89730000D01*
X167347138Y-89783466D01*
X166943466Y-90187138D01*
X166725000Y-90714561D01*
X166725000Y-91285439D01*
X166943466Y-91812862D01*
X167347138Y-92216534D01*
X167476216Y-92270000D01*
X167347138Y-92323466D01*
X166943466Y-92727138D01*
X166725000Y-93254561D01*
X166725000Y-93825439D01*
X166943466Y-94352862D01*
X167347138Y-94756534D01*
X167476216Y-94810000D01*
X167347138Y-94863466D01*
X166956104Y-95254500D01*
X166421933Y-95254500D01*
X163325500Y-92158068D01*
X163325500Y-80581297D01*
X163341671Y-80499999D01*
X163325500Y-80418701D01*
X163325500Y-80418697D01*
X163277604Y-80177906D01*
X163095152Y-79904848D01*
X163026226Y-79858793D01*
X153321209Y-70153777D01*
X153275152Y-70084848D01*
X153002094Y-69902396D01*
X152761303Y-69854500D01*
X152761301Y-69854500D01*
X152680000Y-69838328D01*
X152598699Y-69854500D01*
X149043896Y-69854500D01*
X148652862Y-69463466D01*
X148523784Y-69410000D01*
X148652862Y-69356534D01*
X149056534Y-68952862D01*
X149275000Y-68425439D01*
X149275000Y-67854561D01*
X149056534Y-67327138D01*
X148652862Y-66923466D01*
X148125439Y-66705000D01*
X147554561Y-66705000D01*
X147027138Y-66923466D01*
X146623466Y-67327138D01*
X146405000Y-67854561D01*
X97710000Y-67854561D01*
X97710000Y-56258654D01*
X102273000Y-56258654D01*
X102273000Y-57741346D01*
X102840402Y-59111176D01*
X103888824Y-60159598D01*
X105258654Y-60727000D01*
X106741346Y-60727000D01*
X108111176Y-60159598D01*
X109159598Y-59111176D01*
X109727000Y-57741346D01*
X109727000Y-56258654D01*
X160273000Y-56258654D01*
X160273000Y-57741346D01*
X160840402Y-59111176D01*
X161888824Y-60159598D01*
X163258654Y-60727000D01*
X164741346Y-60727000D01*
X166111176Y-60159598D01*
X167159598Y-59111176D01*
X167727000Y-57741346D01*
X167727000Y-56258654D01*
X167159598Y-54888824D01*
X166111176Y-53840402D01*
X164741346Y-53273000D01*
X163258654Y-53273000D01*
X161888824Y-53840402D01*
X160840402Y-54888824D01*
X160273000Y-56258654D01*
X109727000Y-56258654D01*
X109159598Y-54888824D01*
X108111176Y-53840402D01*
X106741346Y-53273000D01*
X105258654Y-53273000D01*
X103888824Y-53840402D01*
X102840402Y-54888824D01*
X102273000Y-56258654D01*
X97710000Y-56258654D01*
X97710000Y-50500000D01*
X110816655Y-50500000D01*
X110836560Y-50600069D01*
X110836560Y-51897000D01*
X110885843Y-52144765D01*
X111026191Y-52354809D01*
X111236235Y-52495157D01*
X111484000Y-52544440D01*
X113516000Y-52544440D01*
X113763765Y-52495157D01*
X113973809Y-52354809D01*
X114109991Y-52151000D01*
X116428968Y-52151000D01*
X116855813Y-52436208D01*
X117500000Y-52564345D01*
X118144188Y-52436208D01*
X118571033Y-52151000D01*
X121428968Y-52151000D01*
X121855813Y-52436208D01*
X122500000Y-52564345D01*
X123144188Y-52436208D01*
X123690305Y-52071305D01*
X124055208Y-51525188D01*
X124151000Y-51043608D01*
X124151000Y-50662609D01*
X124158083Y-50627000D01*
X125849000Y-50627000D01*
X125849000Y-51008000D01*
X126023276Y-51630143D01*
X126422370Y-52138236D01*
X126985523Y-52454926D01*
X127117056Y-52486975D01*
X127373000Y-52367836D01*
X127373000Y-50627000D01*
X127627000Y-50627000D01*
X127627000Y-52367836D01*
X127882944Y-52486975D01*
X128014477Y-52454926D01*
X128577630Y-52138236D01*
X128976724Y-51630143D01*
X129151000Y-51008000D01*
X129151000Y-50627000D01*
X130849000Y-50627000D01*
X130849000Y-51008000D01*
X131023276Y-51630143D01*
X131422370Y-52138236D01*
X131985523Y-52454926D01*
X132117056Y-52486975D01*
X132373000Y-52367836D01*
X132373000Y-50627000D01*
X132627000Y-50627000D01*
X132627000Y-52367836D01*
X132882944Y-52486975D01*
X133014477Y-52454926D01*
X133577630Y-52138236D01*
X133976724Y-51630143D01*
X134151000Y-51008000D01*
X134151000Y-50627000D01*
X135849000Y-50627000D01*
X135849000Y-51008000D01*
X136023276Y-51630143D01*
X136422370Y-52138236D01*
X136985523Y-52454926D01*
X137117056Y-52486975D01*
X137373000Y-52367836D01*
X137373000Y-50627000D01*
X137627000Y-50627000D01*
X137627000Y-52367836D01*
X137882944Y-52486975D01*
X138014477Y-52454926D01*
X138577630Y-52138236D01*
X138976724Y-51630143D01*
X139151000Y-51008000D01*
X139151000Y-50627000D01*
X137627000Y-50627000D01*
X137373000Y-50627000D01*
X135849000Y-50627000D01*
X134151000Y-50627000D01*
X132627000Y-50627000D01*
X132373000Y-50627000D01*
X130849000Y-50627000D01*
X129151000Y-50627000D01*
X127627000Y-50627000D01*
X127373000Y-50627000D01*
X125849000Y-50627000D01*
X124158083Y-50627000D01*
X124183345Y-50500000D01*
X124151000Y-50337391D01*
X124151000Y-49992000D01*
X125849000Y-49992000D01*
X125849000Y-50373000D01*
X127373000Y-50373000D01*
X127373000Y-48632164D01*
X127627000Y-48632164D01*
X127627000Y-50373000D01*
X129151000Y-50373000D01*
X129151000Y-49992000D01*
X130849000Y-49992000D01*
X130849000Y-50373000D01*
X132373000Y-50373000D01*
X132373000Y-48632164D01*
X132627000Y-48632164D01*
X132627000Y-50373000D01*
X134151000Y-50373000D01*
X134151000Y-49992000D01*
X135849000Y-49992000D01*
X135849000Y-50373000D01*
X137373000Y-50373000D01*
X137373000Y-48632164D01*
X137627000Y-48632164D01*
X137627000Y-50373000D01*
X139151000Y-50373000D01*
X139151000Y-49992000D01*
X139141026Y-49956392D01*
X140849000Y-49956392D01*
X140849000Y-51043609D01*
X140944792Y-51525188D01*
X141309696Y-52071305D01*
X141855813Y-52436208D01*
X142500000Y-52564345D01*
X143144188Y-52436208D01*
X143690305Y-52071305D01*
X144055208Y-51525188D01*
X144151000Y-51043608D01*
X144151000Y-49956392D01*
X145849000Y-49956392D01*
X145849000Y-51043609D01*
X145944792Y-51525188D01*
X146309696Y-52071305D01*
X146855813Y-52436208D01*
X147500000Y-52564345D01*
X148144188Y-52436208D01*
X148690305Y-52071305D01*
X149055208Y-51525188D01*
X149151000Y-51043608D01*
X149151000Y-49956392D01*
X150849000Y-49956392D01*
X150849000Y-51043609D01*
X150944792Y-51525188D01*
X151309696Y-52071305D01*
X151855813Y-52436208D01*
X152500000Y-52564345D01*
X153144188Y-52436208D01*
X153690305Y-52071305D01*
X154055208Y-51525188D01*
X154151000Y-51043608D01*
X154151000Y-49956392D01*
X155849000Y-49956392D01*
X155849000Y-51043609D01*
X155944792Y-51525188D01*
X156309696Y-52071305D01*
X156855813Y-52436208D01*
X157500000Y-52564345D01*
X158144188Y-52436208D01*
X158690305Y-52071305D01*
X159055208Y-51525188D01*
X159151000Y-51043608D01*
X159151000Y-49956391D01*
X159055208Y-49474812D01*
X158690305Y-48928695D01*
X158144187Y-48563792D01*
X157500000Y-48435655D01*
X156855812Y-48563792D01*
X156309695Y-48928695D01*
X155944792Y-49474813D01*
X155849000Y-49956392D01*
X154151000Y-49956392D01*
X154151000Y-49956391D01*
X154055208Y-49474812D01*
X153690305Y-48928695D01*
X153144187Y-48563792D01*
X152500000Y-48435655D01*
X151855812Y-48563792D01*
X151309695Y-48928695D01*
X150944792Y-49474813D01*
X150849000Y-49956392D01*
X149151000Y-49956392D01*
X149151000Y-49956391D01*
X149055208Y-49474812D01*
X148690305Y-48928695D01*
X148144187Y-48563792D01*
X147500000Y-48435655D01*
X146855812Y-48563792D01*
X146309695Y-48928695D01*
X145944792Y-49474813D01*
X145849000Y-49956392D01*
X144151000Y-49956392D01*
X144151000Y-49956391D01*
X144055208Y-49474812D01*
X143690305Y-48928695D01*
X143144187Y-48563792D01*
X142500000Y-48435655D01*
X141855812Y-48563792D01*
X141309695Y-48928695D01*
X140944792Y-49474813D01*
X140849000Y-49956392D01*
X139141026Y-49956392D01*
X138976724Y-49369857D01*
X138577630Y-48861764D01*
X138014477Y-48545074D01*
X137882944Y-48513025D01*
X137627000Y-48632164D01*
X137373000Y-48632164D01*
X137117056Y-48513025D01*
X136985523Y-48545074D01*
X136422370Y-48861764D01*
X136023276Y-49369857D01*
X135849000Y-49992000D01*
X134151000Y-49992000D01*
X133976724Y-49369857D01*
X133577630Y-48861764D01*
X133014477Y-48545074D01*
X132882944Y-48513025D01*
X132627000Y-48632164D01*
X132373000Y-48632164D01*
X132117056Y-48513025D01*
X131985523Y-48545074D01*
X131422370Y-48861764D01*
X131023276Y-49369857D01*
X130849000Y-49992000D01*
X129151000Y-49992000D01*
X128976724Y-49369857D01*
X128577630Y-48861764D01*
X128014477Y-48545074D01*
X127882944Y-48513025D01*
X127627000Y-48632164D01*
X127373000Y-48632164D01*
X127117056Y-48513025D01*
X126985523Y-48545074D01*
X126422370Y-48861764D01*
X126023276Y-49369857D01*
X125849000Y-49992000D01*
X124151000Y-49992000D01*
X124151000Y-49956391D01*
X124055208Y-49474812D01*
X123690305Y-48928695D01*
X123144187Y-48563792D01*
X122500000Y-48435655D01*
X121855812Y-48563792D01*
X121428967Y-48849000D01*
X118571033Y-48849000D01*
X118144187Y-48563792D01*
X117500000Y-48435655D01*
X116855812Y-48563792D01*
X116428967Y-48849000D01*
X114109991Y-48849000D01*
X113973809Y-48645191D01*
X113763765Y-48504843D01*
X113516000Y-48455560D01*
X111484000Y-48455560D01*
X111236235Y-48504843D01*
X111026191Y-48645191D01*
X110885843Y-48855235D01*
X110836560Y-49103000D01*
X110836560Y-50399931D01*
X110816655Y-50500000D01*
X97710000Y-50500000D01*
X97710000Y-45710000D01*
X172290000Y-45710000D01*
X172290001Y-124290000D01*
X172290001Y-124290000D01*
G37*
X172290001Y-124290000D02*
X97710000Y-124290000D01*
X97710000Y-122305000D01*
X111289000Y-122305000D01*
X111289000Y-122805000D01*
X111458252Y-123401886D01*
X111843039Y-123888567D01*
X112384780Y-124190950D01*
X112501412Y-124218586D01*
X112747000Y-124098584D01*
X112747000Y-122305000D01*
X113001000Y-122305000D01*
X113001000Y-124098584D01*
X113246588Y-124218586D01*
X113363220Y-124190950D01*
X113904961Y-123888567D01*
X114289748Y-123401886D01*
X114459000Y-122805000D01*
X114459000Y-122305000D01*
X113001000Y-122305000D01*
X112747000Y-122305000D01*
X111289000Y-122305000D01*
X97710000Y-122305000D01*
X97710000Y-122128000D01*
X114646560Y-122128000D01*
X114646560Y-123428000D01*
X114695843Y-123675765D01*
X114836191Y-123885809D01*
X115046235Y-124026157D01*
X115294000Y-124075440D01*
X116594000Y-124075440D01*
X116841765Y-124026157D01*
X117051809Y-123885809D01*
X117192157Y-123675765D01*
X117241440Y-123428000D01*
X117241440Y-123232631D01*
X117354629Y-123505894D01*
X117716106Y-123867371D01*
X118188398Y-124063000D01*
X118699602Y-124063000D01*
X119171894Y-123867371D01*
X119444000Y-123595265D01*
X119716106Y-123867371D01*
X120188398Y-124063000D01*
X120699602Y-124063000D01*
X121171894Y-123867371D01*
X121362249Y-123677016D01*
X122224590Y-123677016D01*
X122280271Y-123907611D01*
X122763078Y-124075622D01*
X123273428Y-124046083D01*
X123607729Y-123907611D01*
X123663410Y-123677016D01*
X122944000Y-122957605D01*
X122224590Y-123677016D01*
X121362249Y-123677016D01*
X121533371Y-123505894D01*
X121687169Y-123134592D01*
X121814389Y-123441729D01*
X122044984Y-123497410D01*
X122764395Y-122778000D01*
X123123605Y-122778000D01*
X123843016Y-123497410D01*
X124073611Y-123441729D01*
X124241622Y-122958922D01*
X124212083Y-122448572D01*
X124152614Y-122305000D01*
X124429000Y-122305000D01*
X124429000Y-122805000D01*
X124598252Y-123401886D01*
X124983039Y-123888567D01*
X125524780Y-124190950D01*
X125641412Y-124218586D01*
X125887000Y-124098584D01*
X125887000Y-122305000D01*
X126141000Y-122305000D01*
X126141000Y-124098584D01*
X126386588Y-124218586D01*
X126503220Y-124190950D01*
X127044961Y-123888567D01*
X127429748Y-123401886D01*
X127599000Y-122805000D01*
X127599000Y-122305000D01*
X126141000Y-122305000D01*
X125887000Y-122305000D01*
X124429000Y-122305000D01*
X124152614Y-122305000D01*
X124073611Y-122114271D01*
X123843016Y-122058590D01*
X123123605Y-122778000D01*
X122764395Y-122778000D01*
X122044984Y-122058590D01*
X121814389Y-122114271D01*
X121698223Y-122448094D01*
X121533371Y-122050106D01*
X121362249Y-121878984D01*
X122224590Y-121878984D01*
X122944000Y-122598395D01*
X123663410Y-121878984D01*
X123607729Y-121648389D01*
X123327866Y-121551000D01*
X124429000Y-121551000D01*
X124429000Y-122051000D01*
X125887000Y-122051000D01*
X125887000Y-120257416D01*
X126141000Y-120257416D01*
X126141000Y-122051000D01*
X127599000Y-122051000D01*
X127599000Y-121551000D01*
X127429748Y-120954114D01*
X127044961Y-120467433D01*
X126503220Y-120165050D01*
X126386588Y-120137414D01*
X126141000Y-120257416D01*
X125887000Y-120257416D01*
X125641412Y-120137414D01*
X125524780Y-120165050D01*
X124983039Y-120467433D01*
X124598252Y-120954114D01*
X124429000Y-121551000D01*
X123327866Y-121551000D01*
X123124922Y-121480378D01*
X122614572Y-121509917D01*
X122280271Y-121648389D01*
X122224590Y-121878984D01*
X121362249Y-121878984D01*
X121171894Y-121688629D01*
X120699602Y-121493000D01*
X120188398Y-121493000D01*
X119716106Y-121688629D01*
X119444000Y-121960735D01*
X119171894Y-121688629D01*
X118699602Y-121493000D01*
X118188398Y-121493000D01*
X117716106Y-121688629D01*
X117354629Y-122050106D01*
X117241440Y-122323369D01*
X117241440Y-122128000D01*
X117192157Y-121880235D01*
X117051809Y-121670191D01*
X116841765Y-121529843D01*
X116594000Y-121480560D01*
X115294000Y-121480560D01*
X115046235Y-121529843D01*
X114836191Y-121670191D01*
X114695843Y-121880235D01*
X114646560Y-122128000D01*
X97710000Y-122128000D01*
X97710000Y-117258654D01*
X102273000Y-117258654D01*
X102273000Y-118741346D01*
X102840402Y-120111176D01*
X103888824Y-121159598D01*
X105258654Y-121727000D01*
X106741346Y-121727000D01*
X107166247Y-121551000D01*
X111289000Y-121551000D01*
X111289000Y-122051000D01*
X112747000Y-122051000D01*
X112747000Y-120257416D01*
X113001000Y-120257416D01*
X113001000Y-122051000D01*
X114459000Y-122051000D01*
X114459000Y-121551000D01*
X114289748Y-120954114D01*
X113904961Y-120467433D01*
X113363220Y-120165050D01*
X113246588Y-120137414D01*
X113001000Y-120257416D01*
X112747000Y-120257416D01*
X112501412Y-120137414D01*
X112384780Y-120165050D01*
X111843039Y-120467433D01*
X111458252Y-120954114D01*
X111289000Y-121551000D01*
X107166247Y-121551000D01*
X108111176Y-121159598D01*
X109159598Y-120111176D01*
X109727000Y-118741346D01*
X109727000Y-118370588D01*
X117403414Y-118370588D01*
X117431050Y-118487220D01*
X117733433Y-119028961D01*
X118220114Y-119413748D01*
X118817000Y-119583000D01*
X119317000Y-119583000D01*
X119317000Y-118125000D01*
X119571000Y-118125000D01*
X119571000Y-119583000D01*
X120071000Y-119583000D01*
X120667886Y-119413748D01*
X121154567Y-119028961D01*
X121456950Y-118487220D01*
X121484586Y-118370588D01*
X121364584Y-118125000D01*
X119571000Y-118125000D01*
X119317000Y-118125000D01*
X117523416Y-118125000D01*
X117403414Y-118370588D01*
X109727000Y-118370588D01*
X109727000Y-117625412D01*
X117403414Y-117625412D01*
X117523416Y-117871000D01*
X119317000Y-117871000D01*
X119317000Y-116413000D01*
X119571000Y-116413000D01*
X119571000Y-117871000D01*
X121364584Y-117871000D01*
X121484586Y-117625412D01*
X121456950Y-117508780D01*
X121317338Y-117258654D01*
X160273000Y-117258654D01*
X160273000Y-118741346D01*
X160840402Y-120111176D01*
X161888824Y-121159598D01*
X163258654Y-121727000D01*
X164741346Y-121727000D01*
X166111176Y-121159598D01*
X167159598Y-120111176D01*
X167727000Y-118741346D01*
X167727000Y-117258654D01*
X167159598Y-115888824D01*
X166111176Y-114840402D01*
X164741346Y-114273000D01*
X163258654Y-114273000D01*
X161888824Y-114840402D01*
X160840402Y-115888824D01*
X160273000Y-117258654D01*
X121317338Y-117258654D01*
X121154567Y-116967039D01*
X120667886Y-116582252D01*
X120071000Y-116413000D01*
X119571000Y-116413000D01*
X119317000Y-116413000D01*
X118817000Y-116413000D01*
X118220114Y-116582252D01*
X117733433Y-116967039D01*
X117431050Y-117508780D01*
X117403414Y-117625412D01*
X109727000Y-117625412D01*
X109727000Y-117258654D01*
X109159598Y-115888824D01*
X108111176Y-114840402D01*
X106741346Y-114273000D01*
X105258654Y-114273000D01*
X103888824Y-114840402D01*
X102840402Y-115888824D01*
X102273000Y-117258654D01*
X97710000Y-117258654D01*
X97710000Y-96774670D01*
X103465000Y-96774670D01*
X103465000Y-97385330D01*
X103698690Y-97949507D01*
X104130493Y-98381310D01*
X104694670Y-98615000D01*
X105305330Y-98615000D01*
X105869507Y-98381310D01*
X106301310Y-97949507D01*
X106535000Y-97385330D01*
X106535000Y-96774670D01*
X116965000Y-96774670D01*
X116965000Y-97385330D01*
X117198690Y-97949507D01*
X117547500Y-98298317D01*
X117547501Y-99906185D01*
X117528840Y-100000000D01*
X117602765Y-100371646D01*
X117602766Y-100371647D01*
X117813287Y-100686714D01*
X117892817Y-100739854D01*
X118920147Y-101767186D01*
X118973286Y-101846714D01*
X119052814Y-101899853D01*
X119288353Y-102057235D01*
X119660000Y-102131160D01*
X119753810Y-102112500D01*
X146763104Y-102112500D01*
X147027138Y-102376534D01*
X147554561Y-102595000D01*
X148125439Y-102595000D01*
X148652862Y-102376534D01*
X149056534Y-101972862D01*
X149275000Y-101445439D01*
X149275000Y-100874561D01*
X149056534Y-100347138D01*
X148652862Y-99943466D01*
X148523784Y-99890000D01*
X148652862Y-99836534D01*
X149056534Y-99432862D01*
X149275000Y-98905439D01*
X149275000Y-98334561D01*
X149056534Y-97807138D01*
X148652862Y-97403466D01*
X148523784Y-97350000D01*
X148652862Y-97296534D01*
X149056534Y-96892862D01*
X149275000Y-96365439D01*
X149275000Y-95794561D01*
X149056534Y-95267138D01*
X148652862Y-94863466D01*
X148539417Y-94816475D01*
X148594005Y-94793864D01*
X148668139Y-94547745D01*
X147840000Y-93719605D01*
X147011861Y-94547745D01*
X147085995Y-94793864D01*
X147144448Y-94814874D01*
X147027138Y-94863466D01*
X146623466Y-95267138D01*
X146405000Y-95794561D01*
X146405000Y-96365439D01*
X146623466Y-96892862D01*
X147027138Y-97296534D01*
X147156216Y-97350000D01*
X147027138Y-97403466D01*
X146623466Y-97807138D01*
X146405000Y-98334561D01*
X146405000Y-98905439D01*
X146623466Y-99432862D01*
X147027138Y-99836534D01*
X147156216Y-99890000D01*
X147027138Y-99943466D01*
X146763104Y-100207500D01*
X120054538Y-100207500D01*
X119452500Y-99605462D01*
X119452500Y-98298317D01*
X119801310Y-97949507D01*
X120035000Y-97385330D01*
X120035000Y-96774670D01*
X119801310Y-96210493D01*
X119369507Y-95778690D01*
X119349885Y-95770562D01*
X119400554Y-95620159D01*
X118500000Y-94719605D01*
X117599446Y-95620159D01*
X117650115Y-95770562D01*
X117630493Y-95778690D01*
X117198690Y-96210493D01*
X116965000Y-96774670D01*
X106535000Y-96774670D01*
X106301310Y-96210493D01*
X105869507Y-95778690D01*
X105849885Y-95770562D01*
X105900554Y-95620159D01*
X105000000Y-94719605D01*
X104099446Y-95620159D01*
X104150115Y-95770562D01*
X104130493Y-95778690D01*
X103698690Y-96210493D01*
X103465000Y-96774670D01*
X97710000Y-96774670D01*
X97710000Y-91100000D01*
X103452560Y-91100000D01*
X103452560Y-92900000D01*
X103501843Y-93147765D01*
X103642191Y-93357809D01*
X103840114Y-93490058D01*
X103805282Y-93524890D01*
X103919839Y-93639447D01*
X103663357Y-93725852D01*
X103453542Y-94299336D01*
X103479161Y-94909460D01*
X103663357Y-95354148D01*
X103919841Y-95440554D01*
X104820395Y-94540000D01*
X104806253Y-94525858D01*
X104985858Y-94346253D01*
X105000000Y-94360395D01*
X105014143Y-94346253D01*
X105193748Y-94525858D01*
X105179605Y-94540000D01*
X106080159Y-95440554D01*
X106336643Y-95354148D01*
X106546458Y-94780664D01*
X106520839Y-94170540D01*
X106336643Y-93725852D01*
X106080161Y-93639447D01*
X106194718Y-93524890D01*
X106159886Y-93490058D01*
X106357809Y-93357809D01*
X106498157Y-93147765D01*
X106547440Y-92900000D01*
X106547440Y-91100000D01*
X116952560Y-91100000D01*
X116952560Y-92900000D01*
X117001843Y-93147765D01*
X117142191Y-93357809D01*
X117340114Y-93490058D01*
X117305282Y-93524890D01*
X117419839Y-93639447D01*
X117163357Y-93725852D01*
X116953542Y-94299336D01*
X116979161Y-94909460D01*
X117163357Y-95354148D01*
X117419841Y-95440554D01*
X118320395Y-94540000D01*
X118306253Y-94525858D01*
X118485858Y-94346253D01*
X118500000Y-94360395D01*
X118514143Y-94346253D01*
X118693748Y-94525858D01*
X118679605Y-94540000D01*
X119580159Y-95440554D01*
X119836643Y-95354148D01*
X120046458Y-94780664D01*
X120020839Y-94170540D01*
X119836643Y-93725852D01*
X119580161Y-93639447D01*
X119694718Y-93524890D01*
X119659886Y-93490058D01*
X119857809Y-93357809D01*
X119880918Y-93323223D01*
X146393035Y-93323223D01*
X146420222Y-93893454D01*
X146586136Y-94294005D01*
X146832255Y-94368139D01*
X147660395Y-93540000D01*
X148019605Y-93540000D01*
X148847745Y-94368139D01*
X149093864Y-94294005D01*
X149286965Y-93756777D01*
X149259778Y-93186546D01*
X149093864Y-92785995D01*
X148847745Y-92711861D01*
X148019605Y-93540000D01*
X147660395Y-93540000D01*
X146832255Y-92711861D01*
X146586136Y-92785995D01*
X146393035Y-93323223D01*
X119880918Y-93323223D01*
X119998157Y-93147765D01*
X120047440Y-92900000D01*
X120047440Y-91100000D01*
X119998157Y-90852235D01*
X119857809Y-90642191D01*
X119647765Y-90501843D01*
X119400000Y-90452560D01*
X117600000Y-90452560D01*
X117352235Y-90501843D01*
X117142191Y-90642191D01*
X117001843Y-90852235D01*
X116952560Y-91100000D01*
X106547440Y-91100000D01*
X106498157Y-90852235D01*
X106357809Y-90642191D01*
X106147765Y-90501843D01*
X105900000Y-90452560D01*
X104100000Y-90452560D01*
X103852235Y-90501843D01*
X103642191Y-90642191D01*
X103501843Y-90852235D01*
X103452560Y-91100000D01*
X97710000Y-91100000D01*
X97710000Y-67854561D01*
X146405000Y-67854561D01*
X146405000Y-68425439D01*
X146623466Y-68952862D01*
X147027138Y-69356534D01*
X147156216Y-69410000D01*
X147027138Y-69463466D01*
X146623466Y-69867138D01*
X146405000Y-70394561D01*
X146405000Y-70965439D01*
X146623466Y-71492862D01*
X147027138Y-71896534D01*
X147156216Y-71950000D01*
X147027138Y-72003466D01*
X146623466Y-72407138D01*
X146405000Y-72934561D01*
X146405000Y-73505439D01*
X146623466Y-74032862D01*
X147027138Y-74436534D01*
X147156216Y-74490000D01*
X147027138Y-74543466D01*
X146623466Y-74947138D01*
X146405000Y-75474561D01*
X146405000Y-76045439D01*
X146623466Y-76572862D01*
X147027138Y-76976534D01*
X147156216Y-77030000D01*
X147027138Y-77083466D01*
X146623466Y-77487138D01*
X146405000Y-78014561D01*
X146405000Y-78585439D01*
X146623466Y-79112862D01*
X147027138Y-79516534D01*
X147156216Y-79570000D01*
X147027138Y-79623466D01*
X146623466Y-80027138D01*
X146405000Y-80554561D01*
X146405000Y-81125439D01*
X146623466Y-81652862D01*
X147027138Y-82056534D01*
X147156216Y-82110000D01*
X147027138Y-82163466D01*
X146623466Y-82567138D01*
X146405000Y-83094561D01*
X146405000Y-83665439D01*
X146623466Y-84192862D01*
X147027138Y-84596534D01*
X147156216Y-84650000D01*
X147027138Y-84703466D01*
X146623466Y-85107138D01*
X146405000Y-85634561D01*
X146405000Y-86205439D01*
X146623466Y-86732862D01*
X147027138Y-87136534D01*
X147156216Y-87190000D01*
X147027138Y-87243466D01*
X146623466Y-87647138D01*
X146405000Y-88174561D01*
X146405000Y-88745439D01*
X146623466Y-89272862D01*
X147027138Y-89676534D01*
X147156216Y-89730000D01*
X147027138Y-89783466D01*
X146623466Y-90187138D01*
X146405000Y-90714561D01*
X146405000Y-91285439D01*
X146623466Y-91812862D01*
X147027138Y-92216534D01*
X147140583Y-92263525D01*
X147085995Y-92286136D01*
X147011861Y-92532255D01*
X147840000Y-93360395D01*
X148668139Y-92532255D01*
X148594005Y-92286136D01*
X148535552Y-92265126D01*
X148652862Y-92216534D01*
X149056534Y-91812862D01*
X149275000Y-91285439D01*
X149275000Y-90714561D01*
X149056534Y-90187138D01*
X148652862Y-89783466D01*
X148523784Y-89730000D01*
X148652862Y-89676534D01*
X149056534Y-89272862D01*
X149275000Y-88745439D01*
X149275000Y-88174561D01*
X149056534Y-87647138D01*
X148652862Y-87243466D01*
X148523784Y-87190000D01*
X148652862Y-87136534D01*
X149056534Y-86732862D01*
X149275000Y-86205439D01*
X149275000Y-85634561D01*
X149056534Y-85107138D01*
X148652862Y-84703466D01*
X148523784Y-84650000D01*
X148652862Y-84596534D01*
X149056534Y-84192862D01*
X149275000Y-83665439D01*
X149275000Y-83094561D01*
X149056534Y-82567138D01*
X148652862Y-82163466D01*
X148523784Y-82110000D01*
X148652862Y-82056534D01*
X149056534Y-81652862D01*
X149275000Y-81125439D01*
X149275000Y-80554561D01*
X149056534Y-80027138D01*
X148652862Y-79623466D01*
X148523784Y-79570000D01*
X148652862Y-79516534D01*
X149056534Y-79112862D01*
X149275000Y-78585439D01*
X149275000Y-78014561D01*
X149056534Y-77487138D01*
X148652862Y-77083466D01*
X148523784Y-77030000D01*
X148652862Y-76976534D01*
X149056534Y-76572862D01*
X149275000Y-76045439D01*
X149275000Y-75474561D01*
X149056534Y-74947138D01*
X148652862Y-74543466D01*
X148523784Y-74490000D01*
X148652862Y-74436534D01*
X149056534Y-74032862D01*
X149275000Y-73505439D01*
X149275000Y-72934561D01*
X149056534Y-72407138D01*
X148652862Y-72003466D01*
X148523784Y-71950000D01*
X148652862Y-71896534D01*
X149043896Y-71505500D01*
X152338068Y-71505500D01*
X161674500Y-80841933D01*
X161674501Y-92418694D01*
X161658328Y-92500000D01*
X161722397Y-92822094D01*
X161904849Y-93095152D01*
X161973775Y-93141207D01*
X165438793Y-96606226D01*
X165484848Y-96675152D01*
X165553773Y-96721206D01*
X165757906Y-96857604D01*
X166080000Y-96921672D01*
X166161303Y-96905500D01*
X166956104Y-96905500D01*
X167347138Y-97296534D01*
X167476216Y-97350000D01*
X167347138Y-97403466D01*
X166943466Y-97807138D01*
X166725000Y-98334561D01*
X166725000Y-98905439D01*
X166943466Y-99432862D01*
X167245866Y-99735262D01*
X167112235Y-99761843D01*
X166902191Y-99902191D01*
X166761843Y-100112235D01*
X166712560Y-100360000D01*
X166712560Y-101960000D01*
X166761843Y-102207765D01*
X166902191Y-102417809D01*
X167112235Y-102558157D01*
X167360000Y-102607440D01*
X168960000Y-102607440D01*
X169207765Y-102558157D01*
X169417809Y-102417809D01*
X169558157Y-102207765D01*
X169607440Y-101960000D01*
X169607440Y-100360000D01*
X169558157Y-100112235D01*
X169417809Y-99902191D01*
X169207765Y-99761843D01*
X169074134Y-99735262D01*
X169376534Y-99432862D01*
X169595000Y-98905439D01*
X169595000Y-98334561D01*
X169376534Y-97807138D01*
X168972862Y-97403466D01*
X168843784Y-97350000D01*
X168972862Y-97296534D01*
X169376534Y-96892862D01*
X169595000Y-96365439D01*
X169595000Y-95794561D01*
X169376534Y-95267138D01*
X168972862Y-94863466D01*
X168843784Y-94810000D01*
X168972862Y-94756534D01*
X169376534Y-94352862D01*
X169595000Y-93825439D01*
X169595000Y-93254561D01*
X169376534Y-92727138D01*
X168972862Y-92323466D01*
X168843784Y-92270000D01*
X168972862Y-92216534D01*
X169376534Y-91812862D01*
X169595000Y-91285439D01*
X169595000Y-90714561D01*
X169376534Y-90187138D01*
X168972862Y-89783466D01*
X168843784Y-89730000D01*
X168972862Y-89676534D01*
X169376534Y-89272862D01*
X169595000Y-88745439D01*
X169595000Y-88174561D01*
X169376534Y-87647138D01*
X168972862Y-87243466D01*
X168843784Y-87190000D01*
X168972862Y-87136534D01*
X169376534Y-86732862D01*
X169595000Y-86205439D01*
X169595000Y-85634561D01*
X169376534Y-85107138D01*
X168972862Y-84703466D01*
X168843784Y-84650000D01*
X168972862Y-84596534D01*
X169376534Y-84192862D01*
X169595000Y-83665439D01*
X169595000Y-83094561D01*
X169376534Y-82567138D01*
X168972862Y-82163466D01*
X168843784Y-82110000D01*
X168972862Y-82056534D01*
X169376534Y-81652862D01*
X169595000Y-81125439D01*
X169595000Y-80554561D01*
X169376534Y-80027138D01*
X168972862Y-79623466D01*
X168843784Y-79570000D01*
X168972862Y-79516534D01*
X169376534Y-79112862D01*
X169595000Y-78585439D01*
X169595000Y-78014561D01*
X169376534Y-77487138D01*
X168972862Y-77083466D01*
X168843784Y-77030000D01*
X168972862Y-76976534D01*
X169376534Y-76572862D01*
X169595000Y-76045439D01*
X169595000Y-75474561D01*
X169376534Y-74947138D01*
X168972862Y-74543466D01*
X168843784Y-74490000D01*
X168972862Y-74436534D01*
X169376534Y-74032862D01*
X169595000Y-73505439D01*
X169595000Y-72934561D01*
X169376534Y-72407138D01*
X168972862Y-72003466D01*
X168843784Y-71950000D01*
X168972862Y-71896534D01*
X169376534Y-71492862D01*
X169595000Y-70965439D01*
X169595000Y-70394561D01*
X169376534Y-69867138D01*
X168972862Y-69463466D01*
X168843784Y-69410000D01*
X168972862Y-69356534D01*
X169376534Y-68952862D01*
X169595000Y-68425439D01*
X169595000Y-67854561D01*
X169376534Y-67327138D01*
X168972862Y-66923466D01*
X168445439Y-66705000D01*
X167874561Y-66705000D01*
X167347138Y-66923466D01*
X166943466Y-67327138D01*
X166725000Y-67854561D01*
X166725000Y-68425439D01*
X166943466Y-68952862D01*
X167347138Y-69356534D01*
X167476216Y-69410000D01*
X167347138Y-69463466D01*
X166943466Y-69867138D01*
X166725000Y-70394561D01*
X166725000Y-70965439D01*
X166943466Y-71492862D01*
X167347138Y-71896534D01*
X167476216Y-71950000D01*
X167347138Y-72003466D01*
X166943466Y-72407138D01*
X166725000Y-72934561D01*
X166725000Y-73505439D01*
X166943466Y-74032862D01*
X167347138Y-74436534D01*
X167476216Y-74490000D01*
X167347138Y-74543466D01*
X166943466Y-74947138D01*
X166725000Y-75474561D01*
X166725000Y-76045439D01*
X166943466Y-76572862D01*
X167347138Y-76976534D01*
X167476216Y-77030000D01*
X167347138Y-77083466D01*
X166943466Y-77487138D01*
X166725000Y-78014561D01*
X166725000Y-78585439D01*
X166943466Y-79112862D01*
X167347138Y-79516534D01*
X167476216Y-79570000D01*
X167347138Y-79623466D01*
X166943466Y-80027138D01*
X166725000Y-80554561D01*
X166725000Y-81125439D01*
X166943466Y-81652862D01*
X167347138Y-82056534D01*
X167476216Y-82110000D01*
X167347138Y-82163466D01*
X166943466Y-82567138D01*
X166725000Y-83094561D01*
X166725000Y-83665439D01*
X166943466Y-84192862D01*
X167347138Y-84596534D01*
X167476216Y-84650000D01*
X167347138Y-84703466D01*
X166943466Y-85107138D01*
X166725000Y-85634561D01*
X166725000Y-86205439D01*
X166943466Y-86732862D01*
X167347138Y-87136534D01*
X167476216Y-87190000D01*
X167347138Y-87243466D01*
X166943466Y-87647138D01*
X166725000Y-88174561D01*
X166725000Y-88745439D01*
X166943466Y-89272862D01*
X167347138Y-89676534D01*
X167476216Y-89730000D01*
X167347138Y-89783466D01*
X166943466Y-90187138D01*
X166725000Y-90714561D01*
X166725000Y-91285439D01*
X166943466Y-91812862D01*
X167347138Y-92216534D01*
X167476216Y-92270000D01*
X167347138Y-92323466D01*
X166943466Y-92727138D01*
X166725000Y-93254561D01*
X166725000Y-93825439D01*
X166943466Y-94352862D01*
X167347138Y-94756534D01*
X167476216Y-94810000D01*
X167347138Y-94863466D01*
X166956104Y-95254500D01*
X166421933Y-95254500D01*
X163325500Y-92158068D01*
X163325500Y-80581297D01*
X163341671Y-80499999D01*
X163325500Y-80418701D01*
X163325500Y-80418697D01*
X163277604Y-80177906D01*
X163095152Y-79904848D01*
X163026226Y-79858793D01*
X153321209Y-70153777D01*
X153275152Y-70084848D01*
X153002094Y-69902396D01*
X152761303Y-69854500D01*
X152761301Y-69854500D01*
X152680000Y-69838328D01*
X152598699Y-69854500D01*
X149043896Y-69854500D01*
X148652862Y-69463466D01*
X148523784Y-69410000D01*
X148652862Y-69356534D01*
X149056534Y-68952862D01*
X149275000Y-68425439D01*
X149275000Y-67854561D01*
X149056534Y-67327138D01*
X148652862Y-66923466D01*
X148125439Y-66705000D01*
X147554561Y-66705000D01*
X147027138Y-66923466D01*
X146623466Y-67327138D01*
X146405000Y-67854561D01*
X97710000Y-67854561D01*
X97710000Y-56258654D01*
X102273000Y-56258654D01*
X102273000Y-57741346D01*
X102840402Y-59111176D01*
X103888824Y-60159598D01*
X105258654Y-60727000D01*
X106741346Y-60727000D01*
X108111176Y-60159598D01*
X109159598Y-59111176D01*
X109727000Y-57741346D01*
X109727000Y-56258654D01*
X160273000Y-56258654D01*
X160273000Y-57741346D01*
X160840402Y-59111176D01*
X161888824Y-60159598D01*
X163258654Y-60727000D01*
X164741346Y-60727000D01*
X166111176Y-60159598D01*
X167159598Y-59111176D01*
X167727000Y-57741346D01*
X167727000Y-56258654D01*
X167159598Y-54888824D01*
X166111176Y-53840402D01*
X164741346Y-53273000D01*
X163258654Y-53273000D01*
X161888824Y-53840402D01*
X160840402Y-54888824D01*
X160273000Y-56258654D01*
X109727000Y-56258654D01*
X109159598Y-54888824D01*
X108111176Y-53840402D01*
X106741346Y-53273000D01*
X105258654Y-53273000D01*
X103888824Y-53840402D01*
X102840402Y-54888824D01*
X102273000Y-56258654D01*
X97710000Y-56258654D01*
X97710000Y-50500000D01*
X110816655Y-50500000D01*
X110836560Y-50600069D01*
X110836560Y-51897000D01*
X110885843Y-52144765D01*
X111026191Y-52354809D01*
X111236235Y-52495157D01*
X111484000Y-52544440D01*
X113516000Y-52544440D01*
X113763765Y-52495157D01*
X113973809Y-52354809D01*
X114109991Y-52151000D01*
X116428968Y-52151000D01*
X116855813Y-52436208D01*
X117500000Y-52564345D01*
X118144188Y-52436208D01*
X118571033Y-52151000D01*
X121428968Y-52151000D01*
X121855813Y-52436208D01*
X122500000Y-52564345D01*
X123144188Y-52436208D01*
X123690305Y-52071305D01*
X124055208Y-51525188D01*
X124151000Y-51043608D01*
X124151000Y-50662609D01*
X124158083Y-50627000D01*
X125849000Y-50627000D01*
X125849000Y-51008000D01*
X126023276Y-51630143D01*
X126422370Y-52138236D01*
X126985523Y-52454926D01*
X127117056Y-52486975D01*
X127373000Y-52367836D01*
X127373000Y-50627000D01*
X127627000Y-50627000D01*
X127627000Y-52367836D01*
X127882944Y-52486975D01*
X128014477Y-52454926D01*
X128577630Y-52138236D01*
X128976724Y-51630143D01*
X129151000Y-51008000D01*
X129151000Y-50627000D01*
X130849000Y-50627000D01*
X130849000Y-51008000D01*
X131023276Y-51630143D01*
X131422370Y-52138236D01*
X131985523Y-52454926D01*
X132117056Y-52486975D01*
X132373000Y-52367836D01*
X132373000Y-50627000D01*
X132627000Y-50627000D01*
X132627000Y-52367836D01*
X132882944Y-52486975D01*
X133014477Y-52454926D01*
X133577630Y-52138236D01*
X133976724Y-51630143D01*
X134151000Y-51008000D01*
X134151000Y-50627000D01*
X135849000Y-50627000D01*
X135849000Y-51008000D01*
X136023276Y-51630143D01*
X136422370Y-52138236D01*
X136985523Y-52454926D01*
X137117056Y-52486975D01*
X137373000Y-52367836D01*
X137373000Y-50627000D01*
X137627000Y-50627000D01*
X137627000Y-52367836D01*
X137882944Y-52486975D01*
X138014477Y-52454926D01*
X138577630Y-52138236D01*
X138976724Y-51630143D01*
X139151000Y-51008000D01*
X139151000Y-50627000D01*
X137627000Y-50627000D01*
X137373000Y-50627000D01*
X135849000Y-50627000D01*
X134151000Y-50627000D01*
X132627000Y-50627000D01*
X132373000Y-50627000D01*
X130849000Y-50627000D01*
X129151000Y-50627000D01*
X127627000Y-50627000D01*
X127373000Y-50627000D01*
X125849000Y-50627000D01*
X124158083Y-50627000D01*
X124183345Y-50500000D01*
X124151000Y-50337391D01*
X124151000Y-49992000D01*
X125849000Y-49992000D01*
X125849000Y-50373000D01*
X127373000Y-50373000D01*
X127373000Y-48632164D01*
X127627000Y-48632164D01*
X127627000Y-50373000D01*
X129151000Y-50373000D01*
X129151000Y-49992000D01*
X130849000Y-49992000D01*
X130849000Y-50373000D01*
X132373000Y-50373000D01*
X132373000Y-48632164D01*
X132627000Y-48632164D01*
X132627000Y-50373000D01*
X134151000Y-50373000D01*
X134151000Y-49992000D01*
X135849000Y-49992000D01*
X135849000Y-50373000D01*
X137373000Y-50373000D01*
X137373000Y-48632164D01*
X137627000Y-48632164D01*
X137627000Y-50373000D01*
X139151000Y-50373000D01*
X139151000Y-49992000D01*
X139141026Y-49956392D01*
X140849000Y-49956392D01*
X140849000Y-51043609D01*
X140944792Y-51525188D01*
X141309696Y-52071305D01*
X141855813Y-52436208D01*
X142500000Y-52564345D01*
X143144188Y-52436208D01*
X143690305Y-52071305D01*
X144055208Y-51525188D01*
X144151000Y-51043608D01*
X144151000Y-49956392D01*
X145849000Y-49956392D01*
X145849000Y-51043609D01*
X145944792Y-51525188D01*
X146309696Y-52071305D01*
X146855813Y-52436208D01*
X147500000Y-52564345D01*
X148144188Y-52436208D01*
X148690305Y-52071305D01*
X149055208Y-51525188D01*
X149151000Y-51043608D01*
X149151000Y-49956392D01*
X150849000Y-49956392D01*
X150849000Y-51043609D01*
X150944792Y-51525188D01*
X151309696Y-52071305D01*
X151855813Y-52436208D01*
X152500000Y-52564345D01*
X153144188Y-52436208D01*
X153690305Y-52071305D01*
X154055208Y-51525188D01*
X154151000Y-51043608D01*
X154151000Y-49956392D01*
X155849000Y-49956392D01*
X155849000Y-51043609D01*
X155944792Y-51525188D01*
X156309696Y-52071305D01*
X156855813Y-52436208D01*
X157500000Y-52564345D01*
X158144188Y-52436208D01*
X158690305Y-52071305D01*
X159055208Y-51525188D01*
X159151000Y-51043608D01*
X159151000Y-49956391D01*
X159055208Y-49474812D01*
X158690305Y-48928695D01*
X158144187Y-48563792D01*
X157500000Y-48435655D01*
X156855812Y-48563792D01*
X156309695Y-48928695D01*
X155944792Y-49474813D01*
X155849000Y-49956392D01*
X154151000Y-49956392D01*
X154151000Y-49956391D01*
X154055208Y-49474812D01*
X153690305Y-48928695D01*
X153144187Y-48563792D01*
X152500000Y-48435655D01*
X151855812Y-48563792D01*
X151309695Y-48928695D01*
X150944792Y-49474813D01*
X150849000Y-49956392D01*
X149151000Y-49956392D01*
X149151000Y-49956391D01*
X149055208Y-49474812D01*
X148690305Y-48928695D01*
X148144187Y-48563792D01*
X147500000Y-48435655D01*
X146855812Y-48563792D01*
X146309695Y-48928695D01*
X145944792Y-49474813D01*
X145849000Y-49956392D01*
X144151000Y-49956392D01*
X144151000Y-49956391D01*
X144055208Y-49474812D01*
X143690305Y-48928695D01*
X143144187Y-48563792D01*
X142500000Y-48435655D01*
X141855812Y-48563792D01*
X141309695Y-48928695D01*
X140944792Y-49474813D01*
X140849000Y-49956392D01*
X139141026Y-49956392D01*
X138976724Y-49369857D01*
X138577630Y-48861764D01*
X138014477Y-48545074D01*
X137882944Y-48513025D01*
X137627000Y-48632164D01*
X137373000Y-48632164D01*
X137117056Y-48513025D01*
X136985523Y-48545074D01*
X136422370Y-48861764D01*
X136023276Y-49369857D01*
X135849000Y-49992000D01*
X134151000Y-49992000D01*
X133976724Y-49369857D01*
X133577630Y-48861764D01*
X133014477Y-48545074D01*
X132882944Y-48513025D01*
X132627000Y-48632164D01*
X132373000Y-48632164D01*
X132117056Y-48513025D01*
X131985523Y-48545074D01*
X131422370Y-48861764D01*
X131023276Y-49369857D01*
X130849000Y-49992000D01*
X129151000Y-49992000D01*
X128976724Y-49369857D01*
X128577630Y-48861764D01*
X128014477Y-48545074D01*
X127882944Y-48513025D01*
X127627000Y-48632164D01*
X127373000Y-48632164D01*
X127117056Y-48513025D01*
X126985523Y-48545074D01*
X126422370Y-48861764D01*
X126023276Y-49369857D01*
X125849000Y-49992000D01*
X124151000Y-49992000D01*
X124151000Y-49956391D01*
X124055208Y-49474812D01*
X123690305Y-48928695D01*
X123144187Y-48563792D01*
X122500000Y-48435655D01*
X121855812Y-48563792D01*
X121428967Y-48849000D01*
X118571033Y-48849000D01*
X118144187Y-48563792D01*
X117500000Y-48435655D01*
X116855812Y-48563792D01*
X116428967Y-48849000D01*
X114109991Y-48849000D01*
X113973809Y-48645191D01*
X113763765Y-48504843D01*
X113516000Y-48455560D01*
X111484000Y-48455560D01*
X111236235Y-48504843D01*
X111026191Y-48645191D01*
X110885843Y-48855235D01*
X110836560Y-49103000D01*
X110836560Y-50399931D01*
X110816655Y-50500000D01*
X97710000Y-50500000D01*
X97710000Y-45710000D01*
X172290000Y-45710000D01*
X172290001Y-124290000D01*
G04 #@! TD*
M02*
